M48
; DRILL file {KiCad 8.0.8} date 2025-04-15T16:36:04+0900
; FORMAT={-:-/ absolute / inch / decimal}
; #@! TF.CreationDate,2025-04-15T16:36:04+09:00
; #@! TF.GenerationSoftware,Kicad,Pcbnew,8.0.8
; #@! TF.FileFunction,NonPlated,1,2,NPTH
FMAT,2
INCH
; #@! TA.AperFunction,NonPlated,NPTH,ComponentDrill
T1C0.0689
; #@! TA.AperFunction,NonPlated,NPTH,ComponentDrill
T2C0.1181
; #@! TA.AperFunction,NonPlated,NPTH,ComponentDrill
T3C0.1200
; #@! TA.AperFunction,NonPlated,NPTH,ComponentDrill
T4C0.1570
%
G90
G05
T1
X1.1087Y-3.652
X1.1087Y-4.4
X1.1087Y-5.148
X1.1087Y-5.8961
X1.5087Y-3.652
X1.5087Y-4.4
X1.5087Y-5.148
X1.5087Y-5.8961
X1.8567Y-3.652
X1.8567Y-4.4
X1.8567Y-5.148
X1.8567Y-5.8961
X2.2567Y-3.652
X2.2567Y-4.4
X2.2567Y-5.148
X2.2567Y-5.8961
X2.7918Y-2.9039
X2.8853Y-5.8961
X2.9788Y-3.652
X3.0723Y-4.4
X3.1918Y-2.9039
X3.2593Y-5.148
X3.2853Y-5.8961
X3.3788Y-3.652
X3.4723Y-4.4
X3.5398Y-2.9039
X3.6593Y-5.148
X3.7268Y-5.8961
X3.9138Y-3.652
X3.9398Y-2.9039
X4.1008Y-4.4
X4.1268Y-5.8961
X4.2878Y-2.9039
X4.3138Y-3.652
X4.4748Y-5.148
X4.4748Y-5.8961
X4.5008Y-4.4
X4.6618Y-3.652
X4.6878Y-2.9039
X4.8488Y-4.4
X4.8748Y-5.148
X4.8748Y-5.8961
X5.0359Y-2.9039
X5.0618Y-3.652
X5.2229Y-5.148
X5.2488Y-4.4
X5.4099Y-3.652
X5.4359Y-2.9039
X5.5969Y-4.4
X5.6229Y-5.148
X5.7839Y-2.9039
X5.8099Y-3.652
X5.8764Y-5.8961
X5.9709Y-5.148
X5.9969Y-4.4
X6.1579Y-3.652
X6.1839Y-2.9039
X6.2764Y-5.8961
X6.3449Y-4.4
X6.3709Y-5.148
X6.5319Y-2.9039
X6.5579Y-3.652
X6.7189Y-5.148
X6.7449Y-4.4
X6.9059Y-3.652
X6.9319Y-2.9039
X7.0929Y-4.4
X7.1189Y-5.148
X7.28Y-2.9039
X7.28Y-5.8961
X7.3059Y-3.652
X7.467Y-5.148
X7.4929Y-4.4
X7.68Y-2.9039
X7.68Y-5.8961
X7.867Y-5.148
T2
X1.1587Y-4.3
X1.1587Y-5.048
X1.1587Y-5.7961
X1.4087Y-4.2
X1.4087Y-4.948
X1.4087Y-5.6961
X1.9067Y-4.3
X1.9067Y-5.048
X1.9067Y-5.7961
X2.1567Y-4.2
X2.1567Y-4.948
X2.1567Y-5.6961
X2.8418Y-2.8039
X2.9353Y-5.7961
X3.0288Y-3.552
X3.0918Y-2.7039
X3.1223Y-4.3
X3.1853Y-5.6961
X3.2788Y-3.452
X3.3093Y-5.048
X3.3723Y-4.2
X3.5593Y-4.948
X3.5898Y-2.8039
X3.7768Y-5.7961
X3.8398Y-2.7039
X3.9638Y-3.552
X4.0268Y-5.6961
X4.1508Y-4.3
X4.2138Y-3.452
X4.3378Y-2.8039
X4.4008Y-4.2
X4.5248Y-5.048
X4.5248Y-5.7961
X4.5878Y-2.7039
X4.7118Y-3.552
X4.7748Y-4.948
X4.7748Y-5.6961
X4.8988Y-4.3
X4.9618Y-3.452
X5.0859Y-2.8039
X5.1488Y-4.2
X5.2729Y-5.048
X5.3359Y-2.7039
X5.4599Y-3.552
X5.5229Y-4.948
X5.6469Y-4.3
X5.7099Y-3.452
X5.8839Y-3.1039
X5.8969Y-4.2
X5.9264Y-5.7961
X6.0209Y-5.048
X6.1339Y-3.0039
X6.1764Y-5.6961
X6.2079Y-3.552
X6.2709Y-4.948
X6.3949Y-4.3
X6.4579Y-3.452
X6.6319Y-3.1039
X6.6449Y-4.2
X6.7689Y-5.048
X6.8819Y-3.0039
X6.9559Y-3.552
X7.0189Y-4.948
X7.1429Y-4.3
X7.2059Y-3.452
X7.33Y-2.8039
X7.33Y-5.7961
X7.3929Y-4.2
X7.517Y-5.048
X7.58Y-2.7039
X7.58Y-5.6961
X7.767Y-4.948
T3
X2.9893Y-4.873
X3.9293Y-4.873
X5.6064Y-6.1711
X6.5464Y-6.1711
T4
X1.3087Y-3.652
X1.3087Y-4.4
X1.3087Y-5.148
X1.3087Y-5.8961
X2.0567Y-3.652
X2.0567Y-4.4
X2.0567Y-5.148
X2.0567Y-5.8961
X2.9893Y-5.473
X2.9918Y-2.9039
X3.0853Y-5.8961
X3.1788Y-3.652
X3.2723Y-4.4
X3.4593Y-5.148
X3.7398Y-2.9039
X3.9268Y-5.8961
X3.9293Y-5.473
X4.1138Y-3.652
X4.3008Y-4.4
X4.4878Y-2.9039
X4.6748Y-5.148
X4.6748Y-5.8961
X4.8618Y-3.652
X5.0488Y-4.4
X5.2359Y-2.9039
X5.4229Y-5.148
X5.6064Y-5.5711
X5.6099Y-3.652
X5.7969Y-4.4
X5.9839Y-2.9039
X6.0764Y-5.8961
X6.1709Y-5.148
X6.3579Y-3.652
X6.5449Y-4.4
X6.5464Y-5.5711
X6.7319Y-2.9039
X6.9189Y-5.148
X7.1059Y-3.652
X7.2929Y-4.4
X7.48Y-2.9039
X7.48Y-5.8961
X7.667Y-5.148
M30
