%TF.GenerationSoftware,KiCad,Pcbnew,8.0.8*%
%TF.CreationDate,2025-04-15T16:35:59+09:00*%
%TF.ProjectId,sswkbd_left,7373776b-6264-45f6-9c65-66742e6b6963,rev?*%
%TF.SameCoordinates,Original*%
%TF.FileFunction,Profile,NP*%
%FSLAX46Y46*%
G04 Gerber Fmt 4.6, Leading zero omitted, Abs format (unit mm)*
G04 Created by KiCad (PCBNEW 8.0.8) date 2025-04-15 16:35:59*
%MOMM*%
%LPD*%
G01*
G04 APERTURE LIST*
%TA.AperFunction,Profile*%
%ADD10C,0.050000*%
%TD*%
%TA.AperFunction,Profile*%
%ADD11C,0.100000*%
%TD*%
G04 APERTURE END LIST*
D10*
X26240750Y-158760000D02*
G75*
G02*
X24240750Y-156760000I0J2000000D01*
G01*
X24240750Y-66300000D02*
G75*
G02*
X26240750Y-64300000I2000000J0D01*
G01*
X196490750Y-156760000D02*
G75*
G02*
X194490750Y-158759950I-1999950J0D01*
G01*
X199240750Y-123760000D02*
G75*
G02*
X201240800Y-125760000I50J-2000000D01*
G01*
X201240750Y-135260000D02*
G75*
G02*
X199240750Y-137259950I-1999950J0D01*
G01*
X189740750Y-104760000D02*
G75*
G02*
X191740800Y-106760000I50J-2000000D01*
G01*
X196490750Y-78460000D02*
G75*
G02*
X194490750Y-80459950I-1999950J0D01*
G01*
X194490750Y-64300000D02*
G75*
G02*
X196490800Y-66300000I50J-2000000D01*
G01*
X155372000Y-63300000D02*
X167372000Y-63300000D01*
X55622000Y-63300000D02*
X67622000Y-63300000D01*
X26240750Y-64300000D02*
X55622000Y-64300000D01*
X24240750Y-156760000D02*
X24240750Y-66300000D01*
X194490750Y-158760000D02*
X26240750Y-158760000D01*
X186990750Y-80460000D02*
X194490750Y-80460000D01*
X196490750Y-156760000D02*
X196490750Y-137260000D01*
X201240750Y-135260000D02*
X201240750Y-125760000D01*
X194490750Y-64300000D02*
X167372000Y-64300000D01*
X155372000Y-64300000D02*
X67622000Y-64300000D01*
X189740750Y-104760000D02*
X186990750Y-104760000D01*
X196490750Y-137260000D02*
X199240750Y-137260000D01*
X167372000Y-64300000D02*
X167372000Y-63300000D01*
X55622000Y-64300000D02*
X55622000Y-63300000D01*
X199240750Y-123760000D02*
X191740750Y-123760000D01*
X191740750Y-123760000D02*
X191740750Y-106760000D01*
X67622000Y-63300000D02*
X67622000Y-64300000D01*
X155372000Y-64300000D02*
X155372000Y-63300000D01*
X196490750Y-78460000D02*
X196490750Y-66300000D01*
X186990750Y-104760000D02*
X186990750Y-80460000D01*
D11*
%TO.C,LED3*%
X31440750Y-133973000D02*
X35040750Y-133973000D01*
X31440750Y-137073000D02*
X31440750Y-133973000D01*
X35040750Y-133973000D02*
X35040750Y-137073000D01*
X35040750Y-137073000D02*
X31440750Y-137073000D01*
%TO.C,LED27*%
X145440750Y-114973000D02*
X149040750Y-114973000D01*
X145440750Y-118073000D02*
X145440750Y-114973000D01*
X149040750Y-114973000D02*
X149040750Y-118073000D01*
X149040750Y-118073000D02*
X145440750Y-118073000D01*
%TO.C,LED7*%
X50440750Y-114973000D02*
X54040750Y-114973000D01*
X50440750Y-118073000D02*
X50440750Y-114973000D01*
X54040750Y-114973000D02*
X54040750Y-118073000D01*
X54040750Y-118073000D02*
X50440750Y-118073000D01*
%TO.C,LED32*%
X173940750Y-133973000D02*
X177540750Y-133973000D01*
X173940750Y-137073000D02*
X173940750Y-133973000D01*
X177540750Y-133973000D02*
X177540750Y-137073000D01*
X177540750Y-137073000D02*
X173940750Y-137073000D01*
%TO.C,LED38*%
X188190750Y-76973000D02*
X191790750Y-76973000D01*
X188190750Y-80073000D02*
X188190750Y-76973000D01*
X191790750Y-76973000D02*
X191790750Y-80073000D01*
X191790750Y-80073000D02*
X188190750Y-80073000D01*
%TO.C,LED13*%
X76565750Y-152973000D02*
X80165750Y-152973000D01*
X76565750Y-156073000D02*
X76565750Y-152973000D01*
X80165750Y-152973000D02*
X80165750Y-156073000D01*
X80165750Y-156073000D02*
X76565750Y-156073000D01*
%TO.C,LED30*%
X159690750Y-95973000D02*
X163290750Y-95973000D01*
X159690750Y-99073000D02*
X159690750Y-95973000D01*
X163290750Y-95973000D02*
X163290750Y-99073000D01*
X163290750Y-99073000D02*
X159690750Y-99073000D01*
%TO.C,LED28*%
X131190750Y-76973000D02*
X134790750Y-76973000D01*
X131190750Y-80073000D02*
X131190750Y-76973000D01*
X134790750Y-76973000D02*
X134790750Y-80073000D01*
X134790750Y-80073000D02*
X131190750Y-80073000D01*
%TO.C,LED35*%
X178690750Y-95973000D02*
X182290750Y-95973000D01*
X178690750Y-99073000D02*
X178690750Y-95973000D01*
X182290750Y-95973000D02*
X182290750Y-99073000D01*
X182290750Y-99073000D02*
X178690750Y-99073000D01*
%TO.C,LED29*%
X150191250Y-67447000D02*
X153791250Y-67447000D01*
X150191250Y-70547000D02*
X150191250Y-67447000D01*
X153791250Y-67447000D02*
X153791250Y-70547000D01*
X153791250Y-70547000D02*
X150191250Y-70547000D01*
%TO.C,LED11*%
X81315750Y-114973000D02*
X84915750Y-114973000D01*
X81315750Y-118073000D02*
X81315750Y-114973000D01*
X84915750Y-114973000D02*
X84915750Y-118073000D01*
X84915750Y-118073000D02*
X81315750Y-118073000D01*
%TO.C,LED37*%
X169191250Y-67447000D02*
X172791250Y-67447000D01*
X169191250Y-70547000D02*
X169191250Y-67447000D01*
X172791250Y-67447000D02*
X172791250Y-70547000D01*
X172791250Y-70547000D02*
X169191250Y-70547000D01*
%TO.C,LED14*%
X97940750Y-152973000D02*
X101540750Y-152973000D01*
X97940750Y-156073000D02*
X97940750Y-152973000D01*
X101540750Y-152973000D02*
X101540750Y-156073000D01*
X101540750Y-156073000D02*
X97940750Y-156073000D01*
%TO.C,LED1*%
X31440750Y-95973000D02*
X35040750Y-95973000D01*
X31440750Y-99073000D02*
X31440750Y-95973000D01*
X35040750Y-95973000D02*
X35040750Y-99073000D01*
X35040750Y-99073000D02*
X31440750Y-99073000D01*
%TO.C,LED18*%
X102690750Y-95973000D02*
X106290750Y-95973000D01*
X102690750Y-99073000D02*
X102690750Y-95973000D01*
X106290750Y-95973000D02*
X106290750Y-99073000D01*
X106290750Y-99073000D02*
X102690750Y-99073000D01*
%TO.C,LED24*%
X152540750Y-152973000D02*
X156140750Y-152973000D01*
X152540750Y-156073000D02*
X152540750Y-152973000D01*
X156140750Y-152973000D02*
X156140750Y-156073000D01*
X156140750Y-156073000D02*
X152540750Y-156073000D01*
%TO.C,LED2*%
X31440750Y-114973000D02*
X35040750Y-114973000D01*
X31440750Y-118073000D02*
X31440750Y-114973000D01*
X35040750Y-114973000D02*
X35040750Y-118073000D01*
X35040750Y-118073000D02*
X31440750Y-118073000D01*
%TO.C,LED20*%
X112190750Y-76973000D02*
X115790750Y-76973000D01*
X112190750Y-80073000D02*
X112190750Y-76973000D01*
X115790750Y-76973000D02*
X115790750Y-80073000D01*
X115790750Y-80073000D02*
X112190750Y-80073000D01*
%TO.C,LED19*%
X93190750Y-76973000D02*
X96790750Y-76973000D01*
X93190750Y-80073000D02*
X93190750Y-76973000D01*
X96790750Y-76973000D02*
X96790750Y-80073000D01*
X96790750Y-80073000D02*
X93190750Y-80073000D01*
%TO.C,LED33*%
X188190750Y-152973000D02*
X191790750Y-152973000D01*
X188190750Y-156073000D02*
X188190750Y-152973000D01*
X191790750Y-152973000D02*
X191790750Y-156073000D01*
X191790750Y-156073000D02*
X188190750Y-156073000D01*
%TO.C,LED22*%
X126440750Y-114973000D02*
X130040750Y-114973000D01*
X126440750Y-118073000D02*
X126440750Y-114973000D01*
X130040750Y-114973000D02*
X130040750Y-118073000D01*
X130040750Y-118073000D02*
X126440750Y-118073000D01*
%TO.C,LED23*%
X135940750Y-133973000D02*
X139540750Y-133973000D01*
X135940750Y-137073000D02*
X135940750Y-133973000D01*
X139540750Y-133973000D02*
X139540750Y-137073000D01*
X139540750Y-137073000D02*
X135940750Y-137073000D01*
%TO.C,LED4*%
X31440750Y-152973000D02*
X35040750Y-152973000D01*
X31440750Y-156073000D02*
X31440750Y-152973000D01*
X35040750Y-152973000D02*
X35040750Y-156073000D01*
X35040750Y-156073000D02*
X31440750Y-156073000D01*
%TO.C,LED21*%
X121690750Y-95973000D02*
X125290750Y-95973000D01*
X121690750Y-99073000D02*
X121690750Y-95973000D01*
X125290750Y-95973000D02*
X125290750Y-99073000D01*
X125290750Y-99073000D02*
X121690750Y-99073000D01*
%TO.C,LED8*%
X50440750Y-95973000D02*
X54040750Y-95973000D01*
X50440750Y-99073000D02*
X50440750Y-95973000D01*
X54040750Y-95973000D02*
X54040750Y-99073000D01*
X54040750Y-99073000D02*
X50440750Y-99073000D01*
%TO.C,LED15*%
X116940750Y-152973000D02*
X120540750Y-152973000D01*
X116940750Y-156073000D02*
X116940750Y-152973000D01*
X120540750Y-152973000D02*
X120540750Y-156073000D01*
X120540750Y-156073000D02*
X116940750Y-156073000D01*
%TO.C,LED5*%
X50440750Y-152973000D02*
X54040750Y-152973000D01*
X50440750Y-156073000D02*
X50440750Y-152973000D01*
X54040750Y-152973000D02*
X54040750Y-156073000D01*
X54040750Y-156073000D02*
X50440750Y-156073000D01*
%TO.C,LED6*%
X50440750Y-133973000D02*
X54040750Y-133973000D01*
X50440750Y-137073000D02*
X50440750Y-133973000D01*
X54040750Y-133973000D02*
X54040750Y-137073000D01*
X54040750Y-137073000D02*
X50440750Y-137073000D01*
%TO.C,LED34*%
X192940750Y-133973000D02*
X196540750Y-133973000D01*
X192940750Y-137073000D02*
X192940750Y-133973000D01*
X196540750Y-133973000D02*
X196540750Y-137073000D01*
X196540750Y-137073000D02*
X192940750Y-137073000D01*
%TO.C,LED10*%
X78940750Y-95973000D02*
X82540750Y-95973000D01*
X78940750Y-99073000D02*
X78940750Y-95973000D01*
X82540750Y-95973000D02*
X82540750Y-99073000D01*
X82540750Y-99073000D02*
X78940750Y-99073000D01*
%TO.C,LED17*%
X107440750Y-114973000D02*
X111040750Y-114973000D01*
X107440750Y-118073000D02*
X107440750Y-114973000D01*
X111040750Y-114973000D02*
X111040750Y-118073000D01*
X111040750Y-118073000D02*
X107440750Y-118073000D01*
%TO.C,LED31*%
X164440750Y-114973000D02*
X168040750Y-114973000D01*
X164440750Y-118073000D02*
X164440750Y-114973000D01*
X168040750Y-114973000D02*
X168040750Y-118073000D01*
X168040750Y-118073000D02*
X164440750Y-118073000D01*
%TO.C,LED36*%
X183440750Y-114973000D02*
X187040750Y-114973000D01*
X183440750Y-118073000D02*
X183440750Y-114973000D01*
X187040750Y-114973000D02*
X187040750Y-118073000D01*
X187040750Y-118073000D02*
X183440750Y-118073000D01*
%TO.C,LED9*%
X74190750Y-76973000D02*
X77790750Y-76973000D01*
X74190750Y-80073000D02*
X74190750Y-76973000D01*
X77790750Y-76973000D02*
X77790750Y-80073000D01*
X77790750Y-80073000D02*
X74190750Y-80073000D01*
%TO.C,LED26*%
X140690750Y-95973000D02*
X144290750Y-95973000D01*
X140690750Y-99073000D02*
X140690750Y-95973000D01*
X144290750Y-95973000D02*
X144290750Y-99073000D01*
X144290750Y-99073000D02*
X140690750Y-99073000D01*
%TO.C,LED12*%
X86065750Y-133973000D02*
X89665750Y-133973000D01*
X86065750Y-137073000D02*
X86065750Y-133973000D01*
X89665750Y-133973000D02*
X89665750Y-137073000D01*
X89665750Y-137073000D02*
X86065750Y-137073000D01*
%TO.C,LED25*%
X154940750Y-133973000D02*
X158540750Y-133973000D01*
X154940750Y-137073000D02*
X154940750Y-133973000D01*
X158540750Y-133973000D02*
X158540750Y-137073000D01*
X158540750Y-137073000D02*
X154940750Y-137073000D01*
%TO.C,LED16*%
X116940750Y-133973000D02*
X120540750Y-133973000D01*
X116940750Y-137073000D02*
X116940750Y-133973000D01*
X120540750Y-133973000D02*
X120540750Y-137073000D01*
X120540750Y-137073000D02*
X116940750Y-137073000D01*
%TD*%
M02*
