M48
; DRILL file {KiCad 8.0.8} date 2025-04-15T16:36:04+0900
; FORMAT={-:-/ absolute / inch / decimal}
; #@! TF.CreationDate,2025-04-15T16:36:04+09:00
; #@! TF.GenerationSoftware,Kicad,Pcbnew,8.0.8
; #@! TF.FileFunction,Plated,1,2,PTH
FMAT,2
INCH
; #@! TA.AperFunction,Plated,PTH,ViaDrill
T1C0.0118
; #@! TA.AperFunction,Plated,PTH,ComponentDrill
T2C0.0320
; #@! TA.AperFunction,Plated,PTH,ComponentDrill
T3C0.0394
; #@! TA.AperFunction,Plated,PTH,ComponentDrill
T4C0.0591
%
G90
G05
T1
X0.995Y-3.07
X0.9974Y-3.165
X1.01Y-6.055
X1.0337Y-3.4385
X1.0474Y-3.356
X1.06Y-4.1127
X1.0635Y-6.1181
X1.0674Y-5.3996
X1.0891Y-4.6634
X1.1074Y-3.395
X1.11Y-3.939
X1.1363Y-3.0866
X1.14Y-4.1127
X1.15Y-2.619
X1.151Y-2.662
X1.1774Y-3.075
X1.215Y-2.8031
X1.215Y-2.8661
X1.2264Y-3.462
X1.235Y-4.07
X1.2549Y-3.4375
X1.2859Y-2.8228
X1.305Y-4.1127
X1.3362Y-3.5188
X1.3474Y-3.0543
X1.3528Y-2.8465
X1.4119Y-4.7146
X1.4164Y-3.551
X1.4178Y-6.1614
X1.4198Y-4.32
X1.4257Y-3.752
X1.4788Y-6.063
X1.5774Y-3.0343
X1.5914Y-2.9449
X1.6234Y-2.9094
X1.6634Y-2.8681
X1.6774Y-3.0143
X1.7072Y-4.7165
X1.7174Y-2.7992
X1.7249Y-4.0236
X1.735Y-4.1127
X1.7367Y-5.4902
X1.7524Y-4.752
X1.7774Y-2.9907
X1.7837Y-3.6572
X1.7837Y-4.1875
X1.7837Y-4.375
X1.7837Y-4.9365
X1.7837Y-5.1553
X1.7837Y-5.622
X1.8095Y-2.9449
X1.8174Y-4.0236
X1.8194Y-4.752
X1.8274Y-5.26
X1.845Y-5.9961
X1.8765Y-5.4213
X1.8765Y-6.0906
X1.8774Y-2.9671
X1.8774Y-3.105
X1.8922Y-5.311
X1.8922Y-5.4902
X1.9276Y-2.9094
X1.9493Y-6.1555
X1.965Y-4.6673
X1.9946Y-5.4213
X2.0812Y-2.9094
X2.1009Y-4.752
X2.1174Y-3.935
X2.1658Y-4.8012
X2.1737Y-4.0236
X2.2074Y-3.935
X2.2347Y-4.6063
X2.2524Y-4.752
X2.2564Y-5.313
X2.2662Y-3.8622
X2.2774Y-2.941
X2.366Y-2.899
X2.3674Y-3.31
X2.45Y-2.905
X2.455Y-2.845
X2.513Y-4.205
X2.552Y-4.405
X2.57Y-4.305
X2.571Y-4.0236
X2.575Y-2.781
X2.577Y-3.837
X2.6107Y-3.485
X2.6107Y-3.92
X2.6107Y-4.0689
X2.6107Y-4.622
X2.6107Y-5.22
X2.6107Y-5.32
X2.615Y-3.061
X2.6291Y-3.0029
X2.652Y-4.0236
X2.652Y-5.3465
X2.652Y-5.555
X2.652Y-5.685
X2.6811Y-3.1299
X2.715Y-2.898
X2.7461Y-3.128
X2.7579Y-4.1083
X2.7638Y-3.4882
X2.8063Y-5.6687
X2.8228Y-3.437
X2.855Y-3.65
X2.885Y-3.28
X2.885Y-3.76
X2.905Y-6.01
X2.9062Y-3.6572
X2.9075Y-3.9823
X2.9114Y-6.065
X2.9587Y-4.0689
X3.0Y-4.1875
X3.0Y-4.4375
X3.055Y-3.72
X3.0571Y-3.2343
X3.0571Y-3.4213
X3.07Y-3.985
X3.07Y-4.125
X3.1Y-3.24
X3.126Y-5.502
X3.13Y-4.752
X3.1457Y-4.5079
X3.165Y-4.0236
X3.1803Y-5.1481
X3.1875Y-4.9365
X3.2Y-5.85
X3.2025Y-4.6825
X3.205Y-4.88
X3.24Y-4.75
X3.26Y-5.265
X3.29Y-6.01
X3.35Y-5.495
X3.4449Y-3.1594
X3.4567Y-4.7047
X3.4688Y-2.878
X3.4688Y-3.3447
X3.4961Y-3.1594
X3.5768Y-5.4311
X3.66Y-5.99
X3.75Y-3.815
X3.7657Y-6.0256
X3.8012Y-4.0236
X3.815Y-3.26
X3.82Y-6.155
X3.835Y-3.3957
X3.835Y-3.471
X3.835Y-3.636
X3.835Y-4.295
X3.865Y-3.815
X3.872Y-4.0236
X3.8916Y-3.2734
X3.9488Y-3.4331
X3.95Y-3.23
X3.985Y-3.925
X3.985Y-4.4
X4.025Y-6.0
X4.0512Y-5.4331
X4.0728Y-4.7067
X4.085Y-4.195
X4.1476Y-4.7677
X4.18Y-4.665
X4.1811Y-3.1594
X4.21Y-2.878
X4.21Y-3.286
X4.2402Y-3.1575
X4.27Y-4.0689
X4.2913Y-4.7677
X4.345Y-3.1934
X4.3505Y-4.8945
X4.355Y-5.985
X4.38Y-3.155
X4.41Y-4.0689
X4.415Y-3.37
X4.45Y-3.1934
X4.46Y-4.7677
X4.4626Y-5.5079
X4.4882Y-6.1875
X4.505Y-4.725
X4.54Y-4.7677
X4.54Y-5.41
X4.545Y-3.725
X4.545Y-6.155
X4.5512Y-4.0236
X4.5839Y-3.4821
X4.585Y-3.281
X4.585Y-3.631
X4.59Y-5.58
X4.62Y-3.84
X4.6324Y-4.1274
X4.6358Y-3.3268
X4.6457Y-3.2126
X4.67Y-3.39
X4.715Y-3.24
X4.7382Y-4.7697
X4.755Y-3.96
X4.77Y-4.385
X4.77Y-4.849
X4.7894Y-5.4488
X4.795Y-4.0236
X4.83Y-4.715
X4.84Y-4.155
X4.84Y-4.7697
X4.9311Y-3.1535
X4.935Y-4.5059
X4.96Y-2.878
X4.96Y-3.326
X4.9961Y-3.1535
X5.06Y-3.13
X5.06Y-3.1934
X5.075Y-5.165
X5.1083Y-5.4429
X5.1142Y-5.5079
X5.145Y-5.144
X5.145Y-5.617
X5.1791Y-5.5079
X5.185Y-5.395
X5.1949Y-5.4409
X5.22Y-3.335
X5.3Y-3.83
X5.3071Y-4.0236
X5.33Y-3.261
X5.33Y-3.631
X5.3319Y-3.4766
X5.345Y-5.4409
X5.38Y-3.83
X5.3819Y-4.0236
X5.382Y-4.122
X5.385Y-3.1934
X5.4075Y-3.2992
X5.41Y-3.035
X5.43Y-3.915
X5.4478Y-3.1388
X5.47Y-4.455
X5.4803Y-3.2283
X5.4862Y-4.7697
X5.52Y-4.375
X5.5217Y-4.8524
X5.565Y-4.505
X5.5669Y-4.7697
X5.61Y-3.23
X5.61Y-3.335
X5.615Y-4.65
X5.66Y-3.15
X5.66Y-3.1934
X5.705Y-3.36
X5.72Y-2.985
X5.755Y-2.775
X5.755Y-4.15
X5.76Y-4.0827
X5.7835Y-2.985
X5.795Y-5.645
X5.7953Y-2.6614
X5.835Y-5.685
X5.855Y-4.0827
X5.9081Y-4.7283
X5.9094Y-6.0118
X5.935Y-6.155
X5.937Y-5.4882
X5.96Y-4.8091
X5.96Y-5.575
X5.9724Y-5.5335
X6.02Y-4.88
X6.03Y-5.685
X6.035Y-5.41
X6.04Y-2.5827
X6.06Y-3.74
X6.0669Y-4.0236
X6.085Y-4.8091
X6.095Y-2.65
X6.095Y-3.626
X6.1025Y-5.7575
X6.12Y-3.0964
X6.12Y-3.1934
X6.1299Y-4.0236
X6.13Y-3.725
X6.1437Y-3.2874
X6.15Y-4.0827
X6.175Y-2.825
X6.19Y-6.015
X6.205Y-4.2
X6.22Y-2.775
X6.2461Y-3.2618
X6.265Y-4.375
X6.28Y-2.75
X6.295Y-5.575
X6.3071Y-4.6457
X6.36Y-5.43
X6.372Y-4.7697
X6.385Y-5.335
X6.42Y-4.0827
X6.4252Y-3.18
X6.4528Y-5.4567
X6.4665Y-4.7697
X6.47Y-2.74
X6.4941Y-3.18
X6.5Y-3.34
X6.51Y-3.76
X6.54Y-4.845
X6.545Y-2.74
X6.58Y-4.929
X6.59Y-3.31
X6.6164Y-5.4682
X6.64Y-5.119
X6.655Y-4.845
X6.66Y-5.632
X6.665Y-3.2441
X6.6909Y-5.4665
X6.7028Y-5.3937
X6.705Y-5.255
X6.74Y-3.13
X6.77Y-3.035
X6.7975Y-3.6125
X6.8051Y-4.0531
X6.81Y-3.36
X6.835Y-3.315
X6.8563Y-3.2441
X6.87Y-3.42
X6.875Y-3.31
X6.885Y-5.4547
X6.9223Y-3.19
X6.945Y-3.905
X6.945Y-4.18
X6.955Y-2.705
X6.96Y-3.395
X6.9862Y-3.3274
X7.0Y-4.39
X7.015Y-3.085
X7.0186Y-3.2864
X7.055Y-2.805
X7.08Y-3.351
X7.0975Y-5.6525
X7.11Y-5.26
X7.12Y-3.315
X7.16Y-4.205
X7.18Y-4.675
X7.1909Y-4.7795
X7.205Y-2.868
X7.21Y-6.0189
X7.2402Y-3.1535
X7.28Y-4.804
X7.305Y-6.11
X7.3583Y-5.5689
X7.385Y-5.119
X7.385Y-5.687
X7.42Y-4.87
X7.46Y-4.666
X7.51Y-5.41
X7.58Y-3.005
X7.645Y-6.01
X7.66Y-2.605
X7.765Y-5.255
T2
X1.1774Y-2.7436
X1.1774Y-3.3429
X1.2774Y-2.7436
X1.2774Y-3.3429
X1.3774Y-2.7436
X1.3774Y-3.3429
X1.4774Y-2.7436
X1.4774Y-3.3429
X1.5774Y-2.7436
X1.5774Y-3.3429
X1.6274Y-3.5963
X1.6274Y-3.8963
X1.6274Y-4.3453
X1.6274Y-4.6453
X1.6274Y-5.0943
X1.6274Y-5.3943
X1.6274Y-5.8423
X1.6274Y-6.1423
X1.6774Y-2.7436
X1.6774Y-3.3429
X1.7774Y-2.7436
X1.7774Y-3.3429
X1.8774Y-2.7436
X1.8774Y-3.3429
X1.9774Y-2.7436
X1.9774Y-3.3429
X2.0774Y-2.7436
X2.0774Y-3.3429
X2.1774Y-2.7436
X2.1774Y-3.3429
X2.2774Y-2.7436
X2.2774Y-3.3429
X2.3755Y-3.5963
X2.3755Y-3.8963
X2.3755Y-4.3453
X2.3755Y-4.6453
X2.3755Y-5.0943
X2.3755Y-5.3943
X2.3755Y-5.8423
X2.3755Y-6.1423
X3.3115Y-2.8482
X3.3115Y-3.1482
X3.404Y-5.8423
X3.404Y-6.1423
X3.4975Y-3.5963
X3.4975Y-3.8963
X3.591Y-4.3453
X3.591Y-4.6453
X3.778Y-5.0943
X3.778Y-5.3943
X4.0595Y-2.8482
X4.0595Y-3.1482
X4.2465Y-5.8423
X4.2465Y-6.1423
X4.4335Y-3.5963
X4.4335Y-3.8963
X4.6206Y-4.3453
X4.6206Y-4.6453
X4.8076Y-2.8482
X4.8076Y-3.1482
X4.9946Y-5.0943
X4.9946Y-5.3943
X4.9946Y-5.8423
X4.9946Y-6.1423
X5.1816Y-3.5963
X5.1816Y-3.8963
X5.3686Y-4.3453
X5.3686Y-4.6453
X5.5556Y-2.8482
X5.5556Y-3.1482
X5.655Y-2.7849
X5.655Y-3.0849
X5.7426Y-5.0943
X5.7426Y-5.3943
X5.9296Y-3.5963
X5.9296Y-3.8963
X6.1166Y-4.3453
X6.1166Y-4.6453
X6.3961Y-5.8423
X6.3961Y-6.1423
X6.4016Y-2.7791
X6.4016Y-3.0791
X6.4906Y-5.0943
X6.4906Y-5.3943
X6.6776Y-3.5963
X6.6776Y-3.8963
X6.7636Y-3.6996
X6.7636Y-3.9996
X6.8646Y-4.3453
X6.8646Y-4.6453
X6.9498Y-4.4465
X6.9498Y-4.7465
X7.0746Y-5.8463
X7.0746Y-6.1463
X7.136Y-2.9506
X7.136Y-3.2506
X7.2387Y-5.0943
X7.2387Y-5.3943
X7.3244Y-5.1657
X7.3244Y-5.4657
T3
X1.002Y-2.6906
X1.002Y-2.7906
X1.002Y-2.8906
X1.002Y-2.9906
X2.2842Y-2.6589
X2.3842Y-2.6589
X2.4842Y-2.6589
X2.5842Y-2.6589
X2.857Y-4.105
X2.857Y-4.205
X2.857Y-4.305
X2.857Y-4.405
X6.2089Y-2.6628
X6.3089Y-2.6628
X6.4089Y-2.6628
X6.5089Y-2.6628
X7.0368Y-2.6181
X7.1368Y-2.6181
T4
X1.1587Y-3.552
X1.4087Y-3.452
X1.9067Y-3.552
X2.1567Y-3.452
M30
