%TF.GenerationSoftware,KiCad,Pcbnew,8.0.8*%
%TF.CreationDate,2025-04-15T16:35:59+09:00*%
%TF.ProjectId,sswkbd_left,7373776b-6264-45f6-9c65-66742e6b6963,rev?*%
%TF.SameCoordinates,Original*%
%TF.FileFunction,Soldermask,Top*%
%TF.FilePolarity,Negative*%
%FSLAX46Y46*%
G04 Gerber Fmt 4.6, Leading zero omitted, Abs format (unit mm)*
G04 Created by KiCad (PCBNEW 8.0.8) date 2025-04-15 16:35:59*
%MOMM*%
%LPD*%
G01*
G04 APERTURE LIST*
%ADD10R,1.397000X1.397000*%
%ADD11R,0.950000X1.300000*%
%ADD12C,1.397000*%
%ADD13C,1.750000*%
%ADD14C,3.000000*%
%ADD15C,3.987800*%
%ADD16C,3.048000*%
%ADD17R,1.700000X1.700000*%
%ADD18O,1.700000X1.700000*%
%ADD19C,1.524000*%
G04 APERTURE END LIST*
D10*
%TO.C,D67*%
X86461999Y-156014950D03*
D11*
X86461999Y-153979950D03*
X86461999Y-150429950D03*
D12*
X86461999Y-148394950D03*
%TD*%
D10*
%TO.C,D50*%
X60336999Y-137014950D03*
D11*
X60336999Y-134979950D03*
X60336999Y-131429950D03*
D12*
X60336999Y-129394950D03*
%TD*%
D13*
%TO.C,SW6*%
X176071250Y-73760000D03*
D14*
X174801250Y-76300000D03*
D15*
X170991250Y-73760000D03*
D14*
X168451250Y-78840000D03*
D13*
X165911250Y-73760000D03*
%TD*%
D10*
%TO.C,D38*%
X155361999Y-117989950D03*
D11*
X155361999Y-115954950D03*
X155361999Y-112404950D03*
D12*
X155361999Y-110369950D03*
%TD*%
D10*
%TO.C,D52*%
X126861999Y-137014950D03*
D11*
X126861999Y-134979950D03*
X126861999Y-131429950D03*
D12*
X126861999Y-129394950D03*
%TD*%
D10*
%TO.C,D39*%
X174361999Y-117989950D03*
D11*
X174361999Y-115954950D03*
X174361999Y-112404950D03*
D12*
X174361999Y-110369950D03*
%TD*%
D13*
%TO.C,SW50*%
X47160750Y-130760000D03*
D14*
X48430750Y-128220000D03*
D15*
X52240750Y-130760000D03*
D14*
X54780750Y-125680000D03*
D13*
X57320750Y-130760000D03*
%TD*%
D10*
%TO.C,D4*%
X141111999Y-79964950D03*
D11*
X141111999Y-77929950D03*
X141111999Y-74379950D03*
D12*
X141111999Y-72344950D03*
%TD*%
D13*
%TO.C,SW2*%
X89910750Y-73760000D03*
D14*
X91180750Y-71220000D03*
D15*
X94990750Y-73760000D03*
D14*
X97530750Y-68680000D03*
D13*
X100070750Y-73760000D03*
%TD*%
%TO.C,SW22*%
X156410750Y-92760000D03*
D14*
X157680750Y-90220000D03*
D15*
X161490750Y-92760000D03*
D14*
X164030750Y-87680000D03*
D13*
X166570750Y-92760000D03*
%TD*%
%TO.C,SW53*%
X132660750Y-130760000D03*
D14*
X133930750Y-128220000D03*
D15*
X137740750Y-130760000D03*
D14*
X140280750Y-125680000D03*
D13*
X142820750Y-130760000D03*
%TD*%
%TO.C,SW66*%
X47160750Y-149760000D03*
D14*
X48430750Y-147220000D03*
D15*
X52240750Y-149760000D03*
D14*
X54780750Y-144680000D03*
D13*
X57320750Y-149760000D03*
%TD*%
D10*
%TO.C,D1*%
X84111999Y-79964950D03*
D11*
X84111999Y-77929950D03*
X84111999Y-74379950D03*
D12*
X84111999Y-72344950D03*
%TD*%
D13*
%TO.C,SW18*%
X75660750Y-92760000D03*
D14*
X76930750Y-90220000D03*
D15*
X80740750Y-92760000D03*
D14*
X83280750Y-87680000D03*
D13*
X85820750Y-92760000D03*
%TD*%
D10*
%TO.C,D51*%
X95961999Y-137014950D03*
D11*
X95961999Y-134979950D03*
X95961999Y-131429950D03*
D12*
X95961999Y-129394950D03*
%TD*%
D13*
%TO.C,SW67*%
X73285750Y-149760000D03*
D14*
X74555750Y-147220000D03*
D15*
X78365750Y-149760000D03*
D14*
X80905750Y-144680000D03*
D13*
X83445750Y-149760000D03*
%TD*%
D10*
%TO.C,D3*%
X122111999Y-79964950D03*
D11*
X122111999Y-77929950D03*
X122111999Y-74379950D03*
D12*
X122111999Y-72344950D03*
%TD*%
D15*
%TO.C,SW70*%
X142402750Y-141505000D03*
D16*
X142402750Y-156745000D03*
D13*
X149260750Y-149760000D03*
D14*
X150530750Y-147220000D03*
D15*
X154340750Y-149760000D03*
D14*
X156880750Y-144680000D03*
D13*
X159420750Y-149760000D03*
D15*
X166278750Y-141505000D03*
D16*
X166278750Y-156745000D03*
%TD*%
D13*
%TO.C,SW68*%
X94660750Y-149760000D03*
D14*
X95930750Y-147220000D03*
D15*
X99740750Y-149760000D03*
D14*
X102280750Y-144680000D03*
D13*
X104820750Y-149760000D03*
%TD*%
%TO.C,SW23*%
X175410750Y-92760000D03*
D14*
X176680750Y-90220000D03*
D15*
X180490750Y-92760000D03*
D14*
X183030750Y-87680000D03*
D13*
X185570750Y-92760000D03*
%TD*%
D10*
%TO.C,D23*%
X171795000Y-101590000D03*
D11*
X171795000Y-99555000D03*
X171795000Y-96005000D03*
D12*
X171795000Y-93970000D03*
%TD*%
D10*
%TO.C,D33*%
X41336999Y-117989950D03*
D11*
X41336999Y-115954950D03*
X41336999Y-112404950D03*
D12*
X41336999Y-110369950D03*
%TD*%
D10*
%TO.C,D65*%
X41336999Y-156014950D03*
D11*
X41336999Y-153979950D03*
X41336999Y-150429950D03*
D12*
X41336999Y-148394950D03*
%TD*%
D10*
%TO.C,D70*%
X162461999Y-156014950D03*
D11*
X162461999Y-153979950D03*
X162461999Y-150429950D03*
D12*
X162461999Y-148394950D03*
%TD*%
D13*
%TO.C,SW16*%
X28160750Y-92760000D03*
D15*
X33240750Y-92760000D03*
D13*
X38320750Y-92760000D03*
%TD*%
%TO.C,SW65*%
X28160750Y-149760000D03*
D14*
X29430750Y-147220000D03*
D15*
X33240750Y-149760000D03*
D14*
X35780750Y-144680000D03*
D13*
X38320750Y-149760000D03*
%TD*%
D17*
%TO.C,SW80*%
X181275000Y-66500000D03*
D18*
X178735000Y-66500000D03*
%TD*%
D10*
%TO.C,D6*%
X162600000Y-78210000D03*
D11*
X162600000Y-76175000D03*
X162600000Y-72625000D03*
D12*
X162600000Y-70590000D03*
%TD*%
D17*
%TO.C,USB_PRO_MICRO1*%
X72567800Y-104267000D03*
D18*
X72567800Y-106807000D03*
X72567800Y-109347000D03*
X72567800Y-111887000D03*
%TD*%
D10*
%TO.C,D36*%
X117361999Y-117989950D03*
D11*
X117361999Y-115954950D03*
X117361999Y-112404950D03*
D12*
X117361999Y-110369950D03*
%TD*%
D13*
%TO.C,SW38*%
X142160750Y-111760000D03*
D14*
X143430750Y-109220000D03*
D15*
X147240750Y-111760000D03*
D14*
X149780750Y-106680000D03*
D13*
X152320750Y-111760000D03*
%TD*%
%TO.C,SW69*%
X113660750Y-149760000D03*
D14*
X114930750Y-147220000D03*
D15*
X118740750Y-149760000D03*
D14*
X121280750Y-144680000D03*
D13*
X123820750Y-149760000D03*
%TD*%
D10*
%TO.C,D69*%
X126861999Y-156014950D03*
D11*
X126861999Y-153979950D03*
X126861999Y-150429950D03*
D12*
X126861999Y-148394950D03*
%TD*%
D16*
%TO.C,SW51*%
X75927750Y-123775000D03*
D15*
X75927750Y-139015000D03*
D13*
X82785750Y-130760000D03*
D14*
X84055750Y-128220000D03*
D15*
X87865750Y-130760000D03*
D14*
X90405750Y-125680000D03*
D13*
X92945750Y-130760000D03*
D16*
X99803750Y-123775000D03*
D15*
X99803750Y-139015000D03*
%TD*%
D10*
%TO.C,D20*%
X131611999Y-98964950D03*
D11*
X131611999Y-96929950D03*
X131611999Y-93379950D03*
D12*
X131611999Y-91344950D03*
%TD*%
D13*
%TO.C,SW49*%
X28160750Y-130760000D03*
D14*
X29430750Y-128220000D03*
D15*
X33240750Y-130760000D03*
D14*
X35780750Y-125680000D03*
D13*
X38320750Y-130760000D03*
%TD*%
%TO.C,SW56*%
X189660750Y-130760000D03*
D14*
X190930750Y-128220000D03*
D15*
X194740750Y-130760000D03*
D14*
X197280750Y-125680000D03*
D13*
X199820750Y-130760000D03*
%TD*%
%TO.C,SW7*%
X184910750Y-73760000D03*
D14*
X186180750Y-71220000D03*
D15*
X189990750Y-73760000D03*
D14*
X192530750Y-68680000D03*
D13*
X195070750Y-73760000D03*
%TD*%
%TO.C,SW39*%
X161160750Y-111760000D03*
D14*
X162430750Y-109220000D03*
D15*
X166240750Y-111760000D03*
D14*
X168780750Y-106680000D03*
D13*
X171320750Y-111760000D03*
%TD*%
%TO.C,SW4*%
X127910750Y-73760000D03*
D14*
X129180750Y-71220000D03*
D15*
X132990750Y-73760000D03*
D14*
X135530750Y-68680000D03*
D13*
X138070750Y-73760000D03*
%TD*%
D10*
%TO.C,D22*%
X169611999Y-98964950D03*
D11*
X169611999Y-96929950D03*
X169611999Y-93379950D03*
D12*
X169611999Y-91344950D03*
%TD*%
D10*
%TO.C,D16*%
X41336999Y-98964950D03*
D11*
X41336999Y-96929950D03*
X41336999Y-93379950D03*
D12*
X41336999Y-91344950D03*
%TD*%
D13*
%TO.C,SW17*%
X47160750Y-92760000D03*
D15*
X52240750Y-92760000D03*
D13*
X57320750Y-92760000D03*
%TD*%
D10*
%TO.C,D49*%
X41336999Y-137014950D03*
D11*
X41336999Y-134979950D03*
X41336999Y-131429950D03*
D12*
X41336999Y-129394950D03*
%TD*%
D10*
%TO.C,D53*%
X145861999Y-137014950D03*
D11*
X145861999Y-134979950D03*
X145861999Y-131429950D03*
D12*
X145861999Y-129394950D03*
%TD*%
D10*
%TO.C,D7*%
X181255000Y-82565000D03*
D11*
X181255000Y-80530000D03*
X181255000Y-76980000D03*
D12*
X181255000Y-74945000D03*
%TD*%
D10*
%TO.C,D37*%
X136361999Y-117989950D03*
D11*
X136361999Y-115954950D03*
X136361999Y-112404950D03*
D12*
X136361999Y-110369950D03*
%TD*%
D13*
%TO.C,SW19*%
X99410750Y-92760000D03*
D14*
X100680750Y-90220000D03*
D15*
X104490750Y-92760000D03*
D14*
X107030750Y-87680000D03*
D13*
X109570750Y-92760000D03*
%TD*%
%TO.C,SW36*%
X104160750Y-111760000D03*
D14*
X105430750Y-109220000D03*
D15*
X109240750Y-111760000D03*
D14*
X111780750Y-106680000D03*
D13*
X114320750Y-111760000D03*
%TD*%
D17*
%TO.C,USB_main1*%
X58017750Y-67535000D03*
D18*
X60557750Y-67535000D03*
X63097750Y-67535000D03*
X65637750Y-67535000D03*
%TD*%
D13*
%TO.C,SW55*%
X170660750Y-130760000D03*
D14*
X171930750Y-128220000D03*
D15*
X175740750Y-130760000D03*
D14*
X178280750Y-125680000D03*
D13*
X180820750Y-130760000D03*
%TD*%
D10*
%TO.C,D56*%
X186040000Y-138830000D03*
D11*
X186040000Y-136795000D03*
X186040000Y-133245000D03*
D12*
X186040000Y-131210000D03*
%TD*%
D17*
%TO.C,J2*%
X157706250Y-67635000D03*
D18*
X160246250Y-67635000D03*
X162786250Y-67635000D03*
X165326250Y-67635000D03*
%TD*%
D17*
%TO.C,J1*%
X25450750Y-75962370D03*
D18*
X25450750Y-73422370D03*
X25450750Y-70882370D03*
X25450750Y-68342370D03*
%TD*%
D10*
%TO.C,D5*%
X143637000Y-78356000D03*
D11*
X143637000Y-76321000D03*
X143637000Y-72771000D03*
D12*
X143637000Y-70736000D03*
%TD*%
D10*
%TO.C,D35*%
X91211999Y-117989950D03*
D11*
X91211999Y-115954950D03*
X91211999Y-112404950D03*
D12*
X91211999Y-110369950D03*
%TD*%
D10*
%TO.C,D21*%
X150611999Y-98964950D03*
D11*
X150611999Y-96929950D03*
X150611999Y-93379950D03*
D12*
X150611999Y-91344950D03*
%TD*%
D13*
%TO.C,SW5*%
X157071250Y-73760000D03*
D14*
X155801250Y-76300000D03*
D15*
X151991250Y-73760000D03*
D14*
X149451250Y-78840000D03*
D13*
X146911250Y-73760000D03*
%TD*%
%TO.C,SW52*%
X113660750Y-130760000D03*
D14*
X114930750Y-128220000D03*
D15*
X118740750Y-130760000D03*
D14*
X121280750Y-125680000D03*
D13*
X123820750Y-130760000D03*
%TD*%
D10*
%TO.C,D18*%
X88836999Y-98964950D03*
D11*
X88836999Y-96929950D03*
X88836999Y-93379950D03*
D12*
X88836999Y-91344950D03*
%TD*%
D13*
%TO.C,SW54*%
X151660750Y-130760000D03*
D14*
X152930750Y-128220000D03*
D15*
X156740750Y-130760000D03*
D14*
X159280750Y-125680000D03*
D13*
X161820750Y-130760000D03*
%TD*%
%TO.C,SW33*%
X28160750Y-111760000D03*
D14*
X29430750Y-109220000D03*
D15*
X33240750Y-111760000D03*
D14*
X35780750Y-106680000D03*
D13*
X38320750Y-111760000D03*
%TD*%
%TO.C,SW37*%
X123160750Y-111760000D03*
D14*
X124430750Y-109220000D03*
D15*
X128240750Y-111760000D03*
D14*
X130780750Y-106680000D03*
D13*
X133320750Y-111760000D03*
%TD*%
%TO.C,SW1*%
X70910750Y-73760000D03*
D14*
X72180750Y-71220000D03*
D15*
X75990750Y-73760000D03*
D14*
X78530750Y-68680000D03*
D13*
X81070750Y-73760000D03*
%TD*%
D10*
%TO.C,D55*%
X183861999Y-137014950D03*
D11*
X183861999Y-134979950D03*
X183861999Y-131429950D03*
D12*
X183861999Y-129394950D03*
%TD*%
D10*
%TO.C,D54*%
X164861999Y-137014950D03*
D11*
X164861999Y-134979950D03*
X164861999Y-131429950D03*
D12*
X164861999Y-129394950D03*
%TD*%
D13*
%TO.C,SW71*%
X184910750Y-149760000D03*
D14*
X186180750Y-147220000D03*
D15*
X189990750Y-149760000D03*
D14*
X192530750Y-144680000D03*
D13*
X195070750Y-149760000D03*
%TD*%
%TO.C,SW21*%
X137410750Y-92760000D03*
D14*
X138680750Y-90220000D03*
D15*
X142490750Y-92760000D03*
D14*
X145030750Y-87680000D03*
D13*
X147570750Y-92760000D03*
%TD*%
D10*
%TO.C,D2*%
X103111999Y-79964950D03*
D11*
X103111999Y-77929950D03*
X103111999Y-74379950D03*
D12*
X103111999Y-72344950D03*
%TD*%
D13*
%TO.C,SW40*%
X180160750Y-111760000D03*
D14*
X181430750Y-109220000D03*
D15*
X185240750Y-111760000D03*
D14*
X187780750Y-106680000D03*
D13*
X190320750Y-111760000D03*
%TD*%
%TO.C,SW20*%
X118410750Y-92760000D03*
D14*
X119680750Y-90220000D03*
D15*
X123490750Y-92760000D03*
D14*
X126030750Y-87680000D03*
D13*
X128570750Y-92760000D03*
%TD*%
%TO.C,SW35*%
X78035750Y-111760000D03*
D14*
X79305750Y-109220000D03*
D15*
X83115750Y-111760000D03*
D14*
X85655750Y-106680000D03*
D13*
X88195750Y-111760000D03*
%TD*%
D19*
%TO.C,U1*%
X57847000Y-84908600D03*
X55307000Y-84908600D03*
X52767000Y-84908600D03*
X50227000Y-84908600D03*
X47687000Y-84908600D03*
X45147000Y-84908600D03*
X42607000Y-84908600D03*
X40067000Y-84908600D03*
X37527000Y-84908600D03*
X34987000Y-84908600D03*
X32447000Y-84908600D03*
X29907000Y-84908600D03*
X29907000Y-69688600D03*
X32447000Y-69688600D03*
X34987000Y-69688600D03*
X37527000Y-69688600D03*
X40067000Y-69688600D03*
X42607000Y-69688600D03*
X45147000Y-69688600D03*
X47687000Y-69688600D03*
X50227000Y-69688600D03*
X52767000Y-69688600D03*
X55307000Y-69688600D03*
X57847000Y-69688600D03*
%TD*%
D13*
%TO.C,SW34*%
X47160750Y-111760000D03*
D14*
X48430750Y-109220000D03*
D15*
X52240750Y-111760000D03*
D14*
X54780750Y-106680000D03*
D13*
X57320750Y-111760000D03*
%TD*%
D10*
%TO.C,D34*%
X60336999Y-117989950D03*
D11*
X60336999Y-115954950D03*
X60336999Y-112404950D03*
D12*
X60336999Y-110369950D03*
%TD*%
D10*
%TO.C,D71*%
X179695000Y-156115000D03*
D11*
X179695000Y-154080000D03*
X179695000Y-150530000D03*
D12*
X179695000Y-148495000D03*
%TD*%
D13*
%TO.C,SW3*%
X108910750Y-73760000D03*
D14*
X110180750Y-71220000D03*
D15*
X113990750Y-73760000D03*
D14*
X116530750Y-68680000D03*
D13*
X119070750Y-73760000D03*
%TD*%
D10*
%TO.C,D68*%
X107861999Y-156014950D03*
D11*
X107861999Y-153979950D03*
X107861999Y-150429950D03*
D12*
X107861999Y-148394950D03*
%TD*%
D10*
%TO.C,D19*%
X112611999Y-98964950D03*
D11*
X112611999Y-96929950D03*
X112611999Y-93379950D03*
D12*
X112611999Y-91344950D03*
%TD*%
D10*
%TO.C,D17*%
X60336999Y-98964950D03*
D11*
X60336999Y-96929950D03*
X60336999Y-93379950D03*
D12*
X60336999Y-91344950D03*
%TD*%
D10*
%TO.C,D40*%
X176525000Y-120560000D03*
D11*
X176525000Y-118525000D03*
X176525000Y-114975000D03*
D12*
X176525000Y-112940000D03*
%TD*%
D10*
%TO.C,D66*%
X60336999Y-156014950D03*
D11*
X60336999Y-153979950D03*
X60336999Y-150429950D03*
D12*
X60336999Y-148394950D03*
%TD*%
M02*
