%TF.GenerationSoftware,KiCad,Pcbnew,8.0.8*%
%TF.CreationDate,2025-04-15T16:35:59+09:00*%
%TF.ProjectId,sswkbd_left,7373776b-6264-45f6-9c65-66742e6b6963,rev?*%
%TF.SameCoordinates,Original*%
%TF.FileFunction,Paste,Top*%
%TF.FilePolarity,Positive*%
%FSLAX46Y46*%
G04 Gerber Fmt 4.6, Leading zero omitted, Abs format (unit mm)*
G04 Created by KiCad (PCBNEW 8.0.8) date 2025-04-15 16:35:59*
%MOMM*%
%LPD*%
G01*
G04 APERTURE LIST*
%ADD10R,0.950000X1.300000*%
G04 APERTURE END LIST*
D10*
%TO.C,D67*%
X86461999Y-153979950D03*
X86461999Y-150429950D03*
%TD*%
%TO.C,D50*%
X60336999Y-134979950D03*
X60336999Y-131429950D03*
%TD*%
%TO.C,D38*%
X155361999Y-115954950D03*
X155361999Y-112404950D03*
%TD*%
%TO.C,D52*%
X126861999Y-134979950D03*
X126861999Y-131429950D03*
%TD*%
%TO.C,D39*%
X174361999Y-115954950D03*
X174361999Y-112404950D03*
%TD*%
%TO.C,D4*%
X141111999Y-77929950D03*
X141111999Y-74379950D03*
%TD*%
%TO.C,D1*%
X84111999Y-77929950D03*
X84111999Y-74379950D03*
%TD*%
%TO.C,D51*%
X95961999Y-134979950D03*
X95961999Y-131429950D03*
%TD*%
%TO.C,D3*%
X122111999Y-77929950D03*
X122111999Y-74379950D03*
%TD*%
%TO.C,D23*%
X171795000Y-99555000D03*
X171795000Y-96005000D03*
%TD*%
%TO.C,D33*%
X41336999Y-115954950D03*
X41336999Y-112404950D03*
%TD*%
%TO.C,D65*%
X41336999Y-153979950D03*
X41336999Y-150429950D03*
%TD*%
%TO.C,D70*%
X162461999Y-153979950D03*
X162461999Y-150429950D03*
%TD*%
%TO.C,D6*%
X162600000Y-76175000D03*
X162600000Y-72625000D03*
%TD*%
%TO.C,D36*%
X117361999Y-115954950D03*
X117361999Y-112404950D03*
%TD*%
%TO.C,D69*%
X126861999Y-153979950D03*
X126861999Y-150429950D03*
%TD*%
%TO.C,D20*%
X131611999Y-96929950D03*
X131611999Y-93379950D03*
%TD*%
%TO.C,D22*%
X169611999Y-96929950D03*
X169611999Y-93379950D03*
%TD*%
%TO.C,D16*%
X41336999Y-96929950D03*
X41336999Y-93379950D03*
%TD*%
%TO.C,D49*%
X41336999Y-134979950D03*
X41336999Y-131429950D03*
%TD*%
%TO.C,D53*%
X145861999Y-134979950D03*
X145861999Y-131429950D03*
%TD*%
%TO.C,D7*%
X181255000Y-80530000D03*
X181255000Y-76980000D03*
%TD*%
%TO.C,D37*%
X136361999Y-115954950D03*
X136361999Y-112404950D03*
%TD*%
%TO.C,D56*%
X186040000Y-136795000D03*
X186040000Y-133245000D03*
%TD*%
%TO.C,D5*%
X143637000Y-76321000D03*
X143637000Y-72771000D03*
%TD*%
%TO.C,D35*%
X91211999Y-115954950D03*
X91211999Y-112404950D03*
%TD*%
%TO.C,D21*%
X150611999Y-96929950D03*
X150611999Y-93379950D03*
%TD*%
%TO.C,D18*%
X88836999Y-96929950D03*
X88836999Y-93379950D03*
%TD*%
%TO.C,D55*%
X183861999Y-134979950D03*
X183861999Y-131429950D03*
%TD*%
%TO.C,D54*%
X164861999Y-134979950D03*
X164861999Y-131429950D03*
%TD*%
%TO.C,D2*%
X103111999Y-77929950D03*
X103111999Y-74379950D03*
%TD*%
%TO.C,D34*%
X60336999Y-115954950D03*
X60336999Y-112404950D03*
%TD*%
%TO.C,D71*%
X179695000Y-154080000D03*
X179695000Y-150530000D03*
%TD*%
%TO.C,D68*%
X107861999Y-153979950D03*
X107861999Y-150429950D03*
%TD*%
%TO.C,D19*%
X112611999Y-96929950D03*
X112611999Y-93379950D03*
%TD*%
%TO.C,D17*%
X60336999Y-96929950D03*
X60336999Y-93379950D03*
%TD*%
%TO.C,D40*%
X176525000Y-118525000D03*
X176525000Y-114975000D03*
%TD*%
%TO.C,D66*%
X60336999Y-153979950D03*
X60336999Y-150429950D03*
%TD*%
M02*
