%TF.GenerationSoftware,KiCad,Pcbnew,8.0.8*%
%TF.CreationDate,2025-04-10T14:10:57+09:00*%
%TF.ProjectId,sswkbd_wiring,7373776b-6264-45f7-9769-72696e672e6b,rev?*%
%TF.SameCoordinates,Original*%
%TF.FileFunction,Paste,Top*%
%TF.FilePolarity,Positive*%
%FSLAX46Y46*%
G04 Gerber Fmt 4.6, Leading zero omitted, Abs format (unit mm)*
G04 Created by KiCad (PCBNEW 8.0.8) date 2025-04-10 14:10:57*
%MOMM*%
%LPD*%
G01*
G04 APERTURE LIST*
%ADD10R,0.950000X1.300000*%
G04 APERTURE END LIST*
D10*
%TO.C,D32*%
X391509249Y-96929950D03*
X391509249Y-93379950D03*
%TD*%
%TO.C,D67*%
X86461999Y-153979950D03*
X86461999Y-150429950D03*
%TD*%
%TO.C,D50*%
X60274999Y-134979950D03*
X60274999Y-131429950D03*
%TD*%
%TO.C,D73*%
X268034249Y-153979950D03*
X268034249Y-150429950D03*
%TD*%
%TO.C,D46*%
X329759249Y-115954950D03*
X329759249Y-112404950D03*
%TD*%
%TO.C,D38*%
X155361999Y-115954950D03*
X155361999Y-112404950D03*
%TD*%
%TO.C,D76*%
X334509249Y-153979950D03*
X334509249Y-150429950D03*
%TD*%
%TO.C,D74*%
X296509249Y-153979950D03*
X296509249Y-150429950D03*
%TD*%
%TO.C,D52*%
X126861999Y-134979950D03*
X126861999Y-131429950D03*
%TD*%
%TO.C,D39*%
X174361999Y-115954950D03*
X174361999Y-112404950D03*
%TD*%
%TO.C,D15*%
X372491000Y-77923000D03*
X372491000Y-74373000D03*
%TD*%
%TO.C,D44*%
X291759249Y-115954950D03*
X291759249Y-112404950D03*
%TD*%
%TO.C,D4*%
X141111999Y-77929950D03*
X141111999Y-74379950D03*
%TD*%
%TO.C,D43*%
X272759249Y-115954950D03*
X272759249Y-112404950D03*
%TD*%
%TO.C,D41*%
X234759249Y-115954950D03*
X234759249Y-112404950D03*
%TD*%
%TO.C,D1*%
X84111999Y-77929950D03*
X84111999Y-74379950D03*
%TD*%
%TO.C,D11*%
X296509249Y-77929950D03*
X296509249Y-74379950D03*
%TD*%
%TO.C,D51*%
X95961999Y-134979950D03*
X95961999Y-131429950D03*
%TD*%
%TO.C,D59*%
X282259249Y-134979950D03*
X282259249Y-131429950D03*
%TD*%
%TO.C,D9*%
X241600000Y-77075000D03*
X241600000Y-73525000D03*
%TD*%
%TO.C,D3*%
X122111999Y-77929950D03*
X122111999Y-74379950D03*
%TD*%
%TO.C,D42*%
X253759249Y-115954950D03*
X253759249Y-112404950D03*
%TD*%
%TO.C,D64*%
X391509249Y-134979950D03*
X391509249Y-131429950D03*
%TD*%
%TO.C,D23*%
X171795000Y-99555000D03*
X171795000Y-96005000D03*
%TD*%
%TO.C,D33*%
X41274999Y-115954950D03*
X41274999Y-112404950D03*
%TD*%
%TO.C,D8*%
X239509249Y-77929950D03*
X239509249Y-74379950D03*
%TD*%
%TO.C,D45*%
X310759249Y-115954950D03*
X310759249Y-112404950D03*
%TD*%
%TO.C,D65*%
X41274999Y-153979950D03*
X41274999Y-150429950D03*
%TD*%
%TO.C,D70*%
X162461999Y-153979950D03*
X162461999Y-150429950D03*
%TD*%
%TO.C,D24*%
X230009249Y-96929950D03*
X230009249Y-93379950D03*
%TD*%
%TO.C,D26*%
X268009249Y-96929950D03*
X268009249Y-93379950D03*
%TD*%
%TO.C,D6*%
X162600000Y-76175000D03*
X162600000Y-72625000D03*
%TD*%
%TO.C,D14*%
X363034249Y-77929950D03*
X363034249Y-74379950D03*
%TD*%
%TO.C,D12*%
X315509249Y-77929950D03*
X315509249Y-74379950D03*
%TD*%
%TO.C,D36*%
X117361999Y-115954950D03*
X117361999Y-112404950D03*
%TD*%
%TO.C,D29*%
X325009249Y-96929950D03*
X325009249Y-93379950D03*
%TD*%
%TO.C,D69*%
X126861999Y-153979950D03*
X126861999Y-150429950D03*
%TD*%
%TO.C,D20*%
X131611999Y-96929950D03*
X131611999Y-93379950D03*
%TD*%
%TO.C,D47*%
X360659249Y-115954950D03*
X360659249Y-112404950D03*
%TD*%
%TO.C,D62*%
X347550000Y-132225000D03*
X347550000Y-128675000D03*
%TD*%
%TO.C,D48*%
X391509249Y-115954950D03*
X391509249Y-112404950D03*
%TD*%
%TO.C,D22*%
X169611999Y-96929950D03*
X169611999Y-93379950D03*
%TD*%
%TO.C,D16*%
X41274999Y-96929950D03*
X41274999Y-93379950D03*
%TD*%
%TO.C,D49*%
X41274999Y-134979950D03*
X41274999Y-131429950D03*
%TD*%
%TO.C,D25*%
X249009249Y-96929950D03*
X249009249Y-93379950D03*
%TD*%
%TO.C,D53*%
X145861999Y-134979950D03*
X145861999Y-131429950D03*
%TD*%
%TO.C,D28*%
X306009249Y-96929950D03*
X306009249Y-93379950D03*
%TD*%
%TO.C,D7*%
X181255000Y-80530000D03*
X181255000Y-76980000D03*
%TD*%
%TO.C,D61*%
X320259249Y-134979950D03*
X320259249Y-131429950D03*
%TD*%
%TO.C,D37*%
X136361999Y-115954950D03*
X136361999Y-112404950D03*
%TD*%
%TO.C,D77*%
X353509249Y-153979950D03*
X353509249Y-150429950D03*
%TD*%
%TO.C,D10*%
X261000000Y-78375000D03*
X261000000Y-74825000D03*
%TD*%
%TO.C,D57*%
X244259249Y-134979950D03*
X244259249Y-131429950D03*
%TD*%
%TO.C,D75*%
X315509249Y-153979950D03*
X315509249Y-150429950D03*
%TD*%
%TO.C,D56*%
X186040000Y-136795000D03*
X186040000Y-133245000D03*
%TD*%
%TO.C,D60*%
X301259249Y-134979950D03*
X301259249Y-131429950D03*
%TD*%
%TO.C,D5*%
X143637000Y-76321000D03*
X143637000Y-72771000D03*
%TD*%
%TO.C,D35*%
X91211999Y-115954950D03*
X91211999Y-112404950D03*
%TD*%
%TO.C,D21*%
X150611999Y-96929950D03*
X150611999Y-93379950D03*
%TD*%
%TO.C,D13*%
X334509249Y-77929950D03*
X334509249Y-74379950D03*
%TD*%
%TO.C,D18*%
X88836999Y-96929950D03*
X88836999Y-93379950D03*
%TD*%
%TO.C,D27*%
X287009249Y-96929950D03*
X287009249Y-93379950D03*
%TD*%
%TO.C,D55*%
X183861999Y-134979950D03*
X183861999Y-131429950D03*
%TD*%
%TO.C,D54*%
X164861999Y-134979950D03*
X164861999Y-131429950D03*
%TD*%
%TO.C,D2*%
X103111999Y-77929950D03*
X103111999Y-74379950D03*
%TD*%
%TO.C,D79*%
X391509249Y-153979950D03*
X391509249Y-150429950D03*
%TD*%
%TO.C,D78*%
X372509249Y-153979950D03*
X372509249Y-150429950D03*
%TD*%
%TO.C,D34*%
X60274999Y-115954950D03*
X60274999Y-112404950D03*
%TD*%
%TO.C,D71*%
X179695000Y-154080000D03*
X179695000Y-150530000D03*
%TD*%
%TO.C,D58*%
X263259249Y-134979950D03*
X263259249Y-131429950D03*
%TD*%
%TO.C,D31*%
X367784249Y-96929950D03*
X367784249Y-93379950D03*
%TD*%
%TO.C,D68*%
X107861999Y-153979950D03*
X107861999Y-150429950D03*
%TD*%
%TO.C,D19*%
X112611999Y-96929950D03*
X112611999Y-93379950D03*
%TD*%
%TO.C,D17*%
X60274999Y-96929950D03*
X60274999Y-93379950D03*
%TD*%
%TO.C,D72*%
X239509249Y-153979950D03*
X239509249Y-150429950D03*
%TD*%
%TO.C,D30*%
X344009249Y-96929950D03*
X344009249Y-93379950D03*
%TD*%
%TO.C,D63*%
X372509249Y-134979950D03*
X372509249Y-131429950D03*
%TD*%
%TO.C,D40*%
X176525000Y-118525000D03*
X176525000Y-114975000D03*
%TD*%
%TO.C,D66*%
X60274999Y-153979950D03*
X60274999Y-150429950D03*
%TD*%
M02*
