%TF.GenerationSoftware,KiCad,Pcbnew,8.0.8*%
%TF.CreationDate,2025-04-11T15:04:37+09:00*%
%TF.ProjectId,sswkbd_wiring,7373776b-6264-45f7-9769-72696e672e6b,rev?*%
%TF.SameCoordinates,Original*%
%TF.FileFunction,Legend,Top*%
%TF.FilePolarity,Positive*%
%FSLAX46Y46*%
G04 Gerber Fmt 4.6, Leading zero omitted, Abs format (unit mm)*
G04 Created by KiCad (PCBNEW 8.0.8) date 2025-04-11 15:04:37*
%MOMM*%
%LPD*%
G01*
G04 APERTURE LIST*
%ADD10C,0.150000*%
%ADD11C,0.120000*%
G04 APERTURE END LIST*
D10*
X232924579Y-66544819D02*
X232924579Y-65544819D01*
X232924579Y-65544819D02*
X233162674Y-65544819D01*
X233162674Y-65544819D02*
X233305531Y-65592438D01*
X233305531Y-65592438D02*
X233400769Y-65687676D01*
X233400769Y-65687676D02*
X233448388Y-65782914D01*
X233448388Y-65782914D02*
X233496007Y-65973390D01*
X233496007Y-65973390D02*
X233496007Y-66116247D01*
X233496007Y-66116247D02*
X233448388Y-66306723D01*
X233448388Y-66306723D02*
X233400769Y-66401961D01*
X233400769Y-66401961D02*
X233305531Y-66497200D01*
X233305531Y-66497200D02*
X233162674Y-66544819D01*
X233162674Y-66544819D02*
X232924579Y-66544819D01*
X233924579Y-66163866D02*
X234686484Y-66163866D01*
X234305531Y-66544819D02*
X234305531Y-65782914D01*
X239500672Y-65744419D02*
X239834005Y-66744419D01*
X239834005Y-66744419D02*
X240167338Y-65744419D01*
X241072100Y-66649180D02*
X241024481Y-66696800D01*
X241024481Y-66696800D02*
X240881624Y-66744419D01*
X240881624Y-66744419D02*
X240786386Y-66744419D01*
X240786386Y-66744419D02*
X240643529Y-66696800D01*
X240643529Y-66696800D02*
X240548291Y-66601561D01*
X240548291Y-66601561D02*
X240500672Y-66506323D01*
X240500672Y-66506323D02*
X240453053Y-66315847D01*
X240453053Y-66315847D02*
X240453053Y-66172990D01*
X240453053Y-66172990D02*
X240500672Y-65982514D01*
X240500672Y-65982514D02*
X240548291Y-65887276D01*
X240548291Y-65887276D02*
X240643529Y-65792038D01*
X240643529Y-65792038D02*
X240786386Y-65744419D01*
X240786386Y-65744419D02*
X240881624Y-65744419D01*
X240881624Y-65744419D02*
X241024481Y-65792038D01*
X241024481Y-65792038D02*
X241072100Y-65839657D01*
X242072100Y-66649180D02*
X242024481Y-66696800D01*
X242024481Y-66696800D02*
X241881624Y-66744419D01*
X241881624Y-66744419D02*
X241786386Y-66744419D01*
X241786386Y-66744419D02*
X241643529Y-66696800D01*
X241643529Y-66696800D02*
X241548291Y-66601561D01*
X241548291Y-66601561D02*
X241500672Y-66506323D01*
X241500672Y-66506323D02*
X241453053Y-66315847D01*
X241453053Y-66315847D02*
X241453053Y-66172990D01*
X241453053Y-66172990D02*
X241500672Y-65982514D01*
X241500672Y-65982514D02*
X241548291Y-65887276D01*
X241548291Y-65887276D02*
X241643529Y-65792038D01*
X241643529Y-65792038D02*
X241786386Y-65744419D01*
X241786386Y-65744419D02*
X241881624Y-65744419D01*
X241881624Y-65744419D02*
X242024481Y-65792038D01*
X242024481Y-65792038D02*
X242072100Y-65839657D01*
X166678872Y-66430219D02*
X167012205Y-67430219D01*
X167012205Y-67430219D02*
X167345538Y-66430219D01*
X168250300Y-67334980D02*
X168202681Y-67382600D01*
X168202681Y-67382600D02*
X168059824Y-67430219D01*
X168059824Y-67430219D02*
X167964586Y-67430219D01*
X167964586Y-67430219D02*
X167821729Y-67382600D01*
X167821729Y-67382600D02*
X167726491Y-67287361D01*
X167726491Y-67287361D02*
X167678872Y-67192123D01*
X167678872Y-67192123D02*
X167631253Y-67001647D01*
X167631253Y-67001647D02*
X167631253Y-66858790D01*
X167631253Y-66858790D02*
X167678872Y-66668314D01*
X167678872Y-66668314D02*
X167726491Y-66573076D01*
X167726491Y-66573076D02*
X167821729Y-66477838D01*
X167821729Y-66477838D02*
X167964586Y-66430219D01*
X167964586Y-66430219D02*
X168059824Y-66430219D01*
X168059824Y-66430219D02*
X168202681Y-66477838D01*
X168202681Y-66477838D02*
X168250300Y-66525457D01*
X169250300Y-67334980D02*
X169202681Y-67382600D01*
X169202681Y-67382600D02*
X169059824Y-67430219D01*
X169059824Y-67430219D02*
X168964586Y-67430219D01*
X168964586Y-67430219D02*
X168821729Y-67382600D01*
X168821729Y-67382600D02*
X168726491Y-67287361D01*
X168726491Y-67287361D02*
X168678872Y-67192123D01*
X168678872Y-67192123D02*
X168631253Y-67001647D01*
X168631253Y-67001647D02*
X168631253Y-66858790D01*
X168631253Y-66858790D02*
X168678872Y-66668314D01*
X168678872Y-66668314D02*
X168726491Y-66573076D01*
X168726491Y-66573076D02*
X168821729Y-66477838D01*
X168821729Y-66477838D02*
X168964586Y-66430219D01*
X168964586Y-66430219D02*
X169059824Y-66430219D01*
X169059824Y-66430219D02*
X169202681Y-66477838D01*
X169202681Y-66477838D02*
X169250300Y-66525457D01*
X159340779Y-66544819D02*
X159340779Y-65544819D01*
X159340779Y-65544819D02*
X159578874Y-65544819D01*
X159578874Y-65544819D02*
X159721731Y-65592438D01*
X159721731Y-65592438D02*
X159816969Y-65687676D01*
X159816969Y-65687676D02*
X159864588Y-65782914D01*
X159864588Y-65782914D02*
X159912207Y-65973390D01*
X159912207Y-65973390D02*
X159912207Y-66116247D01*
X159912207Y-66116247D02*
X159864588Y-66306723D01*
X159864588Y-66306723D02*
X159816969Y-66401961D01*
X159816969Y-66401961D02*
X159721731Y-66497200D01*
X159721731Y-66497200D02*
X159578874Y-66544819D01*
X159578874Y-66544819D02*
X159340779Y-66544819D01*
X160340779Y-66163866D02*
X161102684Y-66163866D01*
X160721731Y-66544819D02*
X160721731Y-65782914D01*
X62439779Y-66367019D02*
X62439779Y-65367019D01*
X62439779Y-65367019D02*
X62677874Y-65367019D01*
X62677874Y-65367019D02*
X62820731Y-65414638D01*
X62820731Y-65414638D02*
X62915969Y-65509876D01*
X62915969Y-65509876D02*
X62963588Y-65605114D01*
X62963588Y-65605114D02*
X63011207Y-65795590D01*
X63011207Y-65795590D02*
X63011207Y-65938447D01*
X63011207Y-65938447D02*
X62963588Y-66128923D01*
X62963588Y-66128923D02*
X62915969Y-66224161D01*
X62915969Y-66224161D02*
X62820731Y-66319400D01*
X62820731Y-66319400D02*
X62677874Y-66367019D01*
X62677874Y-66367019D02*
X62439779Y-66367019D01*
X63439779Y-65986066D02*
X64201684Y-65986066D01*
X59823579Y-66519419D02*
X59823579Y-65519419D01*
X59823579Y-65519419D02*
X60061674Y-65519419D01*
X60061674Y-65519419D02*
X60204531Y-65567038D01*
X60204531Y-65567038D02*
X60299769Y-65662276D01*
X60299769Y-65662276D02*
X60347388Y-65757514D01*
X60347388Y-65757514D02*
X60395007Y-65947990D01*
X60395007Y-65947990D02*
X60395007Y-66090847D01*
X60395007Y-66090847D02*
X60347388Y-66281323D01*
X60347388Y-66281323D02*
X60299769Y-66376561D01*
X60299769Y-66376561D02*
X60204531Y-66471800D01*
X60204531Y-66471800D02*
X60061674Y-66519419D01*
X60061674Y-66519419D02*
X59823579Y-66519419D01*
X60823579Y-66138466D02*
X61585484Y-66138466D01*
X61204531Y-66519419D02*
X61204531Y-65757514D01*
X67161672Y-66404819D02*
X67495005Y-67404819D01*
X67495005Y-67404819D02*
X67828338Y-66404819D01*
X68733100Y-67309580D02*
X68685481Y-67357200D01*
X68685481Y-67357200D02*
X68542624Y-67404819D01*
X68542624Y-67404819D02*
X68447386Y-67404819D01*
X68447386Y-67404819D02*
X68304529Y-67357200D01*
X68304529Y-67357200D02*
X68209291Y-67261961D01*
X68209291Y-67261961D02*
X68161672Y-67166723D01*
X68161672Y-67166723D02*
X68114053Y-66976247D01*
X68114053Y-66976247D02*
X68114053Y-66833390D01*
X68114053Y-66833390D02*
X68161672Y-66642914D01*
X68161672Y-66642914D02*
X68209291Y-66547676D01*
X68209291Y-66547676D02*
X68304529Y-66452438D01*
X68304529Y-66452438D02*
X68447386Y-66404819D01*
X68447386Y-66404819D02*
X68542624Y-66404819D01*
X68542624Y-66404819D02*
X68685481Y-66452438D01*
X68685481Y-66452438D02*
X68733100Y-66500057D01*
X69733100Y-67309580D02*
X69685481Y-67357200D01*
X69685481Y-67357200D02*
X69542624Y-67404819D01*
X69542624Y-67404819D02*
X69447386Y-67404819D01*
X69447386Y-67404819D02*
X69304529Y-67357200D01*
X69304529Y-67357200D02*
X69209291Y-67261961D01*
X69209291Y-67261961D02*
X69161672Y-67166723D01*
X69161672Y-67166723D02*
X69114053Y-66976247D01*
X69114053Y-66976247D02*
X69114053Y-66833390D01*
X69114053Y-66833390D02*
X69161672Y-66642914D01*
X69161672Y-66642914D02*
X69209291Y-66547676D01*
X69209291Y-66547676D02*
X69304529Y-66452438D01*
X69304529Y-66452438D02*
X69447386Y-66404819D01*
X69447386Y-66404819D02*
X69542624Y-66404819D01*
X69542624Y-66404819D02*
X69685481Y-66452438D01*
X69685481Y-66452438D02*
X69733100Y-66500057D01*
X231086590Y-69254019D02*
X231086590Y-70063542D01*
X231086590Y-70063542D02*
X231134209Y-70158780D01*
X231134209Y-70158780D02*
X231181828Y-70206400D01*
X231181828Y-70206400D02*
X231277066Y-70254019D01*
X231277066Y-70254019D02*
X231467542Y-70254019D01*
X231467542Y-70254019D02*
X231562780Y-70206400D01*
X231562780Y-70206400D02*
X231610399Y-70158780D01*
X231610399Y-70158780D02*
X231658018Y-70063542D01*
X231658018Y-70063542D02*
X231658018Y-69254019D01*
X232086590Y-70206400D02*
X232229447Y-70254019D01*
X232229447Y-70254019D02*
X232467542Y-70254019D01*
X232467542Y-70254019D02*
X232562780Y-70206400D01*
X232562780Y-70206400D02*
X232610399Y-70158780D01*
X232610399Y-70158780D02*
X232658018Y-70063542D01*
X232658018Y-70063542D02*
X232658018Y-69968304D01*
X232658018Y-69968304D02*
X232610399Y-69873066D01*
X232610399Y-69873066D02*
X232562780Y-69825447D01*
X232562780Y-69825447D02*
X232467542Y-69777828D01*
X232467542Y-69777828D02*
X232277066Y-69730209D01*
X232277066Y-69730209D02*
X232181828Y-69682590D01*
X232181828Y-69682590D02*
X232134209Y-69634971D01*
X232134209Y-69634971D02*
X232086590Y-69539733D01*
X232086590Y-69539733D02*
X232086590Y-69444495D01*
X232086590Y-69444495D02*
X232134209Y-69349257D01*
X232134209Y-69349257D02*
X232181828Y-69301638D01*
X232181828Y-69301638D02*
X232277066Y-69254019D01*
X232277066Y-69254019D02*
X232515161Y-69254019D01*
X232515161Y-69254019D02*
X232658018Y-69301638D01*
X233419923Y-69730209D02*
X233562780Y-69777828D01*
X233562780Y-69777828D02*
X233610399Y-69825447D01*
X233610399Y-69825447D02*
X233658018Y-69920685D01*
X233658018Y-69920685D02*
X233658018Y-70063542D01*
X233658018Y-70063542D02*
X233610399Y-70158780D01*
X233610399Y-70158780D02*
X233562780Y-70206400D01*
X233562780Y-70206400D02*
X233467542Y-70254019D01*
X233467542Y-70254019D02*
X233086590Y-70254019D01*
X233086590Y-70254019D02*
X233086590Y-69254019D01*
X233086590Y-69254019D02*
X233419923Y-69254019D01*
X233419923Y-69254019D02*
X233515161Y-69301638D01*
X233515161Y-69301638D02*
X233562780Y-69349257D01*
X233562780Y-69349257D02*
X233610399Y-69444495D01*
X233610399Y-69444495D02*
X233610399Y-69539733D01*
X233610399Y-69539733D02*
X233562780Y-69634971D01*
X233562780Y-69634971D02*
X233515161Y-69682590D01*
X233515161Y-69682590D02*
X233419923Y-69730209D01*
X233419923Y-69730209D02*
X233086590Y-69730209D01*
X233848495Y-70349257D02*
X234610399Y-70349257D01*
X234800876Y-70206400D02*
X234943733Y-70254019D01*
X234943733Y-70254019D02*
X235181828Y-70254019D01*
X235181828Y-70254019D02*
X235277066Y-70206400D01*
X235277066Y-70206400D02*
X235324685Y-70158780D01*
X235324685Y-70158780D02*
X235372304Y-70063542D01*
X235372304Y-70063542D02*
X235372304Y-69968304D01*
X235372304Y-69968304D02*
X235324685Y-69873066D01*
X235324685Y-69873066D02*
X235277066Y-69825447D01*
X235277066Y-69825447D02*
X235181828Y-69777828D01*
X235181828Y-69777828D02*
X234991352Y-69730209D01*
X234991352Y-69730209D02*
X234896114Y-69682590D01*
X234896114Y-69682590D02*
X234848495Y-69634971D01*
X234848495Y-69634971D02*
X234800876Y-69539733D01*
X234800876Y-69539733D02*
X234800876Y-69444495D01*
X234800876Y-69444495D02*
X234848495Y-69349257D01*
X234848495Y-69349257D02*
X234896114Y-69301638D01*
X234896114Y-69301638D02*
X234991352Y-69254019D01*
X234991352Y-69254019D02*
X235229447Y-69254019D01*
X235229447Y-69254019D02*
X235372304Y-69301638D01*
X235800876Y-70254019D02*
X235800876Y-69254019D01*
X235800876Y-69254019D02*
X236181828Y-69254019D01*
X236181828Y-69254019D02*
X236277066Y-69301638D01*
X236277066Y-69301638D02*
X236324685Y-69349257D01*
X236324685Y-69349257D02*
X236372304Y-69444495D01*
X236372304Y-69444495D02*
X236372304Y-69587352D01*
X236372304Y-69587352D02*
X236324685Y-69682590D01*
X236324685Y-69682590D02*
X236277066Y-69730209D01*
X236277066Y-69730209D02*
X236181828Y-69777828D01*
X236181828Y-69777828D02*
X235800876Y-69777828D01*
X237277066Y-70254019D02*
X236800876Y-70254019D01*
X236800876Y-70254019D02*
X236800876Y-69254019D01*
X237610400Y-70254019D02*
X237610400Y-69254019D01*
X237943733Y-69254019D02*
X238515161Y-69254019D01*
X238229447Y-70254019D02*
X238229447Y-69254019D01*
X238610400Y-70349257D02*
X239372304Y-70349257D01*
X240181828Y-70254019D02*
X239848495Y-69777828D01*
X239610400Y-70254019D02*
X239610400Y-69254019D01*
X239610400Y-69254019D02*
X239991352Y-69254019D01*
X239991352Y-69254019D02*
X240086590Y-69301638D01*
X240086590Y-69301638D02*
X240134209Y-69349257D01*
X240134209Y-69349257D02*
X240181828Y-69444495D01*
X240181828Y-69444495D02*
X240181828Y-69587352D01*
X240181828Y-69587352D02*
X240134209Y-69682590D01*
X240134209Y-69682590D02*
X240086590Y-69730209D01*
X240086590Y-69730209D02*
X239991352Y-69777828D01*
X239991352Y-69777828D02*
X239610400Y-69777828D01*
X26703588Y-75396838D02*
X26608350Y-75349219D01*
X26608350Y-75349219D02*
X26465493Y-75349219D01*
X26465493Y-75349219D02*
X26322636Y-75396838D01*
X26322636Y-75396838D02*
X26227398Y-75492076D01*
X26227398Y-75492076D02*
X26179779Y-75587314D01*
X26179779Y-75587314D02*
X26132160Y-75777790D01*
X26132160Y-75777790D02*
X26132160Y-75920647D01*
X26132160Y-75920647D02*
X26179779Y-76111123D01*
X26179779Y-76111123D02*
X26227398Y-76206361D01*
X26227398Y-76206361D02*
X26322636Y-76301600D01*
X26322636Y-76301600D02*
X26465493Y-76349219D01*
X26465493Y-76349219D02*
X26560731Y-76349219D01*
X26560731Y-76349219D02*
X26703588Y-76301600D01*
X26703588Y-76301600D02*
X26751207Y-76253980D01*
X26751207Y-76253980D02*
X26751207Y-75920647D01*
X26751207Y-75920647D02*
X26560731Y-75920647D01*
X27179779Y-76349219D02*
X27179779Y-75349219D01*
X27179779Y-75349219D02*
X27751207Y-76349219D01*
X27751207Y-76349219D02*
X27751207Y-75349219D01*
X28227398Y-76349219D02*
X28227398Y-75349219D01*
X28227398Y-75349219D02*
X28465493Y-75349219D01*
X28465493Y-75349219D02*
X28608350Y-75396838D01*
X28608350Y-75396838D02*
X28703588Y-75492076D01*
X28703588Y-75492076D02*
X28751207Y-75587314D01*
X28751207Y-75587314D02*
X28798826Y-75777790D01*
X28798826Y-75777790D02*
X28798826Y-75920647D01*
X28798826Y-75920647D02*
X28751207Y-76111123D01*
X28751207Y-76111123D02*
X28703588Y-76206361D01*
X28703588Y-76206361D02*
X28608350Y-76301600D01*
X28608350Y-76301600D02*
X28465493Y-76349219D01*
X28465493Y-76349219D02*
X28227398Y-76349219D01*
X26036922Y-72885419D02*
X26370255Y-73885419D01*
X26370255Y-73885419D02*
X26703588Y-72885419D01*
X27608350Y-73790180D02*
X27560731Y-73837800D01*
X27560731Y-73837800D02*
X27417874Y-73885419D01*
X27417874Y-73885419D02*
X27322636Y-73885419D01*
X27322636Y-73885419D02*
X27179779Y-73837800D01*
X27179779Y-73837800D02*
X27084541Y-73742561D01*
X27084541Y-73742561D02*
X27036922Y-73647323D01*
X27036922Y-73647323D02*
X26989303Y-73456847D01*
X26989303Y-73456847D02*
X26989303Y-73313990D01*
X26989303Y-73313990D02*
X27036922Y-73123514D01*
X27036922Y-73123514D02*
X27084541Y-73028276D01*
X27084541Y-73028276D02*
X27179779Y-72933038D01*
X27179779Y-72933038D02*
X27322636Y-72885419D01*
X27322636Y-72885419D02*
X27417874Y-72885419D01*
X27417874Y-72885419D02*
X27560731Y-72933038D01*
X27560731Y-72933038D02*
X27608350Y-72980657D01*
X28608350Y-73790180D02*
X28560731Y-73837800D01*
X28560731Y-73837800D02*
X28417874Y-73885419D01*
X28417874Y-73885419D02*
X28322636Y-73885419D01*
X28322636Y-73885419D02*
X28179779Y-73837800D01*
X28179779Y-73837800D02*
X28084541Y-73742561D01*
X28084541Y-73742561D02*
X28036922Y-73647323D01*
X28036922Y-73647323D02*
X27989303Y-73456847D01*
X27989303Y-73456847D02*
X27989303Y-73313990D01*
X27989303Y-73313990D02*
X28036922Y-73123514D01*
X28036922Y-73123514D02*
X28084541Y-73028276D01*
X28084541Y-73028276D02*
X28179779Y-72933038D01*
X28179779Y-72933038D02*
X28322636Y-72885419D01*
X28322636Y-72885419D02*
X28417874Y-72885419D01*
X28417874Y-72885419D02*
X28560731Y-72933038D01*
X28560731Y-72933038D02*
X28608350Y-72980657D01*
X26055960Y-71221600D02*
X26198817Y-71269219D01*
X26198817Y-71269219D02*
X26436912Y-71269219D01*
X26436912Y-71269219D02*
X26532150Y-71221600D01*
X26532150Y-71221600D02*
X26579769Y-71173980D01*
X26579769Y-71173980D02*
X26627388Y-71078742D01*
X26627388Y-71078742D02*
X26627388Y-70983504D01*
X26627388Y-70983504D02*
X26579769Y-70888266D01*
X26579769Y-70888266D02*
X26532150Y-70840647D01*
X26532150Y-70840647D02*
X26436912Y-70793028D01*
X26436912Y-70793028D02*
X26246436Y-70745409D01*
X26246436Y-70745409D02*
X26151198Y-70697790D01*
X26151198Y-70697790D02*
X26103579Y-70650171D01*
X26103579Y-70650171D02*
X26055960Y-70554933D01*
X26055960Y-70554933D02*
X26055960Y-70459695D01*
X26055960Y-70459695D02*
X26103579Y-70364457D01*
X26103579Y-70364457D02*
X26151198Y-70316838D01*
X26151198Y-70316838D02*
X26246436Y-70269219D01*
X26246436Y-70269219D02*
X26484531Y-70269219D01*
X26484531Y-70269219D02*
X26627388Y-70316838D01*
X27627388Y-71173980D02*
X27579769Y-71221600D01*
X27579769Y-71221600D02*
X27436912Y-71269219D01*
X27436912Y-71269219D02*
X27341674Y-71269219D01*
X27341674Y-71269219D02*
X27198817Y-71221600D01*
X27198817Y-71221600D02*
X27103579Y-71126361D01*
X27103579Y-71126361D02*
X27055960Y-71031123D01*
X27055960Y-71031123D02*
X27008341Y-70840647D01*
X27008341Y-70840647D02*
X27008341Y-70697790D01*
X27008341Y-70697790D02*
X27055960Y-70507314D01*
X27055960Y-70507314D02*
X27103579Y-70412076D01*
X27103579Y-70412076D02*
X27198817Y-70316838D01*
X27198817Y-70316838D02*
X27341674Y-70269219D01*
X27341674Y-70269219D02*
X27436912Y-70269219D01*
X27436912Y-70269219D02*
X27579769Y-70316838D01*
X27579769Y-70316838D02*
X27627388Y-70364457D01*
X28532150Y-71269219D02*
X28055960Y-71269219D01*
X28055960Y-71269219D02*
X28055960Y-70269219D01*
X26182960Y-68707000D02*
X26325817Y-68754619D01*
X26325817Y-68754619D02*
X26563912Y-68754619D01*
X26563912Y-68754619D02*
X26659150Y-68707000D01*
X26659150Y-68707000D02*
X26706769Y-68659380D01*
X26706769Y-68659380D02*
X26754388Y-68564142D01*
X26754388Y-68564142D02*
X26754388Y-68468904D01*
X26754388Y-68468904D02*
X26706769Y-68373666D01*
X26706769Y-68373666D02*
X26659150Y-68326047D01*
X26659150Y-68326047D02*
X26563912Y-68278428D01*
X26563912Y-68278428D02*
X26373436Y-68230809D01*
X26373436Y-68230809D02*
X26278198Y-68183190D01*
X26278198Y-68183190D02*
X26230579Y-68135571D01*
X26230579Y-68135571D02*
X26182960Y-68040333D01*
X26182960Y-68040333D02*
X26182960Y-67945095D01*
X26182960Y-67945095D02*
X26230579Y-67849857D01*
X26230579Y-67849857D02*
X26278198Y-67802238D01*
X26278198Y-67802238D02*
X26373436Y-67754619D01*
X26373436Y-67754619D02*
X26611531Y-67754619D01*
X26611531Y-67754619D02*
X26754388Y-67802238D01*
X27182960Y-68754619D02*
X27182960Y-67754619D01*
X27182960Y-67754619D02*
X27421055Y-67754619D01*
X27421055Y-67754619D02*
X27563912Y-67802238D01*
X27563912Y-67802238D02*
X27659150Y-67897476D01*
X27659150Y-67897476D02*
X27706769Y-67992714D01*
X27706769Y-67992714D02*
X27754388Y-68183190D01*
X27754388Y-68183190D02*
X27754388Y-68326047D01*
X27754388Y-68326047D02*
X27706769Y-68516523D01*
X27706769Y-68516523D02*
X27659150Y-68611761D01*
X27659150Y-68611761D02*
X27563912Y-68707000D01*
X27563912Y-68707000D02*
X27421055Y-68754619D01*
X27421055Y-68754619D02*
X27182960Y-68754619D01*
X28135341Y-68468904D02*
X28611531Y-68468904D01*
X28040103Y-68754619D02*
X28373436Y-67754619D01*
X28373436Y-67754619D02*
X28706769Y-68754619D01*
X66210657Y-101391819D02*
X66210657Y-102201342D01*
X66210657Y-102201342D02*
X66258276Y-102296580D01*
X66258276Y-102296580D02*
X66305895Y-102344200D01*
X66305895Y-102344200D02*
X66401133Y-102391819D01*
X66401133Y-102391819D02*
X66591609Y-102391819D01*
X66591609Y-102391819D02*
X66686847Y-102344200D01*
X66686847Y-102344200D02*
X66734466Y-102296580D01*
X66734466Y-102296580D02*
X66782085Y-102201342D01*
X66782085Y-102201342D02*
X66782085Y-101391819D01*
X67210657Y-102344200D02*
X67353514Y-102391819D01*
X67353514Y-102391819D02*
X67591609Y-102391819D01*
X67591609Y-102391819D02*
X67686847Y-102344200D01*
X67686847Y-102344200D02*
X67734466Y-102296580D01*
X67734466Y-102296580D02*
X67782085Y-102201342D01*
X67782085Y-102201342D02*
X67782085Y-102106104D01*
X67782085Y-102106104D02*
X67734466Y-102010866D01*
X67734466Y-102010866D02*
X67686847Y-101963247D01*
X67686847Y-101963247D02*
X67591609Y-101915628D01*
X67591609Y-101915628D02*
X67401133Y-101868009D01*
X67401133Y-101868009D02*
X67305895Y-101820390D01*
X67305895Y-101820390D02*
X67258276Y-101772771D01*
X67258276Y-101772771D02*
X67210657Y-101677533D01*
X67210657Y-101677533D02*
X67210657Y-101582295D01*
X67210657Y-101582295D02*
X67258276Y-101487057D01*
X67258276Y-101487057D02*
X67305895Y-101439438D01*
X67305895Y-101439438D02*
X67401133Y-101391819D01*
X67401133Y-101391819D02*
X67639228Y-101391819D01*
X67639228Y-101391819D02*
X67782085Y-101439438D01*
X68543990Y-101868009D02*
X68686847Y-101915628D01*
X68686847Y-101915628D02*
X68734466Y-101963247D01*
X68734466Y-101963247D02*
X68782085Y-102058485D01*
X68782085Y-102058485D02*
X68782085Y-102201342D01*
X68782085Y-102201342D02*
X68734466Y-102296580D01*
X68734466Y-102296580D02*
X68686847Y-102344200D01*
X68686847Y-102344200D02*
X68591609Y-102391819D01*
X68591609Y-102391819D02*
X68210657Y-102391819D01*
X68210657Y-102391819D02*
X68210657Y-101391819D01*
X68210657Y-101391819D02*
X68543990Y-101391819D01*
X68543990Y-101391819D02*
X68639228Y-101439438D01*
X68639228Y-101439438D02*
X68686847Y-101487057D01*
X68686847Y-101487057D02*
X68734466Y-101582295D01*
X68734466Y-101582295D02*
X68734466Y-101677533D01*
X68734466Y-101677533D02*
X68686847Y-101772771D01*
X68686847Y-101772771D02*
X68639228Y-101820390D01*
X68639228Y-101820390D02*
X68543990Y-101868009D01*
X68543990Y-101868009D02*
X68210657Y-101868009D01*
X68972562Y-102487057D02*
X69734466Y-102487057D01*
X69972562Y-102391819D02*
X69972562Y-101391819D01*
X69972562Y-101391819D02*
X70353514Y-101391819D01*
X70353514Y-101391819D02*
X70448752Y-101439438D01*
X70448752Y-101439438D02*
X70496371Y-101487057D01*
X70496371Y-101487057D02*
X70543990Y-101582295D01*
X70543990Y-101582295D02*
X70543990Y-101725152D01*
X70543990Y-101725152D02*
X70496371Y-101820390D01*
X70496371Y-101820390D02*
X70448752Y-101868009D01*
X70448752Y-101868009D02*
X70353514Y-101915628D01*
X70353514Y-101915628D02*
X69972562Y-101915628D01*
X71543990Y-102391819D02*
X71210657Y-101915628D01*
X70972562Y-102391819D02*
X70972562Y-101391819D01*
X70972562Y-101391819D02*
X71353514Y-101391819D01*
X71353514Y-101391819D02*
X71448752Y-101439438D01*
X71448752Y-101439438D02*
X71496371Y-101487057D01*
X71496371Y-101487057D02*
X71543990Y-101582295D01*
X71543990Y-101582295D02*
X71543990Y-101725152D01*
X71543990Y-101725152D02*
X71496371Y-101820390D01*
X71496371Y-101820390D02*
X71448752Y-101868009D01*
X71448752Y-101868009D02*
X71353514Y-101915628D01*
X71353514Y-101915628D02*
X70972562Y-101915628D01*
X72163038Y-101391819D02*
X72353514Y-101391819D01*
X72353514Y-101391819D02*
X72448752Y-101439438D01*
X72448752Y-101439438D02*
X72543990Y-101534676D01*
X72543990Y-101534676D02*
X72591609Y-101725152D01*
X72591609Y-101725152D02*
X72591609Y-102058485D01*
X72591609Y-102058485D02*
X72543990Y-102248961D01*
X72543990Y-102248961D02*
X72448752Y-102344200D01*
X72448752Y-102344200D02*
X72353514Y-102391819D01*
X72353514Y-102391819D02*
X72163038Y-102391819D01*
X72163038Y-102391819D02*
X72067800Y-102344200D01*
X72067800Y-102344200D02*
X71972562Y-102248961D01*
X71972562Y-102248961D02*
X71924943Y-102058485D01*
X71924943Y-102058485D02*
X71924943Y-101725152D01*
X71924943Y-101725152D02*
X71972562Y-101534676D01*
X71972562Y-101534676D02*
X72067800Y-101439438D01*
X72067800Y-101439438D02*
X72163038Y-101391819D01*
X72782086Y-102487057D02*
X73543990Y-102487057D01*
X73782086Y-102391819D02*
X73782086Y-101391819D01*
X73782086Y-101391819D02*
X74115419Y-102106104D01*
X74115419Y-102106104D02*
X74448752Y-101391819D01*
X74448752Y-101391819D02*
X74448752Y-102391819D01*
X74924943Y-102391819D02*
X74924943Y-101391819D01*
X75972561Y-102296580D02*
X75924942Y-102344200D01*
X75924942Y-102344200D02*
X75782085Y-102391819D01*
X75782085Y-102391819D02*
X75686847Y-102391819D01*
X75686847Y-102391819D02*
X75543990Y-102344200D01*
X75543990Y-102344200D02*
X75448752Y-102248961D01*
X75448752Y-102248961D02*
X75401133Y-102153723D01*
X75401133Y-102153723D02*
X75353514Y-101963247D01*
X75353514Y-101963247D02*
X75353514Y-101820390D01*
X75353514Y-101820390D02*
X75401133Y-101629914D01*
X75401133Y-101629914D02*
X75448752Y-101534676D01*
X75448752Y-101534676D02*
X75543990Y-101439438D01*
X75543990Y-101439438D02*
X75686847Y-101391819D01*
X75686847Y-101391819D02*
X75782085Y-101391819D01*
X75782085Y-101391819D02*
X75924942Y-101439438D01*
X75924942Y-101439438D02*
X75972561Y-101487057D01*
X76972561Y-102391819D02*
X76639228Y-101915628D01*
X76401133Y-102391819D02*
X76401133Y-101391819D01*
X76401133Y-101391819D02*
X76782085Y-101391819D01*
X76782085Y-101391819D02*
X76877323Y-101439438D01*
X76877323Y-101439438D02*
X76924942Y-101487057D01*
X76924942Y-101487057D02*
X76972561Y-101582295D01*
X76972561Y-101582295D02*
X76972561Y-101725152D01*
X76972561Y-101725152D02*
X76924942Y-101820390D01*
X76924942Y-101820390D02*
X76877323Y-101868009D01*
X76877323Y-101868009D02*
X76782085Y-101915628D01*
X76782085Y-101915628D02*
X76401133Y-101915628D01*
X77591609Y-101391819D02*
X77782085Y-101391819D01*
X77782085Y-101391819D02*
X77877323Y-101439438D01*
X77877323Y-101439438D02*
X77972561Y-101534676D01*
X77972561Y-101534676D02*
X78020180Y-101725152D01*
X78020180Y-101725152D02*
X78020180Y-102058485D01*
X78020180Y-102058485D02*
X77972561Y-102248961D01*
X77972561Y-102248961D02*
X77877323Y-102344200D01*
X77877323Y-102344200D02*
X77782085Y-102391819D01*
X77782085Y-102391819D02*
X77591609Y-102391819D01*
X77591609Y-102391819D02*
X77496371Y-102344200D01*
X77496371Y-102344200D02*
X77401133Y-102248961D01*
X77401133Y-102248961D02*
X77353514Y-102058485D01*
X77353514Y-102058485D02*
X77353514Y-101725152D01*
X77353514Y-101725152D02*
X77401133Y-101534676D01*
X77401133Y-101534676D02*
X77496371Y-101439438D01*
X77496371Y-101439438D02*
X77591609Y-101391819D01*
X78972561Y-102391819D02*
X78401133Y-102391819D01*
X78686847Y-102391819D02*
X78686847Y-101391819D01*
X78686847Y-101391819D02*
X78591609Y-101534676D01*
X78591609Y-101534676D02*
X78496371Y-101629914D01*
X78496371Y-101629914D02*
X78401133Y-101677533D01*
X59520629Y-69177819D02*
X59520629Y-69987342D01*
X59520629Y-69987342D02*
X59568248Y-70082580D01*
X59568248Y-70082580D02*
X59615867Y-70130200D01*
X59615867Y-70130200D02*
X59711105Y-70177819D01*
X59711105Y-70177819D02*
X59901581Y-70177819D01*
X59901581Y-70177819D02*
X59996819Y-70130200D01*
X59996819Y-70130200D02*
X60044438Y-70082580D01*
X60044438Y-70082580D02*
X60092057Y-69987342D01*
X60092057Y-69987342D02*
X60092057Y-69177819D01*
X60520629Y-70130200D02*
X60663486Y-70177819D01*
X60663486Y-70177819D02*
X60901581Y-70177819D01*
X60901581Y-70177819D02*
X60996819Y-70130200D01*
X60996819Y-70130200D02*
X61044438Y-70082580D01*
X61044438Y-70082580D02*
X61092057Y-69987342D01*
X61092057Y-69987342D02*
X61092057Y-69892104D01*
X61092057Y-69892104D02*
X61044438Y-69796866D01*
X61044438Y-69796866D02*
X60996819Y-69749247D01*
X60996819Y-69749247D02*
X60901581Y-69701628D01*
X60901581Y-69701628D02*
X60711105Y-69654009D01*
X60711105Y-69654009D02*
X60615867Y-69606390D01*
X60615867Y-69606390D02*
X60568248Y-69558771D01*
X60568248Y-69558771D02*
X60520629Y-69463533D01*
X60520629Y-69463533D02*
X60520629Y-69368295D01*
X60520629Y-69368295D02*
X60568248Y-69273057D01*
X60568248Y-69273057D02*
X60615867Y-69225438D01*
X60615867Y-69225438D02*
X60711105Y-69177819D01*
X60711105Y-69177819D02*
X60949200Y-69177819D01*
X60949200Y-69177819D02*
X61092057Y-69225438D01*
X61853962Y-69654009D02*
X61996819Y-69701628D01*
X61996819Y-69701628D02*
X62044438Y-69749247D01*
X62044438Y-69749247D02*
X62092057Y-69844485D01*
X62092057Y-69844485D02*
X62092057Y-69987342D01*
X62092057Y-69987342D02*
X62044438Y-70082580D01*
X62044438Y-70082580D02*
X61996819Y-70130200D01*
X61996819Y-70130200D02*
X61901581Y-70177819D01*
X61901581Y-70177819D02*
X61520629Y-70177819D01*
X61520629Y-70177819D02*
X61520629Y-69177819D01*
X61520629Y-69177819D02*
X61853962Y-69177819D01*
X61853962Y-69177819D02*
X61949200Y-69225438D01*
X61949200Y-69225438D02*
X61996819Y-69273057D01*
X61996819Y-69273057D02*
X62044438Y-69368295D01*
X62044438Y-69368295D02*
X62044438Y-69463533D01*
X62044438Y-69463533D02*
X61996819Y-69558771D01*
X61996819Y-69558771D02*
X61949200Y-69606390D01*
X61949200Y-69606390D02*
X61853962Y-69654009D01*
X61853962Y-69654009D02*
X61520629Y-69654009D01*
X62282534Y-70273057D02*
X63044438Y-70273057D01*
X63282534Y-70177819D02*
X63282534Y-69511152D01*
X63282534Y-69606390D02*
X63330153Y-69558771D01*
X63330153Y-69558771D02*
X63425391Y-69511152D01*
X63425391Y-69511152D02*
X63568248Y-69511152D01*
X63568248Y-69511152D02*
X63663486Y-69558771D01*
X63663486Y-69558771D02*
X63711105Y-69654009D01*
X63711105Y-69654009D02*
X63711105Y-70177819D01*
X63711105Y-69654009D02*
X63758724Y-69558771D01*
X63758724Y-69558771D02*
X63853962Y-69511152D01*
X63853962Y-69511152D02*
X63996819Y-69511152D01*
X63996819Y-69511152D02*
X64092058Y-69558771D01*
X64092058Y-69558771D02*
X64139677Y-69654009D01*
X64139677Y-69654009D02*
X64139677Y-70177819D01*
X65044438Y-70177819D02*
X65044438Y-69654009D01*
X65044438Y-69654009D02*
X64996819Y-69558771D01*
X64996819Y-69558771D02*
X64901581Y-69511152D01*
X64901581Y-69511152D02*
X64711105Y-69511152D01*
X64711105Y-69511152D02*
X64615867Y-69558771D01*
X65044438Y-70130200D02*
X64949200Y-70177819D01*
X64949200Y-70177819D02*
X64711105Y-70177819D01*
X64711105Y-70177819D02*
X64615867Y-70130200D01*
X64615867Y-70130200D02*
X64568248Y-70034961D01*
X64568248Y-70034961D02*
X64568248Y-69939723D01*
X64568248Y-69939723D02*
X64615867Y-69844485D01*
X64615867Y-69844485D02*
X64711105Y-69796866D01*
X64711105Y-69796866D02*
X64949200Y-69796866D01*
X64949200Y-69796866D02*
X65044438Y-69749247D01*
X65520629Y-70177819D02*
X65520629Y-69511152D01*
X65520629Y-69177819D02*
X65473010Y-69225438D01*
X65473010Y-69225438D02*
X65520629Y-69273057D01*
X65520629Y-69273057D02*
X65568248Y-69225438D01*
X65568248Y-69225438D02*
X65520629Y-69177819D01*
X65520629Y-69177819D02*
X65520629Y-69273057D01*
X65996819Y-69511152D02*
X65996819Y-70177819D01*
X65996819Y-69606390D02*
X66044438Y-69558771D01*
X66044438Y-69558771D02*
X66139676Y-69511152D01*
X66139676Y-69511152D02*
X66282533Y-69511152D01*
X66282533Y-69511152D02*
X66377771Y-69558771D01*
X66377771Y-69558771D02*
X66425390Y-69654009D01*
X66425390Y-69654009D02*
X66425390Y-70177819D01*
X67425390Y-70177819D02*
X66853962Y-70177819D01*
X67139676Y-70177819D02*
X67139676Y-69177819D01*
X67139676Y-69177819D02*
X67044438Y-69320676D01*
X67044438Y-69320676D02*
X66949200Y-69415914D01*
X66949200Y-69415914D02*
X66853962Y-69463533D01*
X221859819Y-66947619D02*
X221383628Y-67280952D01*
X221859819Y-67519047D02*
X220859819Y-67519047D01*
X220859819Y-67519047D02*
X220859819Y-67138095D01*
X220859819Y-67138095D02*
X220907438Y-67042857D01*
X220907438Y-67042857D02*
X220955057Y-66995238D01*
X220955057Y-66995238D02*
X221050295Y-66947619D01*
X221050295Y-66947619D02*
X221193152Y-66947619D01*
X221193152Y-66947619D02*
X221288390Y-66995238D01*
X221288390Y-66995238D02*
X221336009Y-67042857D01*
X221336009Y-67042857D02*
X221383628Y-67138095D01*
X221383628Y-67138095D02*
X221383628Y-67519047D01*
X221812200Y-66566666D02*
X221859819Y-66423809D01*
X221859819Y-66423809D02*
X221859819Y-66185714D01*
X221859819Y-66185714D02*
X221812200Y-66090476D01*
X221812200Y-66090476D02*
X221764580Y-66042857D01*
X221764580Y-66042857D02*
X221669342Y-65995238D01*
X221669342Y-65995238D02*
X221574104Y-65995238D01*
X221574104Y-65995238D02*
X221478866Y-66042857D01*
X221478866Y-66042857D02*
X221431247Y-66090476D01*
X221431247Y-66090476D02*
X221383628Y-66185714D01*
X221383628Y-66185714D02*
X221336009Y-66376190D01*
X221336009Y-66376190D02*
X221288390Y-66471428D01*
X221288390Y-66471428D02*
X221240771Y-66519047D01*
X221240771Y-66519047D02*
X221145533Y-66566666D01*
X221145533Y-66566666D02*
X221050295Y-66566666D01*
X221050295Y-66566666D02*
X220955057Y-66519047D01*
X220955057Y-66519047D02*
X220907438Y-66471428D01*
X220907438Y-66471428D02*
X220859819Y-66376190D01*
X220859819Y-66376190D02*
X220859819Y-66138095D01*
X220859819Y-66138095D02*
X220907438Y-65995238D01*
X220859819Y-65709523D02*
X220859819Y-65138095D01*
X221859819Y-65423809D02*
X220859819Y-65423809D01*
X184059819Y-67047619D02*
X183583628Y-67380952D01*
X184059819Y-67619047D02*
X183059819Y-67619047D01*
X183059819Y-67619047D02*
X183059819Y-67238095D01*
X183059819Y-67238095D02*
X183107438Y-67142857D01*
X183107438Y-67142857D02*
X183155057Y-67095238D01*
X183155057Y-67095238D02*
X183250295Y-67047619D01*
X183250295Y-67047619D02*
X183393152Y-67047619D01*
X183393152Y-67047619D02*
X183488390Y-67095238D01*
X183488390Y-67095238D02*
X183536009Y-67142857D01*
X183536009Y-67142857D02*
X183583628Y-67238095D01*
X183583628Y-67238095D02*
X183583628Y-67619047D01*
X184012200Y-66666666D02*
X184059819Y-66523809D01*
X184059819Y-66523809D02*
X184059819Y-66285714D01*
X184059819Y-66285714D02*
X184012200Y-66190476D01*
X184012200Y-66190476D02*
X183964580Y-66142857D01*
X183964580Y-66142857D02*
X183869342Y-66095238D01*
X183869342Y-66095238D02*
X183774104Y-66095238D01*
X183774104Y-66095238D02*
X183678866Y-66142857D01*
X183678866Y-66142857D02*
X183631247Y-66190476D01*
X183631247Y-66190476D02*
X183583628Y-66285714D01*
X183583628Y-66285714D02*
X183536009Y-66476190D01*
X183536009Y-66476190D02*
X183488390Y-66571428D01*
X183488390Y-66571428D02*
X183440771Y-66619047D01*
X183440771Y-66619047D02*
X183345533Y-66666666D01*
X183345533Y-66666666D02*
X183250295Y-66666666D01*
X183250295Y-66666666D02*
X183155057Y-66619047D01*
X183155057Y-66619047D02*
X183107438Y-66571428D01*
X183107438Y-66571428D02*
X183059819Y-66476190D01*
X183059819Y-66476190D02*
X183059819Y-66238095D01*
X183059819Y-66238095D02*
X183107438Y-66095238D01*
X183059819Y-65809523D02*
X183059819Y-65238095D01*
X184059819Y-65523809D02*
X183059819Y-65523809D01*
X157801228Y-68720619D02*
X157801228Y-69530142D01*
X157801228Y-69530142D02*
X157848847Y-69625380D01*
X157848847Y-69625380D02*
X157896466Y-69673000D01*
X157896466Y-69673000D02*
X157991704Y-69720619D01*
X157991704Y-69720619D02*
X158182180Y-69720619D01*
X158182180Y-69720619D02*
X158277418Y-69673000D01*
X158277418Y-69673000D02*
X158325037Y-69625380D01*
X158325037Y-69625380D02*
X158372656Y-69530142D01*
X158372656Y-69530142D02*
X158372656Y-68720619D01*
X158801228Y-69673000D02*
X158944085Y-69720619D01*
X158944085Y-69720619D02*
X159182180Y-69720619D01*
X159182180Y-69720619D02*
X159277418Y-69673000D01*
X159277418Y-69673000D02*
X159325037Y-69625380D01*
X159325037Y-69625380D02*
X159372656Y-69530142D01*
X159372656Y-69530142D02*
X159372656Y-69434904D01*
X159372656Y-69434904D02*
X159325037Y-69339666D01*
X159325037Y-69339666D02*
X159277418Y-69292047D01*
X159277418Y-69292047D02*
X159182180Y-69244428D01*
X159182180Y-69244428D02*
X158991704Y-69196809D01*
X158991704Y-69196809D02*
X158896466Y-69149190D01*
X158896466Y-69149190D02*
X158848847Y-69101571D01*
X158848847Y-69101571D02*
X158801228Y-69006333D01*
X158801228Y-69006333D02*
X158801228Y-68911095D01*
X158801228Y-68911095D02*
X158848847Y-68815857D01*
X158848847Y-68815857D02*
X158896466Y-68768238D01*
X158896466Y-68768238D02*
X158991704Y-68720619D01*
X158991704Y-68720619D02*
X159229799Y-68720619D01*
X159229799Y-68720619D02*
X159372656Y-68768238D01*
X160134561Y-69196809D02*
X160277418Y-69244428D01*
X160277418Y-69244428D02*
X160325037Y-69292047D01*
X160325037Y-69292047D02*
X160372656Y-69387285D01*
X160372656Y-69387285D02*
X160372656Y-69530142D01*
X160372656Y-69530142D02*
X160325037Y-69625380D01*
X160325037Y-69625380D02*
X160277418Y-69673000D01*
X160277418Y-69673000D02*
X160182180Y-69720619D01*
X160182180Y-69720619D02*
X159801228Y-69720619D01*
X159801228Y-69720619D02*
X159801228Y-68720619D01*
X159801228Y-68720619D02*
X160134561Y-68720619D01*
X160134561Y-68720619D02*
X160229799Y-68768238D01*
X160229799Y-68768238D02*
X160277418Y-68815857D01*
X160277418Y-68815857D02*
X160325037Y-68911095D01*
X160325037Y-68911095D02*
X160325037Y-69006333D01*
X160325037Y-69006333D02*
X160277418Y-69101571D01*
X160277418Y-69101571D02*
X160229799Y-69149190D01*
X160229799Y-69149190D02*
X160134561Y-69196809D01*
X160134561Y-69196809D02*
X159801228Y-69196809D01*
X160563133Y-69815857D02*
X161325037Y-69815857D01*
X161515514Y-69673000D02*
X161658371Y-69720619D01*
X161658371Y-69720619D02*
X161896466Y-69720619D01*
X161896466Y-69720619D02*
X161991704Y-69673000D01*
X161991704Y-69673000D02*
X162039323Y-69625380D01*
X162039323Y-69625380D02*
X162086942Y-69530142D01*
X162086942Y-69530142D02*
X162086942Y-69434904D01*
X162086942Y-69434904D02*
X162039323Y-69339666D01*
X162039323Y-69339666D02*
X161991704Y-69292047D01*
X161991704Y-69292047D02*
X161896466Y-69244428D01*
X161896466Y-69244428D02*
X161705990Y-69196809D01*
X161705990Y-69196809D02*
X161610752Y-69149190D01*
X161610752Y-69149190D02*
X161563133Y-69101571D01*
X161563133Y-69101571D02*
X161515514Y-69006333D01*
X161515514Y-69006333D02*
X161515514Y-68911095D01*
X161515514Y-68911095D02*
X161563133Y-68815857D01*
X161563133Y-68815857D02*
X161610752Y-68768238D01*
X161610752Y-68768238D02*
X161705990Y-68720619D01*
X161705990Y-68720619D02*
X161944085Y-68720619D01*
X161944085Y-68720619D02*
X162086942Y-68768238D01*
X162515514Y-69720619D02*
X162515514Y-68720619D01*
X162515514Y-68720619D02*
X162896466Y-68720619D01*
X162896466Y-68720619D02*
X162991704Y-68768238D01*
X162991704Y-68768238D02*
X163039323Y-68815857D01*
X163039323Y-68815857D02*
X163086942Y-68911095D01*
X163086942Y-68911095D02*
X163086942Y-69053952D01*
X163086942Y-69053952D02*
X163039323Y-69149190D01*
X163039323Y-69149190D02*
X162991704Y-69196809D01*
X162991704Y-69196809D02*
X162896466Y-69244428D01*
X162896466Y-69244428D02*
X162515514Y-69244428D01*
X163991704Y-69720619D02*
X163515514Y-69720619D01*
X163515514Y-69720619D02*
X163515514Y-68720619D01*
X164325038Y-69720619D02*
X164325038Y-68720619D01*
X164658371Y-68720619D02*
X165229799Y-68720619D01*
X164944085Y-69720619D02*
X164944085Y-68720619D01*
X165325038Y-69815857D02*
X166086942Y-69815857D01*
X166801228Y-69720619D02*
X166325038Y-69720619D01*
X166325038Y-69720619D02*
X166325038Y-68720619D01*
X349559819Y-114433333D02*
X350274104Y-114433333D01*
X350274104Y-114433333D02*
X350416961Y-114480952D01*
X350416961Y-114480952D02*
X350512200Y-114576190D01*
X350512200Y-114576190D02*
X350559819Y-114719047D01*
X350559819Y-114719047D02*
X350559819Y-114814285D01*
X349893152Y-113528571D02*
X350559819Y-113528571D01*
X349512200Y-113766666D02*
X350226485Y-114004761D01*
X350226485Y-114004761D02*
X350226485Y-113385714D01*
X24404819Y-77432819D02*
X24595295Y-77432819D01*
X24595295Y-77432819D02*
X24690533Y-77480438D01*
X24690533Y-77480438D02*
X24785771Y-77575676D01*
X24785771Y-77575676D02*
X24833390Y-77766152D01*
X24833390Y-77766152D02*
X24833390Y-78099485D01*
X24833390Y-78099485D02*
X24785771Y-78289961D01*
X24785771Y-78289961D02*
X24690533Y-78385200D01*
X24690533Y-78385200D02*
X24595295Y-78432819D01*
X24595295Y-78432819D02*
X24404819Y-78432819D01*
X24404819Y-78432819D02*
X24309581Y-78385200D01*
X24309581Y-78385200D02*
X24214343Y-78289961D01*
X24214343Y-78289961D02*
X24166724Y-78099485D01*
X24166724Y-78099485D02*
X24166724Y-77766152D01*
X24166724Y-77766152D02*
X24214343Y-77575676D01*
X24214343Y-77575676D02*
X24309581Y-77480438D01*
X24309581Y-77480438D02*
X24404819Y-77432819D01*
X25738152Y-78432819D02*
X25261962Y-78432819D01*
X25261962Y-78432819D02*
X25261962Y-77432819D01*
X26071486Y-77909009D02*
X26404819Y-77909009D01*
X26547676Y-78432819D02*
X26071486Y-78432819D01*
X26071486Y-78432819D02*
X26071486Y-77432819D01*
X26071486Y-77432819D02*
X26547676Y-77432819D01*
X26976248Y-78432819D02*
X26976248Y-77432819D01*
X26976248Y-77432819D02*
X27214343Y-77432819D01*
X27214343Y-77432819D02*
X27357200Y-77480438D01*
X27357200Y-77480438D02*
X27452438Y-77575676D01*
X27452438Y-77575676D02*
X27500057Y-77670914D01*
X27500057Y-77670914D02*
X27547676Y-77861390D01*
X27547676Y-77861390D02*
X27547676Y-78004247D01*
X27547676Y-78004247D02*
X27500057Y-78194723D01*
X27500057Y-78194723D02*
X27452438Y-78289961D01*
X27452438Y-78289961D02*
X27357200Y-78385200D01*
X27357200Y-78385200D02*
X27214343Y-78432819D01*
X27214343Y-78432819D02*
X26976248Y-78432819D01*
%TO.C,D65*%
X40586999Y-154904950D02*
X42086999Y-154904950D01*
X42086999Y-154904950D02*
X42086999Y-149504950D01*
X40836999Y-152704950D02*
X41836999Y-152704950D01*
X41336999Y-152604950D02*
X40836999Y-151704950D01*
X40836999Y-151704950D02*
X41836999Y-151704950D01*
X41836999Y-151704950D02*
X41336999Y-152604950D01*
X40586999Y-149504950D02*
X40586999Y-154904950D01*
X42086999Y-149504950D02*
X40586999Y-149504950D01*
%TO.C,D32*%
X365759249Y-97854950D02*
X367259249Y-97854950D01*
X367259249Y-97854950D02*
X367259249Y-92454950D01*
X366009249Y-95654950D02*
X367009249Y-95654950D01*
X366509249Y-95554950D02*
X366009249Y-94654950D01*
X366009249Y-94654950D02*
X367009249Y-94654950D01*
X367009249Y-94654950D02*
X366509249Y-95554950D01*
X365759249Y-92454950D02*
X365759249Y-97854950D01*
X367259249Y-92454950D02*
X365759249Y-92454950D01*
%TO.C,D67*%
X85711999Y-154904950D02*
X87211999Y-154904950D01*
X87211999Y-154904950D02*
X87211999Y-149504950D01*
X85961999Y-152704950D02*
X86961999Y-152704950D01*
X86461999Y-152604950D02*
X85961999Y-151704950D01*
X85961999Y-151704950D02*
X86961999Y-151704950D01*
X86961999Y-151704950D02*
X86461999Y-152604950D01*
X85711999Y-149504950D02*
X85711999Y-154904950D01*
X87211999Y-149504950D02*
X85711999Y-149504950D01*
%TO.C,D50*%
X59586999Y-135904950D02*
X61086999Y-135904950D01*
X61086999Y-135904950D02*
X61086999Y-130504950D01*
X59836999Y-133704950D02*
X60836999Y-133704950D01*
X60336999Y-133604950D02*
X59836999Y-132704950D01*
X59836999Y-132704950D02*
X60836999Y-132704950D01*
X60836999Y-132704950D02*
X60336999Y-133604950D01*
X59586999Y-130504950D02*
X59586999Y-135904950D01*
X61086999Y-130504950D02*
X59586999Y-130504950D01*
%TO.C,D73*%
X242284249Y-154904950D02*
X243784249Y-154904950D01*
X243784249Y-154904950D02*
X243784249Y-149504950D01*
X242534249Y-152704950D02*
X243534249Y-152704950D01*
X243034249Y-152604950D02*
X242534249Y-151704950D01*
X242534249Y-151704950D02*
X243534249Y-151704950D01*
X243534249Y-151704950D02*
X243034249Y-152604950D01*
X242284249Y-149504950D02*
X242284249Y-154904950D01*
X243784249Y-149504950D02*
X242284249Y-149504950D01*
%TO.C,D46*%
X304009249Y-116879950D02*
X305509249Y-116879950D01*
X305509249Y-116879950D02*
X305509249Y-111479950D01*
X304259249Y-114679950D02*
X305259249Y-114679950D01*
X304759249Y-114579950D02*
X304259249Y-113679950D01*
X304259249Y-113679950D02*
X305259249Y-113679950D01*
X305259249Y-113679950D02*
X304759249Y-114579950D01*
X304009249Y-111479950D02*
X304009249Y-116879950D01*
X305509249Y-111479950D02*
X304009249Y-111479950D01*
%TO.C,D38*%
X154611999Y-116879950D02*
X156111999Y-116879950D01*
X156111999Y-116879950D02*
X156111999Y-111479950D01*
X154861999Y-114679950D02*
X155861999Y-114679950D01*
X155361999Y-114579950D02*
X154861999Y-113679950D01*
X154861999Y-113679950D02*
X155861999Y-113679950D01*
X155861999Y-113679950D02*
X155361999Y-114579950D01*
X154611999Y-111479950D02*
X154611999Y-116879950D01*
X156111999Y-111479950D02*
X154611999Y-111479950D01*
%TO.C,D76*%
X308759249Y-154904950D02*
X310259249Y-154904950D01*
X310259249Y-154904950D02*
X310259249Y-149504950D01*
X309009249Y-152704950D02*
X310009249Y-152704950D01*
X309509249Y-152604950D02*
X309009249Y-151704950D01*
X309009249Y-151704950D02*
X310009249Y-151704950D01*
X310009249Y-151704950D02*
X309509249Y-152604950D01*
X308759249Y-149504950D02*
X308759249Y-154904950D01*
X310259249Y-149504950D02*
X308759249Y-149504950D01*
%TO.C,D74*%
X270759249Y-154904950D02*
X272259249Y-154904950D01*
X272259249Y-154904950D02*
X272259249Y-149504950D01*
X271009249Y-152704950D02*
X272009249Y-152704950D01*
X271509249Y-152604950D02*
X271009249Y-151704950D01*
X271009249Y-151704950D02*
X272009249Y-151704950D01*
X272009249Y-151704950D02*
X271509249Y-152604950D01*
X270759249Y-149504950D02*
X270759249Y-154904950D01*
X272259249Y-149504950D02*
X270759249Y-149504950D01*
%TO.C,D52*%
X126111999Y-135904950D02*
X127611999Y-135904950D01*
X127611999Y-135904950D02*
X127611999Y-130504950D01*
X126361999Y-133704950D02*
X127361999Y-133704950D01*
X126861999Y-133604950D02*
X126361999Y-132704950D01*
X126361999Y-132704950D02*
X127361999Y-132704950D01*
X127361999Y-132704950D02*
X126861999Y-133604950D01*
X126111999Y-130504950D02*
X126111999Y-135904950D01*
X127611999Y-130504950D02*
X126111999Y-130504950D01*
%TO.C,D39*%
X173611999Y-116879950D02*
X175111999Y-116879950D01*
X175111999Y-116879950D02*
X175111999Y-111479950D01*
X173861999Y-114679950D02*
X174861999Y-114679950D01*
X174361999Y-114579950D02*
X173861999Y-113679950D01*
X173861999Y-113679950D02*
X174861999Y-113679950D01*
X174861999Y-113679950D02*
X174361999Y-114579950D01*
X173611999Y-111479950D02*
X173611999Y-116879950D01*
X175111999Y-111479950D02*
X173611999Y-111479950D01*
%TO.C,D15*%
X346741000Y-78848000D02*
X348241000Y-78848000D01*
X348241000Y-78848000D02*
X348241000Y-73448000D01*
X346991000Y-76648000D02*
X347991000Y-76648000D01*
X347491000Y-76548000D02*
X346991000Y-75648000D01*
X346991000Y-75648000D02*
X347991000Y-75648000D01*
X347991000Y-75648000D02*
X347491000Y-76548000D01*
X346741000Y-73448000D02*
X346741000Y-78848000D01*
X348241000Y-73448000D02*
X346741000Y-73448000D01*
%TO.C,D44*%
X266009249Y-116879950D02*
X267509249Y-116879950D01*
X267509249Y-116879950D02*
X267509249Y-111479950D01*
X266259249Y-114679950D02*
X267259249Y-114679950D01*
X266759249Y-114579950D02*
X266259249Y-113679950D01*
X266259249Y-113679950D02*
X267259249Y-113679950D01*
X267259249Y-113679950D02*
X266759249Y-114579950D01*
X266009249Y-111479950D02*
X266009249Y-116879950D01*
X267509249Y-111479950D02*
X266009249Y-111479950D01*
%TO.C,D4*%
X140361999Y-78854950D02*
X141861999Y-78854950D01*
X141861999Y-78854950D02*
X141861999Y-73454950D01*
X140611999Y-76654950D02*
X141611999Y-76654950D01*
X141111999Y-76554950D02*
X140611999Y-75654950D01*
X140611999Y-75654950D02*
X141611999Y-75654950D01*
X141611999Y-75654950D02*
X141111999Y-76554950D01*
X140361999Y-73454950D02*
X140361999Y-78854950D01*
X141861999Y-73454950D02*
X140361999Y-73454950D01*
%TO.C,D43*%
X247009249Y-116879950D02*
X248509249Y-116879950D01*
X248509249Y-116879950D02*
X248509249Y-111479950D01*
X247259249Y-114679950D02*
X248259249Y-114679950D01*
X247759249Y-114579950D02*
X247259249Y-113679950D01*
X247259249Y-113679950D02*
X248259249Y-113679950D01*
X248259249Y-113679950D02*
X247759249Y-114579950D01*
X247009249Y-111479950D02*
X247009249Y-116879950D01*
X248509249Y-111479950D02*
X247009249Y-111479950D01*
%TO.C,D41*%
X209009249Y-116879950D02*
X210509249Y-116879950D01*
X210509249Y-116879950D02*
X210509249Y-111479950D01*
X209259249Y-114679950D02*
X210259249Y-114679950D01*
X209759249Y-114579950D02*
X209259249Y-113679950D01*
X209259249Y-113679950D02*
X210259249Y-113679950D01*
X210259249Y-113679950D02*
X209759249Y-114579950D01*
X209009249Y-111479950D02*
X209009249Y-116879950D01*
X210509249Y-111479950D02*
X209009249Y-111479950D01*
%TO.C,D1*%
X83361999Y-78854950D02*
X84861999Y-78854950D01*
X84861999Y-78854950D02*
X84861999Y-73454950D01*
X83611999Y-76654950D02*
X84611999Y-76654950D01*
X84111999Y-76554950D02*
X83611999Y-75654950D01*
X83611999Y-75654950D02*
X84611999Y-75654950D01*
X84611999Y-75654950D02*
X84111999Y-76554950D01*
X83361999Y-73454950D02*
X83361999Y-78854950D01*
X84861999Y-73454950D02*
X83361999Y-73454950D01*
%TO.C,D11*%
X270759249Y-78854950D02*
X272259249Y-78854950D01*
X272259249Y-78854950D02*
X272259249Y-73454950D01*
X271009249Y-76654950D02*
X272009249Y-76654950D01*
X271509249Y-76554950D02*
X271009249Y-75654950D01*
X271009249Y-75654950D02*
X272009249Y-75654950D01*
X272009249Y-75654950D02*
X271509249Y-76554950D01*
X270759249Y-73454950D02*
X270759249Y-78854950D01*
X272259249Y-73454950D02*
X270759249Y-73454950D01*
%TO.C,D51*%
X95211999Y-135904950D02*
X96711999Y-135904950D01*
X96711999Y-135904950D02*
X96711999Y-130504950D01*
X95461999Y-133704950D02*
X96461999Y-133704950D01*
X95961999Y-133604950D02*
X95461999Y-132704950D01*
X95461999Y-132704950D02*
X96461999Y-132704950D01*
X96461999Y-132704950D02*
X95961999Y-133604950D01*
X95211999Y-130504950D02*
X95211999Y-135904950D01*
X96711999Y-130504950D02*
X95211999Y-130504950D01*
%TO.C,D59*%
X256509249Y-135904950D02*
X258009249Y-135904950D01*
X258009249Y-135904950D02*
X258009249Y-130504950D01*
X256759249Y-133704950D02*
X257759249Y-133704950D01*
X257259249Y-133604950D02*
X256759249Y-132704950D01*
X256759249Y-132704950D02*
X257759249Y-132704950D01*
X257759249Y-132704950D02*
X257259249Y-133604950D01*
X256509249Y-130504950D02*
X256509249Y-135904950D01*
X258009249Y-130504950D02*
X256509249Y-130504950D01*
%TO.C,D9*%
X215850000Y-78000000D02*
X217350000Y-78000000D01*
X217350000Y-78000000D02*
X217350000Y-72600000D01*
X216100000Y-75800000D02*
X217100000Y-75800000D01*
X216600000Y-75700000D02*
X216100000Y-74800000D01*
X216100000Y-74800000D02*
X217100000Y-74800000D01*
X217100000Y-74800000D02*
X216600000Y-75700000D01*
X215850000Y-72600000D02*
X215850000Y-78000000D01*
X217350000Y-72600000D02*
X215850000Y-72600000D01*
%TO.C,D3*%
X121361999Y-78854950D02*
X122861999Y-78854950D01*
X122861999Y-78854950D02*
X122861999Y-73454950D01*
X121611999Y-76654950D02*
X122611999Y-76654950D01*
X122111999Y-76554950D02*
X121611999Y-75654950D01*
X121611999Y-75654950D02*
X122611999Y-75654950D01*
X122611999Y-75654950D02*
X122111999Y-76554950D01*
X121361999Y-73454950D02*
X121361999Y-78854950D01*
X122861999Y-73454950D02*
X121361999Y-73454950D01*
%TO.C,D42*%
X228009249Y-116879950D02*
X229509249Y-116879950D01*
X229509249Y-116879950D02*
X229509249Y-111479950D01*
X228259249Y-114679950D02*
X229259249Y-114679950D01*
X228759249Y-114579950D02*
X228259249Y-113679950D01*
X228259249Y-113679950D02*
X229259249Y-113679950D01*
X229259249Y-113679950D02*
X228759249Y-114579950D01*
X228009249Y-111479950D02*
X228009249Y-116879950D01*
X229509249Y-111479950D02*
X228009249Y-111479950D01*
%TO.C,D64*%
X365759249Y-135904950D02*
X367259249Y-135904950D01*
X367259249Y-135904950D02*
X367259249Y-130504950D01*
X366009249Y-133704950D02*
X367009249Y-133704950D01*
X366509249Y-133604950D02*
X366009249Y-132704950D01*
X366009249Y-132704950D02*
X367009249Y-132704950D01*
X367009249Y-132704950D02*
X366509249Y-133604950D01*
X365759249Y-130504950D02*
X365759249Y-135904950D01*
X367259249Y-130504950D02*
X365759249Y-130504950D01*
%TO.C,D23*%
X171045000Y-100480000D02*
X172545000Y-100480000D01*
X172545000Y-100480000D02*
X172545000Y-95080000D01*
X171295000Y-98280000D02*
X172295000Y-98280000D01*
X171795000Y-98180000D02*
X171295000Y-97280000D01*
X171295000Y-97280000D02*
X172295000Y-97280000D01*
X172295000Y-97280000D02*
X171795000Y-98180000D01*
X171045000Y-95080000D02*
X171045000Y-100480000D01*
X172545000Y-95080000D02*
X171045000Y-95080000D01*
%TO.C,D33*%
X40586999Y-116879950D02*
X42086999Y-116879950D01*
X42086999Y-116879950D02*
X42086999Y-111479950D01*
X40836999Y-114679950D02*
X41836999Y-114679950D01*
X41336999Y-114579950D02*
X40836999Y-113679950D01*
X40836999Y-113679950D02*
X41836999Y-113679950D01*
X41836999Y-113679950D02*
X41336999Y-114579950D01*
X40586999Y-111479950D02*
X40586999Y-116879950D01*
X42086999Y-111479950D02*
X40586999Y-111479950D01*
%TO.C,D8*%
X213759249Y-78854950D02*
X215259249Y-78854950D01*
X215259249Y-78854950D02*
X215259249Y-73454950D01*
X214009249Y-76654950D02*
X215009249Y-76654950D01*
X214509249Y-76554950D02*
X214009249Y-75654950D01*
X214009249Y-75654950D02*
X215009249Y-75654950D01*
X215009249Y-75654950D02*
X214509249Y-76554950D01*
X213759249Y-73454950D02*
X213759249Y-78854950D01*
X215259249Y-73454950D02*
X213759249Y-73454950D01*
%TO.C,D45*%
X285009249Y-116879950D02*
X286509249Y-116879950D01*
X286509249Y-116879950D02*
X286509249Y-111479950D01*
X285259249Y-114679950D02*
X286259249Y-114679950D01*
X285759249Y-114579950D02*
X285259249Y-113679950D01*
X285259249Y-113679950D02*
X286259249Y-113679950D01*
X286259249Y-113679950D02*
X285759249Y-114579950D01*
X285009249Y-111479950D02*
X285009249Y-116879950D01*
X286509249Y-111479950D02*
X285009249Y-111479950D01*
%TO.C,D70*%
X161711999Y-154904950D02*
X163211999Y-154904950D01*
X163211999Y-154904950D02*
X163211999Y-149504950D01*
X161961999Y-152704950D02*
X162961999Y-152704950D01*
X162461999Y-152604950D02*
X161961999Y-151704950D01*
X161961999Y-151704950D02*
X162961999Y-151704950D01*
X162961999Y-151704950D02*
X162461999Y-152604950D01*
X161711999Y-149504950D02*
X161711999Y-154904950D01*
X163211999Y-149504950D02*
X161711999Y-149504950D01*
%TO.C,D24*%
X204259249Y-97854950D02*
X205759249Y-97854950D01*
X205759249Y-97854950D02*
X205759249Y-92454950D01*
X204509249Y-95654950D02*
X205509249Y-95654950D01*
X205009249Y-95554950D02*
X204509249Y-94654950D01*
X204509249Y-94654950D02*
X205509249Y-94654950D01*
X205509249Y-94654950D02*
X205009249Y-95554950D01*
X204259249Y-92454950D02*
X204259249Y-97854950D01*
X205759249Y-92454950D02*
X204259249Y-92454950D01*
%TO.C,D26*%
X242259249Y-97854950D02*
X243759249Y-97854950D01*
X243759249Y-97854950D02*
X243759249Y-92454950D01*
X242509249Y-95654950D02*
X243509249Y-95654950D01*
X243009249Y-95554950D02*
X242509249Y-94654950D01*
X242509249Y-94654950D02*
X243509249Y-94654950D01*
X243509249Y-94654950D02*
X243009249Y-95554950D01*
X242259249Y-92454950D02*
X242259249Y-97854950D01*
X243759249Y-92454950D02*
X242259249Y-92454950D01*
%TO.C,D6*%
X161850000Y-77100000D02*
X163350000Y-77100000D01*
X163350000Y-77100000D02*
X163350000Y-71700000D01*
X162100000Y-74900000D02*
X163100000Y-74900000D01*
X162600000Y-74800000D02*
X162100000Y-73900000D01*
X162100000Y-73900000D02*
X163100000Y-73900000D01*
X163100000Y-73900000D02*
X162600000Y-74800000D01*
X161850000Y-71700000D02*
X161850000Y-77100000D01*
X163350000Y-71700000D02*
X161850000Y-71700000D01*
%TO.C,D14*%
X337284249Y-78854950D02*
X338784249Y-78854950D01*
X338784249Y-78854950D02*
X338784249Y-73454950D01*
X337534249Y-76654950D02*
X338534249Y-76654950D01*
X338034249Y-76554950D02*
X337534249Y-75654950D01*
X337534249Y-75654950D02*
X338534249Y-75654950D01*
X338534249Y-75654950D02*
X338034249Y-76554950D01*
X337284249Y-73454950D02*
X337284249Y-78854950D01*
X338784249Y-73454950D02*
X337284249Y-73454950D01*
%TO.C,D12*%
X289759249Y-78854950D02*
X291259249Y-78854950D01*
X291259249Y-78854950D02*
X291259249Y-73454950D01*
X290009249Y-76654950D02*
X291009249Y-76654950D01*
X290509249Y-76554950D02*
X290009249Y-75654950D01*
X290009249Y-75654950D02*
X291009249Y-75654950D01*
X291009249Y-75654950D02*
X290509249Y-76554950D01*
X289759249Y-73454950D02*
X289759249Y-78854950D01*
X291259249Y-73454950D02*
X289759249Y-73454950D01*
%TO.C,D36*%
X116611999Y-116879950D02*
X118111999Y-116879950D01*
X118111999Y-116879950D02*
X118111999Y-111479950D01*
X116861999Y-114679950D02*
X117861999Y-114679950D01*
X117361999Y-114579950D02*
X116861999Y-113679950D01*
X116861999Y-113679950D02*
X117861999Y-113679950D01*
X117861999Y-113679950D02*
X117361999Y-114579950D01*
X116611999Y-111479950D02*
X116611999Y-116879950D01*
X118111999Y-111479950D02*
X116611999Y-111479950D01*
%TO.C,D29*%
X299259249Y-97854950D02*
X300759249Y-97854950D01*
X300759249Y-97854950D02*
X300759249Y-92454950D01*
X299509249Y-95654950D02*
X300509249Y-95654950D01*
X300009249Y-95554950D02*
X299509249Y-94654950D01*
X299509249Y-94654950D02*
X300509249Y-94654950D01*
X300509249Y-94654950D02*
X300009249Y-95554950D01*
X299259249Y-92454950D02*
X299259249Y-97854950D01*
X300759249Y-92454950D02*
X299259249Y-92454950D01*
%TO.C,D69*%
X126111999Y-154904950D02*
X127611999Y-154904950D01*
X127611999Y-154904950D02*
X127611999Y-149504950D01*
X126361999Y-152704950D02*
X127361999Y-152704950D01*
X126861999Y-152604950D02*
X126361999Y-151704950D01*
X126361999Y-151704950D02*
X127361999Y-151704950D01*
X127361999Y-151704950D02*
X126861999Y-152604950D01*
X126111999Y-149504950D02*
X126111999Y-154904950D01*
X127611999Y-149504950D02*
X126111999Y-149504950D01*
%TO.C,D20*%
X130861999Y-97854950D02*
X132361999Y-97854950D01*
X132361999Y-97854950D02*
X132361999Y-92454950D01*
X131111999Y-95654950D02*
X132111999Y-95654950D01*
X131611999Y-95554950D02*
X131111999Y-94654950D01*
X131111999Y-94654950D02*
X132111999Y-94654950D01*
X132111999Y-94654950D02*
X131611999Y-95554950D01*
X130861999Y-92454950D02*
X130861999Y-97854950D01*
X132361999Y-92454950D02*
X130861999Y-92454950D01*
%TO.C,D47*%
X334909249Y-116879950D02*
X336409249Y-116879950D01*
X336409249Y-116879950D02*
X336409249Y-111479950D01*
X335159249Y-114679950D02*
X336159249Y-114679950D01*
X335659249Y-114579950D02*
X335159249Y-113679950D01*
X335159249Y-113679950D02*
X336159249Y-113679950D01*
X336159249Y-113679950D02*
X335659249Y-114579950D01*
X334909249Y-111479950D02*
X334909249Y-116879950D01*
X336409249Y-111479950D02*
X334909249Y-111479950D01*
%TO.C,D62*%
X321800000Y-133150000D02*
X323300000Y-133150000D01*
X323300000Y-133150000D02*
X323300000Y-127750000D01*
X322050000Y-130950000D02*
X323050000Y-130950000D01*
X322550000Y-130850000D02*
X322050000Y-129950000D01*
X322050000Y-129950000D02*
X323050000Y-129950000D01*
X323050000Y-129950000D02*
X322550000Y-130850000D01*
X321800000Y-127750000D02*
X321800000Y-133150000D01*
X323300000Y-127750000D02*
X321800000Y-127750000D01*
%TO.C,D48*%
X365759249Y-116879950D02*
X367259249Y-116879950D01*
X367259249Y-116879950D02*
X367259249Y-111479950D01*
X366009249Y-114679950D02*
X367009249Y-114679950D01*
X366509249Y-114579950D02*
X366009249Y-113679950D01*
X366009249Y-113679950D02*
X367009249Y-113679950D01*
X367009249Y-113679950D02*
X366509249Y-114579950D01*
X365759249Y-111479950D02*
X365759249Y-116879950D01*
X367259249Y-111479950D02*
X365759249Y-111479950D01*
%TO.C,D22*%
X168861999Y-97854950D02*
X170361999Y-97854950D01*
X170361999Y-97854950D02*
X170361999Y-92454950D01*
X169111999Y-95654950D02*
X170111999Y-95654950D01*
X169611999Y-95554950D02*
X169111999Y-94654950D01*
X169111999Y-94654950D02*
X170111999Y-94654950D01*
X170111999Y-94654950D02*
X169611999Y-95554950D01*
X168861999Y-92454950D02*
X168861999Y-97854950D01*
X170361999Y-92454950D02*
X168861999Y-92454950D01*
%TO.C,D16*%
X40586999Y-97854950D02*
X42086999Y-97854950D01*
X42086999Y-97854950D02*
X42086999Y-92454950D01*
X40836999Y-95654950D02*
X41836999Y-95654950D01*
X41336999Y-95554950D02*
X40836999Y-94654950D01*
X40836999Y-94654950D02*
X41836999Y-94654950D01*
X41836999Y-94654950D02*
X41336999Y-95554950D01*
X40586999Y-92454950D02*
X40586999Y-97854950D01*
X42086999Y-92454950D02*
X40586999Y-92454950D01*
%TO.C,D49*%
X40586999Y-135904950D02*
X42086999Y-135904950D01*
X42086999Y-135904950D02*
X42086999Y-130504950D01*
X40836999Y-133704950D02*
X41836999Y-133704950D01*
X41336999Y-133604950D02*
X40836999Y-132704950D01*
X40836999Y-132704950D02*
X41836999Y-132704950D01*
X41836999Y-132704950D02*
X41336999Y-133604950D01*
X40586999Y-130504950D02*
X40586999Y-135904950D01*
X42086999Y-130504950D02*
X40586999Y-130504950D01*
%TO.C,D25*%
X223259249Y-97854950D02*
X224759249Y-97854950D01*
X224759249Y-97854950D02*
X224759249Y-92454950D01*
X223509249Y-95654950D02*
X224509249Y-95654950D01*
X224009249Y-95554950D02*
X223509249Y-94654950D01*
X223509249Y-94654950D02*
X224509249Y-94654950D01*
X224509249Y-94654950D02*
X224009249Y-95554950D01*
X223259249Y-92454950D02*
X223259249Y-97854950D01*
X224759249Y-92454950D02*
X223259249Y-92454950D01*
%TO.C,D53*%
X145111999Y-135904950D02*
X146611999Y-135904950D01*
X146611999Y-135904950D02*
X146611999Y-130504950D01*
X145361999Y-133704950D02*
X146361999Y-133704950D01*
X145861999Y-133604950D02*
X145361999Y-132704950D01*
X145361999Y-132704950D02*
X146361999Y-132704950D01*
X146361999Y-132704950D02*
X145861999Y-133604950D01*
X145111999Y-130504950D02*
X145111999Y-135904950D01*
X146611999Y-130504950D02*
X145111999Y-130504950D01*
%TO.C,D28*%
X280259249Y-97854950D02*
X281759249Y-97854950D01*
X281759249Y-97854950D02*
X281759249Y-92454950D01*
X280509249Y-95654950D02*
X281509249Y-95654950D01*
X281009249Y-95554950D02*
X280509249Y-94654950D01*
X280509249Y-94654950D02*
X281509249Y-94654950D01*
X281509249Y-94654950D02*
X281009249Y-95554950D01*
X280259249Y-92454950D02*
X280259249Y-97854950D01*
X281759249Y-92454950D02*
X280259249Y-92454950D01*
%TO.C,D7*%
X180505000Y-81455000D02*
X182005000Y-81455000D01*
X182005000Y-81455000D02*
X182005000Y-76055000D01*
X180755000Y-79255000D02*
X181755000Y-79255000D01*
X181255000Y-79155000D02*
X180755000Y-78255000D01*
X180755000Y-78255000D02*
X181755000Y-78255000D01*
X181755000Y-78255000D02*
X181255000Y-79155000D01*
X180505000Y-76055000D02*
X180505000Y-81455000D01*
X182005000Y-76055000D02*
X180505000Y-76055000D01*
%TO.C,D61*%
X294509249Y-135904950D02*
X296009249Y-135904950D01*
X296009249Y-135904950D02*
X296009249Y-130504950D01*
X294759249Y-133704950D02*
X295759249Y-133704950D01*
X295259249Y-133604950D02*
X294759249Y-132704950D01*
X294759249Y-132704950D02*
X295759249Y-132704950D01*
X295759249Y-132704950D02*
X295259249Y-133604950D01*
X294509249Y-130504950D02*
X294509249Y-135904950D01*
X296009249Y-130504950D02*
X294509249Y-130504950D01*
%TO.C,D37*%
X135611999Y-116879950D02*
X137111999Y-116879950D01*
X137111999Y-116879950D02*
X137111999Y-111479950D01*
X135861999Y-114679950D02*
X136861999Y-114679950D01*
X136361999Y-114579950D02*
X135861999Y-113679950D01*
X135861999Y-113679950D02*
X136861999Y-113679950D01*
X136861999Y-113679950D02*
X136361999Y-114579950D01*
X135611999Y-111479950D02*
X135611999Y-116879950D01*
X137111999Y-111479950D02*
X135611999Y-111479950D01*
%TO.C,D77*%
X327759249Y-154904950D02*
X329259249Y-154904950D01*
X329259249Y-154904950D02*
X329259249Y-149504950D01*
X328009249Y-152704950D02*
X329009249Y-152704950D01*
X328509249Y-152604950D02*
X328009249Y-151704950D01*
X328009249Y-151704950D02*
X329009249Y-151704950D01*
X329009249Y-151704950D02*
X328509249Y-152604950D01*
X327759249Y-149504950D02*
X327759249Y-154904950D01*
X329259249Y-149504950D02*
X327759249Y-149504950D01*
%TO.C,D10*%
X235250000Y-79300000D02*
X236750000Y-79300000D01*
X236750000Y-79300000D02*
X236750000Y-73900000D01*
X235500000Y-77100000D02*
X236500000Y-77100000D01*
X236000000Y-77000000D02*
X235500000Y-76100000D01*
X235500000Y-76100000D02*
X236500000Y-76100000D01*
X236500000Y-76100000D02*
X236000000Y-77000000D01*
X235250000Y-73900000D02*
X235250000Y-79300000D01*
X236750000Y-73900000D02*
X235250000Y-73900000D01*
%TO.C,D57*%
X218509249Y-135904950D02*
X220009249Y-135904950D01*
X220009249Y-135904950D02*
X220009249Y-130504950D01*
X218759249Y-133704950D02*
X219759249Y-133704950D01*
X219259249Y-133604950D02*
X218759249Y-132704950D01*
X218759249Y-132704950D02*
X219759249Y-132704950D01*
X219759249Y-132704950D02*
X219259249Y-133604950D01*
X218509249Y-130504950D02*
X218509249Y-135904950D01*
X220009249Y-130504950D02*
X218509249Y-130504950D01*
%TO.C,D75*%
X289759249Y-154904950D02*
X291259249Y-154904950D01*
X291259249Y-154904950D02*
X291259249Y-149504950D01*
X290009249Y-152704950D02*
X291009249Y-152704950D01*
X290509249Y-152604950D02*
X290009249Y-151704950D01*
X290009249Y-151704950D02*
X291009249Y-151704950D01*
X291009249Y-151704950D02*
X290509249Y-152604950D01*
X289759249Y-149504950D02*
X289759249Y-154904950D01*
X291259249Y-149504950D02*
X289759249Y-149504950D01*
%TO.C,D56*%
X185290000Y-137720000D02*
X186790000Y-137720000D01*
X186790000Y-137720000D02*
X186790000Y-132320000D01*
X185540000Y-135520000D02*
X186540000Y-135520000D01*
X186040000Y-135420000D02*
X185540000Y-134520000D01*
X185540000Y-134520000D02*
X186540000Y-134520000D01*
X186540000Y-134520000D02*
X186040000Y-135420000D01*
X185290000Y-132320000D02*
X185290000Y-137720000D01*
X186790000Y-132320000D02*
X185290000Y-132320000D01*
%TO.C,D60*%
X275509249Y-135904950D02*
X277009249Y-135904950D01*
X277009249Y-135904950D02*
X277009249Y-130504950D01*
X275759249Y-133704950D02*
X276759249Y-133704950D01*
X276259249Y-133604950D02*
X275759249Y-132704950D01*
X275759249Y-132704950D02*
X276759249Y-132704950D01*
X276759249Y-132704950D02*
X276259249Y-133604950D01*
X275509249Y-130504950D02*
X275509249Y-135904950D01*
X277009249Y-130504950D02*
X275509249Y-130504950D01*
%TO.C,D5*%
X142887000Y-77246000D02*
X144387000Y-77246000D01*
X144387000Y-77246000D02*
X144387000Y-71846000D01*
X143137000Y-75046000D02*
X144137000Y-75046000D01*
X143637000Y-74946000D02*
X143137000Y-74046000D01*
X143137000Y-74046000D02*
X144137000Y-74046000D01*
X144137000Y-74046000D02*
X143637000Y-74946000D01*
X142887000Y-71846000D02*
X142887000Y-77246000D01*
X144387000Y-71846000D02*
X142887000Y-71846000D01*
%TO.C,D35*%
X90461999Y-116879950D02*
X91961999Y-116879950D01*
X91961999Y-116879950D02*
X91961999Y-111479950D01*
X90711999Y-114679950D02*
X91711999Y-114679950D01*
X91211999Y-114579950D02*
X90711999Y-113679950D01*
X90711999Y-113679950D02*
X91711999Y-113679950D01*
X91711999Y-113679950D02*
X91211999Y-114579950D01*
X90461999Y-111479950D02*
X90461999Y-116879950D01*
X91961999Y-111479950D02*
X90461999Y-111479950D01*
%TO.C,D21*%
X149861999Y-97854950D02*
X151361999Y-97854950D01*
X151361999Y-97854950D02*
X151361999Y-92454950D01*
X150111999Y-95654950D02*
X151111999Y-95654950D01*
X150611999Y-95554950D02*
X150111999Y-94654950D01*
X150111999Y-94654950D02*
X151111999Y-94654950D01*
X151111999Y-94654950D02*
X150611999Y-95554950D01*
X149861999Y-92454950D02*
X149861999Y-97854950D01*
X151361999Y-92454950D02*
X149861999Y-92454950D01*
%TO.C,D13*%
X308759249Y-78854950D02*
X310259249Y-78854950D01*
X310259249Y-78854950D02*
X310259249Y-73454950D01*
X309009249Y-76654950D02*
X310009249Y-76654950D01*
X309509249Y-76554950D02*
X309009249Y-75654950D01*
X309009249Y-75654950D02*
X310009249Y-75654950D01*
X310009249Y-75654950D02*
X309509249Y-76554950D01*
X308759249Y-73454950D02*
X308759249Y-78854950D01*
X310259249Y-73454950D02*
X308759249Y-73454950D01*
%TO.C,D18*%
X88086999Y-97854950D02*
X89586999Y-97854950D01*
X89586999Y-97854950D02*
X89586999Y-92454950D01*
X88336999Y-95654950D02*
X89336999Y-95654950D01*
X88836999Y-95554950D02*
X88336999Y-94654950D01*
X88336999Y-94654950D02*
X89336999Y-94654950D01*
X89336999Y-94654950D02*
X88836999Y-95554950D01*
X88086999Y-92454950D02*
X88086999Y-97854950D01*
X89586999Y-92454950D02*
X88086999Y-92454950D01*
%TO.C,D27*%
X261259249Y-97854950D02*
X262759249Y-97854950D01*
X262759249Y-97854950D02*
X262759249Y-92454950D01*
X261509249Y-95654950D02*
X262509249Y-95654950D01*
X262009249Y-95554950D02*
X261509249Y-94654950D01*
X261509249Y-94654950D02*
X262509249Y-94654950D01*
X262509249Y-94654950D02*
X262009249Y-95554950D01*
X261259249Y-92454950D02*
X261259249Y-97854950D01*
X262759249Y-92454950D02*
X261259249Y-92454950D01*
%TO.C,D55*%
X183111999Y-135904950D02*
X184611999Y-135904950D01*
X184611999Y-135904950D02*
X184611999Y-130504950D01*
X183361999Y-133704950D02*
X184361999Y-133704950D01*
X183861999Y-133604950D02*
X183361999Y-132704950D01*
X183361999Y-132704950D02*
X184361999Y-132704950D01*
X184361999Y-132704950D02*
X183861999Y-133604950D01*
X183111999Y-130504950D02*
X183111999Y-135904950D01*
X184611999Y-130504950D02*
X183111999Y-130504950D01*
%TO.C,D54*%
X164111999Y-135904950D02*
X165611999Y-135904950D01*
X165611999Y-135904950D02*
X165611999Y-130504950D01*
X164361999Y-133704950D02*
X165361999Y-133704950D01*
X164861999Y-133604950D02*
X164361999Y-132704950D01*
X164361999Y-132704950D02*
X165361999Y-132704950D01*
X165361999Y-132704950D02*
X164861999Y-133604950D01*
X164111999Y-130504950D02*
X164111999Y-135904950D01*
X165611999Y-130504950D02*
X164111999Y-130504950D01*
%TO.C,D2*%
X102361999Y-78854950D02*
X103861999Y-78854950D01*
X103861999Y-78854950D02*
X103861999Y-73454950D01*
X102611999Y-76654950D02*
X103611999Y-76654950D01*
X103111999Y-76554950D02*
X102611999Y-75654950D01*
X102611999Y-75654950D02*
X103611999Y-75654950D01*
X103611999Y-75654950D02*
X103111999Y-76554950D01*
X102361999Y-73454950D02*
X102361999Y-78854950D01*
X103861999Y-73454950D02*
X102361999Y-73454950D01*
%TO.C,D79*%
X365759249Y-154904950D02*
X367259249Y-154904950D01*
X367259249Y-154904950D02*
X367259249Y-149504950D01*
X366009249Y-152704950D02*
X367009249Y-152704950D01*
X366509249Y-152604950D02*
X366009249Y-151704950D01*
X366009249Y-151704950D02*
X367009249Y-151704950D01*
X367009249Y-151704950D02*
X366509249Y-152604950D01*
X365759249Y-149504950D02*
X365759249Y-154904950D01*
X367259249Y-149504950D02*
X365759249Y-149504950D01*
%TO.C,D78*%
X346759249Y-154904950D02*
X348259249Y-154904950D01*
X348259249Y-154904950D02*
X348259249Y-149504950D01*
X347009249Y-152704950D02*
X348009249Y-152704950D01*
X347509249Y-152604950D02*
X347009249Y-151704950D01*
X347009249Y-151704950D02*
X348009249Y-151704950D01*
X348009249Y-151704950D02*
X347509249Y-152604950D01*
X346759249Y-149504950D02*
X346759249Y-154904950D01*
X348259249Y-149504950D02*
X346759249Y-149504950D01*
%TO.C,D34*%
X59586999Y-116879950D02*
X61086999Y-116879950D01*
X61086999Y-116879950D02*
X61086999Y-111479950D01*
X59836999Y-114679950D02*
X60836999Y-114679950D01*
X60336999Y-114579950D02*
X59836999Y-113679950D01*
X59836999Y-113679950D02*
X60836999Y-113679950D01*
X60836999Y-113679950D02*
X60336999Y-114579950D01*
X59586999Y-111479950D02*
X59586999Y-116879950D01*
X61086999Y-111479950D02*
X59586999Y-111479950D01*
%TO.C,D71*%
X178945000Y-155005000D02*
X180445000Y-155005000D01*
X180445000Y-155005000D02*
X180445000Y-149605000D01*
X179195000Y-152805000D02*
X180195000Y-152805000D01*
X179695000Y-152705000D02*
X179195000Y-151805000D01*
X179195000Y-151805000D02*
X180195000Y-151805000D01*
X180195000Y-151805000D02*
X179695000Y-152705000D01*
X178945000Y-149605000D02*
X178945000Y-155005000D01*
X180445000Y-149605000D02*
X178945000Y-149605000D01*
%TO.C,D58*%
X237509249Y-135904950D02*
X239009249Y-135904950D01*
X239009249Y-135904950D02*
X239009249Y-130504950D01*
X237759249Y-133704950D02*
X238759249Y-133704950D01*
X238259249Y-133604950D02*
X237759249Y-132704950D01*
X237759249Y-132704950D02*
X238759249Y-132704950D01*
X238759249Y-132704950D02*
X238259249Y-133604950D01*
X237509249Y-130504950D02*
X237509249Y-135904950D01*
X239009249Y-130504950D02*
X237509249Y-130504950D01*
%TO.C,D31*%
X342034249Y-97854950D02*
X343534249Y-97854950D01*
X343534249Y-97854950D02*
X343534249Y-92454950D01*
X342284249Y-95654950D02*
X343284249Y-95654950D01*
X342784249Y-95554950D02*
X342284249Y-94654950D01*
X342284249Y-94654950D02*
X343284249Y-94654950D01*
X343284249Y-94654950D02*
X342784249Y-95554950D01*
X342034249Y-92454950D02*
X342034249Y-97854950D01*
X343534249Y-92454950D02*
X342034249Y-92454950D01*
%TO.C,D68*%
X107111999Y-154904950D02*
X108611999Y-154904950D01*
X108611999Y-154904950D02*
X108611999Y-149504950D01*
X107361999Y-152704950D02*
X108361999Y-152704950D01*
X107861999Y-152604950D02*
X107361999Y-151704950D01*
X107361999Y-151704950D02*
X108361999Y-151704950D01*
X108361999Y-151704950D02*
X107861999Y-152604950D01*
X107111999Y-149504950D02*
X107111999Y-154904950D01*
X108611999Y-149504950D02*
X107111999Y-149504950D01*
%TO.C,D19*%
X111861999Y-97854950D02*
X113361999Y-97854950D01*
X113361999Y-97854950D02*
X113361999Y-92454950D01*
X112111999Y-95654950D02*
X113111999Y-95654950D01*
X112611999Y-95554950D02*
X112111999Y-94654950D01*
X112111999Y-94654950D02*
X113111999Y-94654950D01*
X113111999Y-94654950D02*
X112611999Y-95554950D01*
X111861999Y-92454950D02*
X111861999Y-97854950D01*
X113361999Y-92454950D02*
X111861999Y-92454950D01*
%TO.C,D17*%
X59586999Y-97854950D02*
X61086999Y-97854950D01*
X61086999Y-97854950D02*
X61086999Y-92454950D01*
X59836999Y-95654950D02*
X60836999Y-95654950D01*
X60336999Y-95554950D02*
X59836999Y-94654950D01*
X59836999Y-94654950D02*
X60836999Y-94654950D01*
X60836999Y-94654950D02*
X60336999Y-95554950D01*
X59586999Y-92454950D02*
X59586999Y-97854950D01*
X61086999Y-92454950D02*
X59586999Y-92454950D01*
%TO.C,D72*%
X213759249Y-154904950D02*
X215259249Y-154904950D01*
X215259249Y-154904950D02*
X215259249Y-149504950D01*
X214009249Y-152704950D02*
X215009249Y-152704950D01*
X214509249Y-152604950D02*
X214009249Y-151704950D01*
X214009249Y-151704950D02*
X215009249Y-151704950D01*
X215009249Y-151704950D02*
X214509249Y-152604950D01*
X213759249Y-149504950D02*
X213759249Y-154904950D01*
X215259249Y-149504950D02*
X213759249Y-149504950D01*
%TO.C,D30*%
X318259249Y-97854950D02*
X319759249Y-97854950D01*
X319759249Y-97854950D02*
X319759249Y-92454950D01*
X318509249Y-95654950D02*
X319509249Y-95654950D01*
X319009249Y-95554950D02*
X318509249Y-94654950D01*
X318509249Y-94654950D02*
X319509249Y-94654950D01*
X319509249Y-94654950D02*
X319009249Y-95554950D01*
X318259249Y-92454950D02*
X318259249Y-97854950D01*
X319759249Y-92454950D02*
X318259249Y-92454950D01*
%TO.C,D63*%
X346759249Y-135904950D02*
X348259249Y-135904950D01*
X348259249Y-135904950D02*
X348259249Y-130504950D01*
X347009249Y-133704950D02*
X348009249Y-133704950D01*
X347509249Y-133604950D02*
X347009249Y-132704950D01*
X347009249Y-132704950D02*
X348009249Y-132704950D01*
X348009249Y-132704950D02*
X347509249Y-133604950D01*
X346759249Y-130504950D02*
X346759249Y-135904950D01*
X348259249Y-130504950D02*
X346759249Y-130504950D01*
%TO.C,D40*%
X175775000Y-119450000D02*
X177275000Y-119450000D01*
X177275000Y-119450000D02*
X177275000Y-114050000D01*
X176025000Y-117250000D02*
X177025000Y-117250000D01*
X176525000Y-117150000D02*
X176025000Y-116250000D01*
X176025000Y-116250000D02*
X177025000Y-116250000D01*
X177025000Y-116250000D02*
X176525000Y-117150000D01*
X175775000Y-114050000D02*
X175775000Y-119450000D01*
X177275000Y-114050000D02*
X175775000Y-114050000D01*
%TO.C,D66*%
X59586999Y-154904950D02*
X61086999Y-154904950D01*
X59586999Y-149504950D02*
X59586999Y-154904950D01*
X59836999Y-152704950D02*
X60836999Y-152704950D01*
X60836999Y-151704950D02*
X60336999Y-152604950D01*
X59836999Y-151704950D02*
X60836999Y-151704950D01*
X60336999Y-152604950D02*
X59836999Y-151704950D01*
X61086999Y-154904950D02*
X61086999Y-149504950D01*
X61086999Y-149504950D02*
X59586999Y-149504950D01*
D11*
%TO.C,USB_PRO_MICRO1*%
X71237800Y-102937000D02*
X72567800Y-102937000D01*
X71237800Y-104267000D02*
X71237800Y-102937000D01*
X71237800Y-105537000D02*
X71237800Y-113217000D01*
X71237800Y-105537000D02*
X73897800Y-105537000D01*
X71237800Y-113217000D02*
X73897800Y-113217000D01*
X73897800Y-105537000D02*
X73897800Y-113217000D01*
%TO.C,USB_main1*%
X59287750Y-66205000D02*
X66967750Y-66205000D01*
X66967750Y-68865000D02*
X66967750Y-66205000D01*
X59287750Y-68865000D02*
X59287750Y-66205000D01*
X59287750Y-68865000D02*
X66967750Y-68865000D01*
X58017750Y-68865000D02*
X56687750Y-68865000D01*
X56687750Y-68865000D02*
X56687750Y-67535000D01*
D10*
%TO.C,U1*%
X28769000Y-68522200D02*
X28769000Y-69372200D01*
X28769000Y-86022200D02*
X28769000Y-85162200D01*
X29619000Y-86022200D02*
X28769000Y-86022200D01*
X29669000Y-68522200D02*
X28769000Y-68522200D01*
X58969000Y-68522200D02*
X58119000Y-68522200D01*
X58969000Y-68522200D02*
X58969000Y-69372200D01*
X58969000Y-86022200D02*
X58119000Y-86022200D01*
X58969000Y-86022200D02*
X58969000Y-85222200D01*
%TO.C,U2*%
X304078000Y-121951400D02*
X304078000Y-122751400D01*
X304078000Y-121951400D02*
X304928000Y-121951400D01*
X304078000Y-139451400D02*
X304078000Y-138601400D01*
X304078000Y-139451400D02*
X304928000Y-139451400D01*
X333378000Y-139451400D02*
X334278000Y-139451400D01*
X333428000Y-121951400D02*
X334278000Y-121951400D01*
X334278000Y-121951400D02*
X334278000Y-122811400D01*
X334278000Y-139451400D02*
X334278000Y-138601400D01*
D11*
%TO.C,J4*%
X343905000Y-112770000D02*
X343905000Y-115430000D01*
X346505000Y-112770000D02*
X343905000Y-112770000D01*
X346505000Y-112770000D02*
X346505000Y-115430000D01*
X346505000Y-115430000D02*
X343905000Y-115430000D01*
X347775000Y-112770000D02*
X349105000Y-112770000D01*
X349105000Y-112770000D02*
X349105000Y-114100000D01*
%TO.C,OLED*%
X26780750Y-77267370D02*
X25450750Y-77267370D01*
X26780750Y-75937370D02*
X26780750Y-77267370D01*
X26780750Y-74667370D02*
X26780750Y-66987370D01*
X26780750Y-74667370D02*
X24120750Y-74667370D01*
X26780750Y-66987370D02*
X24120750Y-66987370D01*
X24120750Y-74667370D02*
X24120750Y-66987370D01*
%TD*%
M02*
