%TF.GenerationSoftware,KiCad,Pcbnew,8.0.8*%
%TF.CreationDate,2025-04-13T22:17:09+09:00*%
%TF.ProjectId,sswkbd_wiring,7373776b-6264-45f7-9769-72696e672e6b,rev?*%
%TF.SameCoordinates,Original*%
%TF.FileFunction,Soldermask,Bot*%
%TF.FilePolarity,Negative*%
%FSLAX46Y46*%
G04 Gerber Fmt 4.6, Leading zero omitted, Abs format (unit mm)*
G04 Created by KiCad (PCBNEW 8.0.8) date 2025-04-13 22:17:09*
%MOMM*%
%LPD*%
G01*
G04 APERTURE LIST*
%ADD10R,1.397000X1.397000*%
%ADD11R,0.950000X1.300000*%
%ADD12C,1.397000*%
%ADD13C,1.750000*%
%ADD14C,3.000000*%
%ADD15C,3.987800*%
%ADD16R,2.550000X2.500000*%
%ADD17C,3.048000*%
%ADD18C,0.500000*%
%ADD19R,1.700000X1.700000*%
%ADD20O,1.700000X1.700000*%
%ADD21C,1.524000*%
%ADD22R,1.700000X0.825000*%
%ADD23R,2.500000X2.500000*%
%ADD24C,1.500000*%
G04 APERTURE END LIST*
D10*
%TO.C,D32*%
X366509249Y-98964950D03*
D11*
X366509249Y-96929950D03*
X366509249Y-93379950D03*
D12*
X366509249Y-91344950D03*
%TD*%
D13*
%TO.C,SW13*%
X296333000Y-73760000D03*
D14*
X297603000Y-71220000D03*
D15*
X301413000Y-73760000D03*
D14*
X303953000Y-68680000D03*
D13*
X306493000Y-73760000D03*
D16*
X294328000Y-71220000D03*
X307255000Y-68680000D03*
%TD*%
D10*
%TO.C,D67*%
X86461999Y-156014950D03*
D11*
X86461999Y-153979950D03*
X86461999Y-150429950D03*
D12*
X86461999Y-148394950D03*
%TD*%
D10*
%TO.C,D50*%
X60336999Y-137014950D03*
D11*
X60336999Y-134979950D03*
X60336999Y-131429950D03*
D12*
X60336999Y-129394950D03*
%TD*%
D10*
%TO.C,D73*%
X243034249Y-156014950D03*
D11*
X243034249Y-153979950D03*
X243034249Y-150429950D03*
D12*
X243034249Y-148394950D03*
%TD*%
D10*
%TO.C,D46*%
X304759249Y-117989950D03*
D11*
X304759249Y-115954950D03*
X304759249Y-112404950D03*
D12*
X304759249Y-110369950D03*
%TD*%
D13*
%TO.C,SW6*%
X176071250Y-73760000D03*
D14*
X174801250Y-76300000D03*
D15*
X170991250Y-73760000D03*
D14*
X168451250Y-78840000D03*
D13*
X165911250Y-73760000D03*
D16*
X178076250Y-76300000D03*
X165149250Y-78840000D03*
%TD*%
D10*
%TO.C,D38*%
X155361999Y-117989950D03*
D11*
X155361999Y-115954950D03*
X155361999Y-112404950D03*
D12*
X155361999Y-110369950D03*
%TD*%
D10*
%TO.C,D76*%
X309509249Y-156014950D03*
D11*
X309509249Y-153979950D03*
X309509249Y-150429950D03*
D12*
X309509249Y-148394950D03*
%TD*%
D10*
%TO.C,D74*%
X271509249Y-156014950D03*
D11*
X271509249Y-153979950D03*
X271509249Y-150429950D03*
D12*
X271509249Y-148394950D03*
%TD*%
D10*
%TO.C,D52*%
X126861999Y-137014950D03*
D11*
X126861999Y-134979950D03*
X126861999Y-131429950D03*
D12*
X126861999Y-129394950D03*
%TD*%
D10*
%TO.C,D39*%
X174361999Y-117989950D03*
D11*
X174361999Y-115954950D03*
X174361999Y-112404950D03*
D12*
X174361999Y-110369950D03*
%TD*%
D10*
%TO.C,D15*%
X347491000Y-79958000D03*
D11*
X347491000Y-77923000D03*
X347491000Y-74373000D03*
D12*
X347491000Y-72338000D03*
%TD*%
D10*
%TO.C,D44*%
X266759249Y-117989950D03*
D11*
X266759249Y-115954950D03*
X266759249Y-112404950D03*
D12*
X266759249Y-110369950D03*
%TD*%
D13*
%TO.C,SW50*%
X47160750Y-130760000D03*
D14*
X48430750Y-128220000D03*
D15*
X52240750Y-130760000D03*
D14*
X54780750Y-125680000D03*
D13*
X57320750Y-130760000D03*
D16*
X45155750Y-128220000D03*
X58082750Y-125680000D03*
%TD*%
D13*
%TO.C,SW28*%
X267833000Y-92760000D03*
D14*
X269103000Y-90220000D03*
D15*
X272913000Y-92760000D03*
D14*
X275453000Y-87680000D03*
D13*
X277993000Y-92760000D03*
D16*
X265828000Y-90220000D03*
X278755000Y-87680000D03*
%TD*%
D13*
%TO.C,SW75*%
X277333000Y-149760000D03*
D14*
X278603000Y-147220000D03*
D15*
X282413000Y-149760000D03*
D14*
X284953000Y-144680000D03*
D13*
X287493000Y-149760000D03*
D16*
X275328000Y-147220000D03*
X288255000Y-144680000D03*
%TD*%
D10*
%TO.C,D4*%
X141111999Y-79964950D03*
D11*
X141111999Y-77929950D03*
X141111999Y-74379950D03*
D12*
X141111999Y-72344950D03*
%TD*%
D13*
%TO.C,SW2*%
X89910750Y-73760000D03*
D14*
X91180750Y-71220000D03*
D15*
X94990750Y-73760000D03*
D14*
X97530750Y-68680000D03*
D13*
X100070750Y-73760000D03*
D16*
X87905750Y-71220000D03*
X100832750Y-68680000D03*
%TD*%
D13*
%TO.C,SW22*%
X156410750Y-92760000D03*
D14*
X157680750Y-90220000D03*
D15*
X161490750Y-92760000D03*
D14*
X164030750Y-87680000D03*
D13*
X166570750Y-92760000D03*
D16*
X154405750Y-90220000D03*
X167332750Y-87680000D03*
%TD*%
D10*
%TO.C,D43*%
X247759249Y-117989950D03*
D11*
X247759249Y-115954950D03*
X247759249Y-112404950D03*
D12*
X247759249Y-110369950D03*
%TD*%
D13*
%TO.C,SW53*%
X132660750Y-130760000D03*
D14*
X133930750Y-128220000D03*
D15*
X137740750Y-130760000D03*
D14*
X140280750Y-125680000D03*
D13*
X142820750Y-130760000D03*
D16*
X130655750Y-128220000D03*
X143582750Y-125680000D03*
%TD*%
D13*
%TO.C,SW66*%
X47160750Y-149760000D03*
D14*
X48430750Y-147220000D03*
D15*
X52240750Y-149760000D03*
D14*
X54780750Y-144680000D03*
D13*
X57320750Y-149760000D03*
D16*
X45155750Y-147220000D03*
X58082750Y-144680000D03*
%TD*%
D10*
%TO.C,D41*%
X209759249Y-117989950D03*
D11*
X209759249Y-115954950D03*
X209759249Y-112404950D03*
D12*
X209759249Y-110369950D03*
%TD*%
D10*
%TO.C,D1*%
X84111999Y-79964950D03*
D11*
X84111999Y-77929950D03*
X84111999Y-74379950D03*
D12*
X84111999Y-72344950D03*
%TD*%
D13*
%TO.C,SW18*%
X75660750Y-92760000D03*
D14*
X76930750Y-90220000D03*
D15*
X80740750Y-92760000D03*
D14*
X83280750Y-87680000D03*
D13*
X85820750Y-92760000D03*
D16*
X73655750Y-90220000D03*
X86582750Y-87680000D03*
%TD*%
%TO.C,SW8*%
X212255000Y-68680000D03*
X199328000Y-71220000D03*
D13*
X211493000Y-73760000D03*
D14*
X208953000Y-68680000D03*
D15*
X206413000Y-73760000D03*
D14*
X202603000Y-71220000D03*
D13*
X201333000Y-73760000D03*
%TD*%
%TO.C,SW26*%
X229833000Y-92760000D03*
D14*
X231103000Y-90220000D03*
D15*
X234913000Y-92760000D03*
D14*
X237453000Y-87680000D03*
D13*
X239993000Y-92760000D03*
D16*
X227828000Y-90220000D03*
X240755000Y-87680000D03*
%TD*%
D10*
%TO.C,D11*%
X271509249Y-79964950D03*
D11*
X271509249Y-77929950D03*
X271509249Y-74379950D03*
D12*
X271509249Y-72344950D03*
%TD*%
D13*
%TO.C,SW29*%
X286833000Y-92760000D03*
D14*
X288103000Y-90220000D03*
D15*
X291913000Y-92760000D03*
D14*
X294453000Y-87680000D03*
D13*
X296993000Y-92760000D03*
D16*
X284828000Y-90220000D03*
X297755000Y-87680000D03*
%TD*%
D10*
%TO.C,D51*%
X95961999Y-137014950D03*
D11*
X95961999Y-134979950D03*
X95961999Y-131429950D03*
D12*
X95961999Y-129394950D03*
%TD*%
D13*
%TO.C,SW41*%
X196583000Y-111760000D03*
D14*
X197853000Y-109220000D03*
D15*
X201663000Y-111760000D03*
D14*
X204203000Y-106680000D03*
D13*
X206743000Y-111760000D03*
D16*
X194578000Y-109220000D03*
X207505000Y-106680000D03*
%TD*%
D13*
%TO.C,SW67*%
X73285750Y-149760000D03*
D14*
X74555750Y-147220000D03*
D15*
X78365750Y-149760000D03*
D14*
X80905750Y-144680000D03*
D13*
X83445750Y-149760000D03*
D16*
X71280750Y-147220000D03*
X84207750Y-144680000D03*
%TD*%
D13*
%TO.C,SW77*%
X315333000Y-149760000D03*
D14*
X316603000Y-147220000D03*
D15*
X320413000Y-149760000D03*
D14*
X322953000Y-144680000D03*
D13*
X325493000Y-149760000D03*
D16*
X313328000Y-147220000D03*
X326255000Y-144680000D03*
%TD*%
D15*
%TO.C,SW73*%
X223000000Y-141505000D03*
D17*
X223000000Y-156745000D03*
D13*
X229858000Y-149760000D03*
D14*
X231128000Y-147220000D03*
D15*
X234938000Y-149760000D03*
D14*
X237478000Y-144680000D03*
D13*
X240018000Y-149760000D03*
D15*
X246876000Y-141505000D03*
D17*
X246876000Y-156745000D03*
D16*
X227853000Y-147220000D03*
X240780000Y-144680000D03*
%TD*%
D13*
%TO.C,SW43*%
X234583000Y-111760000D03*
D14*
X235853000Y-109220000D03*
D15*
X239663000Y-111760000D03*
D14*
X242203000Y-106680000D03*
D13*
X244743000Y-111760000D03*
D16*
X232578000Y-109220000D03*
X245505000Y-106680000D03*
%TD*%
D10*
%TO.C,D59*%
X257259249Y-137014950D03*
D11*
X257259249Y-134979950D03*
X257259249Y-131429950D03*
D12*
X257259249Y-129394950D03*
%TD*%
D10*
%TO.C,D9*%
X216600000Y-79110000D03*
D11*
X216600000Y-77075000D03*
X216600000Y-73525000D03*
D12*
X216600000Y-71490000D03*
%TD*%
D10*
%TO.C,D3*%
X122111999Y-79964950D03*
D11*
X122111999Y-77929950D03*
X122111999Y-74379950D03*
D12*
X122111999Y-72344950D03*
%TD*%
D15*
%TO.C,SW70*%
X142402750Y-141505000D03*
D17*
X142402750Y-156745000D03*
D13*
X149260750Y-149760000D03*
D14*
X150530750Y-147220000D03*
D15*
X154340750Y-149760000D03*
D14*
X156880750Y-144680000D03*
D13*
X159420750Y-149760000D03*
D15*
X166278750Y-141505000D03*
D17*
X166278750Y-156745000D03*
D16*
X147255750Y-147220000D03*
X160182750Y-144680000D03*
%TD*%
D13*
%TO.C,SW68*%
X94660750Y-149760000D03*
D14*
X95930750Y-147220000D03*
D15*
X99740750Y-149760000D03*
D14*
X102280750Y-144680000D03*
D13*
X104820750Y-149760000D03*
D16*
X92655750Y-147220000D03*
X105582750Y-144680000D03*
%TD*%
D10*
%TO.C,D42*%
X228759249Y-117989950D03*
D11*
X228759249Y-115954950D03*
X228759249Y-112404950D03*
D12*
X228759249Y-110369950D03*
%TD*%
D13*
%TO.C,SW23*%
X175410750Y-92760000D03*
D14*
X176680750Y-90220000D03*
D15*
X180490750Y-92760000D03*
D14*
X183030750Y-87680000D03*
D13*
X185570750Y-92760000D03*
D16*
X173405750Y-90220000D03*
X186332750Y-87680000D03*
%TD*%
D13*
%TO.C,SW76*%
X296333000Y-149760000D03*
D14*
X297603000Y-147220000D03*
D15*
X301413000Y-149760000D03*
D14*
X303953000Y-144680000D03*
D13*
X306493000Y-149760000D03*
D16*
X294328000Y-147220000D03*
X307255000Y-144680000D03*
%TD*%
D10*
%TO.C,D64*%
X366509249Y-137014950D03*
D11*
X366509249Y-134979950D03*
X366509249Y-131429950D03*
D12*
X366509249Y-129394950D03*
%TD*%
D10*
%TO.C,D23*%
X171795000Y-101590000D03*
D11*
X171795000Y-99555000D03*
X171795000Y-96005000D03*
D12*
X171795000Y-93970000D03*
%TD*%
D13*
%TO.C,SW24*%
X191833000Y-92760000D03*
D14*
X193103000Y-90220000D03*
D15*
X196913000Y-92760000D03*
D14*
X199453000Y-87680000D03*
D13*
X201993000Y-92760000D03*
D16*
X189828000Y-90220000D03*
X202755000Y-87680000D03*
%TD*%
D10*
%TO.C,D33*%
X41336999Y-117989950D03*
D11*
X41336999Y-115954950D03*
X41336999Y-112404950D03*
D12*
X41336999Y-110369950D03*
%TD*%
D18*
%TO.C,REF\u002A\u002A*%
X55689400Y-63093600D03*
X56481067Y-63093600D03*
X57272733Y-63093600D03*
X58064400Y-63093600D03*
X58856067Y-63093600D03*
X59647733Y-63093600D03*
X60439400Y-63093600D03*
%TD*%
D19*
%TO.C,J4*%
X347775000Y-114100000D03*
D20*
X345235000Y-114100000D03*
%TD*%
D13*
%TO.C,SW10*%
X249493000Y-73760000D03*
D14*
X248223000Y-76300000D03*
D15*
X244413000Y-73760000D03*
D14*
X241873000Y-78840000D03*
D13*
X239333000Y-73760000D03*
D16*
X251498000Y-76300000D03*
X238571000Y-78840000D03*
%TD*%
D13*
%TO.C,SW79*%
X353333000Y-149760000D03*
D14*
X354603000Y-147220000D03*
D15*
X358413000Y-149760000D03*
D14*
X360953000Y-144680000D03*
D13*
X363493000Y-149760000D03*
D16*
X351328000Y-147220000D03*
X364255000Y-144680000D03*
%TD*%
D13*
%TO.C,SW78*%
X334333000Y-149760000D03*
D14*
X335603000Y-147220000D03*
D15*
X339413000Y-149760000D03*
D14*
X341953000Y-144680000D03*
D13*
X344493000Y-149760000D03*
D16*
X332328000Y-147220000D03*
X345255000Y-144680000D03*
%TD*%
D18*
%TO.C,REF\u002A\u002A*%
X225768000Y-158781800D03*
X224976333Y-158781800D03*
X224184667Y-158781800D03*
X223393000Y-158781800D03*
X222601333Y-158781800D03*
X221809667Y-158781800D03*
X221018000Y-158781800D03*
%TD*%
D10*
%TO.C,D8*%
X214509249Y-79964950D03*
D11*
X214509249Y-77929950D03*
X214509249Y-74379950D03*
D12*
X214509249Y-72344950D03*
%TD*%
D18*
%TO.C,REF\u002A\u002A*%
X160189400Y-63093600D03*
X160981067Y-63093600D03*
X161772733Y-63093600D03*
X162564400Y-63093600D03*
X163356067Y-63093600D03*
X164147733Y-63093600D03*
X164939400Y-63093600D03*
%TD*%
D10*
%TO.C,D45*%
X285759249Y-117989950D03*
D11*
X285759249Y-115954950D03*
X285759249Y-112404950D03*
D12*
X285759249Y-110369950D03*
%TD*%
D10*
%TO.C,D65*%
X41336999Y-156014950D03*
D11*
X41336999Y-153979950D03*
X41336999Y-150429950D03*
D12*
X41336999Y-148394950D03*
%TD*%
D18*
%TO.C,REF\u002A\u002A*%
X162565400Y-63093600D03*
X163357067Y-63093600D03*
X164148733Y-63093600D03*
X164940400Y-63093600D03*
X165732067Y-63093600D03*
X166523733Y-63093600D03*
X167315400Y-63093600D03*
%TD*%
D10*
%TO.C,D70*%
X162461999Y-156014950D03*
D11*
X162461999Y-153979950D03*
X162461999Y-150429950D03*
D12*
X162461999Y-148394950D03*
%TD*%
D13*
%TO.C,SW16*%
X28160750Y-92760000D03*
D14*
X29430750Y-90220000D03*
D15*
X33240750Y-92760000D03*
D14*
X35780750Y-87680000D03*
D13*
X38320750Y-92760000D03*
D16*
X26155750Y-90220000D03*
X39082750Y-87680000D03*
%TD*%
D10*
%TO.C,D24*%
X205009249Y-98964950D03*
D11*
X205009249Y-96929950D03*
X205009249Y-93379950D03*
D12*
X205009249Y-91344950D03*
%TD*%
D13*
%TO.C,SW65*%
X28160750Y-149760000D03*
D14*
X29430750Y-147220000D03*
D15*
X33240750Y-149760000D03*
D14*
X35780750Y-144680000D03*
D13*
X38320750Y-149760000D03*
D16*
X26155750Y-147220000D03*
X39082750Y-144680000D03*
%TD*%
D13*
%TO.C,SW58*%
X225083000Y-130760000D03*
D14*
X226353000Y-128220000D03*
D15*
X230163000Y-130760000D03*
D14*
X232703000Y-125680000D03*
D13*
X235243000Y-130760000D03*
D16*
X223078000Y-128220000D03*
X236005000Y-125680000D03*
%TD*%
D10*
%TO.C,D26*%
X243009249Y-98964950D03*
D11*
X243009249Y-96929950D03*
X243009249Y-93379950D03*
D12*
X243009249Y-91344950D03*
%TD*%
D19*
%TO.C,RST*%
X181275000Y-66500000D03*
D20*
X178735000Y-66500000D03*
%TD*%
D10*
%TO.C,D6*%
X162600000Y-78210000D03*
D11*
X162600000Y-76175000D03*
X162600000Y-72625000D03*
D12*
X162600000Y-70590000D03*
%TD*%
D18*
%TO.C,REF\u002A\u002A*%
X64808000Y-158807200D03*
X65599667Y-158807200D03*
X66391333Y-158807200D03*
X67183000Y-158807200D03*
X67974667Y-158807200D03*
X68766333Y-158807200D03*
X69558000Y-158807200D03*
%TD*%
D10*
%TO.C,D14*%
X338034249Y-79964950D03*
D11*
X338034249Y-77929950D03*
X338034249Y-74379950D03*
D12*
X338034249Y-72344950D03*
%TD*%
D13*
%TO.C,SW57*%
X206083000Y-130760000D03*
D14*
X207353000Y-128220000D03*
D15*
X211163000Y-130760000D03*
D14*
X213703000Y-125680000D03*
D13*
X216243000Y-130760000D03*
D16*
X204078000Y-128220000D03*
X217005000Y-125680000D03*
%TD*%
D10*
%TO.C,D12*%
X290509249Y-79964950D03*
D11*
X290509249Y-77929950D03*
X290509249Y-74379950D03*
D12*
X290509249Y-72344950D03*
%TD*%
D13*
%TO.C,SW59*%
X244083000Y-130760000D03*
D14*
X245353000Y-128220000D03*
D15*
X249163000Y-130760000D03*
D14*
X251703000Y-125680000D03*
D13*
X254243000Y-130760000D03*
D16*
X242078000Y-128220000D03*
X255005000Y-125680000D03*
%TD*%
D13*
%TO.C,SW64*%
X353333000Y-130760000D03*
D14*
X354603000Y-128220000D03*
D15*
X358413000Y-130760000D03*
D14*
X360953000Y-125680000D03*
D13*
X363493000Y-130760000D03*
D16*
X351328000Y-128220000D03*
X364255000Y-125680000D03*
%TD*%
D18*
%TO.C,REF\u002A\u002A*%
X229217400Y-63093600D03*
X230009067Y-63093600D03*
X230800733Y-63093600D03*
X231592400Y-63093600D03*
X232384067Y-63093600D03*
X233175733Y-63093600D03*
X233967400Y-63093600D03*
%TD*%
D17*
%TO.C,SW14*%
X317975000Y-66775000D03*
D15*
X317975000Y-82015000D03*
D13*
X324833000Y-73760000D03*
D14*
X326103000Y-71220000D03*
D15*
X329913000Y-73760000D03*
D14*
X332453000Y-68680000D03*
D13*
X334993000Y-73760000D03*
D17*
X341851000Y-66775000D03*
D15*
X341851000Y-82015000D03*
D16*
X322828000Y-71220000D03*
X335755000Y-68680000D03*
%TD*%
D19*
%TO.C,USB_PRO_MICRO1*%
X72567800Y-104267000D03*
D20*
X72567800Y-106807000D03*
X72567800Y-109347000D03*
X72567800Y-111887000D03*
%TD*%
D13*
%TO.C,SW63*%
X334333000Y-130760000D03*
D14*
X335603000Y-128220000D03*
D15*
X339413000Y-130760000D03*
D14*
X341953000Y-125680000D03*
D13*
X344493000Y-130760000D03*
D16*
X332328000Y-128220000D03*
X345255000Y-125680000D03*
%TD*%
D10*
%TO.C,D36*%
X117361999Y-117989950D03*
D11*
X117361999Y-115954950D03*
X117361999Y-112404950D03*
D12*
X117361999Y-110369950D03*
%TD*%
D10*
%TO.C,D29*%
X300009249Y-98964950D03*
D11*
X300009249Y-96929950D03*
X300009249Y-93379950D03*
D12*
X300009249Y-91344950D03*
%TD*%
D13*
%TO.C,SW38*%
X142160750Y-111760000D03*
D14*
X143430750Y-109220000D03*
D15*
X147240750Y-111760000D03*
D14*
X149780750Y-106680000D03*
D13*
X152320750Y-111760000D03*
D16*
X140155750Y-109220000D03*
X153082750Y-106680000D03*
%TD*%
D13*
%TO.C,SW69*%
X113660750Y-149760000D03*
D14*
X114930750Y-147220000D03*
D15*
X118740750Y-149760000D03*
D14*
X121280750Y-144680000D03*
D13*
X123820750Y-149760000D03*
D16*
X111655750Y-147220000D03*
X124582750Y-144680000D03*
%TD*%
D10*
%TO.C,D69*%
X126861999Y-156014950D03*
D11*
X126861999Y-153979950D03*
X126861999Y-150429950D03*
D12*
X126861999Y-148394950D03*
%TD*%
D13*
%TO.C,SW60*%
X263083000Y-130760000D03*
D14*
X264353000Y-128220000D03*
D15*
X268163000Y-130760000D03*
D14*
X270703000Y-125680000D03*
D13*
X273243000Y-130760000D03*
D16*
X261078000Y-128220000D03*
X274005000Y-125680000D03*
%TD*%
D13*
%TO.C,SW9*%
X230493000Y-73760000D03*
D14*
X229223000Y-76300000D03*
D15*
X225413000Y-73760000D03*
D14*
X222873000Y-78840000D03*
D13*
X220333000Y-73760000D03*
D16*
X232498000Y-76300000D03*
X219571000Y-78840000D03*
%TD*%
D17*
%TO.C,SW51*%
X75927750Y-123775000D03*
D15*
X75927750Y-139015000D03*
D13*
X82785750Y-130760000D03*
D14*
X84055750Y-128220000D03*
D15*
X87865750Y-130760000D03*
D14*
X90405750Y-125680000D03*
D13*
X92945750Y-130760000D03*
D17*
X99803750Y-123775000D03*
D15*
X99803750Y-139015000D03*
D16*
X80780750Y-128220000D03*
X93707750Y-125680000D03*
%TD*%
D10*
%TO.C,D20*%
X131611999Y-98964950D03*
D11*
X131611999Y-96929950D03*
X131611999Y-93379950D03*
D12*
X131611999Y-91344950D03*
%TD*%
D13*
%TO.C,SW12*%
X277333000Y-73760000D03*
D14*
X278603000Y-71220000D03*
D15*
X282413000Y-73760000D03*
D14*
X284953000Y-68680000D03*
D13*
X287493000Y-73760000D03*
D16*
X275328000Y-71220000D03*
X288255000Y-68680000D03*
%TD*%
D13*
%TO.C,SW49*%
X28160750Y-130760000D03*
D14*
X29430750Y-128220000D03*
D15*
X33240750Y-130760000D03*
D14*
X35780750Y-125680000D03*
D13*
X38320750Y-130760000D03*
D16*
X26155750Y-128220000D03*
X39082750Y-125680000D03*
%TD*%
D10*
%TO.C,D47*%
X335659249Y-117989950D03*
D11*
X335659249Y-115954950D03*
X335659249Y-112404950D03*
D12*
X335659249Y-110369950D03*
%TD*%
D13*
%TO.C,SW27*%
X248833000Y-92760000D03*
D14*
X250103000Y-90220000D03*
D15*
X253913000Y-92760000D03*
D14*
X256453000Y-87680000D03*
D13*
X258993000Y-92760000D03*
D16*
X246828000Y-90220000D03*
X259755000Y-87680000D03*
%TD*%
D13*
%TO.C,SW56*%
X189660750Y-130760000D03*
D14*
X190930750Y-128220000D03*
D15*
X194740750Y-130760000D03*
D14*
X197280750Y-125680000D03*
D13*
X199820750Y-130760000D03*
D16*
X187655750Y-128220000D03*
X200582750Y-125680000D03*
%TD*%
D10*
%TO.C,D62*%
X322550000Y-134260000D03*
D11*
X322550000Y-132225000D03*
X322550000Y-128675000D03*
D12*
X322550000Y-126640000D03*
%TD*%
D13*
%TO.C,SW7*%
X184910750Y-73760000D03*
D14*
X186180750Y-71220000D03*
D15*
X189990750Y-73760000D03*
D14*
X192530750Y-68680000D03*
D13*
X195070750Y-73760000D03*
D16*
X182905750Y-71220000D03*
X195832750Y-68680000D03*
%TD*%
D10*
%TO.C,D48*%
X366509249Y-117989950D03*
D11*
X366509249Y-115954950D03*
X366509249Y-112404950D03*
D12*
X366509249Y-110369950D03*
%TD*%
D13*
%TO.C,SW39*%
X161160750Y-111760000D03*
D14*
X162430750Y-109220000D03*
D15*
X166240750Y-111760000D03*
D14*
X168780750Y-106680000D03*
D13*
X171320750Y-111760000D03*
D16*
X159155750Y-109220000D03*
X172082750Y-106680000D03*
%TD*%
D13*
%TO.C,SW4*%
X127910750Y-73760000D03*
D14*
X129180750Y-71220000D03*
D15*
X132990750Y-73760000D03*
D14*
X135530750Y-68680000D03*
D13*
X138070750Y-73760000D03*
D16*
X125905750Y-71220000D03*
X138832750Y-68680000D03*
%TD*%
D10*
%TO.C,D22*%
X169611999Y-98964950D03*
D11*
X169611999Y-96929950D03*
X169611999Y-93379950D03*
D12*
X169611999Y-91344950D03*
%TD*%
D10*
%TO.C,D16*%
X41336999Y-98964950D03*
D11*
X41336999Y-96929950D03*
X41336999Y-93379950D03*
D12*
X41336999Y-91344950D03*
%TD*%
D17*
%TO.C,SW47*%
X315600000Y-104775000D03*
D15*
X315600000Y-120015000D03*
D13*
X322458000Y-111760000D03*
D14*
X323728000Y-109220000D03*
D15*
X327538000Y-111760000D03*
D14*
X330078000Y-106680000D03*
D13*
X332618000Y-111760000D03*
D17*
X339476000Y-104775000D03*
D15*
X339476000Y-120015000D03*
D16*
X320453000Y-109220000D03*
X333380000Y-106680000D03*
%TD*%
D13*
%TO.C,SW17*%
X47160750Y-92760000D03*
D14*
X48430750Y-90220000D03*
D15*
X52240750Y-92760000D03*
D14*
X54780750Y-87680000D03*
D13*
X57320750Y-92760000D03*
D16*
X45155750Y-90220000D03*
X58082750Y-87680000D03*
%TD*%
D18*
%TO.C,REF\u002A\u002A*%
X62815400Y-63093600D03*
X63607067Y-63093600D03*
X64398733Y-63093600D03*
X65190400Y-63093600D03*
X65982067Y-63093600D03*
X66773733Y-63093600D03*
X67565400Y-63093600D03*
%TD*%
D10*
%TO.C,D49*%
X41336999Y-137014950D03*
D11*
X41336999Y-134979950D03*
X41336999Y-131429950D03*
D12*
X41336999Y-129394950D03*
%TD*%
D10*
%TO.C,D25*%
X224009249Y-98964950D03*
D11*
X224009249Y-96929950D03*
X224009249Y-93379950D03*
D12*
X224009249Y-91344950D03*
%TD*%
D10*
%TO.C,D53*%
X145861999Y-137014950D03*
D11*
X145861999Y-134979950D03*
X145861999Y-131429950D03*
D12*
X145861999Y-129394950D03*
%TD*%
D10*
%TO.C,D28*%
X281009249Y-98964950D03*
D11*
X281009249Y-96929950D03*
X281009249Y-93379950D03*
D12*
X281009249Y-91344950D03*
%TD*%
D10*
%TO.C,D7*%
X181255000Y-82565000D03*
D11*
X181255000Y-80530000D03*
X181255000Y-76980000D03*
D12*
X181255000Y-74945000D03*
%TD*%
D10*
%TO.C,D61*%
X295259249Y-137014950D03*
D11*
X295259249Y-134979950D03*
X295259249Y-131429950D03*
D12*
X295259249Y-129394950D03*
%TD*%
D10*
%TO.C,D37*%
X136361999Y-117989950D03*
D11*
X136361999Y-115954950D03*
X136361999Y-112404950D03*
D12*
X136361999Y-110369950D03*
%TD*%
D13*
%TO.C,SW19*%
X99410750Y-92760000D03*
D14*
X100680750Y-90220000D03*
D15*
X104490750Y-92760000D03*
D14*
X107030750Y-87680000D03*
D13*
X109570750Y-92760000D03*
D16*
X97405750Y-90220000D03*
X110332750Y-87680000D03*
%TD*%
D19*
%TO.C,USB_SPLIT_R*%
X231340000Y-67700000D03*
D20*
X233880000Y-67700000D03*
X236420000Y-67700000D03*
X238960000Y-67700000D03*
%TD*%
D10*
%TO.C,D77*%
X328509249Y-156014950D03*
D11*
X328509249Y-153979950D03*
X328509249Y-150429950D03*
D12*
X328509249Y-148394950D03*
%TD*%
D21*
%TO.C,U2*%
X305200000Y-123090000D03*
X307740000Y-123090000D03*
X310280000Y-123090000D03*
X312820000Y-123090000D03*
X315360000Y-123090000D03*
X317900000Y-123090000D03*
X320440000Y-123090000D03*
X322980000Y-123090000D03*
X325520000Y-123090000D03*
X328060000Y-123090000D03*
X330600000Y-123090000D03*
X333140000Y-123090000D03*
X333140000Y-138310000D03*
X330600000Y-138310000D03*
X328060000Y-138310000D03*
X325520000Y-138310000D03*
X322980000Y-138310000D03*
X320440000Y-138310000D03*
X317900000Y-138310000D03*
X315360000Y-138310000D03*
X312820000Y-138310000D03*
X310280000Y-138310000D03*
X307740000Y-138310000D03*
X305200000Y-138310000D03*
%TD*%
D10*
%TO.C,D10*%
X236000000Y-80410000D03*
D11*
X236000000Y-78375000D03*
X236000000Y-74825000D03*
D12*
X236000000Y-72790000D03*
%TD*%
D10*
%TO.C,D57*%
X219259249Y-137014950D03*
D11*
X219259249Y-134979950D03*
X219259249Y-131429950D03*
D12*
X219259249Y-129394950D03*
%TD*%
D13*
%TO.C,SW36*%
X104160750Y-111760000D03*
D14*
X105430750Y-109220000D03*
D15*
X109240750Y-111760000D03*
D14*
X111780750Y-106680000D03*
D13*
X114320750Y-111760000D03*
D16*
X102155750Y-109220000D03*
X115082750Y-106680000D03*
%TD*%
D19*
%TO.C,USB_main1*%
X58017750Y-67535000D03*
D20*
X60557750Y-67535000D03*
X63097750Y-67535000D03*
X65637750Y-67535000D03*
%TD*%
D13*
%TO.C,SW55*%
X170660750Y-130760000D03*
D14*
X171930750Y-128220000D03*
D15*
X175740750Y-130760000D03*
D14*
X178280750Y-125680000D03*
D13*
X180820750Y-130760000D03*
D16*
X168655750Y-128220000D03*
X181582750Y-125680000D03*
%TD*%
D10*
%TO.C,D75*%
X290509249Y-156014950D03*
D11*
X290509249Y-153979950D03*
X290509249Y-150429950D03*
D12*
X290509249Y-148394950D03*
%TD*%
D10*
%TO.C,D56*%
X186040000Y-138830000D03*
D11*
X186040000Y-136795000D03*
X186040000Y-133245000D03*
D12*
X186040000Y-131210000D03*
%TD*%
D18*
%TO.C,REF\u002A\u002A*%
X60439400Y-63093600D03*
X61231067Y-63093600D03*
X62022733Y-63093600D03*
X62814400Y-63093600D03*
X63606067Y-63093600D03*
X64397733Y-63093600D03*
X65189400Y-63093600D03*
%TD*%
D13*
%TO.C,SW62*%
X308208000Y-130760000D03*
D14*
X309478000Y-128220000D03*
D15*
X313288000Y-130760000D03*
D14*
X315828000Y-125680000D03*
D13*
X318368000Y-130760000D03*
D16*
X306203000Y-128220000D03*
X319130000Y-125680000D03*
%TD*%
%TO.C,SW31*%
X340505000Y-87680000D03*
X327578000Y-90220000D03*
D13*
X339743000Y-92760000D03*
D14*
X337203000Y-87680000D03*
D15*
X334663000Y-92760000D03*
D14*
X330853000Y-90220000D03*
D13*
X329583000Y-92760000D03*
%TD*%
D19*
%TO.C,USB_SPLIT_L*%
X157706250Y-67635000D03*
D20*
X160246250Y-67635000D03*
X162786250Y-67635000D03*
X165326250Y-67635000D03*
%TD*%
D19*
%TO.C,OLED*%
X25450750Y-75962370D03*
D20*
X25450750Y-73422370D03*
X25450750Y-70882370D03*
X25450750Y-68342370D03*
%TD*%
D10*
%TO.C,D60*%
X276259249Y-137014950D03*
D11*
X276259249Y-134979950D03*
X276259249Y-131429950D03*
D12*
X276259249Y-129394950D03*
%TD*%
D10*
%TO.C,D5*%
X143637000Y-78356000D03*
D11*
X143637000Y-76321000D03*
X143637000Y-72771000D03*
D12*
X143637000Y-70736000D03*
%TD*%
D13*
%TO.C,SW61*%
X282083000Y-130760000D03*
D14*
X283353000Y-128220000D03*
D15*
X287163000Y-130760000D03*
D14*
X289703000Y-125680000D03*
D13*
X292243000Y-130760000D03*
D16*
X280078000Y-128220000D03*
X293005000Y-125680000D03*
%TD*%
D10*
%TO.C,D35*%
X91211999Y-117989950D03*
D11*
X91211999Y-115954950D03*
X91211999Y-112404950D03*
D12*
X91211999Y-110369950D03*
%TD*%
D13*
%TO.C,SW48*%
X353333000Y-111760000D03*
D14*
X354603000Y-109220000D03*
D15*
X358413000Y-111760000D03*
D14*
X360953000Y-106680000D03*
D13*
X363493000Y-111760000D03*
D16*
X351328000Y-109220000D03*
X364255000Y-106680000D03*
%TD*%
D18*
%TO.C,REF\u002A\u002A*%
X236343400Y-63093600D03*
X237135067Y-63093600D03*
X237926733Y-63093600D03*
X238718400Y-63093600D03*
X239510067Y-63093600D03*
X240301733Y-63093600D03*
X241093400Y-63093600D03*
%TD*%
D10*
%TO.C,D21*%
X150611999Y-98964950D03*
D11*
X150611999Y-96929950D03*
X150611999Y-93379950D03*
D12*
X150611999Y-91344950D03*
%TD*%
D13*
%TO.C,SW5*%
X157071250Y-73760000D03*
D14*
X155801250Y-76300000D03*
D15*
X151991250Y-73760000D03*
D14*
X149451250Y-78840000D03*
D13*
X146911250Y-73760000D03*
D16*
X159076250Y-76300000D03*
X146149250Y-78840000D03*
%TD*%
D10*
%TO.C,D13*%
X309509249Y-79964950D03*
D11*
X309509249Y-77929950D03*
X309509249Y-74379950D03*
D12*
X309509249Y-72344950D03*
%TD*%
D13*
%TO.C,SW52*%
X113660750Y-130760000D03*
D14*
X114930750Y-128220000D03*
D15*
X118740750Y-130760000D03*
D14*
X121280750Y-125680000D03*
D13*
X123820750Y-130760000D03*
D16*
X111655750Y-128220000D03*
X124582750Y-125680000D03*
%TD*%
D10*
%TO.C,D18*%
X88836999Y-98964950D03*
D11*
X88836999Y-96929950D03*
X88836999Y-93379950D03*
D12*
X88836999Y-91344950D03*
%TD*%
D13*
%TO.C,SW54*%
X151660750Y-130760000D03*
D14*
X152930750Y-128220000D03*
D15*
X156740750Y-130760000D03*
D14*
X159280750Y-125680000D03*
D13*
X161820750Y-130760000D03*
D16*
X149655750Y-128220000D03*
X162582750Y-125680000D03*
%TD*%
D13*
%TO.C,SW33*%
X28160750Y-111760000D03*
D14*
X29430750Y-109220000D03*
D15*
X33240750Y-111760000D03*
D14*
X35780750Y-106680000D03*
D13*
X38320750Y-111760000D03*
D16*
X26155750Y-109220000D03*
X39082750Y-106680000D03*
%TD*%
D18*
%TO.C,REF\u002A\u002A*%
X233967400Y-63093600D03*
X234759067Y-63093600D03*
X235550733Y-63093600D03*
X236342400Y-63093600D03*
X237134067Y-63093600D03*
X237925733Y-63093600D03*
X238717400Y-63093600D03*
%TD*%
D10*
%TO.C,D27*%
X262009249Y-98964950D03*
D11*
X262009249Y-96929950D03*
X262009249Y-93379950D03*
D12*
X262009249Y-91344950D03*
%TD*%
D13*
%TO.C,SW37*%
X123160750Y-111760000D03*
D14*
X124430750Y-109220000D03*
D15*
X128240750Y-111760000D03*
D14*
X130780750Y-106680000D03*
D13*
X133320750Y-111760000D03*
D16*
X121155750Y-109220000D03*
X134082750Y-106680000D03*
%TD*%
D13*
%TO.C,SW1*%
X70910750Y-73760000D03*
D14*
X72180750Y-71220000D03*
D15*
X75990750Y-73760000D03*
D14*
X78530750Y-68680000D03*
D13*
X81070750Y-73760000D03*
D16*
X68905750Y-71220000D03*
X81832750Y-68680000D03*
%TD*%
D10*
%TO.C,D55*%
X183861999Y-137014950D03*
D11*
X183861999Y-134979950D03*
X183861999Y-131429950D03*
D12*
X183861999Y-129394950D03*
%TD*%
D13*
%TO.C,SW30*%
X305833000Y-92760000D03*
D14*
X307103000Y-90220000D03*
D15*
X310913000Y-92760000D03*
D14*
X313453000Y-87680000D03*
D13*
X315993000Y-92760000D03*
D16*
X303828000Y-90220000D03*
X316755000Y-87680000D03*
%TD*%
D10*
%TO.C,D54*%
X164861999Y-137014950D03*
D11*
X164861999Y-134979950D03*
X164861999Y-131429950D03*
D12*
X164861999Y-129394950D03*
%TD*%
D13*
%TO.C,SW32*%
X353333000Y-92760000D03*
D14*
X354603000Y-90220000D03*
D15*
X358413000Y-92760000D03*
D14*
X360953000Y-87680000D03*
D13*
X363493000Y-92760000D03*
D16*
X351328000Y-90220000D03*
X364255000Y-87680000D03*
%TD*%
D18*
%TO.C,REF\u002A\u002A*%
X155439400Y-63093600D03*
X156231067Y-63093600D03*
X157022733Y-63093600D03*
X157814400Y-63093600D03*
X158606067Y-63093600D03*
X159397733Y-63093600D03*
X160189400Y-63093600D03*
%TD*%
D13*
%TO.C,SW71*%
X184910750Y-149760000D03*
D14*
X186180750Y-147220000D03*
D15*
X189990750Y-149760000D03*
D14*
X192530750Y-144680000D03*
D13*
X195070750Y-149760000D03*
D16*
X182905750Y-147220000D03*
X195832750Y-144680000D03*
%TD*%
D13*
%TO.C,SW11*%
X258333000Y-73760000D03*
D14*
X259603000Y-71220000D03*
D15*
X263413000Y-73760000D03*
D14*
X265953000Y-68680000D03*
D13*
X268493000Y-73760000D03*
D16*
X256328000Y-71220000D03*
X269255000Y-68680000D03*
%TD*%
D13*
%TO.C,SW21*%
X137410750Y-92760000D03*
D14*
X138680750Y-90220000D03*
D15*
X142490750Y-92760000D03*
D14*
X145030750Y-87680000D03*
D13*
X147570750Y-92760000D03*
D16*
X135405750Y-90220000D03*
X148332750Y-87680000D03*
%TD*%
D10*
%TO.C,D2*%
X103111999Y-79964950D03*
D11*
X103111999Y-77929950D03*
X103111999Y-74379950D03*
D12*
X103111999Y-72344950D03*
%TD*%
D13*
%TO.C,SW25*%
X210833000Y-92760000D03*
D14*
X212103000Y-90220000D03*
D15*
X215913000Y-92760000D03*
D14*
X218453000Y-87680000D03*
D13*
X220993000Y-92760000D03*
D16*
X208828000Y-90220000D03*
X221755000Y-87680000D03*
%TD*%
D10*
%TO.C,D79*%
X366509249Y-156014950D03*
D11*
X366509249Y-153979950D03*
X366509249Y-150429950D03*
D12*
X366509249Y-148394950D03*
%TD*%
D13*
%TO.C,SW40*%
X180160750Y-111760000D03*
D14*
X181430750Y-109220000D03*
D15*
X185240750Y-111760000D03*
D14*
X187780750Y-106680000D03*
D13*
X190320750Y-111760000D03*
D16*
X178155750Y-109220000D03*
X191082750Y-106680000D03*
%TD*%
D13*
%TO.C,SW72*%
X201333000Y-149760000D03*
D14*
X202603000Y-147220000D03*
D15*
X206413000Y-149760000D03*
D14*
X208953000Y-144680000D03*
D13*
X211493000Y-149760000D03*
D16*
X199328000Y-147220000D03*
X212255000Y-144680000D03*
%TD*%
D19*
%TO.C,RST*%
X219075000Y-66400000D03*
D20*
X216535000Y-66400000D03*
%TD*%
D10*
%TO.C,D78*%
X347509249Y-156014950D03*
D11*
X347509249Y-153979950D03*
X347509249Y-150429950D03*
D12*
X347509249Y-148394950D03*
%TD*%
D18*
%TO.C,REF\u002A\u002A*%
X363994800Y-158756400D03*
X363203133Y-158756400D03*
X362411467Y-158756400D03*
X361619800Y-158756400D03*
X360828133Y-158756400D03*
X360036467Y-158756400D03*
X359244800Y-158756400D03*
%TD*%
D13*
%TO.C,SW20*%
X118410750Y-92760000D03*
D14*
X119680750Y-90220000D03*
D15*
X123490750Y-92760000D03*
D14*
X126030750Y-87680000D03*
D13*
X128570750Y-92760000D03*
D16*
X116405750Y-90220000D03*
X129332750Y-87680000D03*
%TD*%
D13*
%TO.C,SW35*%
X78035750Y-111760000D03*
D14*
X79305750Y-109220000D03*
D15*
X83115750Y-111760000D03*
D14*
X85655750Y-106680000D03*
D13*
X88195750Y-111760000D03*
D16*
X76030750Y-109220000D03*
X88957750Y-106680000D03*
%TD*%
D21*
%TO.C,U1*%
X57847000Y-84908600D03*
X55307000Y-84908600D03*
X52767000Y-84908600D03*
X50227000Y-84908600D03*
X47687000Y-84908600D03*
X45147000Y-84908600D03*
X42607000Y-84908600D03*
X40067000Y-84908600D03*
X37527000Y-84908600D03*
X34987000Y-84908600D03*
X32447000Y-84908600D03*
X29907000Y-84908600D03*
X29907000Y-69688600D03*
X32447000Y-69688600D03*
X34987000Y-69688600D03*
X37527000Y-69688600D03*
X40067000Y-69688600D03*
X42607000Y-69688600D03*
X45147000Y-69688600D03*
X47687000Y-69688600D03*
X50227000Y-69688600D03*
X52767000Y-69688600D03*
X55307000Y-69688600D03*
X57847000Y-69688600D03*
%TD*%
D13*
%TO.C,SW34*%
X47160750Y-111760000D03*
D14*
X48430750Y-109220000D03*
D15*
X52240750Y-111760000D03*
D14*
X54780750Y-106680000D03*
D13*
X57320750Y-111760000D03*
D16*
X45155750Y-109220000D03*
X58082750Y-106680000D03*
%TD*%
D10*
%TO.C,D34*%
X60336999Y-117989950D03*
D11*
X60336999Y-115954950D03*
X60336999Y-112404950D03*
D12*
X60336999Y-110369950D03*
%TD*%
D10*
%TO.C,D71*%
X179695000Y-156115000D03*
D11*
X179695000Y-154080000D03*
X179695000Y-150530000D03*
D12*
X179695000Y-148495000D03*
%TD*%
D13*
%TO.C,SW44*%
X253583000Y-111760000D03*
D14*
X254853000Y-109220000D03*
D15*
X258663000Y-111760000D03*
D14*
X261203000Y-106680000D03*
D13*
X263743000Y-111760000D03*
D16*
X251578000Y-109220000D03*
X264505000Y-106680000D03*
%TD*%
D10*
%TO.C,D58*%
X238259249Y-137014950D03*
D11*
X238259249Y-134979950D03*
X238259249Y-131429950D03*
D12*
X238259249Y-129394950D03*
%TD*%
D13*
%TO.C,SW74*%
X258333000Y-149760000D03*
D14*
X259603000Y-147220000D03*
D15*
X263413000Y-149760000D03*
D14*
X265953000Y-144680000D03*
D13*
X268493000Y-149760000D03*
D16*
X256328000Y-147220000D03*
X269255000Y-144680000D03*
%TD*%
D13*
%TO.C,SW42*%
X215583000Y-111760000D03*
D14*
X216853000Y-109220000D03*
D15*
X220663000Y-111760000D03*
D14*
X223203000Y-106680000D03*
D13*
X225743000Y-111760000D03*
D16*
X213578000Y-109220000D03*
X226505000Y-106680000D03*
%TD*%
D10*
%TO.C,D31*%
X342784249Y-98964950D03*
D11*
X342784249Y-96929950D03*
X342784249Y-93379950D03*
D12*
X342784249Y-91344950D03*
%TD*%
D13*
%TO.C,SW3*%
X108910750Y-73760000D03*
D14*
X110180750Y-71220000D03*
D15*
X113990750Y-73760000D03*
D14*
X116530750Y-68680000D03*
D13*
X119070750Y-73760000D03*
D16*
X106905750Y-71220000D03*
X119832750Y-68680000D03*
%TD*%
D10*
%TO.C,D68*%
X107861999Y-156014950D03*
D11*
X107861999Y-153979950D03*
X107861999Y-150429950D03*
D12*
X107861999Y-148394950D03*
%TD*%
D10*
%TO.C,D19*%
X112611999Y-98964950D03*
D11*
X112611999Y-96929950D03*
X112611999Y-93379950D03*
D12*
X112611999Y-91344950D03*
%TD*%
D10*
%TO.C,D17*%
X60336999Y-98964950D03*
D11*
X60336999Y-96929950D03*
X60336999Y-93379950D03*
D12*
X60336999Y-91344950D03*
%TD*%
D10*
%TO.C,D72*%
X214509249Y-156014950D03*
D11*
X214509249Y-153979950D03*
X214509249Y-150429950D03*
D12*
X214509249Y-148394950D03*
%TD*%
D13*
%TO.C,SW45*%
X272583000Y-111760000D03*
D14*
X273853000Y-109220000D03*
D15*
X277663000Y-111760000D03*
D14*
X280203000Y-106680000D03*
D13*
X282743000Y-111760000D03*
D16*
X270578000Y-109220000D03*
X283505000Y-106680000D03*
%TD*%
D18*
%TO.C,REF\u002A\u002A*%
X327520200Y-64211200D03*
X328311867Y-64211200D03*
X329103533Y-64211200D03*
X329895200Y-64211200D03*
X330686867Y-64211200D03*
X331478533Y-64211200D03*
X332270200Y-64211200D03*
%TD*%
D10*
%TO.C,D30*%
X319009249Y-98964950D03*
D11*
X319009249Y-96929950D03*
X319009249Y-93379950D03*
D12*
X319009249Y-91344950D03*
%TD*%
D10*
%TO.C,D63*%
X347509249Y-137014950D03*
D11*
X347509249Y-134979950D03*
X347509249Y-131429950D03*
D12*
X347509249Y-129394950D03*
%TD*%
D13*
%TO.C,SW46*%
X291583000Y-111760000D03*
D14*
X292853000Y-109220000D03*
D15*
X296663000Y-111760000D03*
D14*
X299203000Y-106680000D03*
D13*
X301743000Y-111760000D03*
D16*
X289578000Y-109220000D03*
X302505000Y-106680000D03*
%TD*%
D18*
%TO.C,REF\u002A\u002A*%
X171005400Y-158756400D03*
X171797067Y-158756400D03*
X172588733Y-158756400D03*
X173380400Y-158756400D03*
X174172067Y-158756400D03*
X174963733Y-158756400D03*
X175755400Y-158756400D03*
%TD*%
D10*
%TO.C,D40*%
X176525000Y-120560000D03*
D11*
X176525000Y-118525000D03*
X176525000Y-114975000D03*
D12*
X176525000Y-112940000D03*
%TD*%
D22*
%TO.C,LED77*%
X208363000Y-134822999D03*
X208363000Y-136223000D03*
X213963000Y-136223001D03*
X213963000Y-134823000D03*
%TD*%
%TO.C,LED3*%
X30440750Y-134822999D03*
X30440750Y-136223000D03*
X36040750Y-136223001D03*
X36040750Y-134823000D03*
%TD*%
%TO.C,LED27*%
X144440750Y-115822999D03*
X144440750Y-117223000D03*
X150040750Y-117223001D03*
X150040750Y-115823000D03*
%TD*%
%TO.C,LED70*%
X227363000Y-134822999D03*
X227363000Y-136223000D03*
X232963000Y-136223001D03*
X232963000Y-134823000D03*
%TD*%
%TO.C,LED7*%
X49440750Y-115822999D03*
X49440750Y-117223000D03*
X55040750Y-117223001D03*
X55040750Y-115823000D03*
%TD*%
%TO.C,LED32*%
X172940750Y-134822999D03*
X172940750Y-136223000D03*
X178540750Y-136223001D03*
X178540750Y-134823000D03*
%TD*%
%TO.C,LED38*%
X187190750Y-77822999D03*
X187190750Y-79223000D03*
X192790750Y-79223001D03*
X192790750Y-77823000D03*
%TD*%
D23*
%TO.C,ENC*%
X367913000Y-71760000D03*
X352913000Y-71760000D03*
D24*
X357913000Y-79260000D03*
X362913000Y-79260000D03*
X360413000Y-79260000D03*
X362913000Y-64160000D03*
X357913000Y-64160000D03*
%TD*%
D22*
%TO.C,LED13*%
X75565750Y-153822999D03*
X75565750Y-155223000D03*
X81165750Y-155223001D03*
X81165750Y-153823000D03*
%TD*%
%TO.C,LED30*%
X158690750Y-96822999D03*
X158690750Y-98223000D03*
X164290750Y-98223001D03*
X164290750Y-96823000D03*
%TD*%
%TO.C,LED28*%
X130190750Y-77822999D03*
X130190750Y-79223000D03*
X135790750Y-79223001D03*
X135790750Y-77823000D03*
%TD*%
%TO.C,LED71*%
X232138000Y-153822999D03*
X232138000Y-155223000D03*
X237738000Y-155223001D03*
X237738000Y-153823000D03*
%TD*%
%TO.C,LED35*%
X177690750Y-96822999D03*
X177690750Y-98223000D03*
X183290750Y-98223001D03*
X183290750Y-96823000D03*
%TD*%
%TO.C,LED29*%
X154791250Y-69697001D03*
X154791250Y-68297000D03*
X149191250Y-68296999D03*
X149191250Y-69697000D03*
%TD*%
%TO.C,LED58*%
X260613000Y-77822999D03*
X260613000Y-79223000D03*
X266213000Y-79223001D03*
X266213000Y-77823000D03*
%TD*%
%TO.C,LED11*%
X80315750Y-115822999D03*
X80315750Y-117223000D03*
X85915750Y-117223001D03*
X85915750Y-115823000D03*
%TD*%
%TO.C,LED52*%
X298613000Y-153822999D03*
X298613000Y-155223000D03*
X304213000Y-155223001D03*
X304213000Y-153823000D03*
%TD*%
%TO.C,LED60*%
X274863000Y-115822999D03*
X274863000Y-117223000D03*
X280463000Y-117223001D03*
X280463000Y-115823000D03*
%TD*%
%TO.C,LED76*%
X198863000Y-115822999D03*
X198863000Y-117223000D03*
X204463000Y-117223001D03*
X204463000Y-115823000D03*
%TD*%
%TO.C,LED46*%
X337463000Y-96823000D03*
X337463000Y-98223001D03*
X331863000Y-98223000D03*
X331863000Y-96822999D03*
%TD*%
%TO.C,LED37*%
X173791250Y-69697001D03*
X173791250Y-68297000D03*
X168191250Y-68296999D03*
X168191250Y-69697000D03*
%TD*%
%TO.C,LED68*%
X232113000Y-96822999D03*
X232113000Y-98223000D03*
X237713000Y-98223001D03*
X237713000Y-96823000D03*
%TD*%
%TO.C,LED45*%
X330338000Y-115823000D03*
X330338000Y-117223001D03*
X324738000Y-117223000D03*
X324738000Y-115822999D03*
%TD*%
%TO.C,LED50*%
X310488000Y-134822999D03*
X310488000Y-136223000D03*
X316088000Y-136223001D03*
X316088000Y-134823000D03*
%TD*%
%TO.C,LED14*%
X96940750Y-153822999D03*
X96940750Y-155223000D03*
X102540750Y-155223001D03*
X102540750Y-153823000D03*
%TD*%
%TO.C,LED1*%
X30440750Y-96822999D03*
X30440750Y-98223000D03*
X36040750Y-98223001D03*
X36040750Y-96823000D03*
%TD*%
%TO.C,LED62*%
X260613000Y-153822999D03*
X260613000Y-155223000D03*
X266213000Y-155223001D03*
X266213000Y-153823000D03*
%TD*%
%TO.C,LED69*%
X236863000Y-115822999D03*
X236863000Y-117223000D03*
X242463000Y-117223001D03*
X242463000Y-115823000D03*
%TD*%
%TO.C,LED64*%
X255863000Y-115822999D03*
X255863000Y-117223000D03*
X261463000Y-117223001D03*
X261463000Y-115823000D03*
%TD*%
%TO.C,LED18*%
X101690750Y-96822999D03*
X101690750Y-98223000D03*
X107290750Y-98223001D03*
X107290750Y-96823000D03*
%TD*%
%TO.C,LED74*%
X203613000Y-77822999D03*
X203613000Y-79223000D03*
X209213000Y-79223001D03*
X209213000Y-77823000D03*
%TD*%
%TO.C,LED24*%
X151540750Y-153822999D03*
X151540750Y-155223000D03*
X157140750Y-155223001D03*
X157140750Y-153823000D03*
%TD*%
%TO.C,LED63*%
X246363000Y-134822999D03*
X246363000Y-136223000D03*
X251963000Y-136223001D03*
X251963000Y-134823000D03*
%TD*%
%TO.C,LED61*%
X265363000Y-134822999D03*
X265363000Y-136223000D03*
X270963000Y-136223001D03*
X270963000Y-134823000D03*
%TD*%
%TO.C,LED2*%
X30440750Y-115822999D03*
X30440750Y-117223000D03*
X36040750Y-117223001D03*
X36040750Y-115823000D03*
%TD*%
%TO.C,LED20*%
X111190750Y-77822999D03*
X111190750Y-79223000D03*
X116790750Y-79223001D03*
X116790750Y-77823000D03*
%TD*%
%TO.C,LED19*%
X92190750Y-77822999D03*
X92190750Y-79223000D03*
X97790750Y-79223001D03*
X97790750Y-77823000D03*
%TD*%
%TO.C,LED41*%
X355613000Y-134822999D03*
X355613000Y-136223000D03*
X361213000Y-136223001D03*
X361213000Y-134823000D03*
%TD*%
%TO.C,LED33*%
X187190750Y-153822999D03*
X187190750Y-155223000D03*
X192790750Y-155223001D03*
X192790750Y-153823000D03*
%TD*%
%TO.C,LED59*%
X270113000Y-96822999D03*
X270113000Y-98223000D03*
X275713000Y-98223001D03*
X275713000Y-96823000D03*
%TD*%
%TO.C,LED72*%
X217863000Y-115822999D03*
X217863000Y-117223000D03*
X223463000Y-117223001D03*
X223463000Y-115823000D03*
%TD*%
%TO.C,LED57*%
X279613000Y-77822999D03*
X279613000Y-79223000D03*
X285213000Y-79223001D03*
X285213000Y-77823000D03*
%TD*%
%TO.C,LED47*%
X327113000Y-77822999D03*
X327113000Y-79223000D03*
X332713000Y-79223001D03*
X332713000Y-77823000D03*
%TD*%
%TO.C,LED48*%
X298613000Y-77822999D03*
X298613000Y-79223000D03*
X304213000Y-79223001D03*
X304213000Y-77823000D03*
%TD*%
%TO.C,LED22*%
X125440750Y-115822999D03*
X125440750Y-117223000D03*
X131040750Y-117223001D03*
X131040750Y-115823000D03*
%TD*%
D10*
%TO.C,D66*%
X60336999Y-156014950D03*
D11*
X60336999Y-153979950D03*
X60336999Y-150429950D03*
D12*
X60336999Y-148394950D03*
%TD*%
D22*
%TO.C,LED73*%
X213113000Y-96822999D03*
X213113000Y-98223000D03*
X218713000Y-98223001D03*
X218713000Y-96823000D03*
%TD*%
%TO.C,LED23*%
X134940750Y-134822999D03*
X134940750Y-136223000D03*
X140540750Y-136223001D03*
X140540750Y-134823000D03*
%TD*%
%TO.C,LED43*%
X336613000Y-153822999D03*
X336613000Y-155223000D03*
X342213000Y-155223001D03*
X342213000Y-153823000D03*
%TD*%
%TO.C,LED4*%
X30440750Y-153822999D03*
X30440750Y-155223000D03*
X36040750Y-155223001D03*
X36040750Y-153823000D03*
%TD*%
%TO.C,LED21*%
X120690750Y-96822999D03*
X120690750Y-98223000D03*
X126290750Y-98223001D03*
X126290750Y-96823000D03*
%TD*%
%TO.C,LED8*%
X49440750Y-96822999D03*
X49440750Y-98223000D03*
X55040750Y-98223001D03*
X55040750Y-96823000D03*
%TD*%
%TO.C,LED49*%
X308113000Y-96822999D03*
X308113000Y-98223000D03*
X313713000Y-98223001D03*
X313713000Y-96823000D03*
%TD*%
%TO.C,LED15*%
X115940750Y-153822999D03*
X115940750Y-155223000D03*
X121540750Y-155223001D03*
X121540750Y-153823000D03*
%TD*%
%TO.C,LED78*%
X203613000Y-153822999D03*
X203613000Y-155223000D03*
X209213000Y-155223001D03*
X209213000Y-153823000D03*
%TD*%
%TO.C,LED39*%
X355613000Y-96822999D03*
X355613000Y-98223000D03*
X361213000Y-98223001D03*
X361213000Y-96823000D03*
%TD*%
%TO.C,LED44*%
X336613000Y-134822999D03*
X336613000Y-136223000D03*
X342213000Y-136223001D03*
X342213000Y-134823000D03*
%TD*%
%TO.C,LED75*%
X194113000Y-96822999D03*
X194113000Y-98223000D03*
X199713000Y-98223001D03*
X199713000Y-96823000D03*
%TD*%
%TO.C,LED5*%
X49440750Y-153822999D03*
X49440750Y-155223000D03*
X55040750Y-155223001D03*
X55040750Y-153823000D03*
%TD*%
%TO.C,LED51*%
X317613000Y-153822999D03*
X317613000Y-155223000D03*
X323213000Y-155223001D03*
X323213000Y-153823000D03*
%TD*%
%TO.C,LED6*%
X49440750Y-134822999D03*
X49440750Y-136223000D03*
X55040750Y-136223001D03*
X55040750Y-134823000D03*
%TD*%
%TO.C,LED42*%
X355613000Y-153822999D03*
X355613000Y-155223000D03*
X361213000Y-155223001D03*
X361213000Y-153823000D03*
%TD*%
%TO.C,LED34*%
X191940750Y-134822999D03*
X191940750Y-136223000D03*
X197540750Y-136223001D03*
X197540750Y-134823000D03*
%TD*%
%TO.C,LED10*%
X77940750Y-96822999D03*
X77940750Y-98223000D03*
X83540750Y-98223001D03*
X83540750Y-96823000D03*
%TD*%
%TO.C,LED17*%
X106440750Y-115822999D03*
X106440750Y-117223000D03*
X112040750Y-117223001D03*
X112040750Y-115823000D03*
%TD*%
%TO.C,LED56*%
X293863000Y-115822999D03*
X293863000Y-117223000D03*
X299463000Y-117223001D03*
X299463000Y-115823000D03*
%TD*%
%TO.C,LED67*%
X228213000Y-69697001D03*
X228213000Y-68297000D03*
X222613000Y-68296999D03*
X222613000Y-69697000D03*
%TD*%
%TO.C,LED31*%
X163440750Y-115822999D03*
X163440750Y-117223000D03*
X169040750Y-117223001D03*
X169040750Y-115823000D03*
%TD*%
%TO.C,LED53*%
X279613000Y-153822999D03*
X279613000Y-155223000D03*
X285213000Y-155223001D03*
X285213000Y-153823000D03*
%TD*%
%TO.C,LED36*%
X182440750Y-115822999D03*
X182440750Y-117223000D03*
X188040750Y-117223001D03*
X188040750Y-115823000D03*
%TD*%
%TO.C,LED65*%
X247212000Y-69697001D03*
X247212000Y-68297000D03*
X241612000Y-68296999D03*
X241612000Y-69697000D03*
%TD*%
%TO.C,LED9*%
X73190750Y-77822999D03*
X73190750Y-79223000D03*
X78790750Y-79223001D03*
X78790750Y-77823000D03*
%TD*%
%TO.C,LED66*%
X251113000Y-96822999D03*
X251113000Y-98223000D03*
X256713000Y-98223001D03*
X256713000Y-96823000D03*
%TD*%
%TO.C,LED26*%
X139690750Y-96822999D03*
X139690750Y-98223000D03*
X145290750Y-98223001D03*
X145290750Y-96823000D03*
%TD*%
%TO.C,LED54*%
X284363000Y-134822999D03*
X284363000Y-136223000D03*
X289963000Y-136223001D03*
X289963000Y-134823000D03*
%TD*%
%TO.C,LED55*%
X289113000Y-96822999D03*
X289113000Y-98223000D03*
X294713000Y-98223001D03*
X294713000Y-96823000D03*
%TD*%
%TO.C,LED12*%
X85065750Y-134822999D03*
X85065750Y-136223000D03*
X90665750Y-136223001D03*
X90665750Y-134823000D03*
%TD*%
%TO.C,LED40*%
X355613000Y-115822999D03*
X355613000Y-117223000D03*
X361213000Y-117223001D03*
X361213000Y-115823000D03*
%TD*%
%TO.C,LED25*%
X153940750Y-134822999D03*
X153940750Y-136223000D03*
X159540750Y-136223001D03*
X159540750Y-134823000D03*
%TD*%
%TO.C,LED16*%
X115940750Y-134822999D03*
X115940750Y-136223000D03*
X121540750Y-136223001D03*
X121540750Y-134823000D03*
%TD*%
M02*
