M48
; DRILL file {KiCad 8.0.8} date 2025-04-10T14:11:04+0900
; FORMAT={-:-/ absolute / inch / decimal}
; #@! TF.CreationDate,2025-04-10T14:11:04+09:00
; #@! TF.GenerationSoftware,Kicad,Pcbnew,8.0.8
; #@! TF.FileFunction,NonPlated,1,2,NPTH
FMAT,2
INCH
; #@! TA.AperFunction,NonPlated,NPTH,ComponentDrill
T1C0.0689
; #@! TA.AperFunction,NonPlated,NPTH,ComponentDrill
T2C0.1181
; #@! TA.AperFunction,NonPlated,NPTH,ComponentDrill
T3C0.1200
; #@! TA.AperFunction,NonPlated,NPTH,ComponentDrill
T4C0.1570
%
G90
G05
T1
X1.1062Y-3.651
X1.1062Y-4.4
X1.1062Y-5.149
X1.1062Y-5.897
X1.5062Y-3.651
X1.5062Y-4.4
X1.5062Y-5.149
X1.5062Y-5.897
X1.8543Y-3.651
X1.8543Y-4.4
X1.8543Y-5.149
X1.8543Y-5.897
X2.2543Y-3.651
X2.2543Y-4.4
X2.2543Y-5.149
X2.2543Y-5.897
X2.7927Y-2.903
X2.8853Y-5.897
X2.9788Y-3.651
X3.0723Y-4.4
X3.1927Y-2.903
X3.2593Y-5.149
X3.2853Y-5.897
X3.3788Y-3.651
X3.4723Y-4.4
X3.5408Y-2.903
X3.6593Y-5.149
X3.7278Y-5.897
X3.9148Y-3.651
X3.9408Y-2.903
X4.1018Y-4.4
X4.1278Y-5.897
X4.2888Y-2.903
X4.3148Y-3.651
X4.4758Y-5.149
X4.4758Y-5.897
X4.5018Y-4.4
X4.6628Y-3.651
X4.6888Y-2.903
X4.8498Y-4.4
X4.8758Y-5.149
X4.8758Y-5.897
X5.0368Y-2.903
X5.0628Y-3.651
X5.2238Y-5.149
X5.2498Y-4.4
X5.4109Y-3.651
X5.4368Y-2.903
X5.5979Y-4.4
X5.6238Y-5.149
X5.7849Y-2.903
X5.8109Y-3.651
X5.8774Y-5.897
X5.9719Y-5.149
X5.9979Y-4.4
X6.1589Y-3.651
X6.1849Y-2.903
X6.2774Y-5.897
X6.3459Y-4.4
X6.3719Y-5.149
X6.5329Y-2.903
X6.5589Y-3.651
X6.7199Y-5.149
X6.7459Y-4.4
X6.9069Y-3.651
X6.9329Y-2.903
X7.0939Y-4.4
X7.1199Y-5.149
X7.2809Y-2.903
X7.2809Y-5.897
X7.3069Y-3.651
X7.4679Y-5.149
X7.4939Y-4.4
X7.6809Y-2.903
X7.6809Y-5.897
X7.8679Y-5.149
X8.5367Y-3.651
X8.7237Y-4.4
X8.9107Y-2.903
X8.9107Y-5.897
X8.9367Y-3.651
X9.0978Y-5.149
X9.1237Y-4.4
X9.2848Y-3.651
X9.3107Y-2.903
X9.3107Y-5.897
X9.4718Y-4.4
X9.4978Y-5.149
X9.6578Y-2.9002
X9.6848Y-3.651
X9.8458Y-5.149
X9.8718Y-4.4
X10.0328Y-3.651
X10.0338Y-5.897
X10.0578Y-2.9002
X10.2198Y-4.4
X10.2458Y-5.149
X10.4058Y-2.9002
X10.4328Y-3.651
X10.4338Y-5.897
X10.5938Y-5.149
X10.6198Y-4.4
X10.7808Y-3.651
X10.8058Y-2.9002
X10.9678Y-4.4
X10.9938Y-5.149
X11.1548Y-2.903
X11.1548Y-5.897
X11.1808Y-3.651
X11.3419Y-5.149
X11.3678Y-4.4
X11.5289Y-3.651
X11.5548Y-2.903
X11.5548Y-5.897
X11.7159Y-4.4
X11.7419Y-5.149
X11.9029Y-2.903
X11.9029Y-5.897
X11.9289Y-3.651
X12.0899Y-5.149
X12.1159Y-4.4
X12.2769Y-3.651
X12.3029Y-2.903
X12.3029Y-5.897
X12.4639Y-4.4
X12.4899Y-5.149
X12.6509Y-2.903
X12.6509Y-5.897
X12.6769Y-3.651
X12.8639Y-4.4
X13.0249Y-3.651
X13.0509Y-2.903
X13.0509Y-5.897
X13.1194Y-5.149
X13.3989Y-5.897
X13.4249Y-3.651
X13.5194Y-5.149
X13.6804Y-4.4
X13.7739Y-2.903
X13.7989Y-5.897
X13.9609Y-3.651
X14.0804Y-4.4
X14.147Y-5.149
X14.147Y-5.897
X14.1739Y-2.903
X14.3609Y-3.651
X14.547Y-5.149
X14.547Y-5.897
X14.895Y-3.651
X14.895Y-4.4
X14.895Y-5.149
X14.895Y-5.897
X15.295Y-3.651
X15.295Y-4.4
X15.295Y-5.149
X15.295Y-5.897
T2
X1.1562Y-3.551
X1.1562Y-4.3
X1.1562Y-5.049
X1.1562Y-5.797
X1.4062Y-3.451
X1.4062Y-4.2
X1.4062Y-4.949
X1.4062Y-5.697
X1.9043Y-3.551
X1.9043Y-4.3
X1.9043Y-5.049
X1.9043Y-5.797
X2.1543Y-3.451
X2.1543Y-4.2
X2.1543Y-4.949
X2.1543Y-5.697
X2.8427Y-2.803
X2.9353Y-5.797
X3.0288Y-3.551
X3.0927Y-2.703
X3.1223Y-4.3
X3.1853Y-5.697
X3.2788Y-3.451
X3.3093Y-5.049
X3.3723Y-4.2
X3.5593Y-4.949
X3.5908Y-2.803
X3.7778Y-5.797
X3.8408Y-2.703
X3.9648Y-3.551
X4.0278Y-5.697
X4.1518Y-4.3
X4.2148Y-3.451
X4.3388Y-2.803
X4.4018Y-4.2
X4.5258Y-5.049
X4.5258Y-5.797
X4.5888Y-2.703
X4.7128Y-3.551
X4.7758Y-4.949
X4.7758Y-5.697
X4.8998Y-4.3
X4.9628Y-3.451
X5.0868Y-2.803
X5.1498Y-4.2
X5.2738Y-5.049
X5.3368Y-2.703
X5.4609Y-3.551
X5.5238Y-4.949
X5.6479Y-4.3
X5.7109Y-3.451
X5.8849Y-3.103
X5.8979Y-4.2
X5.9274Y-5.797
X6.0219Y-5.049
X6.1349Y-3.003
X6.1774Y-5.697
X6.2089Y-3.551
X6.2719Y-4.949
X6.3959Y-4.3
X6.4589Y-3.451
X6.6329Y-3.103
X6.6459Y-4.2
X6.7699Y-5.049
X6.8829Y-3.003
X6.9569Y-3.551
X7.0199Y-4.949
X7.1439Y-4.3
X7.2069Y-3.451
X7.3309Y-2.803
X7.3309Y-5.797
X7.3939Y-4.2
X7.5179Y-5.049
X7.5809Y-2.703
X7.5809Y-5.697
X7.7679Y-4.949
X8.5867Y-3.551
X8.7737Y-4.3
X8.8367Y-3.451
X8.9607Y-2.803
X8.9607Y-5.797
X9.0237Y-4.2
X9.1478Y-5.049
X9.2107Y-2.703
X9.2107Y-5.697
X9.3348Y-3.551
X9.3978Y-4.949
X9.5218Y-4.3
X9.5848Y-3.451
X9.7578Y-3.1002
X9.7718Y-4.2
X9.8958Y-5.049
X10.0078Y-3.0002
X10.0828Y-3.551
X10.0838Y-5.797
X10.1458Y-4.949
X10.2698Y-4.3
X10.3328Y-3.451
X10.3338Y-5.697
X10.5058Y-3.1002
X10.5198Y-4.2
X10.6438Y-5.049
X10.7558Y-3.0002
X10.8308Y-3.551
X10.8938Y-4.949
X11.0178Y-4.3
X11.0808Y-3.451
X11.2048Y-2.803
X11.2048Y-5.797
X11.2678Y-4.2
X11.3919Y-5.049
X11.4548Y-2.703
X11.4548Y-5.697
X11.5789Y-3.551
X11.6419Y-4.949
X11.7659Y-4.3
X11.8289Y-3.451
X11.9529Y-2.803
X11.9529Y-5.797
X12.0159Y-4.2
X12.1399Y-5.049
X12.2029Y-2.703
X12.2029Y-5.697
X12.3269Y-3.551
X12.3899Y-4.949
X12.5139Y-4.3
X12.5769Y-3.451
X12.7009Y-2.803
X12.7009Y-5.797
X12.7639Y-4.2
X12.9509Y-2.703
X12.9509Y-5.697
X13.0749Y-3.551
X13.1694Y-5.049
X13.3249Y-3.451
X13.4194Y-4.949
X13.4489Y-5.797
X13.6989Y-5.697
X13.7304Y-4.3
X13.8239Y-2.803
X13.9804Y-4.2
X14.0109Y-3.551
X14.0739Y-2.703
X14.197Y-5.049
X14.197Y-5.797
X14.2609Y-3.451
X14.447Y-4.949
X14.447Y-5.697
X14.945Y-3.551
X14.945Y-4.3
X14.945Y-5.049
X14.945Y-5.797
X15.195Y-3.451
X15.195Y-4.2
X15.195Y-4.949
X15.195Y-5.697
T3
X2.9893Y-4.874
X3.9293Y-4.874
X5.6074Y-6.172
X6.5474Y-6.172
X9.7638Y-6.172
X10.7038Y-6.172
X13.4104Y-4.125
X13.5039Y-2.628
X14.3504Y-4.125
X14.4439Y-2.628
T4
X1.3062Y-3.651
X1.3062Y-4.4
X1.3062Y-5.149
X1.3062Y-5.897
X2.0543Y-3.651
X2.0543Y-4.4
X2.0543Y-5.149
X2.0543Y-5.897
X2.9893Y-5.474
X2.9927Y-2.903
X3.0853Y-5.897
X3.1788Y-3.651
X3.2723Y-4.4
X3.4593Y-5.149
X3.7408Y-2.903
X3.9278Y-5.897
X3.9293Y-5.474
X4.1148Y-3.651
X4.3018Y-4.4
X4.4888Y-2.903
X4.6758Y-5.149
X4.6758Y-5.897
X4.8628Y-3.651
X5.0498Y-4.4
X5.2368Y-2.903
X5.4238Y-5.149
X5.6074Y-5.572
X5.6109Y-3.651
X5.7979Y-4.4
X5.9849Y-2.903
X6.0774Y-5.897
X6.1719Y-5.149
X6.3589Y-3.651
X6.5459Y-4.4
X6.5474Y-5.572
X6.7329Y-2.903
X6.9199Y-5.149
X7.1069Y-3.651
X7.2939Y-4.4
X7.4809Y-2.903
X7.4809Y-5.897
X7.6679Y-5.149
X8.7367Y-3.651
X8.9237Y-4.4
X9.1107Y-2.903
X9.1107Y-5.897
X9.2978Y-5.149
X9.4848Y-3.651
X9.6718Y-4.4
X9.7638Y-5.572
X9.8578Y-2.9002
X10.0458Y-5.149
X10.2328Y-3.651
X10.2338Y-5.897
X10.4198Y-4.4
X10.6058Y-2.9002
X10.7038Y-5.572
X10.7938Y-5.149
X10.9808Y-3.651
X11.1678Y-4.4
X11.3548Y-2.903
X11.3548Y-5.897
X11.5419Y-5.149
X11.7289Y-3.651
X11.9159Y-4.4
X12.1029Y-2.903
X12.1029Y-5.897
X12.2899Y-5.149
X12.4769Y-3.651
X12.6639Y-4.4
X12.8509Y-2.903
X12.8509Y-5.897
X13.2249Y-3.651
X13.3194Y-5.149
X13.4104Y-4.725
X13.5039Y-3.228
X13.5989Y-5.897
X13.8804Y-4.4
X13.9739Y-2.903
X14.1609Y-3.651
X14.347Y-5.149
X14.347Y-5.897
X14.3504Y-4.725
X14.4439Y-3.228
X15.095Y-3.651
X15.095Y-4.4
X15.095Y-5.149
X15.095Y-5.897
M30
