M48
; DRILL file {KiCad 8.0.8} date 2025-04-11T15:04:40+0900
; FORMAT={-:-/ absolute / inch / decimal}
; #@! TF.CreationDate,2025-04-11T15:04:40+09:00
; #@! TF.GenerationSoftware,Kicad,Pcbnew,8.0.8
; #@! TF.FileFunction,NonPlated,1,2,NPTH
FMAT,2
INCH
; #@! TA.AperFunction,NonPlated,NPTH,ComponentDrill
T1C0.0197
; #@! TA.AperFunction,NonPlated,NPTH,ComponentDrill
T2C0.0689
; #@! TA.AperFunction,NonPlated,NPTH,ComponentDrill
T3C0.1181
; #@! TA.AperFunction,NonPlated,NPTH,ComponentDrill
T4C0.1200
; #@! TA.AperFunction,NonPlated,NPTH,ComponentDrill
T5C0.1570
%
G90
G05
T1
X2.1925Y-2.484
X2.2237Y-2.484
X2.2548Y-2.484
X2.286Y-2.484
X2.3172Y-2.484
X2.3483Y-2.484
X2.3795Y-2.484
X2.3795Y-2.484
X2.4107Y-2.484
X2.4418Y-2.484
X2.473Y-2.484
X2.473Y-2.484
X2.5042Y-2.484
X2.5042Y-2.484
X2.5353Y-2.484
X2.5354Y-2.484
X2.5515Y-6.268
X2.5665Y-2.484
X2.5666Y-2.484
X2.5827Y-6.268
X2.5977Y-2.484
X2.6138Y-6.268
X2.6289Y-2.484
X2.645Y-6.268
X2.6601Y-2.484
X2.6762Y-6.268
X2.7073Y-6.268
X2.7385Y-6.268
X6.1197Y-2.484
X6.1508Y-2.484
X6.182Y-2.484
X6.2132Y-2.484
X6.2443Y-2.484
X6.2755Y-2.484
X6.3067Y-2.484
X6.3067Y-2.484
X6.3378Y-2.484
X6.369Y-2.484
X6.4002Y-2.484
X6.4002Y-2.484
X6.4313Y-2.484
X6.4314Y-2.484
X6.4625Y-2.484
X6.4625Y-2.484
X6.4937Y-2.484
X6.4937Y-2.484
X6.5249Y-2.484
X6.5561Y-2.484
X6.5872Y-2.484
X6.7325Y-6.266
X6.7637Y-6.266
X6.7948Y-6.266
X6.826Y-6.266
X6.8572Y-6.266
X6.8883Y-6.266
X6.9195Y-6.266
X8.7015Y-6.267
X8.7327Y-6.267
X8.7638Y-6.267
X8.795Y-6.267
X8.8262Y-6.267
X8.8573Y-6.267
X8.8885Y-6.267
X9.0243Y-2.484
X9.0555Y-2.484
X9.0866Y-2.484
X9.1178Y-2.484
X9.149Y-2.484
X9.1801Y-2.484
X9.2113Y-2.484
X9.2113Y-2.484
X9.2425Y-2.484
X9.2737Y-2.484
X9.3048Y-2.484
X9.3049Y-2.484
X9.336Y-2.484
X9.336Y-2.484
X9.3672Y-2.484
X9.3672Y-2.484
X9.3983Y-2.484
X9.3984Y-2.484
X9.4295Y-2.484
X9.4607Y-2.484
X9.4919Y-2.484
X12.8945Y-2.528
X12.9257Y-2.528
X12.9568Y-2.528
X12.988Y-2.528
X13.0192Y-2.528
X13.0503Y-2.528
X13.0815Y-2.528
X14.1435Y-6.266
X14.1747Y-6.266
X14.2058Y-6.266
X14.237Y-6.266
X14.2682Y-6.266
X14.2993Y-6.266
X14.3305Y-6.266
T2
X1.1087Y-3.651
X1.1087Y-4.4
X1.1087Y-5.149
X1.1087Y-5.897
X1.5087Y-3.651
X1.5087Y-4.4
X1.5087Y-5.149
X1.5087Y-5.897
X1.8567Y-3.651
X1.8567Y-4.4
X1.8567Y-5.149
X1.8567Y-5.897
X2.2567Y-3.651
X2.2567Y-4.4
X2.2567Y-5.149
X2.2567Y-5.897
X2.7927Y-2.903
X2.8853Y-5.897
X2.9788Y-3.651
X3.0723Y-4.4
X3.1927Y-2.903
X3.2593Y-5.149
X3.2853Y-5.897
X3.3788Y-3.651
X3.4723Y-4.4
X3.5408Y-2.903
X3.6593Y-5.149
X3.7278Y-5.897
X3.9148Y-3.651
X3.9408Y-2.903
X4.1018Y-4.4
X4.1278Y-5.897
X4.2888Y-2.903
X4.3148Y-3.651
X4.4758Y-5.149
X4.4758Y-5.897
X4.5018Y-4.4
X4.6628Y-3.651
X4.6888Y-2.903
X4.8498Y-4.4
X4.8758Y-5.149
X4.8758Y-5.897
X5.0368Y-2.903
X5.0628Y-3.651
X5.2238Y-5.149
X5.2498Y-4.4
X5.4109Y-3.651
X5.4368Y-2.903
X5.5979Y-4.4
X5.6238Y-5.149
X5.7849Y-2.903
X5.8109Y-3.651
X5.8774Y-5.897
X5.9719Y-5.149
X5.9979Y-4.4
X6.1589Y-3.651
X6.1849Y-2.903
X6.2774Y-5.897
X6.3459Y-4.4
X6.3719Y-5.149
X6.5329Y-2.903
X6.5589Y-3.651
X6.7199Y-5.149
X6.7459Y-4.4
X6.9069Y-3.651
X6.9329Y-2.903
X7.0939Y-4.4
X7.1199Y-5.149
X7.2809Y-2.903
X7.2809Y-5.897
X7.3069Y-3.651
X7.4679Y-5.149
X7.4939Y-4.4
X7.5525Y-3.651
X7.6809Y-2.903
X7.6809Y-5.897
X7.7395Y-4.4
X7.8679Y-5.149
X7.9265Y-2.903
X7.9265Y-5.897
X7.9525Y-3.651
X8.1135Y-5.149
X8.1395Y-4.4
X8.3005Y-3.651
X8.3265Y-2.903
X8.3265Y-5.897
X8.4875Y-4.4
X8.5135Y-5.149
X8.6735Y-2.9002
X8.7005Y-3.651
X8.8615Y-5.149
X8.8875Y-4.4
X9.0485Y-3.651
X9.0495Y-5.897
X9.0735Y-2.9002
X9.2356Y-4.4
X9.2615Y-5.149
X9.4215Y-2.9002
X9.4485Y-3.651
X9.4495Y-5.897
X9.6096Y-5.149
X9.6356Y-4.4
X9.7966Y-3.651
X9.8215Y-2.9002
X9.9836Y-4.4
X10.0096Y-5.149
X10.1706Y-2.903
X10.1706Y-5.897
X10.1966Y-3.651
X10.3576Y-5.149
X10.3836Y-4.4
X10.5446Y-3.651
X10.5706Y-2.903
X10.5706Y-5.897
X10.7316Y-4.4
X10.7576Y-5.149
X10.9186Y-2.903
X10.9186Y-5.897
X10.9446Y-3.651
X11.1056Y-5.149
X11.1316Y-4.4
X11.2926Y-3.651
X11.3186Y-2.903
X11.3186Y-5.897
X11.4796Y-4.4
X11.5056Y-5.149
X11.6667Y-2.903
X11.6667Y-5.897
X11.6926Y-3.651
X11.8796Y-4.4
X12.0407Y-3.651
X12.0667Y-2.903
X12.0667Y-5.897
X12.1352Y-5.149
X12.4147Y-5.897
X12.4407Y-3.651
X12.5352Y-5.149
X12.6962Y-4.4
X12.7897Y-2.903
X12.8147Y-5.897
X12.9767Y-3.651
X13.0962Y-4.4
X13.1627Y-5.149
X13.1627Y-5.897
X13.1897Y-2.903
X13.3767Y-3.651
X13.5627Y-5.149
X13.5627Y-5.897
X13.9107Y-3.651
X13.9107Y-4.4
X13.9107Y-5.149
X13.9107Y-5.897
X14.3107Y-3.651
X14.3107Y-4.4
X14.3107Y-5.149
X14.3107Y-5.897
T3
X1.1587Y-3.551
X1.1587Y-4.3
X1.1587Y-5.049
X1.1587Y-5.797
X1.4087Y-3.451
X1.4087Y-4.2
X1.4087Y-4.949
X1.4087Y-5.697
X1.9067Y-3.551
X1.9067Y-4.3
X1.9067Y-5.049
X1.9067Y-5.797
X2.1567Y-3.451
X2.1567Y-4.2
X2.1567Y-4.949
X2.1567Y-5.697
X2.8427Y-2.803
X2.9353Y-5.797
X3.0288Y-3.551
X3.0927Y-2.703
X3.1223Y-4.3
X3.1853Y-5.697
X3.2788Y-3.451
X3.3093Y-5.049
X3.3723Y-4.2
X3.5593Y-4.949
X3.5908Y-2.803
X3.7778Y-5.797
X3.8408Y-2.703
X3.9648Y-3.551
X4.0278Y-5.697
X4.1518Y-4.3
X4.2148Y-3.451
X4.3388Y-2.803
X4.4018Y-4.2
X4.5258Y-5.049
X4.5258Y-5.797
X4.5888Y-2.703
X4.7128Y-3.551
X4.7758Y-4.949
X4.7758Y-5.697
X4.8998Y-4.3
X4.9628Y-3.451
X5.0868Y-2.803
X5.1498Y-4.2
X5.2738Y-5.049
X5.3368Y-2.703
X5.4609Y-3.551
X5.5238Y-4.949
X5.6479Y-4.3
X5.7109Y-3.451
X5.8849Y-3.103
X5.8979Y-4.2
X5.9274Y-5.797
X6.0219Y-5.049
X6.1349Y-3.003
X6.1774Y-5.697
X6.2089Y-3.551
X6.2719Y-4.949
X6.3959Y-4.3
X6.4589Y-3.451
X6.6329Y-3.103
X6.6459Y-4.2
X6.7699Y-5.049
X6.8829Y-3.003
X6.9569Y-3.551
X7.0199Y-4.949
X7.1439Y-4.3
X7.2069Y-3.451
X7.3309Y-2.803
X7.3309Y-5.797
X7.3939Y-4.2
X7.5179Y-5.049
X7.5809Y-2.703
X7.5809Y-5.697
X7.6025Y-3.551
X7.7679Y-4.949
X7.7895Y-4.3
X7.8525Y-3.451
X7.9765Y-2.803
X7.9765Y-5.797
X8.0395Y-4.2
X8.1635Y-5.049
X8.2265Y-2.703
X8.2265Y-5.697
X8.3505Y-3.551
X8.4135Y-4.949
X8.5375Y-4.3
X8.6005Y-3.451
X8.7735Y-3.1002
X8.7875Y-4.2
X8.9115Y-5.049
X9.0235Y-3.0002
X9.0985Y-3.551
X9.0995Y-5.797
X9.1615Y-4.949
X9.2856Y-4.3
X9.3485Y-3.451
X9.3495Y-5.697
X9.5215Y-3.1002
X9.5356Y-4.2
X9.6596Y-5.049
X9.7715Y-3.0002
X9.8466Y-3.551
X9.9096Y-4.949
X10.0336Y-4.3
X10.0966Y-3.451
X10.2206Y-2.803
X10.2206Y-5.797
X10.2836Y-4.2
X10.4076Y-5.049
X10.4706Y-2.703
X10.4706Y-5.697
X10.5946Y-3.551
X10.6576Y-4.949
X10.7816Y-4.3
X10.8446Y-3.451
X10.9686Y-2.803
X10.9686Y-5.797
X11.0316Y-4.2
X11.1556Y-5.049
X11.2186Y-2.703
X11.2186Y-5.697
X11.3426Y-3.551
X11.4056Y-4.949
X11.5296Y-4.3
X11.5926Y-3.451
X11.7167Y-2.803
X11.7167Y-5.797
X11.7796Y-4.2
X11.9667Y-2.703
X11.9667Y-5.697
X12.0907Y-3.551
X12.1852Y-5.049
X12.3407Y-3.451
X12.4352Y-4.949
X12.4647Y-5.797
X12.7147Y-5.697
X12.7462Y-4.3
X12.8397Y-2.803
X12.9962Y-4.2
X13.0267Y-3.551
X13.0897Y-2.703
X13.2127Y-5.049
X13.2127Y-5.797
X13.2767Y-3.451
X13.4627Y-4.949
X13.4627Y-5.697
X13.9607Y-3.551
X13.9607Y-4.3
X13.9607Y-5.049
X13.9607Y-5.797
X14.2107Y-3.451
X14.2107Y-4.2
X14.2107Y-4.949
X14.2107Y-5.697
T4
X2.9893Y-4.874
X3.9293Y-4.874
X5.6074Y-6.172
X6.5474Y-6.172
X8.7795Y-6.172
X9.7195Y-6.172
X12.4262Y-4.125
X12.5197Y-2.628
X13.3662Y-4.125
X13.4597Y-2.628
T5
X1.3087Y-3.651
X1.3087Y-4.4
X1.3087Y-5.149
X1.3087Y-5.897
X2.0567Y-3.651
X2.0567Y-4.4
X2.0567Y-5.149
X2.0567Y-5.897
X2.9893Y-5.474
X2.9927Y-2.903
X3.0853Y-5.897
X3.1788Y-3.651
X3.2723Y-4.4
X3.4593Y-5.149
X3.7408Y-2.903
X3.9278Y-5.897
X3.9293Y-5.474
X4.1148Y-3.651
X4.3018Y-4.4
X4.4888Y-2.903
X4.6758Y-5.149
X4.6758Y-5.897
X4.8628Y-3.651
X5.0498Y-4.4
X5.2368Y-2.903
X5.4238Y-5.149
X5.6074Y-5.572
X5.6109Y-3.651
X5.7979Y-4.4
X5.9849Y-2.903
X6.0774Y-5.897
X6.1719Y-5.149
X6.3589Y-3.651
X6.5459Y-4.4
X6.5474Y-5.572
X6.7329Y-2.903
X6.9199Y-5.149
X7.1069Y-3.651
X7.2939Y-4.4
X7.4809Y-2.903
X7.4809Y-5.897
X7.6679Y-5.149
X7.7525Y-3.651
X7.9395Y-4.4
X8.1265Y-2.903
X8.1265Y-5.897
X8.3135Y-5.149
X8.5005Y-3.651
X8.6875Y-4.4
X8.7795Y-5.572
X8.8735Y-2.9002
X9.0615Y-5.149
X9.2485Y-3.651
X9.2495Y-5.897
X9.4356Y-4.4
X9.6215Y-2.9002
X9.7195Y-5.572
X9.8096Y-5.149
X9.9966Y-3.651
X10.1836Y-4.4
X10.3706Y-2.903
X10.3706Y-5.897
X10.5576Y-5.149
X10.7446Y-3.651
X10.9316Y-4.4
X11.1186Y-2.903
X11.1186Y-5.897
X11.3056Y-5.149
X11.4926Y-3.651
X11.6796Y-4.4
X11.8667Y-2.903
X11.8667Y-5.897
X12.2407Y-3.651
X12.3352Y-5.149
X12.4262Y-4.725
X12.5197Y-3.228
X12.6147Y-5.897
X12.8962Y-4.4
X12.9897Y-2.903
X13.1767Y-3.651
X13.3627Y-5.149
X13.3627Y-5.897
X13.3662Y-4.725
X13.4597Y-3.228
X14.1107Y-3.651
X14.1107Y-4.4
X14.1107Y-5.149
X14.1107Y-5.897
M30
