%TF.GenerationSoftware,KiCad,Pcbnew,8.0.8*%
%TF.CreationDate,2025-04-17T13:25:33+09:00*%
%TF.ProjectId,sswkbd_wiring,7373776b-6264-45f7-9769-72696e672e6b,rev?*%
%TF.SameCoordinates,Original*%
%TF.FileFunction,Soldermask,Top*%
%TF.FilePolarity,Negative*%
%FSLAX46Y46*%
G04 Gerber Fmt 4.6, Leading zero omitted, Abs format (unit mm)*
G04 Created by KiCad (PCBNEW 8.0.8) date 2025-04-17 13:25:33*
%MOMM*%
%LPD*%
G01*
G04 APERTURE LIST*
%ADD10C,0.125000*%
%ADD11R,1.397000X1.397000*%
%ADD12R,0.950000X1.300000*%
%ADD13C,1.397000*%
%ADD14C,1.750000*%
%ADD15C,3.000000*%
%ADD16C,3.987800*%
%ADD17C,3.048000*%
%ADD18C,0.500000*%
%ADD19R,1.700000X1.700000*%
%ADD20O,1.700000X1.700000*%
%ADD21C,1.524000*%
%ADD22R,2.500000X2.500000*%
%ADD23C,1.500000*%
G04 APERTURE END LIST*
D10*
X350538712Y-75549528D02*
X350681569Y-75597147D01*
X350681569Y-75597147D02*
X350919664Y-75597147D01*
X350919664Y-75597147D02*
X351014902Y-75549528D01*
X351014902Y-75549528D02*
X351062521Y-75501908D01*
X351062521Y-75501908D02*
X351110140Y-75406670D01*
X351110140Y-75406670D02*
X351110140Y-75311432D01*
X351110140Y-75311432D02*
X351062521Y-75216194D01*
X351062521Y-75216194D02*
X351014902Y-75168575D01*
X351014902Y-75168575D02*
X350919664Y-75120956D01*
X350919664Y-75120956D02*
X350729188Y-75073337D01*
X350729188Y-75073337D02*
X350633950Y-75025718D01*
X350633950Y-75025718D02*
X350586331Y-74978099D01*
X350586331Y-74978099D02*
X350538712Y-74882861D01*
X350538712Y-74882861D02*
X350538712Y-74787623D01*
X350538712Y-74787623D02*
X350586331Y-74692385D01*
X350586331Y-74692385D02*
X350633950Y-74644766D01*
X350633950Y-74644766D02*
X350729188Y-74597147D01*
X350729188Y-74597147D02*
X350967283Y-74597147D01*
X350967283Y-74597147D02*
X351110140Y-74644766D01*
X351491093Y-75549528D02*
X351633950Y-75597147D01*
X351633950Y-75597147D02*
X351872045Y-75597147D01*
X351872045Y-75597147D02*
X351967283Y-75549528D01*
X351967283Y-75549528D02*
X352014902Y-75501908D01*
X352014902Y-75501908D02*
X352062521Y-75406670D01*
X352062521Y-75406670D02*
X352062521Y-75311432D01*
X352062521Y-75311432D02*
X352014902Y-75216194D01*
X352014902Y-75216194D02*
X351967283Y-75168575D01*
X351967283Y-75168575D02*
X351872045Y-75120956D01*
X351872045Y-75120956D02*
X351681569Y-75073337D01*
X351681569Y-75073337D02*
X351586331Y-75025718D01*
X351586331Y-75025718D02*
X351538712Y-74978099D01*
X351538712Y-74978099D02*
X351491093Y-74882861D01*
X351491093Y-74882861D02*
X351491093Y-74787623D01*
X351491093Y-74787623D02*
X351538712Y-74692385D01*
X351538712Y-74692385D02*
X351586331Y-74644766D01*
X351586331Y-74644766D02*
X351681569Y-74597147D01*
X351681569Y-74597147D02*
X351919664Y-74597147D01*
X351919664Y-74597147D02*
X352062521Y-74644766D01*
X352395855Y-74597147D02*
X352633950Y-75597147D01*
X352633950Y-75597147D02*
X352824426Y-74882861D01*
X352824426Y-74882861D02*
X353014902Y-75597147D01*
X353014902Y-75597147D02*
X353252998Y-74597147D01*
X353633950Y-75597147D02*
X353633950Y-74597147D01*
X354205378Y-75597147D02*
X353776807Y-75025718D01*
X354205378Y-74597147D02*
X353633950Y-75168575D01*
X354967283Y-75073337D02*
X355110140Y-75120956D01*
X355110140Y-75120956D02*
X355157759Y-75168575D01*
X355157759Y-75168575D02*
X355205378Y-75263813D01*
X355205378Y-75263813D02*
X355205378Y-75406670D01*
X355205378Y-75406670D02*
X355157759Y-75501908D01*
X355157759Y-75501908D02*
X355110140Y-75549528D01*
X355110140Y-75549528D02*
X355014902Y-75597147D01*
X355014902Y-75597147D02*
X354633950Y-75597147D01*
X354633950Y-75597147D02*
X354633950Y-74597147D01*
X354633950Y-74597147D02*
X354967283Y-74597147D01*
X354967283Y-74597147D02*
X355062521Y-74644766D01*
X355062521Y-74644766D02*
X355110140Y-74692385D01*
X355110140Y-74692385D02*
X355157759Y-74787623D01*
X355157759Y-74787623D02*
X355157759Y-74882861D01*
X355157759Y-74882861D02*
X355110140Y-74978099D01*
X355110140Y-74978099D02*
X355062521Y-75025718D01*
X355062521Y-75025718D02*
X354967283Y-75073337D01*
X354967283Y-75073337D02*
X354633950Y-75073337D01*
X355633950Y-75597147D02*
X355633950Y-74597147D01*
X355633950Y-74597147D02*
X355872045Y-74597147D01*
X355872045Y-74597147D02*
X356014902Y-74644766D01*
X356014902Y-74644766D02*
X356110140Y-74740004D01*
X356110140Y-74740004D02*
X356157759Y-74835242D01*
X356157759Y-74835242D02*
X356205378Y-75025718D01*
X356205378Y-75025718D02*
X356205378Y-75168575D01*
X356205378Y-75168575D02*
X356157759Y-75359051D01*
X356157759Y-75359051D02*
X356110140Y-75454289D01*
X356110140Y-75454289D02*
X356014902Y-75549528D01*
X356014902Y-75549528D02*
X355872045Y-75597147D01*
X355872045Y-75597147D02*
X355633950Y-75597147D01*
X356395855Y-75692385D02*
X357157759Y-75692385D01*
X357967283Y-75597147D02*
X357633950Y-75120956D01*
X357395855Y-75597147D02*
X357395855Y-74597147D01*
X357395855Y-74597147D02*
X357776807Y-74597147D01*
X357776807Y-74597147D02*
X357872045Y-74644766D01*
X357872045Y-74644766D02*
X357919664Y-74692385D01*
X357919664Y-74692385D02*
X357967283Y-74787623D01*
X357967283Y-74787623D02*
X357967283Y-74930480D01*
X357967283Y-74930480D02*
X357919664Y-75025718D01*
X357919664Y-75025718D02*
X357872045Y-75073337D01*
X357872045Y-75073337D02*
X357776807Y-75120956D01*
X357776807Y-75120956D02*
X357395855Y-75120956D01*
X350586331Y-77207091D02*
X350586331Y-76207091D01*
X350586331Y-76207091D02*
X350967283Y-76207091D01*
X350967283Y-76207091D02*
X351062521Y-76254710D01*
X351062521Y-76254710D02*
X351110140Y-76302329D01*
X351110140Y-76302329D02*
X351157759Y-76397567D01*
X351157759Y-76397567D02*
X351157759Y-76540424D01*
X351157759Y-76540424D02*
X351110140Y-76635662D01*
X351110140Y-76635662D02*
X351062521Y-76683281D01*
X351062521Y-76683281D02*
X350967283Y-76730900D01*
X350967283Y-76730900D02*
X350586331Y-76730900D01*
X352157759Y-77111852D02*
X352110140Y-77159472D01*
X352110140Y-77159472D02*
X351967283Y-77207091D01*
X351967283Y-77207091D02*
X351872045Y-77207091D01*
X351872045Y-77207091D02*
X351729188Y-77159472D01*
X351729188Y-77159472D02*
X351633950Y-77064233D01*
X351633950Y-77064233D02*
X351586331Y-76968995D01*
X351586331Y-76968995D02*
X351538712Y-76778519D01*
X351538712Y-76778519D02*
X351538712Y-76635662D01*
X351538712Y-76635662D02*
X351586331Y-76445186D01*
X351586331Y-76445186D02*
X351633950Y-76349948D01*
X351633950Y-76349948D02*
X351729188Y-76254710D01*
X351729188Y-76254710D02*
X351872045Y-76207091D01*
X351872045Y-76207091D02*
X351967283Y-76207091D01*
X351967283Y-76207091D02*
X352110140Y-76254710D01*
X352110140Y-76254710D02*
X352157759Y-76302329D01*
X352919664Y-76683281D02*
X353062521Y-76730900D01*
X353062521Y-76730900D02*
X353110140Y-76778519D01*
X353110140Y-76778519D02*
X353157759Y-76873757D01*
X353157759Y-76873757D02*
X353157759Y-77016614D01*
X353157759Y-77016614D02*
X353110140Y-77111852D01*
X353110140Y-77111852D02*
X353062521Y-77159472D01*
X353062521Y-77159472D02*
X352967283Y-77207091D01*
X352967283Y-77207091D02*
X352586331Y-77207091D01*
X352586331Y-77207091D02*
X352586331Y-76207091D01*
X352586331Y-76207091D02*
X352919664Y-76207091D01*
X352919664Y-76207091D02*
X353014902Y-76254710D01*
X353014902Y-76254710D02*
X353062521Y-76302329D01*
X353062521Y-76302329D02*
X353110140Y-76397567D01*
X353110140Y-76397567D02*
X353110140Y-76492805D01*
X353110140Y-76492805D02*
X353062521Y-76588043D01*
X353062521Y-76588043D02*
X353014902Y-76635662D01*
X353014902Y-76635662D02*
X352919664Y-76683281D01*
X352919664Y-76683281D02*
X352586331Y-76683281D01*
X354776807Y-77207091D02*
X354776807Y-76207091D01*
X354776807Y-77159472D02*
X354681569Y-77207091D01*
X354681569Y-77207091D02*
X354491093Y-77207091D01*
X354491093Y-77207091D02*
X354395855Y-77159472D01*
X354395855Y-77159472D02*
X354348236Y-77111852D01*
X354348236Y-77111852D02*
X354300617Y-77016614D01*
X354300617Y-77016614D02*
X354300617Y-76730900D01*
X354300617Y-76730900D02*
X354348236Y-76635662D01*
X354348236Y-76635662D02*
X354395855Y-76588043D01*
X354395855Y-76588043D02*
X354491093Y-76540424D01*
X354491093Y-76540424D02*
X354681569Y-76540424D01*
X354681569Y-76540424D02*
X354776807Y-76588043D01*
X355633950Y-77159472D02*
X355538712Y-77207091D01*
X355538712Y-77207091D02*
X355348236Y-77207091D01*
X355348236Y-77207091D02*
X355252998Y-77159472D01*
X355252998Y-77159472D02*
X355205379Y-77064233D01*
X355205379Y-77064233D02*
X355205379Y-76683281D01*
X355205379Y-76683281D02*
X355252998Y-76588043D01*
X355252998Y-76588043D02*
X355348236Y-76540424D01*
X355348236Y-76540424D02*
X355538712Y-76540424D01*
X355538712Y-76540424D02*
X355633950Y-76588043D01*
X355633950Y-76588043D02*
X355681569Y-76683281D01*
X355681569Y-76683281D02*
X355681569Y-76778519D01*
X355681569Y-76778519D02*
X355205379Y-76873757D01*
X356062522Y-77159472D02*
X356157760Y-77207091D01*
X356157760Y-77207091D02*
X356348236Y-77207091D01*
X356348236Y-77207091D02*
X356443474Y-77159472D01*
X356443474Y-77159472D02*
X356491093Y-77064233D01*
X356491093Y-77064233D02*
X356491093Y-77016614D01*
X356491093Y-77016614D02*
X356443474Y-76921376D01*
X356443474Y-76921376D02*
X356348236Y-76873757D01*
X356348236Y-76873757D02*
X356205379Y-76873757D01*
X356205379Y-76873757D02*
X356110141Y-76826138D01*
X356110141Y-76826138D02*
X356062522Y-76730900D01*
X356062522Y-76730900D02*
X356062522Y-76683281D01*
X356062522Y-76683281D02*
X356110141Y-76588043D01*
X356110141Y-76588043D02*
X356205379Y-76540424D01*
X356205379Y-76540424D02*
X356348236Y-76540424D01*
X356348236Y-76540424D02*
X356443474Y-76588043D01*
X356919665Y-77207091D02*
X356919665Y-76540424D01*
X356919665Y-76207091D02*
X356872046Y-76254710D01*
X356872046Y-76254710D02*
X356919665Y-76302329D01*
X356919665Y-76302329D02*
X356967284Y-76254710D01*
X356967284Y-76254710D02*
X356919665Y-76207091D01*
X356919665Y-76207091D02*
X356919665Y-76302329D01*
X357824426Y-76540424D02*
X357824426Y-77349948D01*
X357824426Y-77349948D02*
X357776807Y-77445186D01*
X357776807Y-77445186D02*
X357729188Y-77492805D01*
X357729188Y-77492805D02*
X357633950Y-77540424D01*
X357633950Y-77540424D02*
X357491093Y-77540424D01*
X357491093Y-77540424D02*
X357395855Y-77492805D01*
X357824426Y-77159472D02*
X357729188Y-77207091D01*
X357729188Y-77207091D02*
X357538712Y-77207091D01*
X357538712Y-77207091D02*
X357443474Y-77159472D01*
X357443474Y-77159472D02*
X357395855Y-77111852D01*
X357395855Y-77111852D02*
X357348236Y-77016614D01*
X357348236Y-77016614D02*
X357348236Y-76730900D01*
X357348236Y-76730900D02*
X357395855Y-76635662D01*
X357395855Y-76635662D02*
X357443474Y-76588043D01*
X357443474Y-76588043D02*
X357538712Y-76540424D01*
X357538712Y-76540424D02*
X357729188Y-76540424D01*
X357729188Y-76540424D02*
X357824426Y-76588043D01*
X358300617Y-76540424D02*
X358300617Y-77207091D01*
X358300617Y-76635662D02*
X358348236Y-76588043D01*
X358348236Y-76588043D02*
X358443474Y-76540424D01*
X358443474Y-76540424D02*
X358586331Y-76540424D01*
X358586331Y-76540424D02*
X358681569Y-76588043D01*
X358681569Y-76588043D02*
X358729188Y-76683281D01*
X358729188Y-76683281D02*
X358729188Y-77207091D01*
X359586331Y-77159472D02*
X359491093Y-77207091D01*
X359491093Y-77207091D02*
X359300617Y-77207091D01*
X359300617Y-77207091D02*
X359205379Y-77159472D01*
X359205379Y-77159472D02*
X359157760Y-77064233D01*
X359157760Y-77064233D02*
X359157760Y-76683281D01*
X359157760Y-76683281D02*
X359205379Y-76588043D01*
X359205379Y-76588043D02*
X359300617Y-76540424D01*
X359300617Y-76540424D02*
X359491093Y-76540424D01*
X359491093Y-76540424D02*
X359586331Y-76588043D01*
X359586331Y-76588043D02*
X359633950Y-76683281D01*
X359633950Y-76683281D02*
X359633950Y-76778519D01*
X359633950Y-76778519D02*
X359157760Y-76873757D01*
X360491093Y-77207091D02*
X360491093Y-76207091D01*
X360491093Y-77159472D02*
X360395855Y-77207091D01*
X360395855Y-77207091D02*
X360205379Y-77207091D01*
X360205379Y-77207091D02*
X360110141Y-77159472D01*
X360110141Y-77159472D02*
X360062522Y-77111852D01*
X360062522Y-77111852D02*
X360014903Y-77016614D01*
X360014903Y-77016614D02*
X360014903Y-76730900D01*
X360014903Y-76730900D02*
X360062522Y-76635662D01*
X360062522Y-76635662D02*
X360110141Y-76588043D01*
X360110141Y-76588043D02*
X360205379Y-76540424D01*
X360205379Y-76540424D02*
X360395855Y-76540424D01*
X360395855Y-76540424D02*
X360491093Y-76588043D01*
X361729189Y-77207091D02*
X361729189Y-76207091D01*
X361729189Y-76588043D02*
X361824427Y-76540424D01*
X361824427Y-76540424D02*
X362014903Y-76540424D01*
X362014903Y-76540424D02*
X362110141Y-76588043D01*
X362110141Y-76588043D02*
X362157760Y-76635662D01*
X362157760Y-76635662D02*
X362205379Y-76730900D01*
X362205379Y-76730900D02*
X362205379Y-77016614D01*
X362205379Y-77016614D02*
X362157760Y-77111852D01*
X362157760Y-77111852D02*
X362110141Y-77159472D01*
X362110141Y-77159472D02*
X362014903Y-77207091D01*
X362014903Y-77207091D02*
X361824427Y-77207091D01*
X361824427Y-77207091D02*
X361729189Y-77159472D01*
X362538713Y-76540424D02*
X362776808Y-77207091D01*
X363014903Y-76540424D02*
X362776808Y-77207091D01*
X362776808Y-77207091D02*
X362681570Y-77445186D01*
X362681570Y-77445186D02*
X362633951Y-77492805D01*
X362633951Y-77492805D02*
X362538713Y-77540424D01*
X364157761Y-77207091D02*
X364157761Y-76207091D01*
X364729189Y-77207091D02*
X364300618Y-76635662D01*
X364729189Y-76207091D02*
X364157761Y-76778519D01*
X365062523Y-76540424D02*
X365300618Y-77207091D01*
X365538713Y-76540424D02*
X365300618Y-77207091D01*
X365300618Y-77207091D02*
X365205380Y-77445186D01*
X365205380Y-77445186D02*
X365157761Y-77492805D01*
X365157761Y-77492805D02*
X365062523Y-77540424D01*
X366062523Y-77207091D02*
X365967285Y-77159472D01*
X365967285Y-77159472D02*
X365919666Y-77064233D01*
X365919666Y-77064233D02*
X365919666Y-76207091D01*
X366824428Y-77159472D02*
X366729190Y-77207091D01*
X366729190Y-77207091D02*
X366538714Y-77207091D01*
X366538714Y-77207091D02*
X366443476Y-77159472D01*
X366443476Y-77159472D02*
X366395857Y-77064233D01*
X366395857Y-77064233D02*
X366395857Y-76683281D01*
X366395857Y-76683281D02*
X366443476Y-76588043D01*
X366443476Y-76588043D02*
X366538714Y-76540424D01*
X366538714Y-76540424D02*
X366729190Y-76540424D01*
X366729190Y-76540424D02*
X366824428Y-76588043D01*
X366824428Y-76588043D02*
X366872047Y-76683281D01*
X366872047Y-76683281D02*
X366872047Y-76778519D01*
X366872047Y-76778519D02*
X366395857Y-76873757D01*
X33165712Y-66405528D02*
X33308569Y-66453147D01*
X33308569Y-66453147D02*
X33546664Y-66453147D01*
X33546664Y-66453147D02*
X33641902Y-66405528D01*
X33641902Y-66405528D02*
X33689521Y-66357908D01*
X33689521Y-66357908D02*
X33737140Y-66262670D01*
X33737140Y-66262670D02*
X33737140Y-66167432D01*
X33737140Y-66167432D02*
X33689521Y-66072194D01*
X33689521Y-66072194D02*
X33641902Y-66024575D01*
X33641902Y-66024575D02*
X33546664Y-65976956D01*
X33546664Y-65976956D02*
X33356188Y-65929337D01*
X33356188Y-65929337D02*
X33260950Y-65881718D01*
X33260950Y-65881718D02*
X33213331Y-65834099D01*
X33213331Y-65834099D02*
X33165712Y-65738861D01*
X33165712Y-65738861D02*
X33165712Y-65643623D01*
X33165712Y-65643623D02*
X33213331Y-65548385D01*
X33213331Y-65548385D02*
X33260950Y-65500766D01*
X33260950Y-65500766D02*
X33356188Y-65453147D01*
X33356188Y-65453147D02*
X33594283Y-65453147D01*
X33594283Y-65453147D02*
X33737140Y-65500766D01*
X34118093Y-66405528D02*
X34260950Y-66453147D01*
X34260950Y-66453147D02*
X34499045Y-66453147D01*
X34499045Y-66453147D02*
X34594283Y-66405528D01*
X34594283Y-66405528D02*
X34641902Y-66357908D01*
X34641902Y-66357908D02*
X34689521Y-66262670D01*
X34689521Y-66262670D02*
X34689521Y-66167432D01*
X34689521Y-66167432D02*
X34641902Y-66072194D01*
X34641902Y-66072194D02*
X34594283Y-66024575D01*
X34594283Y-66024575D02*
X34499045Y-65976956D01*
X34499045Y-65976956D02*
X34308569Y-65929337D01*
X34308569Y-65929337D02*
X34213331Y-65881718D01*
X34213331Y-65881718D02*
X34165712Y-65834099D01*
X34165712Y-65834099D02*
X34118093Y-65738861D01*
X34118093Y-65738861D02*
X34118093Y-65643623D01*
X34118093Y-65643623D02*
X34165712Y-65548385D01*
X34165712Y-65548385D02*
X34213331Y-65500766D01*
X34213331Y-65500766D02*
X34308569Y-65453147D01*
X34308569Y-65453147D02*
X34546664Y-65453147D01*
X34546664Y-65453147D02*
X34689521Y-65500766D01*
X35022855Y-65453147D02*
X35260950Y-66453147D01*
X35260950Y-66453147D02*
X35451426Y-65738861D01*
X35451426Y-65738861D02*
X35641902Y-66453147D01*
X35641902Y-66453147D02*
X35879998Y-65453147D01*
X36260950Y-66453147D02*
X36260950Y-65453147D01*
X36832378Y-66453147D02*
X36403807Y-65881718D01*
X36832378Y-65453147D02*
X36260950Y-66024575D01*
X37594283Y-65929337D02*
X37737140Y-65976956D01*
X37737140Y-65976956D02*
X37784759Y-66024575D01*
X37784759Y-66024575D02*
X37832378Y-66119813D01*
X37832378Y-66119813D02*
X37832378Y-66262670D01*
X37832378Y-66262670D02*
X37784759Y-66357908D01*
X37784759Y-66357908D02*
X37737140Y-66405528D01*
X37737140Y-66405528D02*
X37641902Y-66453147D01*
X37641902Y-66453147D02*
X37260950Y-66453147D01*
X37260950Y-66453147D02*
X37260950Y-65453147D01*
X37260950Y-65453147D02*
X37594283Y-65453147D01*
X37594283Y-65453147D02*
X37689521Y-65500766D01*
X37689521Y-65500766D02*
X37737140Y-65548385D01*
X37737140Y-65548385D02*
X37784759Y-65643623D01*
X37784759Y-65643623D02*
X37784759Y-65738861D01*
X37784759Y-65738861D02*
X37737140Y-65834099D01*
X37737140Y-65834099D02*
X37689521Y-65881718D01*
X37689521Y-65881718D02*
X37594283Y-65929337D01*
X37594283Y-65929337D02*
X37260950Y-65929337D01*
X38260950Y-66453147D02*
X38260950Y-65453147D01*
X38260950Y-65453147D02*
X38499045Y-65453147D01*
X38499045Y-65453147D02*
X38641902Y-65500766D01*
X38641902Y-65500766D02*
X38737140Y-65596004D01*
X38737140Y-65596004D02*
X38784759Y-65691242D01*
X38784759Y-65691242D02*
X38832378Y-65881718D01*
X38832378Y-65881718D02*
X38832378Y-66024575D01*
X38832378Y-66024575D02*
X38784759Y-66215051D01*
X38784759Y-66215051D02*
X38737140Y-66310289D01*
X38737140Y-66310289D02*
X38641902Y-66405528D01*
X38641902Y-66405528D02*
X38499045Y-66453147D01*
X38499045Y-66453147D02*
X38260950Y-66453147D01*
X39022855Y-66548385D02*
X39784759Y-66548385D01*
X40499045Y-66453147D02*
X40022855Y-66453147D01*
X40022855Y-66453147D02*
X40022855Y-65453147D01*
X33213331Y-68063091D02*
X33213331Y-67063091D01*
X33213331Y-67063091D02*
X33594283Y-67063091D01*
X33594283Y-67063091D02*
X33689521Y-67110710D01*
X33689521Y-67110710D02*
X33737140Y-67158329D01*
X33737140Y-67158329D02*
X33784759Y-67253567D01*
X33784759Y-67253567D02*
X33784759Y-67396424D01*
X33784759Y-67396424D02*
X33737140Y-67491662D01*
X33737140Y-67491662D02*
X33689521Y-67539281D01*
X33689521Y-67539281D02*
X33594283Y-67586900D01*
X33594283Y-67586900D02*
X33213331Y-67586900D01*
X34784759Y-67967852D02*
X34737140Y-68015472D01*
X34737140Y-68015472D02*
X34594283Y-68063091D01*
X34594283Y-68063091D02*
X34499045Y-68063091D01*
X34499045Y-68063091D02*
X34356188Y-68015472D01*
X34356188Y-68015472D02*
X34260950Y-67920233D01*
X34260950Y-67920233D02*
X34213331Y-67824995D01*
X34213331Y-67824995D02*
X34165712Y-67634519D01*
X34165712Y-67634519D02*
X34165712Y-67491662D01*
X34165712Y-67491662D02*
X34213331Y-67301186D01*
X34213331Y-67301186D02*
X34260950Y-67205948D01*
X34260950Y-67205948D02*
X34356188Y-67110710D01*
X34356188Y-67110710D02*
X34499045Y-67063091D01*
X34499045Y-67063091D02*
X34594283Y-67063091D01*
X34594283Y-67063091D02*
X34737140Y-67110710D01*
X34737140Y-67110710D02*
X34784759Y-67158329D01*
X35546664Y-67539281D02*
X35689521Y-67586900D01*
X35689521Y-67586900D02*
X35737140Y-67634519D01*
X35737140Y-67634519D02*
X35784759Y-67729757D01*
X35784759Y-67729757D02*
X35784759Y-67872614D01*
X35784759Y-67872614D02*
X35737140Y-67967852D01*
X35737140Y-67967852D02*
X35689521Y-68015472D01*
X35689521Y-68015472D02*
X35594283Y-68063091D01*
X35594283Y-68063091D02*
X35213331Y-68063091D01*
X35213331Y-68063091D02*
X35213331Y-67063091D01*
X35213331Y-67063091D02*
X35546664Y-67063091D01*
X35546664Y-67063091D02*
X35641902Y-67110710D01*
X35641902Y-67110710D02*
X35689521Y-67158329D01*
X35689521Y-67158329D02*
X35737140Y-67253567D01*
X35737140Y-67253567D02*
X35737140Y-67348805D01*
X35737140Y-67348805D02*
X35689521Y-67444043D01*
X35689521Y-67444043D02*
X35641902Y-67491662D01*
X35641902Y-67491662D02*
X35546664Y-67539281D01*
X35546664Y-67539281D02*
X35213331Y-67539281D01*
X37403807Y-68063091D02*
X37403807Y-67063091D01*
X37403807Y-68015472D02*
X37308569Y-68063091D01*
X37308569Y-68063091D02*
X37118093Y-68063091D01*
X37118093Y-68063091D02*
X37022855Y-68015472D01*
X37022855Y-68015472D02*
X36975236Y-67967852D01*
X36975236Y-67967852D02*
X36927617Y-67872614D01*
X36927617Y-67872614D02*
X36927617Y-67586900D01*
X36927617Y-67586900D02*
X36975236Y-67491662D01*
X36975236Y-67491662D02*
X37022855Y-67444043D01*
X37022855Y-67444043D02*
X37118093Y-67396424D01*
X37118093Y-67396424D02*
X37308569Y-67396424D01*
X37308569Y-67396424D02*
X37403807Y-67444043D01*
X38260950Y-68015472D02*
X38165712Y-68063091D01*
X38165712Y-68063091D02*
X37975236Y-68063091D01*
X37975236Y-68063091D02*
X37879998Y-68015472D01*
X37879998Y-68015472D02*
X37832379Y-67920233D01*
X37832379Y-67920233D02*
X37832379Y-67539281D01*
X37832379Y-67539281D02*
X37879998Y-67444043D01*
X37879998Y-67444043D02*
X37975236Y-67396424D01*
X37975236Y-67396424D02*
X38165712Y-67396424D01*
X38165712Y-67396424D02*
X38260950Y-67444043D01*
X38260950Y-67444043D02*
X38308569Y-67539281D01*
X38308569Y-67539281D02*
X38308569Y-67634519D01*
X38308569Y-67634519D02*
X37832379Y-67729757D01*
X38689522Y-68015472D02*
X38784760Y-68063091D01*
X38784760Y-68063091D02*
X38975236Y-68063091D01*
X38975236Y-68063091D02*
X39070474Y-68015472D01*
X39070474Y-68015472D02*
X39118093Y-67920233D01*
X39118093Y-67920233D02*
X39118093Y-67872614D01*
X39118093Y-67872614D02*
X39070474Y-67777376D01*
X39070474Y-67777376D02*
X38975236Y-67729757D01*
X38975236Y-67729757D02*
X38832379Y-67729757D01*
X38832379Y-67729757D02*
X38737141Y-67682138D01*
X38737141Y-67682138D02*
X38689522Y-67586900D01*
X38689522Y-67586900D02*
X38689522Y-67539281D01*
X38689522Y-67539281D02*
X38737141Y-67444043D01*
X38737141Y-67444043D02*
X38832379Y-67396424D01*
X38832379Y-67396424D02*
X38975236Y-67396424D01*
X38975236Y-67396424D02*
X39070474Y-67444043D01*
X39546665Y-68063091D02*
X39546665Y-67396424D01*
X39546665Y-67063091D02*
X39499046Y-67110710D01*
X39499046Y-67110710D02*
X39546665Y-67158329D01*
X39546665Y-67158329D02*
X39594284Y-67110710D01*
X39594284Y-67110710D02*
X39546665Y-67063091D01*
X39546665Y-67063091D02*
X39546665Y-67158329D01*
X40451426Y-67396424D02*
X40451426Y-68205948D01*
X40451426Y-68205948D02*
X40403807Y-68301186D01*
X40403807Y-68301186D02*
X40356188Y-68348805D01*
X40356188Y-68348805D02*
X40260950Y-68396424D01*
X40260950Y-68396424D02*
X40118093Y-68396424D01*
X40118093Y-68396424D02*
X40022855Y-68348805D01*
X40451426Y-68015472D02*
X40356188Y-68063091D01*
X40356188Y-68063091D02*
X40165712Y-68063091D01*
X40165712Y-68063091D02*
X40070474Y-68015472D01*
X40070474Y-68015472D02*
X40022855Y-67967852D01*
X40022855Y-67967852D02*
X39975236Y-67872614D01*
X39975236Y-67872614D02*
X39975236Y-67586900D01*
X39975236Y-67586900D02*
X40022855Y-67491662D01*
X40022855Y-67491662D02*
X40070474Y-67444043D01*
X40070474Y-67444043D02*
X40165712Y-67396424D01*
X40165712Y-67396424D02*
X40356188Y-67396424D01*
X40356188Y-67396424D02*
X40451426Y-67444043D01*
X40927617Y-67396424D02*
X40927617Y-68063091D01*
X40927617Y-67491662D02*
X40975236Y-67444043D01*
X40975236Y-67444043D02*
X41070474Y-67396424D01*
X41070474Y-67396424D02*
X41213331Y-67396424D01*
X41213331Y-67396424D02*
X41308569Y-67444043D01*
X41308569Y-67444043D02*
X41356188Y-67539281D01*
X41356188Y-67539281D02*
X41356188Y-68063091D01*
X42213331Y-68015472D02*
X42118093Y-68063091D01*
X42118093Y-68063091D02*
X41927617Y-68063091D01*
X41927617Y-68063091D02*
X41832379Y-68015472D01*
X41832379Y-68015472D02*
X41784760Y-67920233D01*
X41784760Y-67920233D02*
X41784760Y-67539281D01*
X41784760Y-67539281D02*
X41832379Y-67444043D01*
X41832379Y-67444043D02*
X41927617Y-67396424D01*
X41927617Y-67396424D02*
X42118093Y-67396424D01*
X42118093Y-67396424D02*
X42213331Y-67444043D01*
X42213331Y-67444043D02*
X42260950Y-67539281D01*
X42260950Y-67539281D02*
X42260950Y-67634519D01*
X42260950Y-67634519D02*
X41784760Y-67729757D01*
X43118093Y-68063091D02*
X43118093Y-67063091D01*
X43118093Y-68015472D02*
X43022855Y-68063091D01*
X43022855Y-68063091D02*
X42832379Y-68063091D01*
X42832379Y-68063091D02*
X42737141Y-68015472D01*
X42737141Y-68015472D02*
X42689522Y-67967852D01*
X42689522Y-67967852D02*
X42641903Y-67872614D01*
X42641903Y-67872614D02*
X42641903Y-67586900D01*
X42641903Y-67586900D02*
X42689522Y-67491662D01*
X42689522Y-67491662D02*
X42737141Y-67444043D01*
X42737141Y-67444043D02*
X42832379Y-67396424D01*
X42832379Y-67396424D02*
X43022855Y-67396424D01*
X43022855Y-67396424D02*
X43118093Y-67444043D01*
X44356189Y-68063091D02*
X44356189Y-67063091D01*
X44356189Y-67444043D02*
X44451427Y-67396424D01*
X44451427Y-67396424D02*
X44641903Y-67396424D01*
X44641903Y-67396424D02*
X44737141Y-67444043D01*
X44737141Y-67444043D02*
X44784760Y-67491662D01*
X44784760Y-67491662D02*
X44832379Y-67586900D01*
X44832379Y-67586900D02*
X44832379Y-67872614D01*
X44832379Y-67872614D02*
X44784760Y-67967852D01*
X44784760Y-67967852D02*
X44737141Y-68015472D01*
X44737141Y-68015472D02*
X44641903Y-68063091D01*
X44641903Y-68063091D02*
X44451427Y-68063091D01*
X44451427Y-68063091D02*
X44356189Y-68015472D01*
X45165713Y-67396424D02*
X45403808Y-68063091D01*
X45641903Y-67396424D02*
X45403808Y-68063091D01*
X45403808Y-68063091D02*
X45308570Y-68301186D01*
X45308570Y-68301186D02*
X45260951Y-68348805D01*
X45260951Y-68348805D02*
X45165713Y-68396424D01*
X46784761Y-68063091D02*
X46784761Y-67063091D01*
X47356189Y-68063091D02*
X46927618Y-67491662D01*
X47356189Y-67063091D02*
X46784761Y-67634519D01*
X47689523Y-67396424D02*
X47927618Y-68063091D01*
X48165713Y-67396424D02*
X47927618Y-68063091D01*
X47927618Y-68063091D02*
X47832380Y-68301186D01*
X47832380Y-68301186D02*
X47784761Y-68348805D01*
X47784761Y-68348805D02*
X47689523Y-68396424D01*
X48689523Y-68063091D02*
X48594285Y-68015472D01*
X48594285Y-68015472D02*
X48546666Y-67920233D01*
X48546666Y-67920233D02*
X48546666Y-67063091D01*
X49451428Y-68015472D02*
X49356190Y-68063091D01*
X49356190Y-68063091D02*
X49165714Y-68063091D01*
X49165714Y-68063091D02*
X49070476Y-68015472D01*
X49070476Y-68015472D02*
X49022857Y-67920233D01*
X49022857Y-67920233D02*
X49022857Y-67539281D01*
X49022857Y-67539281D02*
X49070476Y-67444043D01*
X49070476Y-67444043D02*
X49165714Y-67396424D01*
X49165714Y-67396424D02*
X49356190Y-67396424D01*
X49356190Y-67396424D02*
X49451428Y-67444043D01*
X49451428Y-67444043D02*
X49499047Y-67539281D01*
X49499047Y-67539281D02*
X49499047Y-67634519D01*
X49499047Y-67634519D02*
X49022857Y-67729757D01*
D11*
%TO.C,D32*%
X366509249Y-98964950D03*
D12*
X366509249Y-96929950D03*
X366509249Y-93379950D03*
D13*
X366509249Y-91344950D03*
%TD*%
D14*
%TO.C,SW13*%
X296333000Y-73760000D03*
D15*
X297603000Y-71220000D03*
D16*
X301413000Y-73760000D03*
D15*
X303953000Y-68680000D03*
D14*
X306493000Y-73760000D03*
%TD*%
D11*
%TO.C,D67*%
X86461999Y-156014950D03*
D12*
X86461999Y-153979950D03*
X86461999Y-150429950D03*
D13*
X86461999Y-148394950D03*
%TD*%
D11*
%TO.C,D50*%
X60336999Y-137014950D03*
D12*
X60336999Y-134979950D03*
X60336999Y-131429950D03*
D13*
X60336999Y-129394950D03*
%TD*%
D11*
%TO.C,D73*%
X243034249Y-156014950D03*
D12*
X243034249Y-153979950D03*
X243034249Y-150429950D03*
D13*
X243034249Y-148394950D03*
%TD*%
D11*
%TO.C,D46*%
X304759249Y-117989950D03*
D12*
X304759249Y-115954950D03*
X304759249Y-112404950D03*
D13*
X304759249Y-110369950D03*
%TD*%
D14*
%TO.C,SW6*%
X176071250Y-73760000D03*
D15*
X174801250Y-76300000D03*
D16*
X170991250Y-73760000D03*
D15*
X168451250Y-78840000D03*
D14*
X165911250Y-73760000D03*
%TD*%
D11*
%TO.C,D38*%
X155361999Y-117989950D03*
D12*
X155361999Y-115954950D03*
X155361999Y-112404950D03*
D13*
X155361999Y-110369950D03*
%TD*%
D11*
%TO.C,D76*%
X309509249Y-156014950D03*
D12*
X309509249Y-153979950D03*
X309509249Y-150429950D03*
D13*
X309509249Y-148394950D03*
%TD*%
D11*
%TO.C,D74*%
X271509249Y-156014950D03*
D12*
X271509249Y-153979950D03*
X271509249Y-150429950D03*
D13*
X271509249Y-148394950D03*
%TD*%
D11*
%TO.C,D52*%
X126861999Y-137014950D03*
D12*
X126861999Y-134979950D03*
X126861999Y-131429950D03*
D13*
X126861999Y-129394950D03*
%TD*%
D11*
%TO.C,D39*%
X174361999Y-117989950D03*
D12*
X174361999Y-115954950D03*
X174361999Y-112404950D03*
D13*
X174361999Y-110369950D03*
%TD*%
D11*
%TO.C,D15*%
X347491000Y-79958000D03*
D12*
X347491000Y-77923000D03*
X347491000Y-74373000D03*
D13*
X347491000Y-72338000D03*
%TD*%
D11*
%TO.C,D44*%
X266759249Y-117989950D03*
D12*
X266759249Y-115954950D03*
X266759249Y-112404950D03*
D13*
X266759249Y-110369950D03*
%TD*%
D14*
%TO.C,SW50*%
X47160750Y-130760000D03*
D15*
X48430750Y-128220000D03*
D16*
X52240750Y-130760000D03*
D15*
X54780750Y-125680000D03*
D14*
X57320750Y-130760000D03*
%TD*%
%TO.C,SW28*%
X267833000Y-92760000D03*
D15*
X269103000Y-90220000D03*
D16*
X272913000Y-92760000D03*
D15*
X275453000Y-87680000D03*
D14*
X277993000Y-92760000D03*
%TD*%
%TO.C,SW75*%
X277333000Y-149760000D03*
D15*
X278603000Y-147220000D03*
D16*
X282413000Y-149760000D03*
D15*
X284953000Y-144680000D03*
D14*
X287493000Y-149760000D03*
%TD*%
D11*
%TO.C,D4*%
X141111999Y-79964950D03*
D12*
X141111999Y-77929950D03*
X141111999Y-74379950D03*
D13*
X141111999Y-72344950D03*
%TD*%
D14*
%TO.C,SW2*%
X89910750Y-73760000D03*
D15*
X91180750Y-71220000D03*
D16*
X94990750Y-73760000D03*
D15*
X97530750Y-68680000D03*
D14*
X100070750Y-73760000D03*
%TD*%
%TO.C,SW22*%
X156410750Y-92760000D03*
D15*
X157680750Y-90220000D03*
D16*
X161490750Y-92760000D03*
D15*
X164030750Y-87680000D03*
D14*
X166570750Y-92760000D03*
%TD*%
D11*
%TO.C,D43*%
X247759249Y-117989950D03*
D12*
X247759249Y-115954950D03*
X247759249Y-112404950D03*
D13*
X247759249Y-110369950D03*
%TD*%
D14*
%TO.C,SW53*%
X132660750Y-130760000D03*
D15*
X133930750Y-128220000D03*
D16*
X137740750Y-130760000D03*
D15*
X140280750Y-125680000D03*
D14*
X142820750Y-130760000D03*
%TD*%
%TO.C,SW66*%
X47160750Y-149760000D03*
D15*
X48430750Y-147220000D03*
D16*
X52240750Y-149760000D03*
D15*
X54780750Y-144680000D03*
D14*
X57320750Y-149760000D03*
%TD*%
D11*
%TO.C,D41*%
X209759249Y-117989950D03*
D12*
X209759249Y-115954950D03*
X209759249Y-112404950D03*
D13*
X209759249Y-110369950D03*
%TD*%
D11*
%TO.C,D1*%
X84111999Y-79964950D03*
D12*
X84111999Y-77929950D03*
X84111999Y-74379950D03*
D13*
X84111999Y-72344950D03*
%TD*%
D14*
%TO.C,SW18*%
X75660750Y-92760000D03*
D15*
X76930750Y-90220000D03*
D16*
X80740750Y-92760000D03*
D15*
X83280750Y-87680000D03*
D14*
X85820750Y-92760000D03*
%TD*%
%TO.C,SW8*%
X201333000Y-73760000D03*
D15*
X202603000Y-71220000D03*
D16*
X206413000Y-73760000D03*
D15*
X208953000Y-68680000D03*
D14*
X211493000Y-73760000D03*
%TD*%
%TO.C,SW26*%
X229833000Y-92760000D03*
D15*
X231103000Y-90220000D03*
D16*
X234913000Y-92760000D03*
D15*
X237453000Y-87680000D03*
D14*
X239993000Y-92760000D03*
%TD*%
D11*
%TO.C,D11*%
X271509249Y-79964950D03*
D12*
X271509249Y-77929950D03*
X271509249Y-74379950D03*
D13*
X271509249Y-72344950D03*
%TD*%
D14*
%TO.C,SW29*%
X286833000Y-92760000D03*
D15*
X288103000Y-90220000D03*
D16*
X291913000Y-92760000D03*
D15*
X294453000Y-87680000D03*
D14*
X296993000Y-92760000D03*
%TD*%
D11*
%TO.C,D51*%
X95961999Y-137014950D03*
D12*
X95961999Y-134979950D03*
X95961999Y-131429950D03*
D13*
X95961999Y-129394950D03*
%TD*%
D14*
%TO.C,SW41*%
X196583000Y-111760000D03*
D15*
X197853000Y-109220000D03*
D16*
X201663000Y-111760000D03*
D15*
X204203000Y-106680000D03*
D14*
X206743000Y-111760000D03*
%TD*%
%TO.C,SW67*%
X73285750Y-149760000D03*
D15*
X74555750Y-147220000D03*
D16*
X78365750Y-149760000D03*
D15*
X80905750Y-144680000D03*
D14*
X83445750Y-149760000D03*
%TD*%
%TO.C,SW77*%
X315333000Y-149760000D03*
D15*
X316603000Y-147220000D03*
D16*
X320413000Y-149760000D03*
D15*
X322953000Y-144680000D03*
D14*
X325493000Y-149760000D03*
%TD*%
D16*
%TO.C,SW73*%
X223000000Y-141505000D03*
D17*
X223000000Y-156745000D03*
D14*
X229858000Y-149760000D03*
D15*
X231128000Y-147220000D03*
D16*
X234938000Y-149760000D03*
D15*
X237478000Y-144680000D03*
D14*
X240018000Y-149760000D03*
D16*
X246876000Y-141505000D03*
D17*
X246876000Y-156745000D03*
%TD*%
D14*
%TO.C,SW43*%
X234583000Y-111760000D03*
D15*
X235853000Y-109220000D03*
D16*
X239663000Y-111760000D03*
D15*
X242203000Y-106680000D03*
D14*
X244743000Y-111760000D03*
%TD*%
D11*
%TO.C,D59*%
X257259249Y-137014950D03*
D12*
X257259249Y-134979950D03*
X257259249Y-131429950D03*
D13*
X257259249Y-129394950D03*
%TD*%
D11*
%TO.C,D9*%
X216600000Y-79110000D03*
D12*
X216600000Y-77075000D03*
X216600000Y-73525000D03*
D13*
X216600000Y-71490000D03*
%TD*%
D11*
%TO.C,D3*%
X122111999Y-79964950D03*
D12*
X122111999Y-77929950D03*
X122111999Y-74379950D03*
D13*
X122111999Y-72344950D03*
%TD*%
D18*
%TO.C,BT1*%
X69505796Y-158960000D03*
X68714129Y-158960000D03*
X67922463Y-158960000D03*
X67130796Y-158960000D03*
X66339129Y-158960000D03*
X65547463Y-158960000D03*
X64755796Y-158960000D03*
%TD*%
D16*
%TO.C,SW70*%
X142402750Y-141505000D03*
D17*
X142402750Y-156745000D03*
D14*
X149260750Y-149760000D03*
D15*
X150530750Y-147220000D03*
D16*
X154340750Y-149760000D03*
D15*
X156880750Y-144680000D03*
D14*
X159420750Y-149760000D03*
D16*
X166278750Y-141505000D03*
D17*
X166278750Y-156745000D03*
%TD*%
D14*
%TO.C,SW68*%
X94660750Y-149760000D03*
D15*
X95930750Y-147220000D03*
D16*
X99740750Y-149760000D03*
D15*
X102280750Y-144680000D03*
D14*
X104820750Y-149760000D03*
%TD*%
D11*
%TO.C,D42*%
X228759249Y-117989950D03*
D12*
X228759249Y-115954950D03*
X228759249Y-112404950D03*
D13*
X228759249Y-110369950D03*
%TD*%
D14*
%TO.C,SW23*%
X175410750Y-92760000D03*
D15*
X176680750Y-90220000D03*
D16*
X180490750Y-92760000D03*
D15*
X183030750Y-87680000D03*
D14*
X185570750Y-92760000D03*
%TD*%
%TO.C,SW76*%
X296333000Y-149760000D03*
D15*
X297603000Y-147220000D03*
D16*
X301413000Y-149760000D03*
D15*
X303953000Y-144680000D03*
D14*
X306493000Y-149760000D03*
%TD*%
D11*
%TO.C,D64*%
X366509249Y-137014950D03*
D12*
X366509249Y-134979950D03*
X366509249Y-131429950D03*
D13*
X366509249Y-129394950D03*
%TD*%
D11*
%TO.C,D23*%
X171795000Y-101590000D03*
D12*
X171795000Y-99555000D03*
X171795000Y-96005000D03*
D13*
X171795000Y-93970000D03*
%TD*%
D14*
%TO.C,SW24*%
X191833000Y-92760000D03*
D15*
X193103000Y-90220000D03*
D16*
X196913000Y-92760000D03*
D15*
X199453000Y-87680000D03*
D14*
X201993000Y-92760000D03*
%TD*%
D11*
%TO.C,D33*%
X41336999Y-117989950D03*
D12*
X41336999Y-115954950D03*
X41336999Y-112404950D03*
D13*
X41336999Y-110369950D03*
%TD*%
D18*
%TO.C,BT1*%
X363956796Y-158960000D03*
X363165129Y-158960000D03*
X362373463Y-158960000D03*
X361581796Y-158960000D03*
X360790129Y-158960000D03*
X359998463Y-158960000D03*
X359206796Y-158960000D03*
%TD*%
D19*
%TO.C,J4*%
X347775000Y-106100000D03*
D20*
X345235000Y-106100000D03*
%TD*%
D14*
%TO.C,SW10*%
X249493000Y-73760000D03*
D15*
X248223000Y-76300000D03*
D16*
X244413000Y-73760000D03*
D15*
X241873000Y-78840000D03*
D14*
X239333000Y-73760000D03*
%TD*%
%TO.C,SW79*%
X353333000Y-149760000D03*
D15*
X354603000Y-147220000D03*
D16*
X358413000Y-149760000D03*
D15*
X360953000Y-144680000D03*
D14*
X363493000Y-149760000D03*
%TD*%
%TO.C,SW78*%
X334333000Y-149760000D03*
D15*
X335603000Y-147220000D03*
D16*
X339413000Y-149760000D03*
D15*
X341953000Y-144680000D03*
D14*
X344493000Y-149760000D03*
%TD*%
D11*
%TO.C,D8*%
X214509249Y-79964950D03*
D12*
X214509249Y-77929950D03*
X214509249Y-74379950D03*
D13*
X214509249Y-72344950D03*
%TD*%
D11*
%TO.C,D45*%
X285759249Y-117989950D03*
D12*
X285759249Y-115954950D03*
X285759249Y-112404950D03*
D13*
X285759249Y-110369950D03*
%TD*%
D11*
%TO.C,D65*%
X41336999Y-156014950D03*
D12*
X41336999Y-153979950D03*
X41336999Y-150429950D03*
D13*
X41336999Y-148394950D03*
%TD*%
D11*
%TO.C,D70*%
X162461999Y-156014950D03*
D12*
X162461999Y-153979950D03*
X162461999Y-150429950D03*
D13*
X162461999Y-148394950D03*
%TD*%
D14*
%TO.C,SW16*%
X28160750Y-92760000D03*
D16*
X33240750Y-92760000D03*
D14*
X38320750Y-92760000D03*
%TD*%
D11*
%TO.C,D24*%
X205009249Y-98964950D03*
D12*
X205009249Y-96929950D03*
X205009249Y-93379950D03*
D13*
X205009249Y-91344950D03*
%TD*%
D14*
%TO.C,SW65*%
X28160750Y-149760000D03*
D15*
X29430750Y-147220000D03*
D16*
X33240750Y-149760000D03*
D15*
X35780750Y-144680000D03*
D14*
X38320750Y-149760000D03*
%TD*%
%TO.C,SW58*%
X225083000Y-130760000D03*
D15*
X226353000Y-128220000D03*
D16*
X230163000Y-130760000D03*
D15*
X232703000Y-125680000D03*
D14*
X235243000Y-130760000D03*
%TD*%
D11*
%TO.C,D26*%
X243009249Y-98964950D03*
D12*
X243009249Y-96929950D03*
X243009249Y-93379950D03*
D13*
X243009249Y-91344950D03*
%TD*%
D19*
%TO.C,RST*%
X181275000Y-66500000D03*
D20*
X178735000Y-66500000D03*
%TD*%
D18*
%TO.C,BT1*%
X327634404Y-64100000D03*
X328426071Y-64100000D03*
X329217737Y-64100000D03*
X330009404Y-64100000D03*
X330801071Y-64100000D03*
X331592737Y-64100000D03*
X332384404Y-64100000D03*
%TD*%
D11*
%TO.C,D6*%
X162687000Y-79375000D03*
D12*
X162687000Y-77340000D03*
X162687000Y-73790000D03*
D13*
X162687000Y-71755000D03*
%TD*%
D11*
%TO.C,D14*%
X338034249Y-79964950D03*
D12*
X338034249Y-77929950D03*
X338034249Y-74379950D03*
D13*
X338034249Y-72344950D03*
%TD*%
D14*
%TO.C,SW57*%
X206083000Y-130760000D03*
D15*
X207353000Y-128220000D03*
D16*
X211163000Y-130760000D03*
D15*
X213703000Y-125680000D03*
D14*
X216243000Y-130760000D03*
%TD*%
D11*
%TO.C,D12*%
X290509249Y-79964950D03*
D12*
X290509249Y-77929950D03*
X290509249Y-74379950D03*
D13*
X290509249Y-72344950D03*
%TD*%
D14*
%TO.C,SW59*%
X244083000Y-130760000D03*
D15*
X245353000Y-128220000D03*
D16*
X249163000Y-130760000D03*
D15*
X251703000Y-125680000D03*
D14*
X254243000Y-130760000D03*
%TD*%
%TO.C,SW64*%
X353333000Y-130760000D03*
D15*
X354603000Y-128220000D03*
D16*
X358413000Y-130760000D03*
D15*
X360953000Y-125680000D03*
D14*
X363493000Y-130760000D03*
%TD*%
D17*
%TO.C,SW14*%
X317975000Y-66775000D03*
D16*
X317975000Y-82015000D03*
D14*
X324833000Y-73760000D03*
D15*
X326103000Y-71220000D03*
D16*
X329913000Y-73760000D03*
D15*
X332453000Y-68680000D03*
D14*
X334993000Y-73760000D03*
D17*
X341851000Y-66775000D03*
D16*
X341851000Y-82015000D03*
%TD*%
D19*
%TO.C,USB_PRO_MICRO*%
X72567800Y-104267000D03*
D20*
X72567800Y-106807000D03*
X72567800Y-109347000D03*
X72567800Y-111887000D03*
%TD*%
D14*
%TO.C,SW63*%
X334333000Y-130760000D03*
D15*
X335603000Y-128220000D03*
D16*
X339413000Y-130760000D03*
D15*
X341953000Y-125680000D03*
D14*
X344493000Y-130760000D03*
%TD*%
D11*
%TO.C,D36*%
X117361999Y-117989950D03*
D12*
X117361999Y-115954950D03*
X117361999Y-112404950D03*
D13*
X117361999Y-110369950D03*
%TD*%
D11*
%TO.C,D29*%
X300009249Y-98964950D03*
D12*
X300009249Y-96929950D03*
X300009249Y-93379950D03*
D13*
X300009249Y-91344950D03*
%TD*%
D14*
%TO.C,SW38*%
X142160750Y-111760000D03*
D15*
X143430750Y-109220000D03*
D16*
X147240750Y-111760000D03*
D15*
X149780750Y-106680000D03*
D14*
X152320750Y-111760000D03*
%TD*%
%TO.C,SW69*%
X113660750Y-149760000D03*
D15*
X114930750Y-147220000D03*
D16*
X118740750Y-149760000D03*
D15*
X121280750Y-144680000D03*
D14*
X123820750Y-149760000D03*
%TD*%
D11*
%TO.C,D69*%
X126861999Y-156014950D03*
D12*
X126861999Y-153979950D03*
X126861999Y-150429950D03*
D13*
X126861999Y-148394950D03*
%TD*%
D14*
%TO.C,SW60*%
X263083000Y-130760000D03*
D15*
X264353000Y-128220000D03*
D16*
X268163000Y-130760000D03*
D15*
X270703000Y-125680000D03*
D14*
X273243000Y-130760000D03*
%TD*%
%TO.C,SW9*%
X230493000Y-73760000D03*
D15*
X229223000Y-76300000D03*
D16*
X225413000Y-73760000D03*
D15*
X222873000Y-78840000D03*
D14*
X220333000Y-73760000D03*
%TD*%
D17*
%TO.C,SW51*%
X75927750Y-123775000D03*
D16*
X75927750Y-139015000D03*
D14*
X82785750Y-130760000D03*
D15*
X84055750Y-128220000D03*
D16*
X87865750Y-130760000D03*
D15*
X90405750Y-125680000D03*
D14*
X92945750Y-130760000D03*
D17*
X99803750Y-123775000D03*
D16*
X99803750Y-139015000D03*
%TD*%
D11*
%TO.C,D20*%
X131611999Y-98964950D03*
D12*
X131611999Y-96929950D03*
X131611999Y-93379950D03*
D13*
X131611999Y-91344950D03*
%TD*%
D14*
%TO.C,SW12*%
X277333000Y-73760000D03*
D15*
X278603000Y-71220000D03*
D16*
X282413000Y-73760000D03*
D15*
X284953000Y-68680000D03*
D14*
X287493000Y-73760000D03*
%TD*%
%TO.C,SW49*%
X28160750Y-130760000D03*
D15*
X29430750Y-128220000D03*
D16*
X33240750Y-130760000D03*
D15*
X35780750Y-125680000D03*
D14*
X38320750Y-130760000D03*
%TD*%
D11*
%TO.C,D47*%
X335659249Y-117989950D03*
D12*
X335659249Y-115954950D03*
X335659249Y-112404950D03*
D13*
X335659249Y-110369950D03*
%TD*%
D14*
%TO.C,SW27*%
X248833000Y-92760000D03*
D15*
X250103000Y-90220000D03*
D16*
X253913000Y-92760000D03*
D15*
X256453000Y-87680000D03*
D14*
X258993000Y-92760000D03*
%TD*%
%TO.C,SW56*%
X189660750Y-130760000D03*
D15*
X190930750Y-128220000D03*
D16*
X194740750Y-130760000D03*
D15*
X197280750Y-125680000D03*
D14*
X199820750Y-130760000D03*
%TD*%
D11*
%TO.C,D62*%
X322550000Y-134260000D03*
D12*
X322550000Y-132225000D03*
X322550000Y-128675000D03*
D13*
X322550000Y-126640000D03*
%TD*%
D14*
%TO.C,SW7*%
X184910750Y-73760000D03*
D15*
X186180750Y-71220000D03*
D16*
X189990750Y-73760000D03*
D15*
X192530750Y-68680000D03*
D14*
X195070750Y-73760000D03*
%TD*%
D11*
%TO.C,D48*%
X366509249Y-117989950D03*
D12*
X366509249Y-115954950D03*
X366509249Y-112404950D03*
D13*
X366509249Y-110369950D03*
%TD*%
D14*
%TO.C,SW39*%
X161160750Y-111760000D03*
D15*
X162430750Y-109220000D03*
D16*
X166240750Y-111760000D03*
D15*
X168780750Y-106680000D03*
D14*
X171320750Y-111760000D03*
%TD*%
%TO.C,SW4*%
X127910750Y-73760000D03*
D15*
X129180750Y-71220000D03*
D16*
X132990750Y-73760000D03*
D15*
X135530750Y-68680000D03*
D14*
X138070750Y-73760000D03*
%TD*%
D11*
%TO.C,D22*%
X169611999Y-98964950D03*
D12*
X169611999Y-96929950D03*
X169611999Y-93379950D03*
D13*
X169611999Y-91344950D03*
%TD*%
D11*
%TO.C,D16*%
X41336999Y-98964950D03*
D12*
X41336999Y-96929950D03*
X41336999Y-93379950D03*
D13*
X41336999Y-91344950D03*
%TD*%
D17*
%TO.C,SW47*%
X315600000Y-104775000D03*
D16*
X315600000Y-120015000D03*
D14*
X322458000Y-111760000D03*
D15*
X323728000Y-109220000D03*
D16*
X327538000Y-111760000D03*
D15*
X330078000Y-106680000D03*
D14*
X332618000Y-111760000D03*
D17*
X339476000Y-104775000D03*
D16*
X339476000Y-120015000D03*
%TD*%
D18*
%TO.C,BT1*%
X175641196Y-158960000D03*
X174849529Y-158960000D03*
X174057863Y-158960000D03*
X173266196Y-158960000D03*
X172474529Y-158960000D03*
X171682863Y-158960000D03*
X170891196Y-158960000D03*
%TD*%
D14*
%TO.C,SW17*%
X47160750Y-92760000D03*
D16*
X52240750Y-92760000D03*
D14*
X57320750Y-92760000D03*
%TD*%
D11*
%TO.C,D49*%
X41336999Y-137014950D03*
D12*
X41336999Y-134979950D03*
X41336999Y-131429950D03*
D13*
X41336999Y-129394950D03*
%TD*%
D11*
%TO.C,D25*%
X224009249Y-98964950D03*
D12*
X224009249Y-96929950D03*
X224009249Y-93379950D03*
D13*
X224009249Y-91344950D03*
%TD*%
D11*
%TO.C,D53*%
X145861999Y-137014950D03*
D12*
X145861999Y-134979950D03*
X145861999Y-131429950D03*
D13*
X145861999Y-129394950D03*
%TD*%
D11*
%TO.C,D28*%
X281009249Y-98964950D03*
D12*
X281009249Y-96929950D03*
X281009249Y-93379950D03*
D13*
X281009249Y-91344950D03*
%TD*%
D18*
%TO.C,BT1*%
X225704596Y-158960000D03*
X224912929Y-158960000D03*
X224121263Y-158960000D03*
X223329596Y-158960000D03*
X222537929Y-158960000D03*
X221746263Y-158960000D03*
X220954596Y-158960000D03*
%TD*%
D11*
%TO.C,D7*%
X181255000Y-82565000D03*
D12*
X181255000Y-80530000D03*
X181255000Y-76980000D03*
D13*
X181255000Y-74945000D03*
%TD*%
D11*
%TO.C,D61*%
X295259249Y-137014950D03*
D12*
X295259249Y-134979950D03*
X295259249Y-131429950D03*
D13*
X295259249Y-129394950D03*
%TD*%
D11*
%TO.C,D37*%
X136361999Y-117989950D03*
D12*
X136361999Y-115954950D03*
X136361999Y-112404950D03*
D13*
X136361999Y-110369950D03*
%TD*%
D14*
%TO.C,SW19*%
X99410750Y-92760000D03*
D15*
X100680750Y-90220000D03*
D16*
X104490750Y-92760000D03*
D15*
X107030750Y-87680000D03*
D14*
X109570750Y-92760000D03*
%TD*%
D19*
%TO.C,USB_SPLIT_R*%
X231340000Y-67700000D03*
D20*
X233880000Y-67700000D03*
X236420000Y-67700000D03*
X238960000Y-67700000D03*
%TD*%
D11*
%TO.C,D77*%
X328509249Y-156014950D03*
D12*
X328509249Y-153979950D03*
X328509249Y-150429950D03*
D13*
X328509249Y-148394950D03*
%TD*%
D21*
%TO.C,U2*%
X305200000Y-123090000D03*
X307740000Y-123090000D03*
X310280000Y-123090000D03*
X312820000Y-123090000D03*
X315360000Y-123090000D03*
X317900000Y-123090000D03*
X320440000Y-123090000D03*
X322980000Y-123090000D03*
X325520000Y-123090000D03*
X328060000Y-123090000D03*
X330600000Y-123090000D03*
X333140000Y-123090000D03*
X333140000Y-138310000D03*
X330600000Y-138310000D03*
X328060000Y-138310000D03*
X325520000Y-138310000D03*
X322980000Y-138310000D03*
X320440000Y-138310000D03*
X317900000Y-138310000D03*
X315360000Y-138310000D03*
X312820000Y-138310000D03*
X310280000Y-138310000D03*
X307740000Y-138310000D03*
X305200000Y-138310000D03*
%TD*%
D11*
%TO.C,D10*%
X236000000Y-80410000D03*
D12*
X236000000Y-78375000D03*
X236000000Y-74825000D03*
D13*
X236000000Y-72790000D03*
%TD*%
D11*
%TO.C,D57*%
X219259249Y-137014950D03*
D12*
X219259249Y-134979950D03*
X219259249Y-131429950D03*
D13*
X219259249Y-129394950D03*
%TD*%
D14*
%TO.C,SW36*%
X104160750Y-111760000D03*
D15*
X105430750Y-109220000D03*
D16*
X109240750Y-111760000D03*
D15*
X111780750Y-106680000D03*
D14*
X114320750Y-111760000D03*
%TD*%
D19*
%TO.C,USB_main1*%
X58017750Y-67535000D03*
D20*
X60557750Y-67535000D03*
X63097750Y-67535000D03*
X65637750Y-67535000D03*
%TD*%
D14*
%TO.C,SW55*%
X170660750Y-130760000D03*
D15*
X171930750Y-128220000D03*
D16*
X175740750Y-130760000D03*
D15*
X178280750Y-125680000D03*
D14*
X180820750Y-130760000D03*
%TD*%
D11*
%TO.C,D75*%
X290509249Y-156014950D03*
D12*
X290509249Y-153979950D03*
X290509249Y-150429950D03*
D13*
X290509249Y-148394950D03*
%TD*%
D11*
%TO.C,D56*%
X186040000Y-138830000D03*
D12*
X186040000Y-136795000D03*
X186040000Y-133245000D03*
D13*
X186040000Y-131210000D03*
%TD*%
D14*
%TO.C,SW62*%
X308208000Y-130760000D03*
D15*
X309478000Y-128220000D03*
D16*
X313288000Y-130760000D03*
D15*
X315828000Y-125680000D03*
D14*
X318368000Y-130760000D03*
%TD*%
%TO.C,SW31*%
X329583000Y-92760000D03*
D15*
X330853000Y-90220000D03*
D16*
X334663000Y-92760000D03*
D15*
X337203000Y-87680000D03*
D14*
X339743000Y-92760000D03*
%TD*%
D19*
%TO.C,USB_SPLIT_L*%
X157706250Y-67635000D03*
D20*
X160246250Y-67635000D03*
X162786250Y-67635000D03*
X165326250Y-67635000D03*
%TD*%
D19*
%TO.C,OLED*%
X25450750Y-75962370D03*
D20*
X25450750Y-73422370D03*
X25450750Y-70882370D03*
X25450750Y-68342370D03*
%TD*%
D11*
%TO.C,D60*%
X276259249Y-137014950D03*
D12*
X276259249Y-134979950D03*
X276259249Y-131429950D03*
D13*
X276259249Y-129394950D03*
%TD*%
D11*
%TO.C,D5*%
X143637000Y-78356000D03*
D12*
X143637000Y-76321000D03*
X143637000Y-72771000D03*
D13*
X143637000Y-70736000D03*
%TD*%
D14*
%TO.C,SW61*%
X282083000Y-130760000D03*
D15*
X283353000Y-128220000D03*
D16*
X287163000Y-130760000D03*
D15*
X289703000Y-125680000D03*
D14*
X292243000Y-130760000D03*
%TD*%
D11*
%TO.C,D35*%
X91211999Y-117989950D03*
D12*
X91211999Y-115954950D03*
X91211999Y-112404950D03*
D13*
X91211999Y-110369950D03*
%TD*%
D14*
%TO.C,SW48*%
X353333000Y-111760000D03*
D15*
X354603000Y-109220000D03*
D16*
X358413000Y-111760000D03*
D15*
X360953000Y-106680000D03*
D14*
X363493000Y-111760000D03*
%TD*%
D11*
%TO.C,D21*%
X150611999Y-98964950D03*
D12*
X150611999Y-96929950D03*
X150611999Y-93379950D03*
D13*
X150611999Y-91344950D03*
%TD*%
D14*
%TO.C,SW5*%
X157071250Y-73760000D03*
D15*
X155801250Y-76300000D03*
D16*
X151991250Y-73760000D03*
D15*
X149451250Y-78840000D03*
D14*
X146911250Y-73760000D03*
%TD*%
D11*
%TO.C,D13*%
X309509249Y-79964950D03*
D12*
X309509249Y-77929950D03*
X309509249Y-74379950D03*
D13*
X309509249Y-72344950D03*
%TD*%
D14*
%TO.C,SW52*%
X113660750Y-130760000D03*
D15*
X114930750Y-128220000D03*
D16*
X118740750Y-130760000D03*
D15*
X121280750Y-125680000D03*
D14*
X123820750Y-130760000D03*
%TD*%
D11*
%TO.C,D18*%
X88836999Y-98964950D03*
D12*
X88836999Y-96929950D03*
X88836999Y-93379950D03*
D13*
X88836999Y-91344950D03*
%TD*%
D14*
%TO.C,SW54*%
X151660750Y-130760000D03*
D15*
X152930750Y-128220000D03*
D16*
X156740750Y-130760000D03*
D15*
X159280750Y-125680000D03*
D14*
X161820750Y-130760000D03*
%TD*%
%TO.C,SW33*%
X28160750Y-111760000D03*
D15*
X29430750Y-109220000D03*
D16*
X33240750Y-111760000D03*
D15*
X35780750Y-106680000D03*
D14*
X38320750Y-111760000D03*
%TD*%
D11*
%TO.C,D27*%
X262009249Y-98964950D03*
D12*
X262009249Y-96929950D03*
X262009249Y-93379950D03*
D13*
X262009249Y-91344950D03*
%TD*%
D14*
%TO.C,SW37*%
X123160750Y-111760000D03*
D15*
X124430750Y-109220000D03*
D16*
X128240750Y-111760000D03*
D15*
X130780750Y-106680000D03*
D14*
X133320750Y-111760000D03*
%TD*%
%TO.C,SW1*%
X70910750Y-73760000D03*
D15*
X72180750Y-71220000D03*
D16*
X75990750Y-73760000D03*
D15*
X78530750Y-68680000D03*
D14*
X81070750Y-73760000D03*
%TD*%
D11*
%TO.C,D55*%
X183861999Y-137014950D03*
D12*
X183861999Y-134979950D03*
X183861999Y-131429950D03*
D13*
X183861999Y-129394950D03*
%TD*%
D14*
%TO.C,SW30*%
X305833000Y-92760000D03*
D15*
X307103000Y-90220000D03*
D16*
X310913000Y-92760000D03*
D15*
X313453000Y-87680000D03*
D14*
X315993000Y-92760000D03*
%TD*%
D11*
%TO.C,D54*%
X164861999Y-137014950D03*
D12*
X164861999Y-134979950D03*
X164861999Y-131429950D03*
D13*
X164861999Y-129394950D03*
%TD*%
D14*
%TO.C,SW32*%
X353333000Y-92760000D03*
D15*
X354603000Y-90220000D03*
D16*
X358413000Y-92760000D03*
D15*
X360953000Y-87680000D03*
D14*
X363493000Y-92760000D03*
%TD*%
D18*
%TO.C,BT1*%
X158997004Y-63100000D03*
X159788671Y-63100000D03*
X160580337Y-63100000D03*
X161372004Y-63100000D03*
X162163671Y-63100000D03*
X162955337Y-63100000D03*
X163747004Y-63100000D03*
%TD*%
D14*
%TO.C,SW71*%
X184910750Y-149760000D03*
D15*
X186180750Y-147220000D03*
D16*
X189990750Y-149760000D03*
D15*
X192530750Y-144680000D03*
D14*
X195070750Y-149760000D03*
%TD*%
%TO.C,SW11*%
X258333000Y-73760000D03*
D15*
X259603000Y-71220000D03*
D16*
X263413000Y-73760000D03*
D15*
X265953000Y-68680000D03*
D14*
X268493000Y-73760000D03*
%TD*%
%TO.C,SW21*%
X137410750Y-92760000D03*
D15*
X138680750Y-90220000D03*
D16*
X142490750Y-92760000D03*
D15*
X145030750Y-87680000D03*
D14*
X147570750Y-92760000D03*
%TD*%
D11*
%TO.C,D2*%
X103111999Y-79964950D03*
D12*
X103111999Y-77929950D03*
X103111999Y-74379950D03*
D13*
X103111999Y-72344950D03*
%TD*%
D14*
%TO.C,SW25*%
X210833000Y-92760000D03*
D15*
X212103000Y-90220000D03*
D16*
X215913000Y-92760000D03*
D15*
X218453000Y-87680000D03*
D14*
X220993000Y-92760000D03*
%TD*%
D11*
%TO.C,D79*%
X366509249Y-156014950D03*
D12*
X366509249Y-153979950D03*
X366509249Y-150429950D03*
D13*
X366509249Y-148394950D03*
%TD*%
D14*
%TO.C,SW40*%
X180160750Y-111760000D03*
D15*
X181430750Y-109220000D03*
D16*
X185240750Y-111760000D03*
D15*
X187780750Y-106680000D03*
D14*
X190320750Y-111760000D03*
%TD*%
%TO.C,SW72*%
X201333000Y-149760000D03*
D15*
X202603000Y-147220000D03*
D16*
X206413000Y-149760000D03*
D15*
X208953000Y-144680000D03*
D14*
X211493000Y-149760000D03*
%TD*%
D19*
%TO.C,RST*%
X219075000Y-66400000D03*
D20*
X216535000Y-66400000D03*
%TD*%
D11*
%TO.C,D78*%
X347509249Y-156014950D03*
D12*
X347509249Y-153979950D03*
X347509249Y-150429950D03*
D13*
X347509249Y-148394950D03*
%TD*%
D14*
%TO.C,SW20*%
X118410750Y-92760000D03*
D15*
X119680750Y-90220000D03*
D16*
X123490750Y-92760000D03*
D15*
X126030750Y-87680000D03*
D14*
X128570750Y-92760000D03*
%TD*%
%TO.C,SW35*%
X78035750Y-111760000D03*
D15*
X79305750Y-109220000D03*
D16*
X83115750Y-111760000D03*
D15*
X85655750Y-106680000D03*
D14*
X88195750Y-111760000D03*
%TD*%
D21*
%TO.C,U1*%
X57847000Y-84908600D03*
X55307000Y-84908600D03*
X52767000Y-84908600D03*
X50227000Y-84908600D03*
X47687000Y-84908600D03*
X45147000Y-84908600D03*
X42607000Y-84908600D03*
X40067000Y-84908600D03*
X37527000Y-84908600D03*
X34987000Y-84908600D03*
X32447000Y-84908600D03*
X29907000Y-84908600D03*
X29907000Y-69688600D03*
X32447000Y-69688600D03*
X34987000Y-69688600D03*
X37527000Y-69688600D03*
X40067000Y-69688600D03*
X42607000Y-69688600D03*
X45147000Y-69688600D03*
X47687000Y-69688600D03*
X50227000Y-69688600D03*
X52767000Y-69688600D03*
X55307000Y-69688600D03*
X57847000Y-69688600D03*
%TD*%
D18*
%TO.C,BT1*%
X59247004Y-63100000D03*
X60038671Y-63100000D03*
X60830337Y-63100000D03*
X61622004Y-63100000D03*
X62413671Y-63100000D03*
X63205337Y-63100000D03*
X63997004Y-63100000D03*
%TD*%
D14*
%TO.C,SW34*%
X47160750Y-111760000D03*
D15*
X48430750Y-109220000D03*
D16*
X52240750Y-111760000D03*
D15*
X54780750Y-106680000D03*
D14*
X57320750Y-111760000D03*
%TD*%
D11*
%TO.C,D34*%
X60336999Y-117989950D03*
D12*
X60336999Y-115954950D03*
X60336999Y-112404950D03*
D13*
X60336999Y-110369950D03*
%TD*%
D11*
%TO.C,D71*%
X179695000Y-156115000D03*
D12*
X179695000Y-154080000D03*
X179695000Y-150530000D03*
D13*
X179695000Y-148495000D03*
%TD*%
D14*
%TO.C,SW44*%
X253583000Y-111760000D03*
D15*
X254853000Y-109220000D03*
D16*
X258663000Y-111760000D03*
D15*
X261203000Y-106680000D03*
D14*
X263743000Y-111760000D03*
%TD*%
D11*
%TO.C,D58*%
X238259249Y-137014950D03*
D12*
X238259249Y-134979950D03*
X238259249Y-131429950D03*
D13*
X238259249Y-129394950D03*
%TD*%
D14*
%TO.C,SW74*%
X258333000Y-149760000D03*
D15*
X259603000Y-147220000D03*
D16*
X263413000Y-149760000D03*
D15*
X265953000Y-144680000D03*
D14*
X268493000Y-149760000D03*
%TD*%
%TO.C,SW42*%
X215583000Y-111760000D03*
D15*
X216853000Y-109220000D03*
D16*
X220663000Y-111760000D03*
D15*
X223203000Y-106680000D03*
D14*
X225743000Y-111760000D03*
%TD*%
D11*
%TO.C,D31*%
X342784249Y-98964950D03*
D12*
X342784249Y-96929950D03*
X342784249Y-93379950D03*
D13*
X342784249Y-91344950D03*
%TD*%
D14*
%TO.C,SW3*%
X108910750Y-73760000D03*
D15*
X110180750Y-71220000D03*
D16*
X113990750Y-73760000D03*
D15*
X116530750Y-68680000D03*
D14*
X119070750Y-73760000D03*
%TD*%
D11*
%TO.C,D68*%
X107861999Y-156014950D03*
D12*
X107861999Y-153979950D03*
X107861999Y-150429950D03*
D13*
X107861999Y-148394950D03*
%TD*%
D11*
%TO.C,D19*%
X112611999Y-98964950D03*
D12*
X112611999Y-96929950D03*
X112611999Y-93379950D03*
D13*
X112611999Y-91344950D03*
%TD*%
D11*
%TO.C,D17*%
X60336999Y-98964950D03*
D12*
X60336999Y-96929950D03*
X60336999Y-93379950D03*
D13*
X60336999Y-91344950D03*
%TD*%
D18*
%TO.C,BT1*%
X232775004Y-63100000D03*
X233566671Y-63100000D03*
X234358337Y-63100000D03*
X235150004Y-63100000D03*
X235941671Y-63100000D03*
X236733337Y-63100000D03*
X237525004Y-63100000D03*
%TD*%
D11*
%TO.C,D72*%
X214509249Y-156014950D03*
D12*
X214509249Y-153979950D03*
X214509249Y-150429950D03*
D13*
X214509249Y-148394950D03*
%TD*%
D14*
%TO.C,SW45*%
X272583000Y-111760000D03*
D15*
X273853000Y-109220000D03*
D16*
X277663000Y-111760000D03*
D15*
X280203000Y-106680000D03*
D14*
X282743000Y-111760000D03*
%TD*%
D11*
%TO.C,D30*%
X319009249Y-98964950D03*
D12*
X319009249Y-96929950D03*
X319009249Y-93379950D03*
D13*
X319009249Y-91344950D03*
%TD*%
D11*
%TO.C,D63*%
X347509249Y-137014950D03*
D12*
X347509249Y-134979950D03*
X347509249Y-131429950D03*
D13*
X347509249Y-129394950D03*
%TD*%
D14*
%TO.C,SW46*%
X291583000Y-111760000D03*
D15*
X292853000Y-109220000D03*
D16*
X296663000Y-111760000D03*
D15*
X299203000Y-106680000D03*
D14*
X301743000Y-111760000D03*
%TD*%
D11*
%TO.C,D40*%
X176525000Y-120560000D03*
D12*
X176525000Y-118525000D03*
X176525000Y-114975000D03*
D13*
X176525000Y-112940000D03*
%TD*%
D22*
%TO.C,ENC*%
X367913000Y-71760000D03*
X352913000Y-71760000D03*
D23*
X357913000Y-79260000D03*
X362913000Y-79260000D03*
X360413000Y-79260000D03*
X362913000Y-64160000D03*
X357913000Y-64160000D03*
%TD*%
D11*
%TO.C,D66*%
X60336999Y-156014950D03*
D12*
X60336999Y-153979950D03*
X60336999Y-150429950D03*
D13*
X60336999Y-148394950D03*
%TD*%
M02*
