%TF.GenerationSoftware,KiCad,Pcbnew,8.0.8*%
%TF.CreationDate,2025-04-10T14:10:57+09:00*%
%TF.ProjectId,sswkbd_wiring,7373776b-6264-45f7-9769-72696e672e6b,rev?*%
%TF.SameCoordinates,Original*%
%TF.FileFunction,Paste,Bot*%
%TF.FilePolarity,Positive*%
%FSLAX46Y46*%
G04 Gerber Fmt 4.6, Leading zero omitted, Abs format (unit mm)*
G04 Created by KiCad (PCBNEW 8.0.8) date 2025-04-10 14:10:57*
%MOMM*%
%LPD*%
G01*
G04 APERTURE LIST*
%ADD10R,2.550000X2.500000*%
%ADD11R,0.950000X1.300000*%
%ADD12R,1.700000X0.825000*%
G04 APERTURE END LIST*
D10*
%TO.C,SW5*%
X159101250Y-76275000D03*
X146174250Y-78815000D03*
%TD*%
D11*
%TO.C,D32*%
X391509249Y-96929950D03*
X391509249Y-93379950D03*
%TD*%
D10*
%TO.C,SW13*%
X319328000Y-71195000D03*
X332255000Y-68655000D03*
%TD*%
D11*
%TO.C,D67*%
X86461999Y-153979950D03*
X86461999Y-150429950D03*
%TD*%
%TO.C,D50*%
X60274999Y-134979950D03*
X60274999Y-131429950D03*
%TD*%
%TO.C,D73*%
X268034249Y-153979950D03*
X268034249Y-150429950D03*
%TD*%
%TO.C,D46*%
X329759249Y-115954950D03*
X329759249Y-112404950D03*
%TD*%
D10*
%TO.C,SW6*%
X178101250Y-76275000D03*
X165174250Y-78815000D03*
%TD*%
D11*
%TO.C,D38*%
X155361999Y-115954950D03*
X155361999Y-112404950D03*
%TD*%
%TO.C,D76*%
X334509249Y-153979950D03*
X334509249Y-150429950D03*
%TD*%
%TO.C,D74*%
X296509249Y-153979950D03*
X296509249Y-150429950D03*
%TD*%
%TO.C,D52*%
X126861999Y-134979950D03*
X126861999Y-131429950D03*
%TD*%
%TO.C,D39*%
X174361999Y-115954950D03*
X174361999Y-112404950D03*
%TD*%
%TO.C,D15*%
X372491000Y-77923000D03*
X372491000Y-74373000D03*
%TD*%
%TO.C,D44*%
X291759249Y-115954950D03*
X291759249Y-112404950D03*
%TD*%
D10*
%TO.C,SW50*%
X45093750Y-128245000D03*
X58020750Y-125705000D03*
%TD*%
%TO.C,SW28*%
X290828000Y-90195000D03*
X303755000Y-87655000D03*
%TD*%
%TO.C,SW75*%
X300328000Y-147245000D03*
X313255000Y-144705000D03*
%TD*%
D11*
%TO.C,D4*%
X141111999Y-77929950D03*
X141111999Y-74379950D03*
%TD*%
D10*
%TO.C,SW2*%
X87930750Y-71195000D03*
X100857750Y-68655000D03*
%TD*%
%TO.C,SW22*%
X154430750Y-90195000D03*
X167357750Y-87655000D03*
%TD*%
D11*
%TO.C,D43*%
X272759249Y-115954950D03*
X272759249Y-112404950D03*
%TD*%
D10*
%TO.C,SW53*%
X130680750Y-128245000D03*
X143607750Y-125705000D03*
%TD*%
%TO.C,SW66*%
X45093750Y-147245000D03*
X58020750Y-144705000D03*
%TD*%
D11*
%TO.C,D41*%
X234759249Y-115954950D03*
X234759249Y-112404950D03*
%TD*%
%TO.C,D1*%
X84111999Y-77929950D03*
X84111999Y-74379950D03*
%TD*%
D10*
%TO.C,SW18*%
X73655750Y-90195000D03*
X86582750Y-87655000D03*
%TD*%
%TO.C,SW8*%
X224328000Y-71195000D03*
X237255000Y-68655000D03*
%TD*%
%TO.C,SW26*%
X252828000Y-90195000D03*
X265755000Y-87655000D03*
%TD*%
D11*
%TO.C,D11*%
X296509249Y-77929950D03*
X296509249Y-74379950D03*
%TD*%
D10*
%TO.C,SW29*%
X309828000Y-90195000D03*
X322755000Y-87655000D03*
%TD*%
D11*
%TO.C,D51*%
X95961999Y-134979950D03*
X95961999Y-131429950D03*
%TD*%
D10*
%TO.C,SW41*%
X219578000Y-109220000D03*
X232505000Y-106680000D03*
%TD*%
%TO.C,SW67*%
X71280750Y-147245000D03*
X84207750Y-144705000D03*
%TD*%
%TO.C,SW77*%
X338328000Y-147245000D03*
X351255000Y-144705000D03*
%TD*%
%TO.C,SW73*%
X252853000Y-147245000D03*
X265780000Y-144705000D03*
%TD*%
%TO.C,SW43*%
X257578000Y-109220000D03*
X270505000Y-106680000D03*
%TD*%
D11*
%TO.C,D59*%
X282259249Y-134979950D03*
X282259249Y-131429950D03*
%TD*%
%TO.C,D9*%
X241600000Y-77075000D03*
X241600000Y-73525000D03*
%TD*%
%TO.C,D3*%
X122111999Y-77929950D03*
X122111999Y-74379950D03*
%TD*%
D10*
%TO.C,SW70*%
X147280750Y-147245000D03*
X160207750Y-144705000D03*
%TD*%
%TO.C,SW68*%
X92680750Y-147245000D03*
X105607750Y-144705000D03*
%TD*%
D11*
%TO.C,D42*%
X253759249Y-115954950D03*
X253759249Y-112404950D03*
%TD*%
D10*
%TO.C,SW23*%
X186357750Y-87655000D03*
X173430750Y-90195000D03*
%TD*%
%TO.C,SW76*%
X319328000Y-147245000D03*
X332255000Y-144705000D03*
%TD*%
D11*
%TO.C,D64*%
X391509249Y-134979950D03*
X391509249Y-131429950D03*
%TD*%
%TO.C,D23*%
X171795000Y-99555000D03*
X171795000Y-96005000D03*
%TD*%
D10*
%TO.C,SW24*%
X214828000Y-90195000D03*
X227755000Y-87655000D03*
%TD*%
D11*
%TO.C,D33*%
X41274999Y-115954950D03*
X41274999Y-112404950D03*
%TD*%
D10*
%TO.C,SW10*%
X276472000Y-76205000D03*
X263545000Y-78745000D03*
%TD*%
%TO.C,SW79*%
X376328000Y-147245000D03*
X389255000Y-144705000D03*
%TD*%
%TO.C,SW78*%
X357328000Y-147245000D03*
X370255000Y-144705000D03*
%TD*%
D11*
%TO.C,D8*%
X239509249Y-77929950D03*
X239509249Y-74379950D03*
%TD*%
%TO.C,D45*%
X310759249Y-115954950D03*
X310759249Y-112404950D03*
%TD*%
%TO.C,D65*%
X41274999Y-153979950D03*
X41274999Y-150429950D03*
%TD*%
%TO.C,D70*%
X162461999Y-153979950D03*
X162461999Y-150429950D03*
%TD*%
D10*
%TO.C,SW16*%
X26093750Y-90195000D03*
X39020750Y-87655000D03*
%TD*%
D11*
%TO.C,D24*%
X230009249Y-96929950D03*
X230009249Y-93379950D03*
%TD*%
D10*
%TO.C,SW65*%
X26093750Y-147245000D03*
X39020750Y-144705000D03*
%TD*%
%TO.C,SW58*%
X248078000Y-128245000D03*
X261005000Y-125705000D03*
%TD*%
D11*
%TO.C,D26*%
X268009249Y-96929950D03*
X268009249Y-93379950D03*
%TD*%
%TO.C,D6*%
X162600000Y-76175000D03*
X162600000Y-72625000D03*
%TD*%
%TO.C,D14*%
X363034249Y-77929950D03*
X363034249Y-74379950D03*
%TD*%
D10*
%TO.C,SW57*%
X229078000Y-128245000D03*
X242005000Y-125705000D03*
%TD*%
D11*
%TO.C,D12*%
X315509249Y-77929950D03*
X315509249Y-74379950D03*
%TD*%
D10*
%TO.C,SW59*%
X267078000Y-128245000D03*
X280005000Y-125705000D03*
%TD*%
%TO.C,SW64*%
X376328000Y-128245000D03*
X389255000Y-125705000D03*
%TD*%
%TO.C,SW14*%
X347853000Y-71195000D03*
X360780000Y-68655000D03*
%TD*%
%TO.C,SW63*%
X357328000Y-128245000D03*
X370255000Y-125705000D03*
%TD*%
D11*
%TO.C,D36*%
X117361999Y-115954950D03*
X117361999Y-112404950D03*
%TD*%
%TO.C,D29*%
X325009249Y-96929950D03*
X325009249Y-93379950D03*
%TD*%
D10*
%TO.C,SW38*%
X140180750Y-109220000D03*
X153107750Y-106680000D03*
%TD*%
%TO.C,SW69*%
X111680750Y-147245000D03*
X124607750Y-144705000D03*
%TD*%
D11*
%TO.C,D69*%
X126861999Y-153979950D03*
X126861999Y-150429950D03*
%TD*%
D10*
%TO.C,SW60*%
X286078000Y-128245000D03*
X299005000Y-125705000D03*
%TD*%
%TO.C,SW9*%
X257472000Y-76205000D03*
X244545000Y-78745000D03*
%TD*%
%TO.C,SW51*%
X80780750Y-128245000D03*
X93707750Y-125705000D03*
%TD*%
D11*
%TO.C,D20*%
X131611999Y-96929950D03*
X131611999Y-93379950D03*
%TD*%
D10*
%TO.C,SW12*%
X300328000Y-71195000D03*
X313255000Y-68655000D03*
%TD*%
%TO.C,SW49*%
X26093750Y-128245000D03*
X39020750Y-125705000D03*
%TD*%
D11*
%TO.C,D47*%
X360659249Y-115954950D03*
X360659249Y-112404950D03*
%TD*%
D10*
%TO.C,SW27*%
X271828000Y-90195000D03*
X284755000Y-87655000D03*
%TD*%
%TO.C,SW56*%
X200607750Y-125705000D03*
X187680750Y-128245000D03*
%TD*%
D11*
%TO.C,D62*%
X347550000Y-132225000D03*
X347550000Y-128675000D03*
%TD*%
D10*
%TO.C,SW7*%
X195857750Y-68655000D03*
X182930750Y-71195000D03*
%TD*%
D11*
%TO.C,D48*%
X391509249Y-115954950D03*
X391509249Y-112404950D03*
%TD*%
D10*
%TO.C,SW39*%
X159180750Y-109220000D03*
X172107750Y-106680000D03*
%TD*%
%TO.C,SW4*%
X125930750Y-71195000D03*
X138857750Y-68655000D03*
%TD*%
D11*
%TO.C,D22*%
X169611999Y-96929950D03*
X169611999Y-93379950D03*
%TD*%
%TO.C,D16*%
X41274999Y-96929950D03*
X41274999Y-93379950D03*
%TD*%
D10*
%TO.C,SW47*%
X345478000Y-109220000D03*
X358405000Y-106680000D03*
%TD*%
%TO.C,SW17*%
X45093750Y-90195000D03*
X58020750Y-87655000D03*
%TD*%
D11*
%TO.C,D49*%
X41274999Y-134979950D03*
X41274999Y-131429950D03*
%TD*%
%TO.C,D25*%
X249009249Y-96929950D03*
X249009249Y-93379950D03*
%TD*%
%TO.C,D53*%
X145861999Y-134979950D03*
X145861999Y-131429950D03*
%TD*%
%TO.C,D28*%
X306009249Y-96929950D03*
X306009249Y-93379950D03*
%TD*%
%TO.C,D7*%
X181255000Y-80530000D03*
X181255000Y-76980000D03*
%TD*%
%TO.C,D61*%
X320259249Y-134979950D03*
X320259249Y-131429950D03*
%TD*%
%TO.C,D37*%
X136361999Y-115954950D03*
X136361999Y-112404950D03*
%TD*%
D10*
%TO.C,SW19*%
X97430750Y-90195000D03*
X110357750Y-87655000D03*
%TD*%
D11*
%TO.C,D77*%
X353509249Y-153979950D03*
X353509249Y-150429950D03*
%TD*%
%TO.C,D10*%
X261000000Y-78375000D03*
X261000000Y-74825000D03*
%TD*%
%TO.C,D57*%
X244259249Y-134979950D03*
X244259249Y-131429950D03*
%TD*%
D10*
%TO.C,SW36*%
X102180750Y-109220000D03*
X115107750Y-106680000D03*
%TD*%
%TO.C,SW55*%
X168680750Y-128245000D03*
X181607750Y-125705000D03*
%TD*%
D11*
%TO.C,D75*%
X315509249Y-153979950D03*
X315509249Y-150429950D03*
%TD*%
%TO.C,D56*%
X186040000Y-136795000D03*
X186040000Y-133245000D03*
%TD*%
D10*
%TO.C,SW62*%
X331228000Y-128245000D03*
X344155000Y-125705000D03*
%TD*%
%TO.C,SW31*%
X352603000Y-90195000D03*
X365530000Y-87655000D03*
%TD*%
D11*
%TO.C,D60*%
X301259249Y-134979950D03*
X301259249Y-131429950D03*
%TD*%
%TO.C,D5*%
X143637000Y-76321000D03*
X143637000Y-72771000D03*
%TD*%
D10*
%TO.C,SW61*%
X305078000Y-128245000D03*
X318005000Y-125705000D03*
%TD*%
D11*
%TO.C,D35*%
X91211999Y-115954950D03*
X91211999Y-112404950D03*
%TD*%
D10*
%TO.C,SW48*%
X376328000Y-109220000D03*
X389255000Y-106680000D03*
%TD*%
D11*
%TO.C,D21*%
X150611999Y-96929950D03*
X150611999Y-93379950D03*
%TD*%
%TO.C,D13*%
X334509249Y-77929950D03*
X334509249Y-74379950D03*
%TD*%
D10*
%TO.C,SW52*%
X111680750Y-128245000D03*
X124607750Y-125705000D03*
%TD*%
D11*
%TO.C,D18*%
X88836999Y-96929950D03*
X88836999Y-93379950D03*
%TD*%
D10*
%TO.C,SW54*%
X149680750Y-128245000D03*
X162607750Y-125705000D03*
%TD*%
%TO.C,SW33*%
X26093750Y-109220000D03*
X39020750Y-106680000D03*
%TD*%
D11*
%TO.C,D27*%
X287009249Y-96929950D03*
X287009249Y-93379950D03*
%TD*%
D10*
%TO.C,SW37*%
X121180750Y-109220000D03*
X134107750Y-106680000D03*
%TD*%
%TO.C,SW1*%
X68930750Y-71195000D03*
X81857750Y-68655000D03*
%TD*%
D11*
%TO.C,D55*%
X183861999Y-134979950D03*
X183861999Y-131429950D03*
%TD*%
D10*
%TO.C,SW30*%
X328828000Y-90195000D03*
X341755000Y-87655000D03*
%TD*%
D11*
%TO.C,D54*%
X164861999Y-134979950D03*
X164861999Y-131429950D03*
%TD*%
D10*
%TO.C,SW32*%
X376328000Y-90195000D03*
X389255000Y-87655000D03*
%TD*%
%TO.C,SW71*%
X195857750Y-144705000D03*
X182930750Y-147245000D03*
%TD*%
%TO.C,SW11*%
X281328000Y-71195000D03*
X294255000Y-68655000D03*
%TD*%
%TO.C,SW21*%
X135430750Y-90195000D03*
X148357750Y-87655000D03*
%TD*%
D11*
%TO.C,D2*%
X103111999Y-77929950D03*
X103111999Y-74379950D03*
%TD*%
D10*
%TO.C,SW25*%
X233828000Y-90195000D03*
X246755000Y-87655000D03*
%TD*%
D11*
%TO.C,D79*%
X391509249Y-153979950D03*
X391509249Y-150429950D03*
%TD*%
D10*
%TO.C,SW40*%
X191107750Y-106680000D03*
X178180750Y-109220000D03*
%TD*%
%TO.C,SW72*%
X224328000Y-147245000D03*
X237255000Y-144705000D03*
%TD*%
D11*
%TO.C,D78*%
X372509249Y-153979950D03*
X372509249Y-150429950D03*
%TD*%
D10*
%TO.C,SW20*%
X116430750Y-90195000D03*
X129357750Y-87655000D03*
%TD*%
%TO.C,SW35*%
X76030750Y-109220000D03*
X88957750Y-106680000D03*
%TD*%
%TO.C,SW34*%
X45093750Y-109220000D03*
X58020750Y-106680000D03*
%TD*%
D11*
%TO.C,D34*%
X60274999Y-115954950D03*
X60274999Y-112404950D03*
%TD*%
%TO.C,D71*%
X179695000Y-154080000D03*
X179695000Y-150530000D03*
%TD*%
D10*
%TO.C,SW44*%
X276578000Y-109220000D03*
X289505000Y-106680000D03*
%TD*%
D11*
%TO.C,D58*%
X263259249Y-134979950D03*
X263259249Y-131429950D03*
%TD*%
D10*
%TO.C,SW42*%
X238578000Y-109220000D03*
X251505000Y-106680000D03*
%TD*%
D11*
%TO.C,D31*%
X367784249Y-96929950D03*
X367784249Y-93379950D03*
%TD*%
D10*
%TO.C,SW3*%
X106930750Y-71195000D03*
X119857750Y-68655000D03*
%TD*%
D11*
%TO.C,D68*%
X107861999Y-153979950D03*
X107861999Y-150429950D03*
%TD*%
%TO.C,D19*%
X112611999Y-96929950D03*
X112611999Y-93379950D03*
%TD*%
%TO.C,D17*%
X60274999Y-96929950D03*
X60274999Y-93379950D03*
%TD*%
%TO.C,D72*%
X239509249Y-153979950D03*
X239509249Y-150429950D03*
%TD*%
D10*
%TO.C,SW45*%
X295578000Y-109220000D03*
X308505000Y-106680000D03*
%TD*%
D11*
%TO.C,D30*%
X344009249Y-96929950D03*
X344009249Y-93379950D03*
%TD*%
%TO.C,D63*%
X372509249Y-134979950D03*
X372509249Y-131429950D03*
%TD*%
D10*
%TO.C,SW46*%
X314578000Y-109220000D03*
X327505000Y-106680000D03*
%TD*%
D11*
%TO.C,D40*%
X176525000Y-118525000D03*
X176525000Y-114975000D03*
%TD*%
D12*
%TO.C,LED77*%
X233363000Y-134847999D03*
X233363000Y-136248000D03*
X238963000Y-136248001D03*
X238963000Y-134848000D03*
%TD*%
%TO.C,LED3*%
X30378750Y-134847999D03*
X30378750Y-136248000D03*
X35978750Y-136248001D03*
X35978750Y-134848000D03*
%TD*%
%TO.C,LED27*%
X144465750Y-115822999D03*
X144465750Y-117223000D03*
X150065750Y-117223001D03*
X150065750Y-115823000D03*
%TD*%
%TO.C,LED70*%
X252363000Y-134847999D03*
X252363000Y-136248000D03*
X257963000Y-136248001D03*
X257963000Y-134848000D03*
%TD*%
%TO.C,LED7*%
X49378750Y-115822999D03*
X49378750Y-117223000D03*
X54978750Y-117223001D03*
X54978750Y-115823000D03*
%TD*%
%TO.C,LED32*%
X172965750Y-134847999D03*
X172965750Y-136248000D03*
X178565750Y-136248001D03*
X178565750Y-134848000D03*
%TD*%
%TO.C,LED38*%
X187215750Y-77797999D03*
X187215750Y-79198000D03*
X192815750Y-79198001D03*
X192815750Y-77798000D03*
%TD*%
%TO.C,LED13*%
X75565750Y-153847999D03*
X75565750Y-155248000D03*
X81165750Y-155248001D03*
X81165750Y-153848000D03*
%TD*%
%TO.C,LED30*%
X158715750Y-96797999D03*
X158715750Y-98198000D03*
X164315750Y-98198001D03*
X164315750Y-96798000D03*
%TD*%
%TO.C,LED28*%
X130215750Y-77797999D03*
X130215750Y-79198000D03*
X135815750Y-79198001D03*
X135815750Y-77798000D03*
%TD*%
%TO.C,LED71*%
X257138000Y-153847999D03*
X257138000Y-155248000D03*
X262738000Y-155248001D03*
X262738000Y-153848000D03*
%TD*%
%TO.C,LED35*%
X177715750Y-96797999D03*
X177715750Y-98198000D03*
X183315750Y-98198001D03*
X183315750Y-96798000D03*
%TD*%
%TO.C,LED29*%
X154816250Y-69672001D03*
X154816250Y-68272000D03*
X149216250Y-68271999D03*
X149216250Y-69672000D03*
%TD*%
%TO.C,LED58*%
X285613000Y-77797999D03*
X285613000Y-79198000D03*
X291213000Y-79198001D03*
X291213000Y-77798000D03*
%TD*%
%TO.C,LED11*%
X80315750Y-115822999D03*
X80315750Y-117223000D03*
X85915750Y-117223001D03*
X85915750Y-115823000D03*
%TD*%
%TO.C,LED52*%
X323613000Y-153847999D03*
X323613000Y-155248000D03*
X329213000Y-155248001D03*
X329213000Y-153848000D03*
%TD*%
%TO.C,LED60*%
X299863000Y-115822999D03*
X299863000Y-117223000D03*
X305463000Y-117223001D03*
X305463000Y-115823000D03*
%TD*%
%TO.C,LED76*%
X223863000Y-115822999D03*
X223863000Y-117223000D03*
X229463000Y-117223001D03*
X229463000Y-115823000D03*
%TD*%
%TO.C,LED46*%
X356888000Y-96797999D03*
X356888000Y-98198000D03*
X362488000Y-98198001D03*
X362488000Y-96798000D03*
%TD*%
%TO.C,LED37*%
X173816250Y-69672001D03*
X173816250Y-68272000D03*
X168216250Y-68271999D03*
X168216250Y-69672000D03*
%TD*%
%TO.C,LED68*%
X257113000Y-96797999D03*
X257113000Y-98198000D03*
X262713000Y-98198001D03*
X262713000Y-96798000D03*
%TD*%
%TO.C,LED45*%
X349763000Y-115822999D03*
X349763000Y-117223000D03*
X355363000Y-117223001D03*
X355363000Y-115823000D03*
%TD*%
%TO.C,LED50*%
X335513000Y-134847999D03*
X335513000Y-136248000D03*
X341113000Y-136248001D03*
X341113000Y-134848000D03*
%TD*%
%TO.C,LED14*%
X96965750Y-153847999D03*
X96965750Y-155248000D03*
X102565750Y-155248001D03*
X102565750Y-153848000D03*
%TD*%
%TO.C,LED1*%
X30378750Y-96797999D03*
X30378750Y-98198000D03*
X35978750Y-98198001D03*
X35978750Y-96798000D03*
%TD*%
%TO.C,LED62*%
X285613000Y-153847999D03*
X285613000Y-155248000D03*
X291213000Y-155248001D03*
X291213000Y-153848000D03*
%TD*%
%TO.C,LED69*%
X261863000Y-115822999D03*
X261863000Y-117223000D03*
X267463000Y-117223001D03*
X267463000Y-115823000D03*
%TD*%
%TO.C,LED64*%
X280863000Y-115822999D03*
X280863000Y-117223000D03*
X286463000Y-117223001D03*
X286463000Y-115823000D03*
%TD*%
%TO.C,LED18*%
X101715750Y-96797999D03*
X101715750Y-98198000D03*
X107315750Y-98198001D03*
X107315750Y-96798000D03*
%TD*%
%TO.C,LED74*%
X228613000Y-77797999D03*
X228613000Y-79198000D03*
X234213000Y-79198001D03*
X234213000Y-77798000D03*
%TD*%
%TO.C,LED24*%
X151565750Y-153847999D03*
X151565750Y-155248000D03*
X157165750Y-155248001D03*
X157165750Y-153848000D03*
%TD*%
%TO.C,LED63*%
X271363000Y-134847999D03*
X271363000Y-136248000D03*
X276963000Y-136248001D03*
X276963000Y-134848000D03*
%TD*%
%TO.C,LED61*%
X290363000Y-134847999D03*
X290363000Y-136248000D03*
X295963000Y-136248001D03*
X295963000Y-134848000D03*
%TD*%
%TO.C,LED2*%
X30378750Y-115822999D03*
X30378750Y-117223000D03*
X35978750Y-117223001D03*
X35978750Y-115823000D03*
%TD*%
%TO.C,LED20*%
X111215750Y-77797999D03*
X111215750Y-79198000D03*
X116815750Y-79198001D03*
X116815750Y-77798000D03*
%TD*%
%TO.C,LED19*%
X92215750Y-77797999D03*
X92215750Y-79198000D03*
X97815750Y-79198001D03*
X97815750Y-77798000D03*
%TD*%
%TO.C,LED41*%
X380613000Y-134847999D03*
X380613000Y-136248000D03*
X386213000Y-136248001D03*
X386213000Y-134848000D03*
%TD*%
%TO.C,LED33*%
X187215750Y-153847999D03*
X187215750Y-155248000D03*
X192815750Y-155248001D03*
X192815750Y-153848000D03*
%TD*%
%TO.C,LED59*%
X295113000Y-96797999D03*
X295113000Y-98198000D03*
X300713000Y-98198001D03*
X300713000Y-96798000D03*
%TD*%
%TO.C,LED72*%
X242863000Y-115822999D03*
X242863000Y-117223000D03*
X248463000Y-117223001D03*
X248463000Y-115823000D03*
%TD*%
%TO.C,LED57*%
X304613000Y-77797999D03*
X304613000Y-79198000D03*
X310213000Y-79198001D03*
X310213000Y-77798000D03*
%TD*%
%TO.C,LED47*%
X352138000Y-77797999D03*
X352138000Y-79198000D03*
X357738000Y-79198001D03*
X357738000Y-77798000D03*
%TD*%
%TO.C,LED48*%
X323613000Y-77797999D03*
X323613000Y-79198000D03*
X329213000Y-79198001D03*
X329213000Y-77798000D03*
%TD*%
%TO.C,LED22*%
X125465750Y-115822999D03*
X125465750Y-117223000D03*
X131065750Y-117223001D03*
X131065750Y-115823000D03*
%TD*%
D11*
%TO.C,D66*%
X60274999Y-153979950D03*
X60274999Y-150429950D03*
%TD*%
D12*
%TO.C,LED73*%
X238113000Y-96797999D03*
X238113000Y-98198000D03*
X243713000Y-98198001D03*
X243713000Y-96798000D03*
%TD*%
%TO.C,LED23*%
X134965750Y-134847999D03*
X134965750Y-136248000D03*
X140565750Y-136248001D03*
X140565750Y-134848000D03*
%TD*%
%TO.C,LED43*%
X361613000Y-153847999D03*
X361613000Y-155248000D03*
X367213000Y-155248001D03*
X367213000Y-153848000D03*
%TD*%
%TO.C,LED4*%
X30378750Y-153847999D03*
X30378750Y-155248000D03*
X35978750Y-155248001D03*
X35978750Y-153848000D03*
%TD*%
%TO.C,LED21*%
X120715750Y-96797999D03*
X120715750Y-98198000D03*
X126315750Y-98198001D03*
X126315750Y-96798000D03*
%TD*%
%TO.C,LED8*%
X49378750Y-96797999D03*
X49378750Y-98198000D03*
X54978750Y-98198001D03*
X54978750Y-96798000D03*
%TD*%
%TO.C,LED49*%
X333113000Y-96797999D03*
X333113000Y-98198000D03*
X338713000Y-98198001D03*
X338713000Y-96798000D03*
%TD*%
%TO.C,LED15*%
X115965750Y-153847999D03*
X115965750Y-155248000D03*
X121565750Y-155248001D03*
X121565750Y-153848000D03*
%TD*%
%TO.C,LED78*%
X228613000Y-153847999D03*
X228613000Y-155248000D03*
X234213000Y-155248001D03*
X234213000Y-153848000D03*
%TD*%
%TO.C,LED39*%
X380613000Y-96797999D03*
X380613000Y-98198000D03*
X386213000Y-98198001D03*
X386213000Y-96798000D03*
%TD*%
%TO.C,LED44*%
X361613000Y-134847999D03*
X361613000Y-136248000D03*
X367213000Y-136248001D03*
X367213000Y-134848000D03*
%TD*%
%TO.C,LED75*%
X219113000Y-96797999D03*
X219113000Y-98198000D03*
X224713000Y-98198001D03*
X224713000Y-96798000D03*
%TD*%
%TO.C,LED5*%
X49378750Y-153847999D03*
X49378750Y-155248000D03*
X54978750Y-155248001D03*
X54978750Y-153848000D03*
%TD*%
%TO.C,LED51*%
X342613000Y-153847999D03*
X342613000Y-155248000D03*
X348213000Y-155248001D03*
X348213000Y-153848000D03*
%TD*%
%TO.C,LED6*%
X49378750Y-134847999D03*
X49378750Y-136248000D03*
X54978750Y-136248001D03*
X54978750Y-134848000D03*
%TD*%
%TO.C,LED42*%
X380613000Y-153847999D03*
X380613000Y-155248000D03*
X386213000Y-155248001D03*
X386213000Y-153848000D03*
%TD*%
%TO.C,LED34*%
X191965750Y-134847999D03*
X191965750Y-136248000D03*
X197565750Y-136248001D03*
X197565750Y-134848000D03*
%TD*%
%TO.C,LED10*%
X77940750Y-96797999D03*
X77940750Y-98198000D03*
X83540750Y-98198001D03*
X83540750Y-96798000D03*
%TD*%
%TO.C,LED17*%
X106465750Y-115822999D03*
X106465750Y-117223000D03*
X112065750Y-117223001D03*
X112065750Y-115823000D03*
%TD*%
%TO.C,LED56*%
X318863000Y-115822999D03*
X318863000Y-117223000D03*
X324463000Y-117223001D03*
X324463000Y-115823000D03*
%TD*%
%TO.C,LED67*%
X253187000Y-69602001D03*
X253187000Y-68202000D03*
X247587000Y-68201999D03*
X247587000Y-69602000D03*
%TD*%
%TO.C,LED31*%
X163465750Y-115822999D03*
X163465750Y-117223000D03*
X169065750Y-117223001D03*
X169065750Y-115823000D03*
%TD*%
%TO.C,LED53*%
X304613000Y-153847999D03*
X304613000Y-155248000D03*
X310213000Y-155248001D03*
X310213000Y-153848000D03*
%TD*%
%TO.C,LED36*%
X182465750Y-115822999D03*
X182465750Y-117223000D03*
X188065750Y-117223001D03*
X188065750Y-115823000D03*
%TD*%
%TO.C,LED65*%
X272187000Y-69602001D03*
X272187000Y-68202000D03*
X266587000Y-68201999D03*
X266587000Y-69602000D03*
%TD*%
%TO.C,LED9*%
X73215750Y-77797999D03*
X73215750Y-79198000D03*
X78815750Y-79198001D03*
X78815750Y-77798000D03*
%TD*%
%TO.C,LED66*%
X276113000Y-96797999D03*
X276113000Y-98198000D03*
X281713000Y-98198001D03*
X281713000Y-96798000D03*
%TD*%
%TO.C,LED26*%
X139715750Y-96797999D03*
X139715750Y-98198000D03*
X145315750Y-98198001D03*
X145315750Y-96798000D03*
%TD*%
%TO.C,LED54*%
X309363000Y-134847999D03*
X309363000Y-136248000D03*
X314963000Y-136248001D03*
X314963000Y-134848000D03*
%TD*%
%TO.C,LED55*%
X314113000Y-96797999D03*
X314113000Y-98198000D03*
X319713000Y-98198001D03*
X319713000Y-96798000D03*
%TD*%
%TO.C,LED12*%
X85065750Y-134847999D03*
X85065750Y-136248000D03*
X90665750Y-136248001D03*
X90665750Y-134848000D03*
%TD*%
%TO.C,LED40*%
X380613000Y-115822999D03*
X380613000Y-117223000D03*
X386213000Y-117223001D03*
X386213000Y-115823000D03*
%TD*%
%TO.C,LED25*%
X153965750Y-134847999D03*
X153965750Y-136248000D03*
X159565750Y-136248001D03*
X159565750Y-134848000D03*
%TD*%
%TO.C,LED16*%
X115965750Y-134847999D03*
X115965750Y-136248000D03*
X121565750Y-136248001D03*
X121565750Y-134848000D03*
%TD*%
D10*
%TO.C,SW74*%
X281328000Y-147245000D03*
X294255000Y-144705000D03*
%TD*%
M02*
