%TF.GenerationSoftware,KiCad,Pcbnew,8.0.8*%
%TF.CreationDate,2025-04-10T14:10:57+09:00*%
%TF.ProjectId,sswkbd_wiring,7373776b-6264-45f7-9769-72696e672e6b,rev?*%
%TF.SameCoordinates,Original*%
%TF.FileFunction,Profile,NP*%
%FSLAX46Y46*%
G04 Gerber Fmt 4.6, Leading zero omitted, Abs format (unit mm)*
G04 Created by KiCad (PCBNEW 8.0.8) date 2025-04-10 14:10:57*
%MOMM*%
%LPD*%
G01*
G04 APERTURE LIST*
%TA.AperFunction,Profile*%
%ADD10C,0.050000*%
%TD*%
%TA.AperFunction,Profile*%
%ADD11C,0.100000*%
%TD*%
G04 APERTURE END LIST*
D10*
X196922000Y-64185000D02*
X196922000Y-80735000D01*
X266150000Y-64300000D02*
X392900000Y-64300000D01*
X266150000Y-63300000D02*
X266150000Y-64300000D01*
X254150000Y-63300000D02*
X266150000Y-63300000D01*
X254150000Y-64300000D02*
X254150000Y-63300000D01*
X224350000Y-64300000D02*
X254150000Y-64300000D01*
X67622000Y-64185000D02*
X155372000Y-64185000D01*
X67622000Y-63185000D02*
X67622000Y-64185000D01*
X55622000Y-63185000D02*
X67622000Y-63185000D01*
X55622000Y-64185000D02*
X55622000Y-63185000D01*
X23622000Y-64185000D02*
X55622000Y-64185000D01*
X192171793Y-104235000D02*
X187421556Y-104235000D01*
X224400000Y-142800000D02*
X224400000Y-159300000D01*
X224350000Y-64300000D02*
X224350000Y-85350000D01*
X214850000Y-85350000D02*
X214850000Y-99850000D01*
X201672130Y-123235000D02*
X192171793Y-123235000D01*
X196872000Y-137735000D02*
X201672130Y-137735000D01*
X187421556Y-80735000D02*
X196921425Y-80735000D01*
X229100000Y-118850000D02*
X229100000Y-142800000D01*
X224400000Y-159300000D02*
X392900000Y-159300000D01*
X196872000Y-159185000D02*
X196872000Y-137735000D01*
X219600000Y-118850000D02*
X229100000Y-118850000D01*
X23622000Y-64185000D02*
X23622000Y-159185000D01*
X229100000Y-142800000D02*
X224400000Y-142800000D01*
X214850000Y-99850000D02*
X219600000Y-99850000D01*
X187421556Y-104235000D02*
X187421556Y-80735000D01*
X201672130Y-137735000D02*
X201672130Y-123235000D01*
X192171793Y-123235000D02*
X192171793Y-104235000D01*
X224350000Y-85350000D02*
X214850000Y-85350000D01*
X23622000Y-159185000D02*
X196872000Y-159185000D01*
X392900000Y-159300000D02*
X392900000Y-64300000D01*
X219600000Y-99850000D02*
X219600000Y-118850000D01*
X167372000Y-64185000D02*
X167372000Y-63185000D01*
X167372000Y-63185000D02*
X155372000Y-63185000D01*
X155372000Y-63185000D02*
X155372000Y-64185000D01*
X196922000Y-64185000D02*
X167372000Y-64185000D01*
D11*
%TO.C,LED77*%
X234363000Y-133998000D02*
X237963000Y-133998000D01*
X234363000Y-137098000D02*
X234363000Y-133998000D01*
X237963000Y-133998000D02*
X237963000Y-137098000D01*
X237963000Y-137098000D02*
X234363000Y-137098000D01*
%TO.C,LED3*%
X31378750Y-133998000D02*
X34978750Y-133998000D01*
X31378750Y-137098000D02*
X31378750Y-133998000D01*
X34978750Y-133998000D02*
X34978750Y-137098000D01*
X34978750Y-137098000D02*
X31378750Y-137098000D01*
%TO.C,LED27*%
X145465750Y-114973000D02*
X149065750Y-114973000D01*
X145465750Y-118073000D02*
X145465750Y-114973000D01*
X149065750Y-114973000D02*
X149065750Y-118073000D01*
X149065750Y-118073000D02*
X145465750Y-118073000D01*
%TO.C,LED70*%
X253363000Y-133998000D02*
X256963000Y-133998000D01*
X253363000Y-137098000D02*
X253363000Y-133998000D01*
X256963000Y-133998000D02*
X256963000Y-137098000D01*
X256963000Y-137098000D02*
X253363000Y-137098000D01*
%TO.C,LED7*%
X50378750Y-114973000D02*
X53978750Y-114973000D01*
X50378750Y-118073000D02*
X50378750Y-114973000D01*
X53978750Y-114973000D02*
X53978750Y-118073000D01*
X53978750Y-118073000D02*
X50378750Y-118073000D01*
%TO.C,LED32*%
X173965750Y-133998000D02*
X177565750Y-133998000D01*
X173965750Y-137098000D02*
X173965750Y-133998000D01*
X177565750Y-133998000D02*
X177565750Y-137098000D01*
X177565750Y-137098000D02*
X173965750Y-137098000D01*
%TO.C,LED38*%
X188215750Y-76948000D02*
X191815750Y-76948000D01*
X188215750Y-80048000D02*
X188215750Y-76948000D01*
X191815750Y-76948000D02*
X191815750Y-80048000D01*
X191815750Y-80048000D02*
X188215750Y-80048000D01*
%TO.C,LED13*%
X76565750Y-152998000D02*
X80165750Y-152998000D01*
X76565750Y-156098000D02*
X76565750Y-152998000D01*
X80165750Y-152998000D02*
X80165750Y-156098000D01*
X80165750Y-156098000D02*
X76565750Y-156098000D01*
%TO.C,LED30*%
X159715750Y-95948000D02*
X163315750Y-95948000D01*
X159715750Y-99048000D02*
X159715750Y-95948000D01*
X163315750Y-95948000D02*
X163315750Y-99048000D01*
X163315750Y-99048000D02*
X159715750Y-99048000D01*
%TO.C,LED28*%
X131215750Y-76948000D02*
X134815750Y-76948000D01*
X131215750Y-80048000D02*
X131215750Y-76948000D01*
X134815750Y-76948000D02*
X134815750Y-80048000D01*
X134815750Y-80048000D02*
X131215750Y-80048000D01*
%TO.C,LED71*%
X258138000Y-152998000D02*
X261738000Y-152998000D01*
X258138000Y-156098000D02*
X258138000Y-152998000D01*
X261738000Y-152998000D02*
X261738000Y-156098000D01*
X261738000Y-156098000D02*
X258138000Y-156098000D01*
%TO.C,LED35*%
X178715750Y-95948000D02*
X182315750Y-95948000D01*
X178715750Y-99048000D02*
X178715750Y-95948000D01*
X182315750Y-95948000D02*
X182315750Y-99048000D01*
X182315750Y-99048000D02*
X178715750Y-99048000D01*
%TO.C,LED29*%
X150216250Y-67422000D02*
X153816250Y-67422000D01*
X150216250Y-70522000D02*
X150216250Y-67422000D01*
X153816250Y-67422000D02*
X153816250Y-70522000D01*
X153816250Y-70522000D02*
X150216250Y-70522000D01*
%TO.C,LED58*%
X286613000Y-76948000D02*
X290213000Y-76948000D01*
X286613000Y-80048000D02*
X286613000Y-76948000D01*
X290213000Y-76948000D02*
X290213000Y-80048000D01*
X290213000Y-80048000D02*
X286613000Y-80048000D01*
%TO.C,LED11*%
X81315750Y-114973000D02*
X84915750Y-114973000D01*
X81315750Y-118073000D02*
X81315750Y-114973000D01*
X84915750Y-114973000D02*
X84915750Y-118073000D01*
X84915750Y-118073000D02*
X81315750Y-118073000D01*
%TO.C,LED52*%
X324613000Y-152998000D02*
X328213000Y-152998000D01*
X324613000Y-156098000D02*
X324613000Y-152998000D01*
X328213000Y-152998000D02*
X328213000Y-156098000D01*
X328213000Y-156098000D02*
X324613000Y-156098000D01*
%TO.C,LED60*%
X300863000Y-114973000D02*
X304463000Y-114973000D01*
X300863000Y-118073000D02*
X300863000Y-114973000D01*
X304463000Y-114973000D02*
X304463000Y-118073000D01*
X304463000Y-118073000D02*
X300863000Y-118073000D01*
%TO.C,LED76*%
X224863000Y-114973000D02*
X228463000Y-114973000D01*
X224863000Y-118073000D02*
X224863000Y-114973000D01*
X228463000Y-114973000D02*
X228463000Y-118073000D01*
X228463000Y-118073000D02*
X224863000Y-118073000D01*
%TO.C,LED46*%
X357888000Y-95948000D02*
X361488000Y-95948000D01*
X357888000Y-99048000D02*
X357888000Y-95948000D01*
X361488000Y-95948000D02*
X361488000Y-99048000D01*
X361488000Y-99048000D02*
X357888000Y-99048000D01*
%TO.C,LED37*%
X169216250Y-67422000D02*
X172816250Y-67422000D01*
X169216250Y-70522000D02*
X169216250Y-67422000D01*
X172816250Y-67422000D02*
X172816250Y-70522000D01*
X172816250Y-70522000D02*
X169216250Y-70522000D01*
%TO.C,LED68*%
X258113000Y-95948000D02*
X261713000Y-95948000D01*
X258113000Y-99048000D02*
X258113000Y-95948000D01*
X261713000Y-95948000D02*
X261713000Y-99048000D01*
X261713000Y-99048000D02*
X258113000Y-99048000D01*
%TO.C,LED45*%
X350763000Y-114973000D02*
X354363000Y-114973000D01*
X350763000Y-118073000D02*
X350763000Y-114973000D01*
X354363000Y-114973000D02*
X354363000Y-118073000D01*
X354363000Y-118073000D02*
X350763000Y-118073000D01*
%TO.C,LED50*%
X336513000Y-133998000D02*
X340113000Y-133998000D01*
X336513000Y-137098000D02*
X336513000Y-133998000D01*
X340113000Y-133998000D02*
X340113000Y-137098000D01*
X340113000Y-137098000D02*
X336513000Y-137098000D01*
%TO.C,LED14*%
X97965750Y-152998000D02*
X101565750Y-152998000D01*
X97965750Y-156098000D02*
X97965750Y-152998000D01*
X101565750Y-152998000D02*
X101565750Y-156098000D01*
X101565750Y-156098000D02*
X97965750Y-156098000D01*
%TO.C,LED1*%
X31378750Y-95948000D02*
X34978750Y-95948000D01*
X31378750Y-99048000D02*
X31378750Y-95948000D01*
X34978750Y-95948000D02*
X34978750Y-99048000D01*
X34978750Y-99048000D02*
X31378750Y-99048000D01*
%TO.C,LED62*%
X286613000Y-152998000D02*
X290213000Y-152998000D01*
X286613000Y-156098000D02*
X286613000Y-152998000D01*
X290213000Y-152998000D02*
X290213000Y-156098000D01*
X290213000Y-156098000D02*
X286613000Y-156098000D01*
%TO.C,LED69*%
X262863000Y-114973000D02*
X266463000Y-114973000D01*
X262863000Y-118073000D02*
X262863000Y-114973000D01*
X266463000Y-114973000D02*
X266463000Y-118073000D01*
X266463000Y-118073000D02*
X262863000Y-118073000D01*
%TO.C,LED64*%
X281863000Y-114973000D02*
X285463000Y-114973000D01*
X281863000Y-118073000D02*
X281863000Y-114973000D01*
X285463000Y-114973000D02*
X285463000Y-118073000D01*
X285463000Y-118073000D02*
X281863000Y-118073000D01*
%TO.C,LED18*%
X102715750Y-95948000D02*
X106315750Y-95948000D01*
X102715750Y-99048000D02*
X102715750Y-95948000D01*
X106315750Y-95948000D02*
X106315750Y-99048000D01*
X106315750Y-99048000D02*
X102715750Y-99048000D01*
%TO.C,LED74*%
X229613000Y-76948000D02*
X233213000Y-76948000D01*
X229613000Y-80048000D02*
X229613000Y-76948000D01*
X233213000Y-76948000D02*
X233213000Y-80048000D01*
X233213000Y-80048000D02*
X229613000Y-80048000D01*
%TO.C,LED24*%
X152565750Y-152998000D02*
X156165750Y-152998000D01*
X152565750Y-156098000D02*
X152565750Y-152998000D01*
X156165750Y-152998000D02*
X156165750Y-156098000D01*
X156165750Y-156098000D02*
X152565750Y-156098000D01*
%TO.C,LED63*%
X272363000Y-133998000D02*
X275963000Y-133998000D01*
X272363000Y-137098000D02*
X272363000Y-133998000D01*
X275963000Y-133998000D02*
X275963000Y-137098000D01*
X275963000Y-137098000D02*
X272363000Y-137098000D01*
%TO.C,LED61*%
X291363000Y-133998000D02*
X294963000Y-133998000D01*
X291363000Y-137098000D02*
X291363000Y-133998000D01*
X294963000Y-133998000D02*
X294963000Y-137098000D01*
X294963000Y-137098000D02*
X291363000Y-137098000D01*
%TO.C,LED2*%
X31378750Y-114973000D02*
X34978750Y-114973000D01*
X31378750Y-118073000D02*
X31378750Y-114973000D01*
X34978750Y-114973000D02*
X34978750Y-118073000D01*
X34978750Y-118073000D02*
X31378750Y-118073000D01*
%TO.C,LED20*%
X112215750Y-76948000D02*
X115815750Y-76948000D01*
X112215750Y-80048000D02*
X112215750Y-76948000D01*
X115815750Y-76948000D02*
X115815750Y-80048000D01*
X115815750Y-80048000D02*
X112215750Y-80048000D01*
%TO.C,LED19*%
X93215750Y-76948000D02*
X96815750Y-76948000D01*
X93215750Y-80048000D02*
X93215750Y-76948000D01*
X96815750Y-76948000D02*
X96815750Y-80048000D01*
X96815750Y-80048000D02*
X93215750Y-80048000D01*
%TO.C,LED41*%
X381613000Y-133998000D02*
X385213000Y-133998000D01*
X381613000Y-137098000D02*
X381613000Y-133998000D01*
X385213000Y-133998000D02*
X385213000Y-137098000D01*
X385213000Y-137098000D02*
X381613000Y-137098000D01*
%TO.C,LED33*%
X188215750Y-152998000D02*
X191815750Y-152998000D01*
X188215750Y-156098000D02*
X188215750Y-152998000D01*
X191815750Y-152998000D02*
X191815750Y-156098000D01*
X191815750Y-156098000D02*
X188215750Y-156098000D01*
%TO.C,LED59*%
X296113000Y-95948000D02*
X299713000Y-95948000D01*
X296113000Y-99048000D02*
X296113000Y-95948000D01*
X299713000Y-95948000D02*
X299713000Y-99048000D01*
X299713000Y-99048000D02*
X296113000Y-99048000D01*
%TO.C,LED72*%
X243863000Y-114973000D02*
X247463000Y-114973000D01*
X243863000Y-118073000D02*
X243863000Y-114973000D01*
X247463000Y-114973000D02*
X247463000Y-118073000D01*
X247463000Y-118073000D02*
X243863000Y-118073000D01*
%TO.C,LED57*%
X305613000Y-76948000D02*
X309213000Y-76948000D01*
X305613000Y-80048000D02*
X305613000Y-76948000D01*
X309213000Y-76948000D02*
X309213000Y-80048000D01*
X309213000Y-80048000D02*
X305613000Y-80048000D01*
%TO.C,LED47*%
X353138000Y-76948000D02*
X356738000Y-76948000D01*
X353138000Y-80048000D02*
X353138000Y-76948000D01*
X356738000Y-76948000D02*
X356738000Y-80048000D01*
X356738000Y-80048000D02*
X353138000Y-80048000D01*
%TO.C,LED48*%
X324613000Y-76948000D02*
X328213000Y-76948000D01*
X324613000Y-80048000D02*
X324613000Y-76948000D01*
X328213000Y-76948000D02*
X328213000Y-80048000D01*
X328213000Y-80048000D02*
X324613000Y-80048000D01*
%TO.C,LED22*%
X126465750Y-114973000D02*
X130065750Y-114973000D01*
X126465750Y-118073000D02*
X126465750Y-114973000D01*
X130065750Y-114973000D02*
X130065750Y-118073000D01*
X130065750Y-118073000D02*
X126465750Y-118073000D01*
%TO.C,LED73*%
X239113000Y-95948000D02*
X242713000Y-95948000D01*
X239113000Y-99048000D02*
X239113000Y-95948000D01*
X242713000Y-95948000D02*
X242713000Y-99048000D01*
X242713000Y-99048000D02*
X239113000Y-99048000D01*
%TO.C,LED23*%
X135965750Y-133998000D02*
X139565750Y-133998000D01*
X135965750Y-137098000D02*
X135965750Y-133998000D01*
X139565750Y-133998000D02*
X139565750Y-137098000D01*
X139565750Y-137098000D02*
X135965750Y-137098000D01*
%TO.C,LED43*%
X362613000Y-152998000D02*
X366213000Y-152998000D01*
X362613000Y-156098000D02*
X362613000Y-152998000D01*
X366213000Y-152998000D02*
X366213000Y-156098000D01*
X366213000Y-156098000D02*
X362613000Y-156098000D01*
%TO.C,LED4*%
X31378750Y-152998000D02*
X34978750Y-152998000D01*
X31378750Y-156098000D02*
X31378750Y-152998000D01*
X34978750Y-152998000D02*
X34978750Y-156098000D01*
X34978750Y-156098000D02*
X31378750Y-156098000D01*
%TO.C,LED21*%
X121715750Y-95948000D02*
X125315750Y-95948000D01*
X121715750Y-99048000D02*
X121715750Y-95948000D01*
X125315750Y-95948000D02*
X125315750Y-99048000D01*
X125315750Y-99048000D02*
X121715750Y-99048000D01*
%TO.C,LED8*%
X50378750Y-95948000D02*
X53978750Y-95948000D01*
X50378750Y-99048000D02*
X50378750Y-95948000D01*
X53978750Y-95948000D02*
X53978750Y-99048000D01*
X53978750Y-99048000D02*
X50378750Y-99048000D01*
%TO.C,LED49*%
X334113000Y-95948000D02*
X337713000Y-95948000D01*
X334113000Y-99048000D02*
X334113000Y-95948000D01*
X337713000Y-95948000D02*
X337713000Y-99048000D01*
X337713000Y-99048000D02*
X334113000Y-99048000D01*
%TO.C,LED15*%
X116965750Y-152998000D02*
X120565750Y-152998000D01*
X116965750Y-156098000D02*
X116965750Y-152998000D01*
X120565750Y-152998000D02*
X120565750Y-156098000D01*
X120565750Y-156098000D02*
X116965750Y-156098000D01*
%TO.C,LED78*%
X229613000Y-152998000D02*
X233213000Y-152998000D01*
X229613000Y-156098000D02*
X229613000Y-152998000D01*
X233213000Y-152998000D02*
X233213000Y-156098000D01*
X233213000Y-156098000D02*
X229613000Y-156098000D01*
%TO.C,LED39*%
X381613000Y-95948000D02*
X385213000Y-95948000D01*
X381613000Y-99048000D02*
X381613000Y-95948000D01*
X385213000Y-95948000D02*
X385213000Y-99048000D01*
X385213000Y-99048000D02*
X381613000Y-99048000D01*
%TO.C,LED44*%
X362613000Y-133998000D02*
X366213000Y-133998000D01*
X362613000Y-137098000D02*
X362613000Y-133998000D01*
X366213000Y-133998000D02*
X366213000Y-137098000D01*
X366213000Y-137098000D02*
X362613000Y-137098000D01*
%TO.C,LED75*%
X220113000Y-95948000D02*
X223713000Y-95948000D01*
X220113000Y-99048000D02*
X220113000Y-95948000D01*
X223713000Y-95948000D02*
X223713000Y-99048000D01*
X223713000Y-99048000D02*
X220113000Y-99048000D01*
%TO.C,LED5*%
X50378750Y-152998000D02*
X53978750Y-152998000D01*
X50378750Y-156098000D02*
X50378750Y-152998000D01*
X53978750Y-152998000D02*
X53978750Y-156098000D01*
X53978750Y-156098000D02*
X50378750Y-156098000D01*
%TO.C,LED51*%
X343613000Y-152998000D02*
X347213000Y-152998000D01*
X343613000Y-156098000D02*
X343613000Y-152998000D01*
X347213000Y-152998000D02*
X347213000Y-156098000D01*
X347213000Y-156098000D02*
X343613000Y-156098000D01*
%TO.C,LED6*%
X50378750Y-133998000D02*
X53978750Y-133998000D01*
X50378750Y-137098000D02*
X50378750Y-133998000D01*
X53978750Y-133998000D02*
X53978750Y-137098000D01*
X53978750Y-137098000D02*
X50378750Y-137098000D01*
%TO.C,LED42*%
X381613000Y-152998000D02*
X385213000Y-152998000D01*
X381613000Y-156098000D02*
X381613000Y-152998000D01*
X385213000Y-152998000D02*
X385213000Y-156098000D01*
X385213000Y-156098000D02*
X381613000Y-156098000D01*
%TO.C,LED34*%
X192965750Y-133998000D02*
X196565750Y-133998000D01*
X192965750Y-137098000D02*
X192965750Y-133998000D01*
X196565750Y-133998000D02*
X196565750Y-137098000D01*
X196565750Y-137098000D02*
X192965750Y-137098000D01*
%TO.C,LED10*%
X78940750Y-95948000D02*
X82540750Y-95948000D01*
X78940750Y-99048000D02*
X78940750Y-95948000D01*
X82540750Y-95948000D02*
X82540750Y-99048000D01*
X82540750Y-99048000D02*
X78940750Y-99048000D01*
%TO.C,LED17*%
X107465750Y-114973000D02*
X111065750Y-114973000D01*
X107465750Y-118073000D02*
X107465750Y-114973000D01*
X111065750Y-114973000D02*
X111065750Y-118073000D01*
X111065750Y-118073000D02*
X107465750Y-118073000D01*
%TO.C,LED56*%
X319863000Y-114973000D02*
X323463000Y-114973000D01*
X319863000Y-118073000D02*
X319863000Y-114973000D01*
X323463000Y-114973000D02*
X323463000Y-118073000D01*
X323463000Y-118073000D02*
X319863000Y-118073000D01*
%TO.C,LED67*%
X248587000Y-67352000D02*
X252187000Y-67352000D01*
X248587000Y-70452000D02*
X248587000Y-67352000D01*
X252187000Y-67352000D02*
X252187000Y-70452000D01*
X252187000Y-70452000D02*
X248587000Y-70452000D01*
%TO.C,LED31*%
X164465750Y-114973000D02*
X168065750Y-114973000D01*
X164465750Y-118073000D02*
X164465750Y-114973000D01*
X168065750Y-114973000D02*
X168065750Y-118073000D01*
X168065750Y-118073000D02*
X164465750Y-118073000D01*
%TO.C,LED53*%
X305613000Y-152998000D02*
X309213000Y-152998000D01*
X305613000Y-156098000D02*
X305613000Y-152998000D01*
X309213000Y-152998000D02*
X309213000Y-156098000D01*
X309213000Y-156098000D02*
X305613000Y-156098000D01*
%TO.C,LED36*%
X183465750Y-114973000D02*
X187065750Y-114973000D01*
X183465750Y-118073000D02*
X183465750Y-114973000D01*
X187065750Y-114973000D02*
X187065750Y-118073000D01*
X187065750Y-118073000D02*
X183465750Y-118073000D01*
%TO.C,LED65*%
X267587000Y-67352000D02*
X271187000Y-67352000D01*
X267587000Y-70452000D02*
X267587000Y-67352000D01*
X271187000Y-67352000D02*
X271187000Y-70452000D01*
X271187000Y-70452000D02*
X267587000Y-70452000D01*
%TO.C,LED9*%
X74215750Y-76948000D02*
X77815750Y-76948000D01*
X74215750Y-80048000D02*
X74215750Y-76948000D01*
X77815750Y-76948000D02*
X77815750Y-80048000D01*
X77815750Y-80048000D02*
X74215750Y-80048000D01*
%TO.C,LED66*%
X277113000Y-95948000D02*
X280713000Y-95948000D01*
X277113000Y-99048000D02*
X277113000Y-95948000D01*
X280713000Y-95948000D02*
X280713000Y-99048000D01*
X280713000Y-99048000D02*
X277113000Y-99048000D01*
%TO.C,LED26*%
X140715750Y-95948000D02*
X144315750Y-95948000D01*
X140715750Y-99048000D02*
X140715750Y-95948000D01*
X144315750Y-95948000D02*
X144315750Y-99048000D01*
X144315750Y-99048000D02*
X140715750Y-99048000D01*
%TO.C,LED54*%
X310363000Y-133998000D02*
X313963000Y-133998000D01*
X310363000Y-137098000D02*
X310363000Y-133998000D01*
X313963000Y-133998000D02*
X313963000Y-137098000D01*
X313963000Y-137098000D02*
X310363000Y-137098000D01*
%TO.C,LED55*%
X315113000Y-95948000D02*
X318713000Y-95948000D01*
X315113000Y-99048000D02*
X315113000Y-95948000D01*
X318713000Y-95948000D02*
X318713000Y-99048000D01*
X318713000Y-99048000D02*
X315113000Y-99048000D01*
%TO.C,LED12*%
X86065750Y-133998000D02*
X89665750Y-133998000D01*
X86065750Y-137098000D02*
X86065750Y-133998000D01*
X89665750Y-133998000D02*
X89665750Y-137098000D01*
X89665750Y-137098000D02*
X86065750Y-137098000D01*
%TO.C,LED40*%
X381613000Y-114973000D02*
X385213000Y-114973000D01*
X381613000Y-118073000D02*
X381613000Y-114973000D01*
X385213000Y-114973000D02*
X385213000Y-118073000D01*
X385213000Y-118073000D02*
X381613000Y-118073000D01*
%TO.C,LED25*%
X154965750Y-133998000D02*
X158565750Y-133998000D01*
X154965750Y-137098000D02*
X154965750Y-133998000D01*
X158565750Y-133998000D02*
X158565750Y-137098000D01*
X158565750Y-137098000D02*
X154965750Y-137098000D01*
%TO.C,LED16*%
X116965750Y-133998000D02*
X120565750Y-133998000D01*
X116965750Y-137098000D02*
X116965750Y-133998000D01*
X120565750Y-133998000D02*
X120565750Y-137098000D01*
X120565750Y-137098000D02*
X116965750Y-137098000D01*
%TD*%
M02*
