%TF.GenerationSoftware,KiCad,Pcbnew,8.0.8*%
%TF.CreationDate,2025-04-10T14:10:57+09:00*%
%TF.ProjectId,sswkbd_wiring,7373776b-6264-45f7-9769-72696e672e6b,rev?*%
%TF.SameCoordinates,Original*%
%TF.FileFunction,Soldermask,Bot*%
%TF.FilePolarity,Negative*%
%FSLAX46Y46*%
G04 Gerber Fmt 4.6, Leading zero omitted, Abs format (unit mm)*
G04 Created by KiCad (PCBNEW 8.0.8) date 2025-04-10 14:10:57*
%MOMM*%
%LPD*%
G01*
G04 APERTURE LIST*
%ADD10C,1.750000*%
%ADD11C,3.000000*%
%ADD12C,3.987800*%
%ADD13R,2.550000X2.500000*%
%ADD14R,1.700000X1.700000*%
%ADD15O,1.700000X1.700000*%
%ADD16R,1.397000X1.397000*%
%ADD17R,0.950000X1.300000*%
%ADD18C,1.397000*%
%ADD19C,3.048000*%
%ADD20C,1.524000*%
%ADD21R,1.700000X0.825000*%
%ADD22R,2.000000X2.400000*%
%ADD23C,1.200000*%
G04 APERTURE END LIST*
D10*
%TO.C,SW5*%
X157096250Y-73735000D03*
D11*
X155826250Y-76275000D03*
D12*
X152016250Y-73735000D03*
D11*
X149476250Y-78815000D03*
D10*
X146936250Y-73735000D03*
D13*
X159101250Y-76275000D03*
X146174250Y-78815000D03*
%TD*%
D14*
%TO.C,SW81*%
X244075000Y-66400000D03*
D15*
X241535000Y-66400000D03*
%TD*%
%TO.C,SW80*%
X178735000Y-66500000D03*
D14*
X181275000Y-66500000D03*
%TD*%
%TO.C,J4*%
X372775000Y-114100000D03*
D15*
X370235000Y-114100000D03*
%TD*%
D14*
%TO.C,J3*%
X256340000Y-67700000D03*
D15*
X258880000Y-67700000D03*
X261420000Y-67700000D03*
X263960000Y-67700000D03*
%TD*%
%TO.C,J2*%
X165110000Y-67693750D03*
X162570000Y-67693750D03*
X160030000Y-67693750D03*
D14*
X157490000Y-67693750D03*
%TD*%
%TO.C,J1*%
X25388750Y-68317370D03*
D15*
X25388750Y-70857370D03*
X25388750Y-73397370D03*
X25388750Y-75937370D03*
%TD*%
D16*
%TO.C,D32*%
X391509249Y-98964950D03*
D17*
X391509249Y-96929950D03*
X391509249Y-93379950D03*
D18*
X391509249Y-91344950D03*
%TD*%
D10*
%TO.C,SW13*%
X321333000Y-73735000D03*
D11*
X322603000Y-71195000D03*
D12*
X326413000Y-73735000D03*
D11*
X328953000Y-68655000D03*
D10*
X331493000Y-73735000D03*
D13*
X319328000Y-71195000D03*
X332255000Y-68655000D03*
%TD*%
D16*
%TO.C,D67*%
X86461999Y-156014950D03*
D17*
X86461999Y-153979950D03*
X86461999Y-150429950D03*
D18*
X86461999Y-148394950D03*
%TD*%
D16*
%TO.C,D50*%
X60274999Y-137014950D03*
D17*
X60274999Y-134979950D03*
X60274999Y-131429950D03*
D18*
X60274999Y-129394950D03*
%TD*%
D16*
%TO.C,D73*%
X268034249Y-156014950D03*
D17*
X268034249Y-153979950D03*
X268034249Y-150429950D03*
D18*
X268034249Y-148394950D03*
%TD*%
D16*
%TO.C,D46*%
X329759249Y-117989950D03*
D17*
X329759249Y-115954950D03*
X329759249Y-112404950D03*
D18*
X329759249Y-110369950D03*
%TD*%
D10*
%TO.C,SW6*%
X176096250Y-73735000D03*
D11*
X174826250Y-76275000D03*
D12*
X171016250Y-73735000D03*
D11*
X168476250Y-78815000D03*
D10*
X165936250Y-73735000D03*
D13*
X178101250Y-76275000D03*
X165174250Y-78815000D03*
%TD*%
D16*
%TO.C,D38*%
X155361999Y-117989950D03*
D17*
X155361999Y-115954950D03*
X155361999Y-112404950D03*
D18*
X155361999Y-110369950D03*
%TD*%
D16*
%TO.C,D76*%
X334509249Y-156014950D03*
D17*
X334509249Y-153979950D03*
X334509249Y-150429950D03*
D18*
X334509249Y-148394950D03*
%TD*%
D16*
%TO.C,D74*%
X296509249Y-156014950D03*
D17*
X296509249Y-153979950D03*
X296509249Y-150429950D03*
D18*
X296509249Y-148394950D03*
%TD*%
D16*
%TO.C,D52*%
X126861999Y-137014950D03*
D17*
X126861999Y-134979950D03*
X126861999Y-131429950D03*
D18*
X126861999Y-129394950D03*
%TD*%
D16*
%TO.C,D39*%
X174361999Y-117989950D03*
D17*
X174361999Y-115954950D03*
X174361999Y-112404950D03*
D18*
X174361999Y-110369950D03*
%TD*%
D16*
%TO.C,D15*%
X372491000Y-79958000D03*
D17*
X372491000Y-77923000D03*
X372491000Y-74373000D03*
D18*
X372491000Y-72338000D03*
%TD*%
D16*
%TO.C,D44*%
X291759249Y-117989950D03*
D17*
X291759249Y-115954950D03*
X291759249Y-112404950D03*
D18*
X291759249Y-110369950D03*
%TD*%
D10*
%TO.C,SW50*%
X47098750Y-130785000D03*
D11*
X48368750Y-128245000D03*
D12*
X52178750Y-130785000D03*
D11*
X54718750Y-125705000D03*
D10*
X57258750Y-130785000D03*
D13*
X45093750Y-128245000D03*
X58020750Y-125705000D03*
%TD*%
D10*
%TO.C,SW28*%
X292833000Y-92735000D03*
D11*
X294103000Y-90195000D03*
D12*
X297913000Y-92735000D03*
D11*
X300453000Y-87655000D03*
D10*
X302993000Y-92735000D03*
D13*
X290828000Y-90195000D03*
X303755000Y-87655000D03*
%TD*%
D10*
%TO.C,SW75*%
X302333000Y-149785000D03*
D11*
X303603000Y-147245000D03*
D12*
X307413000Y-149785000D03*
D11*
X309953000Y-144705000D03*
D10*
X312493000Y-149785000D03*
D13*
X300328000Y-147245000D03*
X313255000Y-144705000D03*
%TD*%
D16*
%TO.C,D4*%
X141111999Y-79964950D03*
D17*
X141111999Y-77929950D03*
X141111999Y-74379950D03*
D18*
X141111999Y-72344950D03*
%TD*%
D10*
%TO.C,SW2*%
X89935750Y-73735000D03*
D11*
X91205750Y-71195000D03*
D12*
X95015750Y-73735000D03*
D11*
X97555750Y-68655000D03*
D10*
X100095750Y-73735000D03*
D13*
X87930750Y-71195000D03*
X100857750Y-68655000D03*
%TD*%
D10*
%TO.C,SW22*%
X156435750Y-92735000D03*
D11*
X157705750Y-90195000D03*
D12*
X161515750Y-92735000D03*
D11*
X164055750Y-87655000D03*
D10*
X166595750Y-92735000D03*
D13*
X154430750Y-90195000D03*
X167357750Y-87655000D03*
%TD*%
D16*
%TO.C,D43*%
X272759249Y-117989950D03*
D17*
X272759249Y-115954950D03*
X272759249Y-112404950D03*
D18*
X272759249Y-110369950D03*
%TD*%
D10*
%TO.C,SW53*%
X132685750Y-130785000D03*
D11*
X133955750Y-128245000D03*
D12*
X137765750Y-130785000D03*
D11*
X140305750Y-125705000D03*
D10*
X142845750Y-130785000D03*
D13*
X130680750Y-128245000D03*
X143607750Y-125705000D03*
%TD*%
D10*
%TO.C,SW66*%
X47098750Y-149785000D03*
D11*
X48368750Y-147245000D03*
D12*
X52178750Y-149785000D03*
D11*
X54718750Y-144705000D03*
D10*
X57258750Y-149785000D03*
D13*
X45093750Y-147245000D03*
X58020750Y-144705000D03*
%TD*%
D16*
%TO.C,D41*%
X234759249Y-117989950D03*
D17*
X234759249Y-115954950D03*
X234759249Y-112404950D03*
D18*
X234759249Y-110369950D03*
%TD*%
D16*
%TO.C,D1*%
X84111999Y-79964950D03*
D17*
X84111999Y-77929950D03*
X84111999Y-74379950D03*
D18*
X84111999Y-72344950D03*
%TD*%
D10*
%TO.C,SW18*%
X75660750Y-92735000D03*
D11*
X76930750Y-90195000D03*
D12*
X80740750Y-92735000D03*
D11*
X83280750Y-87655000D03*
D10*
X85820750Y-92735000D03*
D13*
X73655750Y-90195000D03*
X86582750Y-87655000D03*
%TD*%
D10*
%TO.C,SW8*%
X226333000Y-73735000D03*
D11*
X227603000Y-71195000D03*
D12*
X231413000Y-73735000D03*
D11*
X233953000Y-68655000D03*
D10*
X236493000Y-73735000D03*
D13*
X224328000Y-71195000D03*
X237255000Y-68655000D03*
%TD*%
D10*
%TO.C,SW26*%
X254833000Y-92735000D03*
D11*
X256103000Y-90195000D03*
D12*
X259913000Y-92735000D03*
D11*
X262453000Y-87655000D03*
D10*
X264993000Y-92735000D03*
D13*
X252828000Y-90195000D03*
X265755000Y-87655000D03*
%TD*%
D16*
%TO.C,D11*%
X296509249Y-79964950D03*
D17*
X296509249Y-77929950D03*
X296509249Y-74379950D03*
D18*
X296509249Y-72344950D03*
%TD*%
D10*
%TO.C,SW29*%
X311833000Y-92735000D03*
D11*
X313103000Y-90195000D03*
D12*
X316913000Y-92735000D03*
D11*
X319453000Y-87655000D03*
D10*
X321993000Y-92735000D03*
D13*
X309828000Y-90195000D03*
X322755000Y-87655000D03*
%TD*%
D16*
%TO.C,D51*%
X95961999Y-137014950D03*
D17*
X95961999Y-134979950D03*
X95961999Y-131429950D03*
D18*
X95961999Y-129394950D03*
%TD*%
D10*
%TO.C,SW41*%
X221583000Y-111760000D03*
D11*
X222853000Y-109220000D03*
D12*
X226663000Y-111760000D03*
D11*
X229203000Y-106680000D03*
D10*
X231743000Y-111760000D03*
D13*
X219578000Y-109220000D03*
X232505000Y-106680000D03*
%TD*%
D10*
%TO.C,SW67*%
X73285750Y-149785000D03*
D11*
X74555750Y-147245000D03*
D12*
X78365750Y-149785000D03*
D11*
X80905750Y-144705000D03*
D10*
X83445750Y-149785000D03*
D13*
X71280750Y-147245000D03*
X84207750Y-144705000D03*
%TD*%
D10*
%TO.C,SW77*%
X340333000Y-149785000D03*
D11*
X341603000Y-147245000D03*
D12*
X345413000Y-149785000D03*
D11*
X347953000Y-144705000D03*
D10*
X350493000Y-149785000D03*
D13*
X338328000Y-147245000D03*
X351255000Y-144705000D03*
%TD*%
D12*
%TO.C,SW73*%
X248000000Y-141530000D03*
D19*
X248000000Y-156770000D03*
D10*
X254858000Y-149785000D03*
D11*
X256128000Y-147245000D03*
D12*
X259938000Y-149785000D03*
D11*
X262478000Y-144705000D03*
D10*
X265018000Y-149785000D03*
D12*
X271876000Y-141530000D03*
D19*
X271876000Y-156770000D03*
D13*
X252853000Y-147245000D03*
X265780000Y-144705000D03*
%TD*%
D10*
%TO.C,SW43*%
X259583000Y-111760000D03*
D11*
X260853000Y-109220000D03*
D12*
X264663000Y-111760000D03*
D11*
X267203000Y-106680000D03*
D10*
X269743000Y-111760000D03*
D13*
X257578000Y-109220000D03*
X270505000Y-106680000D03*
%TD*%
D16*
%TO.C,D59*%
X282259249Y-137014950D03*
D17*
X282259249Y-134979950D03*
X282259249Y-131429950D03*
D18*
X282259249Y-129394950D03*
%TD*%
D16*
%TO.C,D9*%
X241600000Y-79110000D03*
D17*
X241600000Y-77075000D03*
X241600000Y-73525000D03*
D18*
X241600000Y-71490000D03*
%TD*%
D16*
%TO.C,D3*%
X122111999Y-79964950D03*
D17*
X122111999Y-77929950D03*
X122111999Y-74379950D03*
D18*
X122111999Y-72344950D03*
%TD*%
D12*
%TO.C,SW70*%
X142427750Y-141530000D03*
D19*
X142427750Y-156770000D03*
D10*
X149285750Y-149785000D03*
D11*
X150555750Y-147245000D03*
D12*
X154365750Y-149785000D03*
D11*
X156905750Y-144705000D03*
D10*
X159445750Y-149785000D03*
D12*
X166303750Y-141530000D03*
D19*
X166303750Y-156770000D03*
D13*
X147280750Y-147245000D03*
X160207750Y-144705000D03*
%TD*%
D10*
%TO.C,SW68*%
X94685750Y-149785000D03*
D11*
X95955750Y-147245000D03*
D12*
X99765750Y-149785000D03*
D11*
X102305750Y-144705000D03*
D10*
X104845750Y-149785000D03*
D13*
X92680750Y-147245000D03*
X105607750Y-144705000D03*
%TD*%
D16*
%TO.C,D42*%
X253759249Y-117989950D03*
D17*
X253759249Y-115954950D03*
X253759249Y-112404950D03*
D18*
X253759249Y-110369950D03*
%TD*%
D13*
%TO.C,SW23*%
X186357750Y-87655000D03*
X173430750Y-90195000D03*
D10*
X185595750Y-92735000D03*
D11*
X183055750Y-87655000D03*
D12*
X180515750Y-92735000D03*
D11*
X176705750Y-90195000D03*
D10*
X175435750Y-92735000D03*
%TD*%
%TO.C,SW76*%
X321333000Y-149785000D03*
D11*
X322603000Y-147245000D03*
D12*
X326413000Y-149785000D03*
D11*
X328953000Y-144705000D03*
D10*
X331493000Y-149785000D03*
D13*
X319328000Y-147245000D03*
X332255000Y-144705000D03*
%TD*%
D16*
%TO.C,D64*%
X391509249Y-137014950D03*
D17*
X391509249Y-134979950D03*
X391509249Y-131429950D03*
D18*
X391509249Y-129394950D03*
%TD*%
D16*
%TO.C,D23*%
X171795000Y-101590000D03*
D17*
X171795000Y-99555000D03*
X171795000Y-96005000D03*
D18*
X171795000Y-93970000D03*
%TD*%
D10*
%TO.C,SW24*%
X216833000Y-92735000D03*
D11*
X218103000Y-90195000D03*
D12*
X221913000Y-92735000D03*
D11*
X224453000Y-87655000D03*
D10*
X226993000Y-92735000D03*
D13*
X214828000Y-90195000D03*
X227755000Y-87655000D03*
%TD*%
D16*
%TO.C,D33*%
X41274999Y-117989950D03*
D17*
X41274999Y-115954950D03*
X41274999Y-112404950D03*
D18*
X41274999Y-110369950D03*
%TD*%
D10*
%TO.C,SW10*%
X274467000Y-73665000D03*
D11*
X273197000Y-76205000D03*
D12*
X269387000Y-73665000D03*
D11*
X266847000Y-78745000D03*
D10*
X264307000Y-73665000D03*
D13*
X276472000Y-76205000D03*
X263545000Y-78745000D03*
%TD*%
D10*
%TO.C,SW79*%
X378333000Y-149785000D03*
D11*
X379603000Y-147245000D03*
D12*
X383413000Y-149785000D03*
D11*
X385953000Y-144705000D03*
D10*
X388493000Y-149785000D03*
D13*
X376328000Y-147245000D03*
X389255000Y-144705000D03*
%TD*%
D10*
%TO.C,SW78*%
X359333000Y-149785000D03*
D11*
X360603000Y-147245000D03*
D12*
X364413000Y-149785000D03*
D11*
X366953000Y-144705000D03*
D10*
X369493000Y-149785000D03*
D13*
X357328000Y-147245000D03*
X370255000Y-144705000D03*
%TD*%
D16*
%TO.C,D8*%
X239509249Y-79964950D03*
D17*
X239509249Y-77929950D03*
X239509249Y-74379950D03*
D18*
X239509249Y-72344950D03*
%TD*%
D16*
%TO.C,D45*%
X310759249Y-117989950D03*
D17*
X310759249Y-115954950D03*
X310759249Y-112404950D03*
D18*
X310759249Y-110369950D03*
%TD*%
D16*
%TO.C,D65*%
X41274999Y-156014950D03*
D17*
X41274999Y-153979950D03*
X41274999Y-150429950D03*
D18*
X41274999Y-148394950D03*
%TD*%
D16*
%TO.C,D70*%
X162461999Y-156014950D03*
D17*
X162461999Y-153979950D03*
X162461999Y-150429950D03*
D18*
X162461999Y-148394950D03*
%TD*%
D10*
%TO.C,SW16*%
X28098750Y-92735000D03*
D11*
X29368750Y-90195000D03*
D12*
X33178750Y-92735000D03*
D11*
X35718750Y-87655000D03*
D10*
X38258750Y-92735000D03*
D13*
X26093750Y-90195000D03*
X39020750Y-87655000D03*
%TD*%
D16*
%TO.C,D24*%
X230009249Y-98964950D03*
D17*
X230009249Y-96929950D03*
X230009249Y-93379950D03*
D18*
X230009249Y-91344950D03*
%TD*%
D10*
%TO.C,SW65*%
X28098750Y-149785000D03*
D11*
X29368750Y-147245000D03*
D12*
X33178750Y-149785000D03*
D11*
X35718750Y-144705000D03*
D10*
X38258750Y-149785000D03*
D13*
X26093750Y-147245000D03*
X39020750Y-144705000D03*
%TD*%
D10*
%TO.C,SW58*%
X250083000Y-130785000D03*
D11*
X251353000Y-128245000D03*
D12*
X255163000Y-130785000D03*
D11*
X257703000Y-125705000D03*
D10*
X260243000Y-130785000D03*
D13*
X248078000Y-128245000D03*
X261005000Y-125705000D03*
%TD*%
D16*
%TO.C,D26*%
X268009249Y-98964950D03*
D17*
X268009249Y-96929950D03*
X268009249Y-93379950D03*
D18*
X268009249Y-91344950D03*
%TD*%
D16*
%TO.C,D6*%
X162600000Y-78210000D03*
D17*
X162600000Y-76175000D03*
X162600000Y-72625000D03*
D18*
X162600000Y-70590000D03*
%TD*%
D16*
%TO.C,D14*%
X363034249Y-79964950D03*
D17*
X363034249Y-77929950D03*
X363034249Y-74379950D03*
D18*
X363034249Y-72344950D03*
%TD*%
D10*
%TO.C,SW57*%
X231083000Y-130785000D03*
D11*
X232353000Y-128245000D03*
D12*
X236163000Y-130785000D03*
D11*
X238703000Y-125705000D03*
D10*
X241243000Y-130785000D03*
D13*
X229078000Y-128245000D03*
X242005000Y-125705000D03*
%TD*%
D16*
%TO.C,D12*%
X315509249Y-79964950D03*
D17*
X315509249Y-77929950D03*
X315509249Y-74379950D03*
D18*
X315509249Y-72344950D03*
%TD*%
D10*
%TO.C,SW59*%
X269083000Y-130785000D03*
D11*
X270353000Y-128245000D03*
D12*
X274163000Y-130785000D03*
D11*
X276703000Y-125705000D03*
D10*
X279243000Y-130785000D03*
D13*
X267078000Y-128245000D03*
X280005000Y-125705000D03*
%TD*%
D10*
%TO.C,SW64*%
X378333000Y-130785000D03*
D11*
X379603000Y-128245000D03*
D12*
X383413000Y-130785000D03*
D11*
X385953000Y-125705000D03*
D10*
X388493000Y-130785000D03*
D13*
X376328000Y-128245000D03*
X389255000Y-125705000D03*
%TD*%
D19*
%TO.C,SW14*%
X343000000Y-66750000D03*
D12*
X343000000Y-81990000D03*
D10*
X349858000Y-73735000D03*
D11*
X351128000Y-71195000D03*
D12*
X354938000Y-73735000D03*
D11*
X357478000Y-68655000D03*
D10*
X360018000Y-73735000D03*
D19*
X366876000Y-66750000D03*
D12*
X366876000Y-81990000D03*
D13*
X347853000Y-71195000D03*
X360780000Y-68655000D03*
%TD*%
D10*
%TO.C,SW63*%
X359333000Y-130785000D03*
D11*
X360603000Y-128245000D03*
D12*
X364413000Y-130785000D03*
D11*
X366953000Y-125705000D03*
D10*
X369493000Y-130785000D03*
D13*
X357328000Y-128245000D03*
X370255000Y-125705000D03*
%TD*%
D16*
%TO.C,D36*%
X117361999Y-117989950D03*
D17*
X117361999Y-115954950D03*
X117361999Y-112404950D03*
D18*
X117361999Y-110369950D03*
%TD*%
D16*
%TO.C,D29*%
X325009249Y-98964950D03*
D17*
X325009249Y-96929950D03*
X325009249Y-93379950D03*
D18*
X325009249Y-91344950D03*
%TD*%
D10*
%TO.C,SW38*%
X142185750Y-111760000D03*
D11*
X143455750Y-109220000D03*
D12*
X147265750Y-111760000D03*
D11*
X149805750Y-106680000D03*
D10*
X152345750Y-111760000D03*
D13*
X140180750Y-109220000D03*
X153107750Y-106680000D03*
%TD*%
D10*
%TO.C,SW69*%
X113685750Y-149785000D03*
D11*
X114955750Y-147245000D03*
D12*
X118765750Y-149785000D03*
D11*
X121305750Y-144705000D03*
D10*
X123845750Y-149785000D03*
D13*
X111680750Y-147245000D03*
X124607750Y-144705000D03*
%TD*%
D16*
%TO.C,D69*%
X126861999Y-156014950D03*
D17*
X126861999Y-153979950D03*
X126861999Y-150429950D03*
D18*
X126861999Y-148394950D03*
%TD*%
D10*
%TO.C,SW60*%
X288083000Y-130785000D03*
D11*
X289353000Y-128245000D03*
D12*
X293163000Y-130785000D03*
D11*
X295703000Y-125705000D03*
D10*
X298243000Y-130785000D03*
D13*
X286078000Y-128245000D03*
X299005000Y-125705000D03*
%TD*%
D10*
%TO.C,SW9*%
X255467000Y-73665000D03*
D11*
X254197000Y-76205000D03*
D12*
X250387000Y-73665000D03*
D11*
X247847000Y-78745000D03*
D10*
X245307000Y-73665000D03*
D13*
X257472000Y-76205000D03*
X244545000Y-78745000D03*
%TD*%
D19*
%TO.C,SW51*%
X75927750Y-123800000D03*
D12*
X75927750Y-139040000D03*
D10*
X82785750Y-130785000D03*
D11*
X84055750Y-128245000D03*
D12*
X87865750Y-130785000D03*
D11*
X90405750Y-125705000D03*
D10*
X92945750Y-130785000D03*
D19*
X99803750Y-123800000D03*
D12*
X99803750Y-139040000D03*
D13*
X80780750Y-128245000D03*
X93707750Y-125705000D03*
%TD*%
D16*
%TO.C,D20*%
X131611999Y-98964950D03*
D17*
X131611999Y-96929950D03*
X131611999Y-93379950D03*
D18*
X131611999Y-91344950D03*
%TD*%
D10*
%TO.C,SW12*%
X302333000Y-73735000D03*
D11*
X303603000Y-71195000D03*
D12*
X307413000Y-73735000D03*
D11*
X309953000Y-68655000D03*
D10*
X312493000Y-73735000D03*
D13*
X300328000Y-71195000D03*
X313255000Y-68655000D03*
%TD*%
D10*
%TO.C,SW49*%
X28098750Y-130785000D03*
D11*
X29368750Y-128245000D03*
D12*
X33178750Y-130785000D03*
D11*
X35718750Y-125705000D03*
D10*
X38258750Y-130785000D03*
D13*
X26093750Y-128245000D03*
X39020750Y-125705000D03*
%TD*%
D16*
%TO.C,D47*%
X360659249Y-117989950D03*
D17*
X360659249Y-115954950D03*
X360659249Y-112404950D03*
D18*
X360659249Y-110369950D03*
%TD*%
D10*
%TO.C,SW27*%
X273833000Y-92735000D03*
D11*
X275103000Y-90195000D03*
D12*
X278913000Y-92735000D03*
D11*
X281453000Y-87655000D03*
D10*
X283993000Y-92735000D03*
D13*
X271828000Y-90195000D03*
X284755000Y-87655000D03*
%TD*%
%TO.C,SW56*%
X200607750Y-125705000D03*
X187680750Y-128245000D03*
D10*
X199845750Y-130785000D03*
D11*
X197305750Y-125705000D03*
D12*
X194765750Y-130785000D03*
D11*
X190955750Y-128245000D03*
D10*
X189685750Y-130785000D03*
%TD*%
D16*
%TO.C,D62*%
X347550000Y-134260000D03*
D17*
X347550000Y-132225000D03*
X347550000Y-128675000D03*
D18*
X347550000Y-126640000D03*
%TD*%
D13*
%TO.C,SW7*%
X195857750Y-68655000D03*
X182930750Y-71195000D03*
D10*
X195095750Y-73735000D03*
D11*
X192555750Y-68655000D03*
D12*
X190015750Y-73735000D03*
D11*
X186205750Y-71195000D03*
D10*
X184935750Y-73735000D03*
%TD*%
D16*
%TO.C,D48*%
X391509249Y-117989950D03*
D17*
X391509249Y-115954950D03*
X391509249Y-112404950D03*
D18*
X391509249Y-110369950D03*
%TD*%
D10*
%TO.C,SW39*%
X161185750Y-111760000D03*
D11*
X162455750Y-109220000D03*
D12*
X166265750Y-111760000D03*
D11*
X168805750Y-106680000D03*
D10*
X171345750Y-111760000D03*
D13*
X159180750Y-109220000D03*
X172107750Y-106680000D03*
%TD*%
D10*
%TO.C,SW4*%
X127935750Y-73735000D03*
D11*
X129205750Y-71195000D03*
D12*
X133015750Y-73735000D03*
D11*
X135555750Y-68655000D03*
D10*
X138095750Y-73735000D03*
D13*
X125930750Y-71195000D03*
X138857750Y-68655000D03*
%TD*%
D16*
%TO.C,D22*%
X169611999Y-98964950D03*
D17*
X169611999Y-96929950D03*
X169611999Y-93379950D03*
D18*
X169611999Y-91344950D03*
%TD*%
D16*
%TO.C,D16*%
X41274999Y-98964950D03*
D17*
X41274999Y-96929950D03*
X41274999Y-93379950D03*
D18*
X41274999Y-91344950D03*
%TD*%
D19*
%TO.C,SW47*%
X340625000Y-104775000D03*
D12*
X340625000Y-120015000D03*
D10*
X347483000Y-111760000D03*
D11*
X348753000Y-109220000D03*
D12*
X352563000Y-111760000D03*
D11*
X355103000Y-106680000D03*
D10*
X357643000Y-111760000D03*
D19*
X364501000Y-104775000D03*
D12*
X364501000Y-120015000D03*
D13*
X345478000Y-109220000D03*
X358405000Y-106680000D03*
%TD*%
D10*
%TO.C,SW17*%
X47098750Y-92735000D03*
D11*
X48368750Y-90195000D03*
D12*
X52178750Y-92735000D03*
D11*
X54718750Y-87655000D03*
D10*
X57258750Y-92735000D03*
D13*
X45093750Y-90195000D03*
X58020750Y-87655000D03*
%TD*%
D16*
%TO.C,D49*%
X41274999Y-137014950D03*
D17*
X41274999Y-134979950D03*
X41274999Y-131429950D03*
D18*
X41274999Y-129394950D03*
%TD*%
D16*
%TO.C,D25*%
X249009249Y-98964950D03*
D17*
X249009249Y-96929950D03*
X249009249Y-93379950D03*
D18*
X249009249Y-91344950D03*
%TD*%
D16*
%TO.C,D53*%
X145861999Y-137014950D03*
D17*
X145861999Y-134979950D03*
X145861999Y-131429950D03*
D18*
X145861999Y-129394950D03*
%TD*%
D16*
%TO.C,D28*%
X306009249Y-98964950D03*
D17*
X306009249Y-96929950D03*
X306009249Y-93379950D03*
D18*
X306009249Y-91344950D03*
%TD*%
D16*
%TO.C,D7*%
X181255000Y-82565000D03*
D17*
X181255000Y-80530000D03*
X181255000Y-76980000D03*
D18*
X181255000Y-74945000D03*
%TD*%
D16*
%TO.C,D61*%
X320259249Y-137014950D03*
D17*
X320259249Y-134979950D03*
X320259249Y-131429950D03*
D18*
X320259249Y-129394950D03*
%TD*%
D16*
%TO.C,D37*%
X136361999Y-117989950D03*
D17*
X136361999Y-115954950D03*
X136361999Y-112404950D03*
D18*
X136361999Y-110369950D03*
%TD*%
D10*
%TO.C,SW19*%
X99435750Y-92735000D03*
D11*
X100705750Y-90195000D03*
D12*
X104515750Y-92735000D03*
D11*
X107055750Y-87655000D03*
D10*
X109595750Y-92735000D03*
D13*
X97430750Y-90195000D03*
X110357750Y-87655000D03*
%TD*%
D16*
%TO.C,D77*%
X353509249Y-156014950D03*
D17*
X353509249Y-153979950D03*
X353509249Y-150429950D03*
D18*
X353509249Y-148394950D03*
%TD*%
D20*
%TO.C,U2*%
X330200000Y-123090000D03*
X332740000Y-123090000D03*
X335280000Y-123090000D03*
X337820000Y-123090000D03*
X340360000Y-123090000D03*
X342900000Y-123090000D03*
X345440000Y-123090000D03*
X347980000Y-123090000D03*
X350520000Y-123090000D03*
X353060000Y-123090000D03*
X355600000Y-123090000D03*
X358140000Y-123090000D03*
X358140000Y-138310000D03*
X355600000Y-138310000D03*
X353060000Y-138310000D03*
X350520000Y-138310000D03*
X347980000Y-138310000D03*
X345440000Y-138310000D03*
X342900000Y-138310000D03*
X340360000Y-138310000D03*
X337820000Y-138310000D03*
X335280000Y-138310000D03*
X332740000Y-138310000D03*
X330200000Y-138310000D03*
%TD*%
D16*
%TO.C,D10*%
X261000000Y-80410000D03*
D17*
X261000000Y-78375000D03*
X261000000Y-74825000D03*
D18*
X261000000Y-72790000D03*
%TD*%
D16*
%TO.C,D57*%
X244259249Y-137014950D03*
D17*
X244259249Y-134979950D03*
X244259249Y-131429950D03*
D18*
X244259249Y-129394950D03*
%TD*%
D10*
%TO.C,SW36*%
X104185750Y-111760000D03*
D11*
X105455750Y-109220000D03*
D12*
X109265750Y-111760000D03*
D11*
X111805750Y-106680000D03*
D10*
X114345750Y-111760000D03*
D13*
X102180750Y-109220000D03*
X115107750Y-106680000D03*
%TD*%
D10*
%TO.C,SW55*%
X170685750Y-130785000D03*
D11*
X171955750Y-128245000D03*
D12*
X175765750Y-130785000D03*
D11*
X178305750Y-125705000D03*
D10*
X180845750Y-130785000D03*
D13*
X168680750Y-128245000D03*
X181607750Y-125705000D03*
%TD*%
D16*
%TO.C,D75*%
X315509249Y-156014950D03*
D17*
X315509249Y-153979950D03*
X315509249Y-150429950D03*
D18*
X315509249Y-148394950D03*
%TD*%
D16*
%TO.C,D56*%
X186040000Y-138830000D03*
D17*
X186040000Y-136795000D03*
X186040000Y-133245000D03*
D18*
X186040000Y-131210000D03*
%TD*%
D10*
%TO.C,SW62*%
X333233000Y-130785000D03*
D11*
X334503000Y-128245000D03*
D12*
X338313000Y-130785000D03*
D11*
X340853000Y-125705000D03*
D10*
X343393000Y-130785000D03*
D13*
X331228000Y-128245000D03*
X344155000Y-125705000D03*
%TD*%
D10*
%TO.C,SW31*%
X354608000Y-92735000D03*
D11*
X355878000Y-90195000D03*
D12*
X359688000Y-92735000D03*
D11*
X362228000Y-87655000D03*
D10*
X364768000Y-92735000D03*
D13*
X352603000Y-90195000D03*
X365530000Y-87655000D03*
%TD*%
D16*
%TO.C,D60*%
X301259249Y-137014950D03*
D17*
X301259249Y-134979950D03*
X301259249Y-131429950D03*
D18*
X301259249Y-129394950D03*
%TD*%
D16*
%TO.C,D5*%
X143637000Y-78356000D03*
D17*
X143637000Y-76321000D03*
X143637000Y-72771000D03*
D18*
X143637000Y-70736000D03*
%TD*%
D10*
%TO.C,SW61*%
X307083000Y-130785000D03*
D11*
X308353000Y-128245000D03*
D12*
X312163000Y-130785000D03*
D11*
X314703000Y-125705000D03*
D10*
X317243000Y-130785000D03*
D13*
X305078000Y-128245000D03*
X318005000Y-125705000D03*
%TD*%
D16*
%TO.C,D35*%
X91211999Y-117989950D03*
D17*
X91211999Y-115954950D03*
X91211999Y-112404950D03*
D18*
X91211999Y-110369950D03*
%TD*%
D10*
%TO.C,SW48*%
X378333000Y-111760000D03*
D11*
X379603000Y-109220000D03*
D12*
X383413000Y-111760000D03*
D11*
X385953000Y-106680000D03*
D10*
X388493000Y-111760000D03*
D13*
X376328000Y-109220000D03*
X389255000Y-106680000D03*
%TD*%
D16*
%TO.C,D21*%
X150611999Y-98964950D03*
D17*
X150611999Y-96929950D03*
X150611999Y-93379950D03*
D18*
X150611999Y-91344950D03*
%TD*%
D16*
%TO.C,D13*%
X334509249Y-79964950D03*
D17*
X334509249Y-77929950D03*
X334509249Y-74379950D03*
D18*
X334509249Y-72344950D03*
%TD*%
D10*
%TO.C,SW52*%
X113685750Y-130785000D03*
D11*
X114955750Y-128245000D03*
D12*
X118765750Y-130785000D03*
D11*
X121305750Y-125705000D03*
D10*
X123845750Y-130785000D03*
D13*
X111680750Y-128245000D03*
X124607750Y-125705000D03*
%TD*%
D16*
%TO.C,D18*%
X88836999Y-98964950D03*
D17*
X88836999Y-96929950D03*
X88836999Y-93379950D03*
D18*
X88836999Y-91344950D03*
%TD*%
D10*
%TO.C,SW54*%
X151685750Y-130785000D03*
D11*
X152955750Y-128245000D03*
D12*
X156765750Y-130785000D03*
D11*
X159305750Y-125705000D03*
D10*
X161845750Y-130785000D03*
D13*
X149680750Y-128245000D03*
X162607750Y-125705000D03*
%TD*%
D10*
%TO.C,SW33*%
X28098750Y-111760000D03*
D11*
X29368750Y-109220000D03*
D12*
X33178750Y-111760000D03*
D11*
X35718750Y-106680000D03*
D10*
X38258750Y-111760000D03*
D13*
X26093750Y-109220000D03*
X39020750Y-106680000D03*
%TD*%
D16*
%TO.C,D27*%
X287009249Y-98964950D03*
D17*
X287009249Y-96929950D03*
X287009249Y-93379950D03*
D18*
X287009249Y-91344950D03*
%TD*%
D10*
%TO.C,SW37*%
X123185750Y-111760000D03*
D11*
X124455750Y-109220000D03*
D12*
X128265750Y-111760000D03*
D11*
X130805750Y-106680000D03*
D10*
X133345750Y-111760000D03*
D13*
X121180750Y-109220000D03*
X134107750Y-106680000D03*
%TD*%
D10*
%TO.C,SW1*%
X70935750Y-73735000D03*
D11*
X72205750Y-71195000D03*
D12*
X76015750Y-73735000D03*
D11*
X78555750Y-68655000D03*
D10*
X81095750Y-73735000D03*
D13*
X68930750Y-71195000D03*
X81857750Y-68655000D03*
%TD*%
D16*
%TO.C,D55*%
X183861999Y-137014950D03*
D17*
X183861999Y-134979950D03*
X183861999Y-131429950D03*
D18*
X183861999Y-129394950D03*
%TD*%
D10*
%TO.C,SW30*%
X330833000Y-92735000D03*
D11*
X332103000Y-90195000D03*
D12*
X335913000Y-92735000D03*
D11*
X338453000Y-87655000D03*
D10*
X340993000Y-92735000D03*
D13*
X328828000Y-90195000D03*
X341755000Y-87655000D03*
%TD*%
D16*
%TO.C,D54*%
X164861999Y-137014950D03*
D17*
X164861999Y-134979950D03*
X164861999Y-131429950D03*
D18*
X164861999Y-129394950D03*
%TD*%
D10*
%TO.C,SW32*%
X378333000Y-92735000D03*
D11*
X379603000Y-90195000D03*
D12*
X383413000Y-92735000D03*
D11*
X385953000Y-87655000D03*
D10*
X388493000Y-92735000D03*
D13*
X376328000Y-90195000D03*
X389255000Y-87655000D03*
%TD*%
%TO.C,SW71*%
X195857750Y-144705000D03*
X182930750Y-147245000D03*
D10*
X195095750Y-149785000D03*
D11*
X192555750Y-144705000D03*
D12*
X190015750Y-149785000D03*
D11*
X186205750Y-147245000D03*
D10*
X184935750Y-149785000D03*
%TD*%
%TO.C,SW11*%
X283333000Y-73735000D03*
D11*
X284603000Y-71195000D03*
D12*
X288413000Y-73735000D03*
D11*
X290953000Y-68655000D03*
D10*
X293493000Y-73735000D03*
D13*
X281328000Y-71195000D03*
X294255000Y-68655000D03*
%TD*%
D10*
%TO.C,SW21*%
X137435750Y-92735000D03*
D11*
X138705750Y-90195000D03*
D12*
X142515750Y-92735000D03*
D11*
X145055750Y-87655000D03*
D10*
X147595750Y-92735000D03*
D13*
X135430750Y-90195000D03*
X148357750Y-87655000D03*
%TD*%
D16*
%TO.C,D2*%
X103111999Y-79964950D03*
D17*
X103111999Y-77929950D03*
X103111999Y-74379950D03*
D18*
X103111999Y-72344950D03*
%TD*%
D10*
%TO.C,SW25*%
X235833000Y-92735000D03*
D11*
X237103000Y-90195000D03*
D12*
X240913000Y-92735000D03*
D11*
X243453000Y-87655000D03*
D10*
X245993000Y-92735000D03*
D13*
X233828000Y-90195000D03*
X246755000Y-87655000D03*
%TD*%
D16*
%TO.C,D79*%
X391509249Y-156014950D03*
D17*
X391509249Y-153979950D03*
X391509249Y-150429950D03*
D18*
X391509249Y-148394950D03*
%TD*%
D13*
%TO.C,SW40*%
X191107750Y-106680000D03*
X178180750Y-109220000D03*
D10*
X190345750Y-111760000D03*
D11*
X187805750Y-106680000D03*
D12*
X185265750Y-111760000D03*
D11*
X181455750Y-109220000D03*
D10*
X180185750Y-111760000D03*
%TD*%
%TO.C,SW72*%
X226333000Y-149785000D03*
D11*
X227603000Y-147245000D03*
D12*
X231413000Y-149785000D03*
D11*
X233953000Y-144705000D03*
D10*
X236493000Y-149785000D03*
D13*
X224328000Y-147245000D03*
X237255000Y-144705000D03*
%TD*%
D16*
%TO.C,D78*%
X372509249Y-156014950D03*
D17*
X372509249Y-153979950D03*
X372509249Y-150429950D03*
D18*
X372509249Y-148394950D03*
%TD*%
D10*
%TO.C,SW20*%
X118435750Y-92735000D03*
D11*
X119705750Y-90195000D03*
D12*
X123515750Y-92735000D03*
D11*
X126055750Y-87655000D03*
D10*
X128595750Y-92735000D03*
D13*
X116430750Y-90195000D03*
X129357750Y-87655000D03*
%TD*%
D10*
%TO.C,SW35*%
X78035750Y-111760000D03*
D11*
X79305750Y-109220000D03*
D12*
X83115750Y-111760000D03*
D11*
X85655750Y-106680000D03*
D10*
X88195750Y-111760000D03*
D13*
X76030750Y-109220000D03*
X88957750Y-106680000D03*
%TD*%
D20*
%TO.C,U1*%
X57785000Y-80954000D03*
X55245000Y-80954000D03*
X52705000Y-80954000D03*
X50165000Y-80954000D03*
X47625000Y-80954000D03*
X45085000Y-80954000D03*
X42545000Y-80954000D03*
X40005000Y-80954000D03*
X37465000Y-80954000D03*
X34925000Y-80954000D03*
X32385000Y-80954000D03*
X29845000Y-80954000D03*
X29845000Y-65734000D03*
X32385000Y-65734000D03*
X34925000Y-65734000D03*
X37465000Y-65734000D03*
X40005000Y-65734000D03*
X42545000Y-65734000D03*
X45085000Y-65734000D03*
X47625000Y-65734000D03*
X50165000Y-65734000D03*
X52705000Y-65734000D03*
X55245000Y-65734000D03*
X57785000Y-65734000D03*
%TD*%
D10*
%TO.C,SW34*%
X47098750Y-111760000D03*
D11*
X48368750Y-109220000D03*
D12*
X52178750Y-111760000D03*
D11*
X54718750Y-106680000D03*
D10*
X57258750Y-111760000D03*
D13*
X45093750Y-109220000D03*
X58020750Y-106680000D03*
%TD*%
D16*
%TO.C,D34*%
X60274999Y-117989950D03*
D17*
X60274999Y-115954950D03*
X60274999Y-112404950D03*
D18*
X60274999Y-110369950D03*
%TD*%
D16*
%TO.C,D71*%
X179695000Y-156115000D03*
D17*
X179695000Y-154080000D03*
X179695000Y-150530000D03*
D18*
X179695000Y-148495000D03*
%TD*%
D10*
%TO.C,SW44*%
X278583000Y-111760000D03*
D11*
X279853000Y-109220000D03*
D12*
X283663000Y-111760000D03*
D11*
X286203000Y-106680000D03*
D10*
X288743000Y-111760000D03*
D13*
X276578000Y-109220000D03*
X289505000Y-106680000D03*
%TD*%
D16*
%TO.C,D58*%
X263259249Y-137014950D03*
D17*
X263259249Y-134979950D03*
X263259249Y-131429950D03*
D18*
X263259249Y-129394950D03*
%TD*%
D10*
%TO.C,SW42*%
X240583000Y-111760000D03*
D11*
X241853000Y-109220000D03*
D12*
X245663000Y-111760000D03*
D11*
X248203000Y-106680000D03*
D10*
X250743000Y-111760000D03*
D13*
X238578000Y-109220000D03*
X251505000Y-106680000D03*
%TD*%
D16*
%TO.C,D31*%
X367784249Y-98964950D03*
D17*
X367784249Y-96929950D03*
X367784249Y-93379950D03*
D18*
X367784249Y-91344950D03*
%TD*%
D10*
%TO.C,SW3*%
X108935750Y-73735000D03*
D11*
X110205750Y-71195000D03*
D12*
X114015750Y-73735000D03*
D11*
X116555750Y-68655000D03*
D10*
X119095750Y-73735000D03*
D13*
X106930750Y-71195000D03*
X119857750Y-68655000D03*
%TD*%
D16*
%TO.C,D68*%
X107861999Y-156014950D03*
D17*
X107861999Y-153979950D03*
X107861999Y-150429950D03*
D18*
X107861999Y-148394950D03*
%TD*%
D16*
%TO.C,D19*%
X112611999Y-98964950D03*
D17*
X112611999Y-96929950D03*
X112611999Y-93379950D03*
D18*
X112611999Y-91344950D03*
%TD*%
D16*
%TO.C,D17*%
X60274999Y-98964950D03*
D17*
X60274999Y-96929950D03*
X60274999Y-93379950D03*
D18*
X60274999Y-91344950D03*
%TD*%
D16*
%TO.C,D72*%
X239509249Y-156014950D03*
D17*
X239509249Y-153979950D03*
X239509249Y-150429950D03*
D18*
X239509249Y-148394950D03*
%TD*%
D10*
%TO.C,SW45*%
X297583000Y-111760000D03*
D11*
X298853000Y-109220000D03*
D12*
X302663000Y-111760000D03*
D11*
X305203000Y-106680000D03*
D10*
X307743000Y-111760000D03*
D13*
X295578000Y-109220000D03*
X308505000Y-106680000D03*
%TD*%
D16*
%TO.C,D30*%
X344009249Y-98964950D03*
D17*
X344009249Y-96929950D03*
X344009249Y-93379950D03*
D18*
X344009249Y-91344950D03*
%TD*%
D16*
%TO.C,D63*%
X372509249Y-137014950D03*
D17*
X372509249Y-134979950D03*
X372509249Y-131429950D03*
D18*
X372509249Y-129394950D03*
%TD*%
D10*
%TO.C,SW46*%
X316583000Y-111760000D03*
D11*
X317853000Y-109220000D03*
D12*
X321663000Y-111760000D03*
D11*
X324203000Y-106680000D03*
D10*
X326743000Y-111760000D03*
D13*
X314578000Y-109220000D03*
X327505000Y-106680000D03*
%TD*%
D16*
%TO.C,D40*%
X176525000Y-120560000D03*
D17*
X176525000Y-118525000D03*
X176525000Y-114975000D03*
D18*
X176525000Y-112940000D03*
%TD*%
D21*
%TO.C,LED77*%
X233363000Y-134847999D03*
X233363000Y-136248000D03*
X238963000Y-136248001D03*
X238963000Y-134848000D03*
%TD*%
%TO.C,LED3*%
X30378750Y-134847999D03*
X30378750Y-136248000D03*
X35978750Y-136248001D03*
X35978750Y-134848000D03*
%TD*%
%TO.C,LED27*%
X144465750Y-115822999D03*
X144465750Y-117223000D03*
X150065750Y-117223001D03*
X150065750Y-115823000D03*
%TD*%
%TO.C,LED70*%
X252363000Y-134847999D03*
X252363000Y-136248000D03*
X257963000Y-136248001D03*
X257963000Y-134848000D03*
%TD*%
%TO.C,LED7*%
X49378750Y-115822999D03*
X49378750Y-117223000D03*
X54978750Y-117223001D03*
X54978750Y-115823000D03*
%TD*%
%TO.C,LED32*%
X172965750Y-134847999D03*
X172965750Y-136248000D03*
X178565750Y-136248001D03*
X178565750Y-134848000D03*
%TD*%
%TO.C,LED38*%
X187215750Y-77797999D03*
X187215750Y-79198000D03*
X192815750Y-79198001D03*
X192815750Y-77798000D03*
%TD*%
D22*
%TO.C,SW15*%
X392838000Y-72735000D03*
X377838000Y-72735000D03*
D23*
X382838000Y-80235000D03*
X387838000Y-80235000D03*
X385338000Y-80235000D03*
X387838000Y-65135000D03*
X382838000Y-65135000D03*
%TD*%
D21*
%TO.C,LED13*%
X75565750Y-153847999D03*
X75565750Y-155248000D03*
X81165750Y-155248001D03*
X81165750Y-153848000D03*
%TD*%
%TO.C,LED30*%
X158715750Y-96797999D03*
X158715750Y-98198000D03*
X164315750Y-98198001D03*
X164315750Y-96798000D03*
%TD*%
%TO.C,LED28*%
X130215750Y-77797999D03*
X130215750Y-79198000D03*
X135815750Y-79198001D03*
X135815750Y-77798000D03*
%TD*%
%TO.C,LED71*%
X257138000Y-153847999D03*
X257138000Y-155248000D03*
X262738000Y-155248001D03*
X262738000Y-153848000D03*
%TD*%
%TO.C,LED35*%
X177715750Y-96797999D03*
X177715750Y-98198000D03*
X183315750Y-98198001D03*
X183315750Y-96798000D03*
%TD*%
%TO.C,LED29*%
X154816250Y-69672001D03*
X154816250Y-68272000D03*
X149216250Y-68271999D03*
X149216250Y-69672000D03*
%TD*%
%TO.C,LED58*%
X285613000Y-77797999D03*
X285613000Y-79198000D03*
X291213000Y-79198001D03*
X291213000Y-77798000D03*
%TD*%
%TO.C,LED11*%
X80315750Y-115822999D03*
X80315750Y-117223000D03*
X85915750Y-117223001D03*
X85915750Y-115823000D03*
%TD*%
%TO.C,LED52*%
X323613000Y-153847999D03*
X323613000Y-155248000D03*
X329213000Y-155248001D03*
X329213000Y-153848000D03*
%TD*%
%TO.C,LED60*%
X299863000Y-115822999D03*
X299863000Y-117223000D03*
X305463000Y-117223001D03*
X305463000Y-115823000D03*
%TD*%
%TO.C,LED76*%
X223863000Y-115822999D03*
X223863000Y-117223000D03*
X229463000Y-117223001D03*
X229463000Y-115823000D03*
%TD*%
%TO.C,LED46*%
X356888000Y-96797999D03*
X356888000Y-98198000D03*
X362488000Y-98198001D03*
X362488000Y-96798000D03*
%TD*%
%TO.C,LED37*%
X173816250Y-69672001D03*
X173816250Y-68272000D03*
X168216250Y-68271999D03*
X168216250Y-69672000D03*
%TD*%
%TO.C,LED68*%
X257113000Y-96797999D03*
X257113000Y-98198000D03*
X262713000Y-98198001D03*
X262713000Y-96798000D03*
%TD*%
%TO.C,LED45*%
X349763000Y-115822999D03*
X349763000Y-117223000D03*
X355363000Y-117223001D03*
X355363000Y-115823000D03*
%TD*%
%TO.C,LED50*%
X335513000Y-134847999D03*
X335513000Y-136248000D03*
X341113000Y-136248001D03*
X341113000Y-134848000D03*
%TD*%
%TO.C,LED14*%
X96965750Y-153847999D03*
X96965750Y-155248000D03*
X102565750Y-155248001D03*
X102565750Y-153848000D03*
%TD*%
%TO.C,LED1*%
X30378750Y-96797999D03*
X30378750Y-98198000D03*
X35978750Y-98198001D03*
X35978750Y-96798000D03*
%TD*%
%TO.C,LED62*%
X285613000Y-153847999D03*
X285613000Y-155248000D03*
X291213000Y-155248001D03*
X291213000Y-153848000D03*
%TD*%
%TO.C,LED69*%
X261863000Y-115822999D03*
X261863000Y-117223000D03*
X267463000Y-117223001D03*
X267463000Y-115823000D03*
%TD*%
%TO.C,LED64*%
X280863000Y-115822999D03*
X280863000Y-117223000D03*
X286463000Y-117223001D03*
X286463000Y-115823000D03*
%TD*%
%TO.C,LED18*%
X101715750Y-96797999D03*
X101715750Y-98198000D03*
X107315750Y-98198001D03*
X107315750Y-96798000D03*
%TD*%
%TO.C,LED74*%
X228613000Y-77797999D03*
X228613000Y-79198000D03*
X234213000Y-79198001D03*
X234213000Y-77798000D03*
%TD*%
%TO.C,LED24*%
X151565750Y-153847999D03*
X151565750Y-155248000D03*
X157165750Y-155248001D03*
X157165750Y-153848000D03*
%TD*%
%TO.C,LED63*%
X271363000Y-134847999D03*
X271363000Y-136248000D03*
X276963000Y-136248001D03*
X276963000Y-134848000D03*
%TD*%
%TO.C,LED61*%
X290363000Y-134847999D03*
X290363000Y-136248000D03*
X295963000Y-136248001D03*
X295963000Y-134848000D03*
%TD*%
%TO.C,LED2*%
X30378750Y-115822999D03*
X30378750Y-117223000D03*
X35978750Y-117223001D03*
X35978750Y-115823000D03*
%TD*%
%TO.C,LED20*%
X111215750Y-77797999D03*
X111215750Y-79198000D03*
X116815750Y-79198001D03*
X116815750Y-77798000D03*
%TD*%
%TO.C,LED19*%
X92215750Y-77797999D03*
X92215750Y-79198000D03*
X97815750Y-79198001D03*
X97815750Y-77798000D03*
%TD*%
%TO.C,LED41*%
X380613000Y-134847999D03*
X380613000Y-136248000D03*
X386213000Y-136248001D03*
X386213000Y-134848000D03*
%TD*%
%TO.C,LED33*%
X187215750Y-153847999D03*
X187215750Y-155248000D03*
X192815750Y-155248001D03*
X192815750Y-153848000D03*
%TD*%
%TO.C,LED59*%
X295113000Y-96797999D03*
X295113000Y-98198000D03*
X300713000Y-98198001D03*
X300713000Y-96798000D03*
%TD*%
%TO.C,LED72*%
X242863000Y-115822999D03*
X242863000Y-117223000D03*
X248463000Y-117223001D03*
X248463000Y-115823000D03*
%TD*%
%TO.C,LED57*%
X304613000Y-77797999D03*
X304613000Y-79198000D03*
X310213000Y-79198001D03*
X310213000Y-77798000D03*
%TD*%
%TO.C,LED47*%
X352138000Y-77797999D03*
X352138000Y-79198000D03*
X357738000Y-79198001D03*
X357738000Y-77798000D03*
%TD*%
%TO.C,LED48*%
X323613000Y-77797999D03*
X323613000Y-79198000D03*
X329213000Y-79198001D03*
X329213000Y-77798000D03*
%TD*%
%TO.C,LED22*%
X125465750Y-115822999D03*
X125465750Y-117223000D03*
X131065750Y-117223001D03*
X131065750Y-115823000D03*
%TD*%
D16*
%TO.C,D66*%
X60274999Y-156014950D03*
D17*
X60274999Y-153979950D03*
X60274999Y-150429950D03*
D18*
X60274999Y-148394950D03*
%TD*%
D21*
%TO.C,LED73*%
X238113000Y-96797999D03*
X238113000Y-98198000D03*
X243713000Y-98198001D03*
X243713000Y-96798000D03*
%TD*%
%TO.C,LED23*%
X134965750Y-134847999D03*
X134965750Y-136248000D03*
X140565750Y-136248001D03*
X140565750Y-134848000D03*
%TD*%
%TO.C,LED43*%
X361613000Y-153847999D03*
X361613000Y-155248000D03*
X367213000Y-155248001D03*
X367213000Y-153848000D03*
%TD*%
%TO.C,LED4*%
X30378750Y-153847999D03*
X30378750Y-155248000D03*
X35978750Y-155248001D03*
X35978750Y-153848000D03*
%TD*%
%TO.C,LED21*%
X120715750Y-96797999D03*
X120715750Y-98198000D03*
X126315750Y-98198001D03*
X126315750Y-96798000D03*
%TD*%
%TO.C,LED8*%
X49378750Y-96797999D03*
X49378750Y-98198000D03*
X54978750Y-98198001D03*
X54978750Y-96798000D03*
%TD*%
%TO.C,LED49*%
X333113000Y-96797999D03*
X333113000Y-98198000D03*
X338713000Y-98198001D03*
X338713000Y-96798000D03*
%TD*%
%TO.C,LED15*%
X115965750Y-153847999D03*
X115965750Y-155248000D03*
X121565750Y-155248001D03*
X121565750Y-153848000D03*
%TD*%
%TO.C,LED78*%
X228613000Y-153847999D03*
X228613000Y-155248000D03*
X234213000Y-155248001D03*
X234213000Y-153848000D03*
%TD*%
%TO.C,LED39*%
X380613000Y-96797999D03*
X380613000Y-98198000D03*
X386213000Y-98198001D03*
X386213000Y-96798000D03*
%TD*%
%TO.C,LED44*%
X361613000Y-134847999D03*
X361613000Y-136248000D03*
X367213000Y-136248001D03*
X367213000Y-134848000D03*
%TD*%
%TO.C,LED75*%
X219113000Y-96797999D03*
X219113000Y-98198000D03*
X224713000Y-98198001D03*
X224713000Y-96798000D03*
%TD*%
%TO.C,LED5*%
X49378750Y-153847999D03*
X49378750Y-155248000D03*
X54978750Y-155248001D03*
X54978750Y-153848000D03*
%TD*%
%TO.C,LED51*%
X342613000Y-153847999D03*
X342613000Y-155248000D03*
X348213000Y-155248001D03*
X348213000Y-153848000D03*
%TD*%
%TO.C,LED6*%
X49378750Y-134847999D03*
X49378750Y-136248000D03*
X54978750Y-136248001D03*
X54978750Y-134848000D03*
%TD*%
%TO.C,LED42*%
X380613000Y-153847999D03*
X380613000Y-155248000D03*
X386213000Y-155248001D03*
X386213000Y-153848000D03*
%TD*%
%TO.C,LED34*%
X191965750Y-134847999D03*
X191965750Y-136248000D03*
X197565750Y-136248001D03*
X197565750Y-134848000D03*
%TD*%
%TO.C,LED10*%
X77940750Y-96797999D03*
X77940750Y-98198000D03*
X83540750Y-98198001D03*
X83540750Y-96798000D03*
%TD*%
%TO.C,LED17*%
X106465750Y-115822999D03*
X106465750Y-117223000D03*
X112065750Y-117223001D03*
X112065750Y-115823000D03*
%TD*%
%TO.C,LED56*%
X318863000Y-115822999D03*
X318863000Y-117223000D03*
X324463000Y-117223001D03*
X324463000Y-115823000D03*
%TD*%
%TO.C,LED67*%
X253187000Y-69602001D03*
X253187000Y-68202000D03*
X247587000Y-68201999D03*
X247587000Y-69602000D03*
%TD*%
%TO.C,LED31*%
X163465750Y-115822999D03*
X163465750Y-117223000D03*
X169065750Y-117223001D03*
X169065750Y-115823000D03*
%TD*%
%TO.C,LED53*%
X304613000Y-153847999D03*
X304613000Y-155248000D03*
X310213000Y-155248001D03*
X310213000Y-153848000D03*
%TD*%
%TO.C,LED36*%
X182465750Y-115822999D03*
X182465750Y-117223000D03*
X188065750Y-117223001D03*
X188065750Y-115823000D03*
%TD*%
%TO.C,LED65*%
X272187000Y-69602001D03*
X272187000Y-68202000D03*
X266587000Y-68201999D03*
X266587000Y-69602000D03*
%TD*%
%TO.C,LED9*%
X73215750Y-77797999D03*
X73215750Y-79198000D03*
X78815750Y-79198001D03*
X78815750Y-77798000D03*
%TD*%
%TO.C,LED66*%
X276113000Y-96797999D03*
X276113000Y-98198000D03*
X281713000Y-98198001D03*
X281713000Y-96798000D03*
%TD*%
%TO.C,LED26*%
X139715750Y-96797999D03*
X139715750Y-98198000D03*
X145315750Y-98198001D03*
X145315750Y-96798000D03*
%TD*%
%TO.C,LED54*%
X309363000Y-134847999D03*
X309363000Y-136248000D03*
X314963000Y-136248001D03*
X314963000Y-134848000D03*
%TD*%
%TO.C,LED55*%
X314113000Y-96797999D03*
X314113000Y-98198000D03*
X319713000Y-98198001D03*
X319713000Y-96798000D03*
%TD*%
%TO.C,LED12*%
X85065750Y-134847999D03*
X85065750Y-136248000D03*
X90665750Y-136248001D03*
X90665750Y-134848000D03*
%TD*%
%TO.C,LED40*%
X380613000Y-115822999D03*
X380613000Y-117223000D03*
X386213000Y-117223001D03*
X386213000Y-115823000D03*
%TD*%
%TO.C,LED25*%
X153965750Y-134847999D03*
X153965750Y-136248000D03*
X159565750Y-136248001D03*
X159565750Y-134848000D03*
%TD*%
%TO.C,LED16*%
X115965750Y-134847999D03*
X115965750Y-136248000D03*
X121565750Y-136248001D03*
X121565750Y-134848000D03*
%TD*%
D10*
%TO.C,SW74*%
X283333000Y-149785000D03*
D11*
X284603000Y-147245000D03*
D12*
X288413000Y-149785000D03*
D11*
X290953000Y-144705000D03*
D10*
X293493000Y-149785000D03*
D13*
X281328000Y-147245000D03*
X294255000Y-144705000D03*
%TD*%
M02*
