%TF.GenerationSoftware,KiCad,Pcbnew,8.0.8*%
%TF.CreationDate,2025-04-11T15:04:37+09:00*%
%TF.ProjectId,sswkbd_wiring,7373776b-6264-45f7-9769-72696e672e6b,rev?*%
%TF.SameCoordinates,Original*%
%TF.FileFunction,Paste,Bot*%
%TF.FilePolarity,Positive*%
%FSLAX46Y46*%
G04 Gerber Fmt 4.6, Leading zero omitted, Abs format (unit mm)*
G04 Created by KiCad (PCBNEW 8.0.8) date 2025-04-11 15:04:37*
%MOMM*%
%LPD*%
G01*
G04 APERTURE LIST*
%ADD10R,0.950000X1.300000*%
%ADD11R,2.550000X2.500000*%
%ADD12R,1.700000X0.825000*%
G04 APERTURE END LIST*
D10*
%TO.C,D65*%
X41336999Y-153979950D03*
X41336999Y-150429950D03*
%TD*%
%TO.C,D32*%
X366509249Y-96929950D03*
X366509249Y-93379950D03*
%TD*%
%TO.C,D67*%
X86461999Y-153979950D03*
X86461999Y-150429950D03*
%TD*%
%TO.C,D50*%
X60336999Y-134979950D03*
X60336999Y-131429950D03*
%TD*%
%TO.C,D73*%
X243034249Y-153979950D03*
X243034249Y-150429950D03*
%TD*%
%TO.C,D46*%
X304759249Y-115954950D03*
X304759249Y-112404950D03*
%TD*%
%TO.C,D38*%
X155361999Y-115954950D03*
X155361999Y-112404950D03*
%TD*%
%TO.C,D76*%
X309509249Y-153979950D03*
X309509249Y-150429950D03*
%TD*%
%TO.C,D74*%
X271509249Y-153979950D03*
X271509249Y-150429950D03*
%TD*%
%TO.C,D52*%
X126861999Y-134979950D03*
X126861999Y-131429950D03*
%TD*%
%TO.C,D39*%
X174361999Y-115954950D03*
X174361999Y-112404950D03*
%TD*%
%TO.C,D15*%
X347491000Y-77923000D03*
X347491000Y-74373000D03*
%TD*%
%TO.C,D44*%
X266759249Y-115954950D03*
X266759249Y-112404950D03*
%TD*%
%TO.C,D4*%
X141111999Y-77929950D03*
X141111999Y-74379950D03*
%TD*%
%TO.C,D43*%
X247759249Y-115954950D03*
X247759249Y-112404950D03*
%TD*%
%TO.C,D41*%
X209759249Y-115954950D03*
X209759249Y-112404950D03*
%TD*%
%TO.C,D1*%
X84111999Y-77929950D03*
X84111999Y-74379950D03*
%TD*%
%TO.C,D11*%
X271509249Y-77929950D03*
X271509249Y-74379950D03*
%TD*%
%TO.C,D51*%
X95961999Y-134979950D03*
X95961999Y-131429950D03*
%TD*%
%TO.C,D59*%
X257259249Y-134979950D03*
X257259249Y-131429950D03*
%TD*%
%TO.C,D9*%
X216600000Y-77075000D03*
X216600000Y-73525000D03*
%TD*%
%TO.C,D3*%
X122111999Y-77929950D03*
X122111999Y-74379950D03*
%TD*%
%TO.C,D42*%
X228759249Y-115954950D03*
X228759249Y-112404950D03*
%TD*%
%TO.C,D64*%
X366509249Y-134979950D03*
X366509249Y-131429950D03*
%TD*%
%TO.C,D23*%
X171795000Y-99555000D03*
X171795000Y-96005000D03*
%TD*%
%TO.C,D33*%
X41336999Y-115954950D03*
X41336999Y-112404950D03*
%TD*%
%TO.C,D8*%
X214509249Y-77929950D03*
X214509249Y-74379950D03*
%TD*%
%TO.C,D45*%
X285759249Y-115954950D03*
X285759249Y-112404950D03*
%TD*%
%TO.C,D70*%
X162461999Y-153979950D03*
X162461999Y-150429950D03*
%TD*%
%TO.C,D24*%
X205009249Y-96929950D03*
X205009249Y-93379950D03*
%TD*%
%TO.C,D26*%
X243009249Y-96929950D03*
X243009249Y-93379950D03*
%TD*%
%TO.C,D6*%
X162600000Y-76175000D03*
X162600000Y-72625000D03*
%TD*%
%TO.C,D14*%
X338034249Y-77929950D03*
X338034249Y-74379950D03*
%TD*%
%TO.C,D12*%
X290509249Y-77929950D03*
X290509249Y-74379950D03*
%TD*%
%TO.C,D36*%
X117361999Y-115954950D03*
X117361999Y-112404950D03*
%TD*%
%TO.C,D29*%
X300009249Y-96929950D03*
X300009249Y-93379950D03*
%TD*%
%TO.C,D69*%
X126861999Y-153979950D03*
X126861999Y-150429950D03*
%TD*%
%TO.C,D20*%
X131611999Y-96929950D03*
X131611999Y-93379950D03*
%TD*%
%TO.C,D47*%
X335659249Y-115954950D03*
X335659249Y-112404950D03*
%TD*%
%TO.C,D62*%
X322550000Y-132225000D03*
X322550000Y-128675000D03*
%TD*%
%TO.C,D48*%
X366509249Y-115954950D03*
X366509249Y-112404950D03*
%TD*%
%TO.C,D22*%
X169611999Y-96929950D03*
X169611999Y-93379950D03*
%TD*%
%TO.C,D16*%
X41336999Y-96929950D03*
X41336999Y-93379950D03*
%TD*%
%TO.C,D49*%
X41336999Y-134979950D03*
X41336999Y-131429950D03*
%TD*%
%TO.C,D25*%
X224009249Y-96929950D03*
X224009249Y-93379950D03*
%TD*%
%TO.C,D53*%
X145861999Y-134979950D03*
X145861999Y-131429950D03*
%TD*%
%TO.C,D28*%
X281009249Y-96929950D03*
X281009249Y-93379950D03*
%TD*%
%TO.C,D7*%
X181255000Y-80530000D03*
X181255000Y-76980000D03*
%TD*%
%TO.C,D61*%
X295259249Y-134979950D03*
X295259249Y-131429950D03*
%TD*%
%TO.C,D37*%
X136361999Y-115954950D03*
X136361999Y-112404950D03*
%TD*%
%TO.C,D77*%
X328509249Y-153979950D03*
X328509249Y-150429950D03*
%TD*%
%TO.C,D10*%
X236000000Y-78375000D03*
X236000000Y-74825000D03*
%TD*%
%TO.C,D57*%
X219259249Y-134979950D03*
X219259249Y-131429950D03*
%TD*%
%TO.C,D75*%
X290509249Y-153979950D03*
X290509249Y-150429950D03*
%TD*%
%TO.C,D56*%
X186040000Y-136795000D03*
X186040000Y-133245000D03*
%TD*%
%TO.C,D60*%
X276259249Y-134979950D03*
X276259249Y-131429950D03*
%TD*%
%TO.C,D5*%
X143637000Y-76321000D03*
X143637000Y-72771000D03*
%TD*%
%TO.C,D35*%
X91211999Y-115954950D03*
X91211999Y-112404950D03*
%TD*%
%TO.C,D21*%
X150611999Y-96929950D03*
X150611999Y-93379950D03*
%TD*%
%TO.C,D13*%
X309509249Y-77929950D03*
X309509249Y-74379950D03*
%TD*%
%TO.C,D18*%
X88836999Y-96929950D03*
X88836999Y-93379950D03*
%TD*%
%TO.C,D27*%
X262009249Y-96929950D03*
X262009249Y-93379950D03*
%TD*%
%TO.C,D55*%
X183861999Y-134979950D03*
X183861999Y-131429950D03*
%TD*%
%TO.C,D54*%
X164861999Y-134979950D03*
X164861999Y-131429950D03*
%TD*%
%TO.C,D2*%
X103111999Y-77929950D03*
X103111999Y-74379950D03*
%TD*%
%TO.C,D79*%
X366509249Y-153979950D03*
X366509249Y-150429950D03*
%TD*%
%TO.C,D78*%
X347509249Y-153979950D03*
X347509249Y-150429950D03*
%TD*%
%TO.C,D34*%
X60336999Y-115954950D03*
X60336999Y-112404950D03*
%TD*%
%TO.C,D71*%
X179695000Y-154080000D03*
X179695000Y-150530000D03*
%TD*%
%TO.C,D58*%
X238259249Y-134979950D03*
X238259249Y-131429950D03*
%TD*%
%TO.C,D31*%
X342784249Y-96929950D03*
X342784249Y-93379950D03*
%TD*%
%TO.C,D68*%
X107861999Y-153979950D03*
X107861999Y-150429950D03*
%TD*%
%TO.C,D19*%
X112611999Y-96929950D03*
X112611999Y-93379950D03*
%TD*%
%TO.C,D17*%
X60336999Y-96929950D03*
X60336999Y-93379950D03*
%TD*%
%TO.C,D72*%
X214509249Y-153979950D03*
X214509249Y-150429950D03*
%TD*%
%TO.C,D30*%
X319009249Y-96929950D03*
X319009249Y-93379950D03*
%TD*%
%TO.C,D63*%
X347509249Y-134979950D03*
X347509249Y-131429950D03*
%TD*%
%TO.C,D40*%
X176525000Y-118525000D03*
X176525000Y-114975000D03*
%TD*%
%TO.C,D66*%
X60336999Y-153979950D03*
X60336999Y-150429950D03*
%TD*%
D11*
%TO.C,SW13*%
X307255000Y-68655000D03*
X294328000Y-71195000D03*
%TD*%
%TO.C,SW6*%
X165174250Y-78815000D03*
X178101250Y-76275000D03*
%TD*%
%TO.C,SW50*%
X45155750Y-128245000D03*
X58082750Y-125705000D03*
%TD*%
%TO.C,SW28*%
X278755000Y-87655000D03*
X265828000Y-90195000D03*
%TD*%
%TO.C,SW75*%
X288255000Y-144705000D03*
X275328000Y-147245000D03*
%TD*%
%TO.C,SW2*%
X100857750Y-68655000D03*
X87930750Y-71195000D03*
%TD*%
%TO.C,SW22*%
X167357750Y-87655000D03*
X154430750Y-90195000D03*
%TD*%
%TO.C,SW53*%
X143607750Y-125705000D03*
X130680750Y-128245000D03*
%TD*%
%TO.C,SW66*%
X45155750Y-147245000D03*
X58082750Y-144705000D03*
%TD*%
%TO.C,SW18*%
X86582750Y-87655000D03*
X73655750Y-90195000D03*
%TD*%
%TO.C,SW8*%
X212255000Y-68655000D03*
X199328000Y-71195000D03*
%TD*%
%TO.C,SW26*%
X240755000Y-87655000D03*
X227828000Y-90195000D03*
%TD*%
%TO.C,SW29*%
X297755000Y-87655000D03*
X284828000Y-90195000D03*
%TD*%
%TO.C,SW41*%
X207505000Y-106680000D03*
X194578000Y-109220000D03*
%TD*%
%TO.C,SW67*%
X84207750Y-144705000D03*
X71280750Y-147245000D03*
%TD*%
%TO.C,SW77*%
X326255000Y-144705000D03*
X313328000Y-147245000D03*
%TD*%
%TO.C,SW73*%
X240780000Y-144705000D03*
X227853000Y-147245000D03*
%TD*%
%TO.C,SW43*%
X245505000Y-106680000D03*
X232578000Y-109220000D03*
%TD*%
%TO.C,SW70*%
X160207750Y-144705000D03*
X147280750Y-147245000D03*
%TD*%
%TO.C,SW68*%
X105607750Y-144705000D03*
X92680750Y-147245000D03*
%TD*%
%TO.C,SW23*%
X186357750Y-87655000D03*
X173430750Y-90195000D03*
%TD*%
%TO.C,SW76*%
X307255000Y-144705000D03*
X294328000Y-147245000D03*
%TD*%
%TO.C,SW24*%
X202755000Y-87655000D03*
X189828000Y-90195000D03*
%TD*%
%TO.C,SW10*%
X238545000Y-78745000D03*
X251472000Y-76205000D03*
%TD*%
%TO.C,SW79*%
X364255000Y-144705000D03*
X351328000Y-147245000D03*
%TD*%
%TO.C,SW78*%
X345255000Y-144705000D03*
X332328000Y-147245000D03*
%TD*%
%TO.C,SW16*%
X26155750Y-90195000D03*
X39082750Y-87655000D03*
%TD*%
%TO.C,SW65*%
X26155750Y-147245000D03*
X39082750Y-144705000D03*
%TD*%
%TO.C,SW58*%
X236005000Y-125705000D03*
X223078000Y-128245000D03*
%TD*%
%TO.C,SW57*%
X217005000Y-125705000D03*
X204078000Y-128245000D03*
%TD*%
%TO.C,SW59*%
X255005000Y-125705000D03*
X242078000Y-128245000D03*
%TD*%
%TO.C,SW64*%
X364255000Y-125705000D03*
X351328000Y-128245000D03*
%TD*%
%TO.C,SW14*%
X335780000Y-68655000D03*
X322853000Y-71195000D03*
%TD*%
%TO.C,SW63*%
X345255000Y-125705000D03*
X332328000Y-128245000D03*
%TD*%
%TO.C,SW38*%
X153107750Y-106680000D03*
X140180750Y-109220000D03*
%TD*%
%TO.C,SW69*%
X124607750Y-144705000D03*
X111680750Y-147245000D03*
%TD*%
%TO.C,SW60*%
X274005000Y-125705000D03*
X261078000Y-128245000D03*
%TD*%
%TO.C,SW9*%
X219545000Y-78745000D03*
X232472000Y-76205000D03*
%TD*%
%TO.C,SW51*%
X93707750Y-125705000D03*
X80780750Y-128245000D03*
%TD*%
%TO.C,SW12*%
X288255000Y-68655000D03*
X275328000Y-71195000D03*
%TD*%
%TO.C,SW49*%
X26155750Y-128245000D03*
X39082750Y-125705000D03*
%TD*%
%TO.C,SW27*%
X259755000Y-87655000D03*
X246828000Y-90195000D03*
%TD*%
%TO.C,SW56*%
X200607750Y-125705000D03*
X187680750Y-128245000D03*
%TD*%
%TO.C,SW7*%
X195857750Y-68655000D03*
X182930750Y-71195000D03*
%TD*%
%TO.C,SW39*%
X172107750Y-106680000D03*
X159180750Y-109220000D03*
%TD*%
%TO.C,SW4*%
X138857750Y-68655000D03*
X125930750Y-71195000D03*
%TD*%
%TO.C,SW47*%
X333405000Y-106680000D03*
X320478000Y-109220000D03*
%TD*%
%TO.C,SW17*%
X45155750Y-90195000D03*
X58082750Y-87655000D03*
%TD*%
%TO.C,SW19*%
X110357750Y-87655000D03*
X97430750Y-90195000D03*
%TD*%
%TO.C,SW36*%
X115107750Y-106680000D03*
X102180750Y-109220000D03*
%TD*%
%TO.C,SW55*%
X181607750Y-125705000D03*
X168680750Y-128245000D03*
%TD*%
%TO.C,SW62*%
X319155000Y-125705000D03*
X306228000Y-128245000D03*
%TD*%
%TO.C,SW31*%
X340530000Y-87655000D03*
X327603000Y-90195000D03*
%TD*%
%TO.C,SW61*%
X293005000Y-125705000D03*
X280078000Y-128245000D03*
%TD*%
%TO.C,SW48*%
X364255000Y-106680000D03*
X351328000Y-109220000D03*
%TD*%
%TO.C,SW5*%
X146174250Y-78815000D03*
X159101250Y-76275000D03*
%TD*%
%TO.C,SW52*%
X124607750Y-125705000D03*
X111680750Y-128245000D03*
%TD*%
%TO.C,SW54*%
X162607750Y-125705000D03*
X149680750Y-128245000D03*
%TD*%
%TO.C,SW33*%
X26155750Y-109220000D03*
X39082750Y-106680000D03*
%TD*%
%TO.C,SW37*%
X134107750Y-106680000D03*
X121180750Y-109220000D03*
%TD*%
%TO.C,SW1*%
X81857750Y-68655000D03*
X68930750Y-71195000D03*
%TD*%
%TO.C,SW30*%
X316755000Y-87655000D03*
X303828000Y-90195000D03*
%TD*%
%TO.C,SW32*%
X364255000Y-87655000D03*
X351328000Y-90195000D03*
%TD*%
%TO.C,SW71*%
X195857750Y-144705000D03*
X182930750Y-147245000D03*
%TD*%
%TO.C,SW11*%
X269255000Y-68655000D03*
X256328000Y-71195000D03*
%TD*%
%TO.C,SW21*%
X148357750Y-87655000D03*
X135430750Y-90195000D03*
%TD*%
%TO.C,SW25*%
X221755000Y-87655000D03*
X208828000Y-90195000D03*
%TD*%
%TO.C,SW40*%
X191107750Y-106680000D03*
X178180750Y-109220000D03*
%TD*%
%TO.C,SW72*%
X212255000Y-144705000D03*
X199328000Y-147245000D03*
%TD*%
%TO.C,SW20*%
X129357750Y-87655000D03*
X116430750Y-90195000D03*
%TD*%
%TO.C,SW35*%
X88957750Y-106680000D03*
X76030750Y-109220000D03*
%TD*%
%TO.C,SW34*%
X45155750Y-109220000D03*
X58082750Y-106680000D03*
%TD*%
%TO.C,SW44*%
X264505000Y-106680000D03*
X251578000Y-109220000D03*
%TD*%
%TO.C,SW74*%
X269255000Y-144705000D03*
X256328000Y-147245000D03*
%TD*%
%TO.C,SW42*%
X226505000Y-106680000D03*
X213578000Y-109220000D03*
%TD*%
%TO.C,SW3*%
X119857750Y-68655000D03*
X106930750Y-71195000D03*
%TD*%
%TO.C,SW45*%
X283505000Y-106680000D03*
X270578000Y-109220000D03*
%TD*%
%TO.C,SW46*%
X302505000Y-106680000D03*
X289578000Y-109220000D03*
%TD*%
D12*
%TO.C,LED77*%
X208363000Y-134847999D03*
X208363000Y-136248000D03*
X213963000Y-136248001D03*
X213963000Y-134848000D03*
%TD*%
%TO.C,LED3*%
X36040750Y-134848000D03*
X36040750Y-136248001D03*
X30440750Y-136248000D03*
X30440750Y-134847999D03*
%TD*%
%TO.C,LED27*%
X144465750Y-115822999D03*
X144465750Y-117223000D03*
X150065750Y-117223001D03*
X150065750Y-115823000D03*
%TD*%
%TO.C,LED70*%
X227363000Y-134847999D03*
X227363000Y-136248000D03*
X232963000Y-136248001D03*
X232963000Y-134848000D03*
%TD*%
%TO.C,LED7*%
X55040750Y-115823000D03*
X55040750Y-117223001D03*
X49440750Y-117223000D03*
X49440750Y-115822999D03*
%TD*%
%TO.C,LED32*%
X172965750Y-134847999D03*
X172965750Y-136248000D03*
X178565750Y-136248001D03*
X178565750Y-134848000D03*
%TD*%
%TO.C,LED38*%
X187215750Y-77797999D03*
X187215750Y-79198000D03*
X192815750Y-79198001D03*
X192815750Y-77798000D03*
%TD*%
%TO.C,LED13*%
X75565750Y-153847999D03*
X75565750Y-155248000D03*
X81165750Y-155248001D03*
X81165750Y-153848000D03*
%TD*%
%TO.C,LED30*%
X158715750Y-96797999D03*
X158715750Y-98198000D03*
X164315750Y-98198001D03*
X164315750Y-96798000D03*
%TD*%
%TO.C,LED28*%
X130215750Y-77797999D03*
X130215750Y-79198000D03*
X135815750Y-79198001D03*
X135815750Y-77798000D03*
%TD*%
%TO.C,LED71*%
X232138000Y-153847999D03*
X232138000Y-155248000D03*
X237738000Y-155248001D03*
X237738000Y-153848000D03*
%TD*%
%TO.C,LED35*%
X177715750Y-96797999D03*
X177715750Y-98198000D03*
X183315750Y-98198001D03*
X183315750Y-96798000D03*
%TD*%
%TO.C,LED29*%
X154816250Y-69672001D03*
X154816250Y-68272000D03*
X149216250Y-68271999D03*
X149216250Y-69672000D03*
%TD*%
%TO.C,LED58*%
X260613000Y-77797999D03*
X260613000Y-79198000D03*
X266213000Y-79198001D03*
X266213000Y-77798000D03*
%TD*%
%TO.C,LED11*%
X80315750Y-115822999D03*
X80315750Y-117223000D03*
X85915750Y-117223001D03*
X85915750Y-115823000D03*
%TD*%
%TO.C,LED52*%
X298613000Y-153847999D03*
X298613000Y-155248000D03*
X304213000Y-155248001D03*
X304213000Y-153848000D03*
%TD*%
%TO.C,LED60*%
X274863000Y-115822999D03*
X274863000Y-117223000D03*
X280463000Y-117223001D03*
X280463000Y-115823000D03*
%TD*%
%TO.C,LED76*%
X198863000Y-115822999D03*
X198863000Y-117223000D03*
X204463000Y-117223001D03*
X204463000Y-115823000D03*
%TD*%
%TO.C,LED46*%
X331888000Y-96797999D03*
X331888000Y-98198000D03*
X337488000Y-98198001D03*
X337488000Y-96798000D03*
%TD*%
%TO.C,LED37*%
X173816250Y-69672001D03*
X173816250Y-68272000D03*
X168216250Y-68271999D03*
X168216250Y-69672000D03*
%TD*%
%TO.C,LED68*%
X232113000Y-96797999D03*
X232113000Y-98198000D03*
X237713000Y-98198001D03*
X237713000Y-96798000D03*
%TD*%
%TO.C,LED45*%
X324763000Y-115822999D03*
X324763000Y-117223000D03*
X330363000Y-117223001D03*
X330363000Y-115823000D03*
%TD*%
%TO.C,LED50*%
X310513000Y-134847999D03*
X310513000Y-136248000D03*
X316113000Y-136248001D03*
X316113000Y-134848000D03*
%TD*%
%TO.C,LED14*%
X96965750Y-153847999D03*
X96965750Y-155248000D03*
X102565750Y-155248001D03*
X102565750Y-153848000D03*
%TD*%
%TO.C,LED1*%
X36040750Y-96798000D03*
X36040750Y-98198001D03*
X30440750Y-98198000D03*
X30440750Y-96797999D03*
%TD*%
%TO.C,LED62*%
X260613000Y-153847999D03*
X260613000Y-155248000D03*
X266213000Y-155248001D03*
X266213000Y-153848000D03*
%TD*%
%TO.C,LED69*%
X236863000Y-115822999D03*
X236863000Y-117223000D03*
X242463000Y-117223001D03*
X242463000Y-115823000D03*
%TD*%
%TO.C,LED64*%
X255863000Y-115822999D03*
X255863000Y-117223000D03*
X261463000Y-117223001D03*
X261463000Y-115823000D03*
%TD*%
%TO.C,LED18*%
X101715750Y-96797999D03*
X101715750Y-98198000D03*
X107315750Y-98198001D03*
X107315750Y-96798000D03*
%TD*%
%TO.C,LED74*%
X203613000Y-77797999D03*
X203613000Y-79198000D03*
X209213000Y-79198001D03*
X209213000Y-77798000D03*
%TD*%
%TO.C,LED24*%
X151565750Y-153847999D03*
X151565750Y-155248000D03*
X157165750Y-155248001D03*
X157165750Y-153848000D03*
%TD*%
%TO.C,LED63*%
X246363000Y-134847999D03*
X246363000Y-136248000D03*
X251963000Y-136248001D03*
X251963000Y-134848000D03*
%TD*%
%TO.C,LED61*%
X265363000Y-134847999D03*
X265363000Y-136248000D03*
X270963000Y-136248001D03*
X270963000Y-134848000D03*
%TD*%
%TO.C,LED2*%
X36040750Y-115823000D03*
X36040750Y-117223001D03*
X30440750Y-117223000D03*
X30440750Y-115822999D03*
%TD*%
%TO.C,LED20*%
X111215750Y-77797999D03*
X111215750Y-79198000D03*
X116815750Y-79198001D03*
X116815750Y-77798000D03*
%TD*%
%TO.C,LED19*%
X92215750Y-77797999D03*
X92215750Y-79198000D03*
X97815750Y-79198001D03*
X97815750Y-77798000D03*
%TD*%
%TO.C,LED41*%
X355613000Y-134847999D03*
X355613000Y-136248000D03*
X361213000Y-136248001D03*
X361213000Y-134848000D03*
%TD*%
%TO.C,LED33*%
X187215750Y-153847999D03*
X187215750Y-155248000D03*
X192815750Y-155248001D03*
X192815750Y-153848000D03*
%TD*%
%TO.C,LED59*%
X270113000Y-96797999D03*
X270113000Y-98198000D03*
X275713000Y-98198001D03*
X275713000Y-96798000D03*
%TD*%
%TO.C,LED72*%
X217863000Y-115822999D03*
X217863000Y-117223000D03*
X223463000Y-117223001D03*
X223463000Y-115823000D03*
%TD*%
%TO.C,LED57*%
X279613000Y-77797999D03*
X279613000Y-79198000D03*
X285213000Y-79198001D03*
X285213000Y-77798000D03*
%TD*%
%TO.C,LED47*%
X327138000Y-77797999D03*
X327138000Y-79198000D03*
X332738000Y-79198001D03*
X332738000Y-77798000D03*
%TD*%
%TO.C,LED48*%
X298613000Y-77797999D03*
X298613000Y-79198000D03*
X304213000Y-79198001D03*
X304213000Y-77798000D03*
%TD*%
%TO.C,LED22*%
X125465750Y-115822999D03*
X125465750Y-117223000D03*
X131065750Y-117223001D03*
X131065750Y-115823000D03*
%TD*%
%TO.C,LED73*%
X213113000Y-96797999D03*
X213113000Y-98198000D03*
X218713000Y-98198001D03*
X218713000Y-96798000D03*
%TD*%
%TO.C,LED23*%
X134965750Y-134847999D03*
X134965750Y-136248000D03*
X140565750Y-136248001D03*
X140565750Y-134848000D03*
%TD*%
%TO.C,LED43*%
X336613000Y-153847999D03*
X336613000Y-155248000D03*
X342213000Y-155248001D03*
X342213000Y-153848000D03*
%TD*%
%TO.C,LED4*%
X36040750Y-153848000D03*
X36040750Y-155248001D03*
X30440750Y-155248000D03*
X30440750Y-153847999D03*
%TD*%
%TO.C,LED21*%
X120715750Y-96797999D03*
X120715750Y-98198000D03*
X126315750Y-98198001D03*
X126315750Y-96798000D03*
%TD*%
%TO.C,LED8*%
X55040750Y-96798000D03*
X55040750Y-98198001D03*
X49440750Y-98198000D03*
X49440750Y-96797999D03*
%TD*%
%TO.C,LED49*%
X308113000Y-96797999D03*
X308113000Y-98198000D03*
X313713000Y-98198001D03*
X313713000Y-96798000D03*
%TD*%
%TO.C,LED15*%
X115965750Y-153847999D03*
X115965750Y-155248000D03*
X121565750Y-155248001D03*
X121565750Y-153848000D03*
%TD*%
%TO.C,LED78*%
X203613000Y-153847999D03*
X203613000Y-155248000D03*
X209213000Y-155248001D03*
X209213000Y-153848000D03*
%TD*%
%TO.C,LED39*%
X355613000Y-96797999D03*
X355613000Y-98198000D03*
X361213000Y-98198001D03*
X361213000Y-96798000D03*
%TD*%
%TO.C,LED44*%
X336613000Y-134847999D03*
X336613000Y-136248000D03*
X342213000Y-136248001D03*
X342213000Y-134848000D03*
%TD*%
%TO.C,LED75*%
X194113000Y-96797999D03*
X194113000Y-98198000D03*
X199713000Y-98198001D03*
X199713000Y-96798000D03*
%TD*%
%TO.C,LED5*%
X55040750Y-153848000D03*
X55040750Y-155248001D03*
X49440750Y-155248000D03*
X49440750Y-153847999D03*
%TD*%
%TO.C,LED51*%
X317613000Y-153847999D03*
X317613000Y-155248000D03*
X323213000Y-155248001D03*
X323213000Y-153848000D03*
%TD*%
%TO.C,LED6*%
X55040750Y-134848000D03*
X55040750Y-136248001D03*
X49440750Y-136248000D03*
X49440750Y-134847999D03*
%TD*%
%TO.C,LED42*%
X355613000Y-153847999D03*
X355613000Y-155248000D03*
X361213000Y-155248001D03*
X361213000Y-153848000D03*
%TD*%
%TO.C,LED34*%
X191965750Y-134847999D03*
X191965750Y-136248000D03*
X197565750Y-136248001D03*
X197565750Y-134848000D03*
%TD*%
%TO.C,LED10*%
X77940750Y-96797999D03*
X77940750Y-98198000D03*
X83540750Y-98198001D03*
X83540750Y-96798000D03*
%TD*%
%TO.C,LED17*%
X106465750Y-115822999D03*
X106465750Y-117223000D03*
X112065750Y-117223001D03*
X112065750Y-115823000D03*
%TD*%
%TO.C,LED56*%
X293863000Y-115822999D03*
X293863000Y-117223000D03*
X299463000Y-117223001D03*
X299463000Y-115823000D03*
%TD*%
%TO.C,LED67*%
X228187000Y-69602001D03*
X228187000Y-68202000D03*
X222587000Y-68201999D03*
X222587000Y-69602000D03*
%TD*%
%TO.C,LED31*%
X163465750Y-115822999D03*
X163465750Y-117223000D03*
X169065750Y-117223001D03*
X169065750Y-115823000D03*
%TD*%
%TO.C,LED53*%
X279613000Y-153847999D03*
X279613000Y-155248000D03*
X285213000Y-155248001D03*
X285213000Y-153848000D03*
%TD*%
%TO.C,LED36*%
X182465750Y-115822999D03*
X182465750Y-117223000D03*
X188065750Y-117223001D03*
X188065750Y-115823000D03*
%TD*%
%TO.C,LED65*%
X247187000Y-69602001D03*
X247187000Y-68202000D03*
X241587000Y-68201999D03*
X241587000Y-69602000D03*
%TD*%
%TO.C,LED9*%
X73215750Y-77797999D03*
X73215750Y-79198000D03*
X78815750Y-79198001D03*
X78815750Y-77798000D03*
%TD*%
%TO.C,LED66*%
X251113000Y-96797999D03*
X251113000Y-98198000D03*
X256713000Y-98198001D03*
X256713000Y-96798000D03*
%TD*%
%TO.C,LED26*%
X139715750Y-96797999D03*
X139715750Y-98198000D03*
X145315750Y-98198001D03*
X145315750Y-96798000D03*
%TD*%
%TO.C,LED54*%
X284363000Y-134847999D03*
X284363000Y-136248000D03*
X289963000Y-136248001D03*
X289963000Y-134848000D03*
%TD*%
%TO.C,LED55*%
X289113000Y-96797999D03*
X289113000Y-98198000D03*
X294713000Y-98198001D03*
X294713000Y-96798000D03*
%TD*%
%TO.C,LED12*%
X85065750Y-134847999D03*
X85065750Y-136248000D03*
X90665750Y-136248001D03*
X90665750Y-134848000D03*
%TD*%
%TO.C,LED40*%
X355613000Y-115822999D03*
X355613000Y-117223000D03*
X361213000Y-117223001D03*
X361213000Y-115823000D03*
%TD*%
%TO.C,LED25*%
X153965750Y-134847999D03*
X153965750Y-136248000D03*
X159565750Y-136248001D03*
X159565750Y-134848000D03*
%TD*%
%TO.C,LED16*%
X115965750Y-134847999D03*
X115965750Y-136248000D03*
X121565750Y-136248001D03*
X121565750Y-134848000D03*
%TD*%
M02*
