M48
; DRILL file {KiCad 8.0.8} date 2025-04-13T22:17:12+0900
; FORMAT={-:-/ absolute / inch / decimal}
; #@! TF.CreationDate,2025-04-13T22:17:12+09:00
; #@! TF.GenerationSoftware,Kicad,Pcbnew,8.0.8
; #@! TF.FileFunction,Plated,1,2,PTH
FMAT,2
INCH
; #@! TA.AperFunction,Plated,PTH,ViaDrill
T1C0.0118
; #@! TA.AperFunction,Plated,PTH,ComponentDrill
T2C0.0197
; #@! TA.AperFunction,Plated,PTH,ComponentDrill
T3C0.0320
; #@! TA.AperFunction,Plated,PTH,ComponentDrill
T4C0.0394
; #@! TA.AperFunction,Plated,PTH,ComponentDrill
T5C0.0591
%
G90
G05
T1
X0.995Y-3.07
X0.9974Y-3.165
X1.01Y-6.055
X1.0337Y-3.4385
X1.0474Y-3.356
X1.0635Y-6.1181
X1.0674Y-5.3996
X1.0753Y-3.939
X1.0814Y-2.719
X1.0891Y-4.6634
X1.1014Y-2.686
X1.1074Y-3.395
X1.1363Y-3.0866
X1.1774Y-3.075
X1.1993Y-4.0709
X1.215Y-2.8031
X1.215Y-2.8661
X1.2694Y-3.504
X1.2859Y-2.8228
X1.3474Y-3.0543
X1.3528Y-2.8465
X1.4119Y-4.7146
X1.4164Y-3.551
X1.4178Y-6.1614
X1.4198Y-4.5217
X1.4257Y-3.752
X1.4788Y-6.063
X1.5774Y-3.0343
X1.5914Y-2.9449
X1.6234Y-2.9094
X1.6634Y-2.8681
X1.6774Y-3.0143
X1.7072Y-4.7165
X1.7174Y-2.7992
X1.7249Y-4.0236
X1.7367Y-5.4902
X1.7524Y-4.752
X1.7774Y-2.9907
X1.7837Y-3.6572
X1.7837Y-4.1875
X1.7837Y-4.375
X1.7837Y-4.9365
X1.7837Y-5.1553
X1.7837Y-5.622
X1.8095Y-2.9449
X1.8174Y-4.0236
X1.8194Y-4.752
X1.8274Y-5.26
X1.845Y-5.9961
X1.8765Y-5.4213
X1.8765Y-6.0906
X1.8774Y-2.9671
X1.8774Y-3.105
X1.8922Y-5.311
X1.8922Y-5.4902
X1.9276Y-2.9094
X1.9493Y-6.1555
X1.965Y-4.6673
X1.9946Y-5.4213
X2.0812Y-2.9094
X2.1009Y-4.752
X2.1174Y-3.935
X2.1658Y-4.8012
X2.1737Y-4.0236
X2.2074Y-3.935
X2.2347Y-4.6063
X2.2524Y-4.752
X2.2564Y-5.313
X2.2662Y-3.8622
X2.2774Y-2.941
X2.366Y-2.899
X2.3674Y-3.31
X2.45Y-2.905
X2.455Y-2.845
X2.513Y-4.205
X2.552Y-4.405
X2.57Y-4.305
X2.571Y-4.0236
X2.575Y-2.781
X2.577Y-3.837
X2.6107Y-3.485
X2.6107Y-3.92
X2.6107Y-4.0689
X2.6107Y-4.622
X2.6107Y-5.22
X2.6107Y-5.32
X2.615Y-3.061
X2.6291Y-3.0029
X2.652Y-4.0236
X2.652Y-5.3465
X2.6811Y-3.1299
X2.715Y-2.898
X2.7461Y-3.128
X2.7579Y-4.1083
X2.7638Y-3.4882
X2.8063Y-5.6687
X2.8228Y-3.437
X2.855Y-3.65
X2.885Y-3.28
X2.885Y-3.76
X2.905Y-6.01
X2.9062Y-3.6572
X2.9075Y-3.9823
X2.9114Y-6.065
X2.9587Y-4.0689
X3.0Y-4.1875
X3.0Y-4.4375
X3.055Y-3.72
X3.0571Y-3.2343
X3.0571Y-3.4213
X3.07Y-3.985
X3.07Y-4.125
X3.1Y-3.24
X3.126Y-5.502
X3.13Y-4.752
X3.1457Y-4.5079
X3.165Y-4.0236
X3.1803Y-5.1481
X3.1875Y-4.9365
X3.2Y-5.85
X3.2025Y-4.6825
X3.205Y-4.88
X3.24Y-4.75
X3.26Y-5.265
X3.35Y-5.495
X3.4449Y-3.1594
X3.4567Y-4.7047
X3.4688Y-2.878
X3.4688Y-3.3447
X3.4961Y-3.1594
X3.5768Y-5.4311
X3.75Y-3.815
X3.7657Y-6.0256
X3.8012Y-4.0236
X3.815Y-3.26
X3.82Y-6.155
X3.835Y-3.3957
X3.835Y-3.471
X3.835Y-3.636
X3.835Y-4.295
X3.865Y-3.815
X3.872Y-4.0236
X3.8916Y-3.2734
X3.9488Y-3.4331
X3.95Y-3.23
X3.985Y-3.925
X3.985Y-4.4
X4.025Y-6.0
X4.0512Y-5.4331
X4.0728Y-4.7067
X4.085Y-4.195
X4.1476Y-4.7677
X4.18Y-4.665
X4.1811Y-3.1594
X4.21Y-2.878
X4.21Y-3.286
X4.2402Y-3.1575
X4.27Y-4.0689
X4.2913Y-4.7677
X4.345Y-3.1934
X4.355Y-5.985
X4.38Y-3.155
X4.395Y-4.939
X4.41Y-4.0689
X4.415Y-3.37
X4.45Y-3.1934
X4.46Y-4.7677
X4.4626Y-5.5079
X4.4882Y-6.1875
X4.505Y-4.725
X4.54Y-4.7677
X4.54Y-5.41
X4.545Y-3.725
X4.545Y-6.155
X4.5512Y-4.0236
X4.5839Y-3.4821
X4.585Y-3.281
X4.585Y-3.631
X4.59Y-5.58
X4.62Y-3.84
X4.6324Y-4.1274
X4.6358Y-3.3268
X4.6457Y-3.2126
X4.67Y-3.39
X4.715Y-3.24
X4.7382Y-4.7697
X4.755Y-3.96
X4.77Y-4.385
X4.77Y-4.849
X4.7894Y-5.4488
X4.795Y-4.0236
X4.83Y-4.715
X4.84Y-4.155
X4.84Y-4.7697
X4.9311Y-3.1535
X4.935Y-4.5059
X4.96Y-2.878
X4.96Y-3.326
X4.9961Y-3.1535
X5.06Y-3.13
X5.06Y-3.1934
X5.075Y-5.165
X5.1083Y-5.4429
X5.1142Y-5.5079
X5.145Y-5.144
X5.145Y-5.617
X5.1791Y-5.5079
X5.185Y-5.395
X5.1949Y-5.4409
X5.22Y-3.335
X5.3Y-3.83
X5.3071Y-4.0236
X5.33Y-3.261
X5.33Y-3.631
X5.3319Y-3.4766
X5.345Y-5.4409
X5.38Y-3.83
X5.3819Y-4.0236
X5.382Y-4.122
X5.385Y-3.1934
X5.4075Y-3.2992
X5.41Y-3.035
X5.43Y-3.915
X5.4478Y-3.1388
X5.47Y-4.455
X5.4803Y-3.2283
X5.4862Y-4.7697
X5.52Y-4.375
X5.5217Y-4.8524
X5.565Y-4.505
X5.5669Y-4.7697
X5.61Y-3.23
X5.61Y-3.335
X5.615Y-4.65
X5.66Y-3.15
X5.66Y-3.1934
X5.705Y-3.36
X5.72Y-2.985
X5.755Y-2.775
X5.755Y-4.15
X5.76Y-4.0827
X5.7835Y-2.985
X5.7953Y-2.6614
X5.835Y-5.685
X5.855Y-4.0827
X5.9081Y-4.7283
X5.9094Y-6.0118
X5.935Y-6.155
X5.937Y-5.4882
X5.96Y-4.8091
X5.9724Y-5.5335
X6.02Y-4.88
X6.035Y-5.41
X6.04Y-2.5827
X6.06Y-3.74
X6.0669Y-4.0236
X6.085Y-4.8091
X6.095Y-2.65
X6.095Y-3.626
X6.12Y-3.0964
X6.12Y-3.1934
X6.1299Y-4.0236
X6.13Y-3.725
X6.1437Y-3.2874
X6.15Y-4.0827
X6.175Y-2.825
X6.19Y-6.015
X6.205Y-4.2
X6.22Y-2.775
X6.2461Y-3.2618
X6.265Y-4.375
X6.28Y-2.75
X6.295Y-5.575
X6.3071Y-4.6457
X6.36Y-5.43
X6.372Y-4.7697
X6.385Y-5.335
X6.42Y-4.0827
X6.4252Y-3.18
X6.4528Y-5.4567
X6.4665Y-4.7697
X6.47Y-2.74
X6.4941Y-3.18
X6.5Y-3.34
X6.54Y-4.845
X6.545Y-2.74
X6.58Y-4.929
X6.6164Y-5.4682
X6.64Y-5.119
X6.655Y-4.845
X6.66Y-5.632
X6.665Y-3.2441
X6.6909Y-5.4665
X6.7028Y-5.3937
X6.705Y-5.255
X6.74Y-3.13
X6.77Y-3.035
X6.78Y-3.63
X6.8051Y-4.0531
X6.835Y-3.315
X6.8563Y-3.2441
X6.87Y-3.42
X6.875Y-3.31
X6.885Y-5.4547
X6.9336Y-3.2014
X6.945Y-3.905
X6.945Y-4.18
X6.955Y-2.705
X6.96Y-3.395
X6.985Y-5.635
X6.9862Y-3.3274
X7.0Y-4.39
X7.015Y-3.085
X7.0186Y-3.2864
X7.055Y-2.805
X7.11Y-5.26
X7.1299Y-3.315
X7.13Y-3.351
X7.16Y-4.205
X7.18Y-4.675
X7.1909Y-4.7795
X7.205Y-2.868
X7.2402Y-3.1535
X7.28Y-4.804
X7.2953Y-6.0591
X7.305Y-6.11
X7.3583Y-5.5689
X7.385Y-5.119
X7.385Y-5.687
X7.42Y-4.87
X7.505Y-4.63
X7.51Y-5.41
X7.58Y-3.005
X7.595Y-3.815
X7.645Y-6.01
X7.66Y-2.605
X7.765Y-5.255
X7.8007Y-4.105
X7.8307Y-4.5
X7.87Y-3.605
X7.88Y-3.76
X7.88Y-4.03
X7.895Y-4.275
X7.8957Y-3.18
X7.951Y-6.171
X7.9607Y-3.365
X7.97Y-2.7
X7.9707Y-4.105
X8.005Y-3.545
X8.115Y-4.305
X8.1307Y-3.505
X8.1357Y-5.405
X8.2057Y-3.85
X8.2357Y-6.02
X8.2657Y-3.845
X8.2657Y-4.73
X8.2757Y-4.83
X8.2757Y-5.035
X8.2857Y-3.205
X8.3031Y-6.1102
X8.3057Y-3.98
X8.3707Y-3.325
X8.4707Y-4.73
X8.5307Y-4.65
X8.5354Y-5.4921
X8.5433Y-5.3583
X8.6181Y-4.1496
X8.6181Y-4.2165
X8.6457Y-3.2047
X8.6772Y-5.2165
X8.6811Y-5.2756
X8.7008Y-3.3228
X8.7107Y-4.065
X8.7107Y-5.33
X8.748Y-5.189
X8.7507Y-4.065
X8.7507Y-5.245
X8.7874Y-2.7953
X8.8257Y-5.315
X8.8807Y-5.4
X8.8807Y-5.8
X8.9407Y-4.815
X8.9757Y-5.49
X9.0107Y-6.1
X9.0378Y-6.228
X9.0507Y-5.58
X9.0557Y-3.82
X9.094Y-6.193
X9.1007Y-3.975
X9.1007Y-5.535
X9.122Y-2.7362
X9.1417Y-2.9016
X9.1417Y-3.1417
X9.1417Y-3.285
X9.1757Y-4.19
X9.1757Y-5.215
X9.1857Y-4.745
X9.2857Y-4.16
X9.2874Y-4.7283
X9.35Y-2.84
X9.3583Y-4.7283
X9.4257Y-4.16
X9.44Y-2.735
X9.45Y-2.81
X9.5557Y-5.4
X9.5607Y-3.975
X9.6007Y-5.51
X9.6507Y-4.625
X9.6957Y-3.7
X9.7205Y-2.6299
X9.7307Y-3.4173
X9.7307Y-3.845
X9.7957Y-3.805
X9.8257Y-4.485
X9.8257Y-5.795
X9.8268Y-2.7402
X9.8357Y-3.975
X9.861Y-5.6024
X9.8857Y-4.675
X9.8907Y-5.245
X9.9107Y-5.44
X9.9207Y-4.455
X9.9407Y-5.51
X9.9457Y-4.61
X9.9803Y-5.3661
X9.9957Y-4.74
X10.0Y-3.055
X10.0257Y-5.5
X10.0657Y-4.5
X10.0748Y-6.1339
X10.1007Y-4.71
X10.12Y-6.2174
X10.1407Y-3.1299
X10.1407Y-3.245
X10.17Y-6.175
X10.1771Y-5.2087
X10.1957Y-4.105
X10.2007Y-5.495
X10.2257Y-6.175
X10.2357Y-6.0
X10.2362Y-5.315
X10.2757Y-5.19
X10.3507Y-4.935
X10.3707Y-4.83
X10.3757Y-3.35
X10.5079Y-3.878
X10.5079Y-4.1102
X10.5157Y-5.795
X10.5257Y-4.725
X10.5276Y-5.4213
X10.5607Y-3.98
X10.5857Y-5.53
X10.5957Y-3.215
X10.6024Y-3.9685
X10.6507Y-4.705
X10.6557Y-4.205
X10.6693Y-3.9685
X10.7207Y-4.775
X10.7257Y-5.61
X10.7307Y-4.065
X10.7717Y-5.7087
X10.785Y-6.165
X10.8Y-3.235
X10.8268Y-5.6535
X10.8507Y-4.71
X10.865Y-6.2174
X10.8898Y-5.6102
X10.8907Y-3.25
X10.8937Y-5.5276
X10.935Y-3.23
X10.9507Y-3.175
X10.9607Y-6.155
X10.9921Y-4.9252
X11.0197Y-5.5315
X11.0257Y-5.5969
X11.0267Y-5.495
X11.063Y-4.9252
X11.1307Y-4.06
X11.1415Y-5.5532
X11.1575Y-4.2992
X11.1657Y-3.86
X11.1657Y-3.925
X11.1807Y-5.49
X11.2107Y-3.43
X11.2107Y-3.825
X11.2257Y-5.435
X11.2283Y-6.1575
X11.2598Y-5.8189
X11.2756Y-3.1496
X11.2807Y-3.805
X11.3157Y-3.98
X11.3757Y-6.18
X11.378Y-4.7362
X11.3807Y-4.59
X11.3807Y-4.6339
X11.3957Y-5.25
X11.4207Y-5.43
X11.4407Y-4.525
X11.4607Y-4.62
X11.5079Y-4.6457
X11.5118Y-3.3622
X11.5207Y-5.43
X11.5557Y-4.455
X11.6029Y-3.8661
X11.6057Y-4.14
X11.62Y-6.2174
X11.6307Y-3.25
X11.6307Y-5.475
X11.6307Y-5.5564
X11.6307Y-5.64
X11.6339Y-3.9449
X11.6417Y-4.8071
X11.6707Y-4.105
X11.6857Y-4.735
X11.7157Y-5.54
X11.7205Y-3.937
X11.7475Y-6.1875
X11.7557Y-5.27
X11.7657Y-5.2
X11.7707Y-4.705
X11.8057Y-5.025
X11.8307Y-5.605
X11.8457Y-4.615
X11.8465Y-3.4803
X11.8557Y-4.555
X11.9157Y-4.76
X11.9757Y-5.025
X11.9764Y-3.4291
X11.9803Y-5.2283
X12.0197Y-5.2795
X12.0307Y-4.11
X12.0407Y-6.135
X12.0507Y-3.99
X12.0507Y-4.07
X12.0591Y-3.3937
X12.0607Y-4.455
X12.1142Y-5.2795
X12.1257Y-6.185
X12.1557Y-4.14
X12.1557Y-4.445
X12.1557Y-4.645
X12.1654Y-5.2283
X12.1732Y-5.3641
X12.1772Y-5.31
X12.1807Y-4.095
X12.1811Y-4.4016
X12.1907Y-4.495
X12.2057Y-5.63
X12.2157Y-5.77
X12.2457Y-5.505
X12.315Y-4.495
X12.3189Y-4.3622
X12.3189Y-4.45
X12.355Y-6.2174
X12.3757Y-3.03
X12.3858Y-4.63
X12.3907Y-5.505
X12.4007Y-4.59
X12.4409Y-3.8898
X12.4507Y-6.17
X12.5207Y-4.265
X12.5315Y-5.2953
X12.5857Y-4.635
X12.6007Y-3.485
X12.6157Y-4.47
X12.6457Y-4.64
X12.6807Y-3.155
X12.7057Y-4.535
X12.7107Y-2.925
X12.7557Y-3.055
X12.7607Y-5.505
X12.7807Y-3.925
X12.7807Y-6.03
X12.7857Y-4.205
X12.8107Y-4.03
X12.8407Y-3.37
X12.8457Y-4.76
X12.878Y-3.3425
X12.8907Y-3.665
X12.8957Y-3.445
X12.9157Y-4.69
X12.9291Y-3.3937
X12.9607Y-4.76
X12.9803Y-4.689
X12.9857Y-3.82
X13.0064Y-4.656
X13.0157Y-5.215
X13.0157Y-5.285
X13.04Y-6.17
X13.0657Y-5.685
X13.0707Y-4.56
X13.0907Y-5.655
X13.1057Y-6.2174
X13.1157Y-5.56
X13.1157Y-5.625
X13.1232Y-4.9725
X13.1496Y-3.1142
X13.155Y-6.175
X13.1557Y-4.6772
X13.1557Y-5.52
X13.1607Y-5.69
X13.2008Y-4.8071
X13.2057Y-6.16
X13.2157Y-4.495
X13.2207Y-3.98
X13.2207Y-5.52
X13.2507Y-4.71
X13.2507Y-5.405
X13.2807Y-4.565
X13.2807Y-5.475
X13.3207Y-4.495
X13.3957Y-3.81
X13.4007Y-5.58
X13.4457Y-5.58
X13.515Y-6.195
X13.5457Y-5.31
X13.5457Y-6.06
X13.5807Y-5.425
X13.5807Y-5.575
X13.6807Y-3.72
X13.685Y-3.7795
X13.7283Y-3.6142
X13.7323Y-3.8268
X13.7857Y-5.625
X13.7913Y-3.6772
X13.8107Y-5.295
X13.8357Y-3.05
X13.8507Y-3.94
X13.8507Y-4.675
X13.8557Y-5.38
X13.8807Y-4.015
X13.8898Y-5.689
X13.8957Y-5.505
X13.9007Y-5.265
X13.9357Y-3.815
X13.9407Y-4.555
X13.9429Y-6.1936
X13.9657Y-5.46
X14.0457Y-5.46
X14.0591Y-4.7795
X14.2047Y-5.4173
X14.221Y-3.8661
X14.2638Y-5.815
X14.2807Y-3.985
T3
X1.1774Y-2.7436
X1.1774Y-3.3429
X1.2774Y-2.7436
X1.2774Y-3.3429
X1.3774Y-2.7436
X1.3774Y-3.3429
X1.4774Y-2.7436
X1.4774Y-3.3429
X1.5774Y-2.7436
X1.5774Y-3.3429
X1.6274Y-3.5963
X1.6274Y-3.8963
X1.6274Y-4.3453
X1.6274Y-4.6453
X1.6274Y-5.0943
X1.6274Y-5.3943
X1.6274Y-5.8423
X1.6274Y-6.1423
X1.6774Y-2.7436
X1.6774Y-3.3429
X1.7774Y-2.7436
X1.7774Y-3.3429
X1.8774Y-2.7436
X1.8774Y-3.3429
X1.9774Y-2.7436
X1.9774Y-3.3429
X2.0774Y-2.7436
X2.0774Y-3.3429
X2.1774Y-2.7436
X2.1774Y-3.3429
X2.2774Y-2.7436
X2.2774Y-3.3429
X2.3755Y-3.5963
X2.3755Y-3.8963
X2.3755Y-4.3453
X2.3755Y-4.6453
X2.3755Y-5.0943
X2.3755Y-5.3943
X2.3755Y-5.8423
X2.3755Y-6.1423
X3.3115Y-2.8482
X3.3115Y-3.1482
X3.404Y-5.8423
X3.404Y-6.1423
X3.4975Y-3.5963
X3.4975Y-3.8963
X3.591Y-4.3453
X3.591Y-4.6453
X3.778Y-5.0943
X3.778Y-5.3943
X4.0595Y-2.8482
X4.0595Y-3.1482
X4.2465Y-5.8423
X4.2465Y-6.1423
X4.4335Y-3.5963
X4.4335Y-3.8963
X4.6206Y-4.3453
X4.6206Y-4.6453
X4.8076Y-2.8482
X4.8076Y-3.1482
X4.9946Y-5.0943
X4.9946Y-5.3943
X4.9946Y-5.8423
X4.9946Y-6.1423
X5.1816Y-3.5963
X5.1816Y-3.8963
X5.3686Y-4.3453
X5.3686Y-4.6453
X5.5556Y-2.8482
X5.5556Y-3.1482
X5.655Y-2.7849
X5.655Y-3.0849
X5.7426Y-5.0943
X5.7426Y-5.3943
X5.9296Y-3.5963
X5.9296Y-3.8963
X6.1166Y-4.3453
X6.1166Y-4.6453
X6.3961Y-5.8423
X6.3961Y-6.1423
X6.4016Y-2.7791
X6.4016Y-3.0791
X6.4906Y-5.0943
X6.4906Y-5.3943
X6.6776Y-3.5963
X6.6776Y-3.8963
X6.7636Y-3.6996
X6.7636Y-3.9996
X6.8646Y-4.3453
X6.8646Y-4.6453
X6.9498Y-4.4465
X6.9498Y-4.7465
X7.0746Y-5.8463
X7.0746Y-6.1463
X7.136Y-2.9506
X7.136Y-3.2506
X7.2387Y-5.0943
X7.2387Y-5.3943
X7.3244Y-5.1657
X7.3244Y-5.4657
X8.0712Y-3.5963
X8.0712Y-3.8963
X8.2582Y-4.3453
X8.2582Y-4.6453
X8.4452Y-2.8482
X8.4452Y-3.1482
X8.4452Y-5.8423
X8.4452Y-6.1423
X8.5276Y-2.8146
X8.5276Y-3.1146
X8.6323Y-5.0943
X8.6323Y-5.3943
X8.8193Y-3.5963
X8.8193Y-3.8963
X9.0063Y-4.3453
X9.0063Y-4.6453
X9.2913Y-2.8657
X9.2913Y-3.1657
X9.3803Y-5.0943
X9.3803Y-5.3943
X9.5673Y-3.5963
X9.5673Y-3.8963
X9.5683Y-5.8423
X9.5683Y-6.1423
X9.7543Y-4.3453
X9.7543Y-4.6453
X10.1283Y-5.0943
X10.1283Y-5.3943
X10.3153Y-3.5963
X10.3153Y-3.8963
X10.5023Y-4.3453
X10.5023Y-4.6453
X10.6893Y-2.8482
X10.6893Y-3.1482
X10.6893Y-5.8423
X10.6893Y-6.1423
X10.8763Y-5.0943
X10.8763Y-5.3943
X11.0634Y-3.5963
X11.0634Y-3.8963
X11.2504Y-4.3453
X11.2504Y-4.6453
X11.4374Y-2.8482
X11.4374Y-3.1482
X11.4374Y-5.8423
X11.4374Y-6.1423
X11.6244Y-5.0943
X11.6244Y-5.3943
X11.8114Y-3.5963
X11.8114Y-3.8963
X11.9984Y-4.3453
X11.9984Y-4.6453
X12.0157Y-4.8461
X12.0157Y-5.4453
X12.1157Y-4.8461
X12.1157Y-5.4453
X12.1854Y-2.8482
X12.1854Y-3.1482
X12.1854Y-5.8423
X12.1854Y-6.1423
X12.2157Y-4.8461
X12.2157Y-5.4453
X12.3157Y-4.8461
X12.3157Y-5.4453
X12.4157Y-4.8461
X12.4157Y-5.4453
X12.5157Y-4.8461
X12.5157Y-5.4453
X12.5594Y-3.5963
X12.5594Y-3.8963
X12.6157Y-4.8461
X12.6157Y-5.4453
X12.6988Y-4.9858
X12.6988Y-5.2858
X12.7157Y-4.8461
X12.7157Y-5.4453
X12.8157Y-4.8461
X12.8157Y-5.4453
X12.9157Y-4.8461
X12.9157Y-5.4453
X12.9334Y-5.8423
X12.9334Y-6.1423
X13.0157Y-4.8461
X13.0157Y-5.4453
X13.1157Y-4.8461
X13.1157Y-5.4453
X13.2149Y-4.3453
X13.2149Y-4.6453
X13.3084Y-2.8482
X13.3084Y-3.1482
X13.4954Y-3.5963
X13.4954Y-3.8963
X13.6807Y-2.848
X13.6807Y-3.148
X13.6815Y-5.0943
X13.6815Y-5.3943
X13.6815Y-5.8423
X13.6815Y-6.1423
X14.4295Y-3.5963
X14.4295Y-3.8963
X14.4295Y-4.3453
X14.4295Y-4.6453
X14.4295Y-5.0943
X14.4295Y-5.3943
X14.4295Y-5.8423
X14.4295Y-6.1423
T4
X1.002Y-2.6906
X1.002Y-2.7906
X1.002Y-2.8906
X1.002Y-2.9906
X2.2842Y-2.6589
X2.3842Y-2.6589
X2.4842Y-2.6589
X2.5842Y-2.6589
X2.857Y-4.105
X2.857Y-4.205
X2.857Y-4.305
X2.857Y-4.405
X6.2089Y-2.6628
X6.3089Y-2.6628
X6.4089Y-2.6628
X6.5089Y-2.6628
X7.0368Y-2.6181
X7.1368Y-2.6181
X8.525Y-2.6142
X8.625Y-2.6142
X9.1079Y-2.6654
X9.2079Y-2.6654
X9.3079Y-2.6654
X9.4079Y-2.6654
X13.5919Y-4.4921
X13.6919Y-4.4921
T2
G00X14.1009Y-2.526
M15
G01X14.0812Y-2.526
M16
G05
G00X14.1009Y-3.1205
M15
G01X14.0812Y-3.1205
M16
G05
G00X14.1993Y-3.1205
M15
G01X14.1796Y-3.1205
M16
G05
G00X14.2978Y-2.526
M15
G01X14.2781Y-2.526
M16
G05
G00X14.2978Y-3.1205
M15
G01X14.2781Y-3.1205
M16
G05
T5
G00X13.8942Y-2.8409
M15
G01X13.8942Y-2.8094
M16
G05
G00X14.4848Y-2.8409
M15
G01X14.4848Y-2.8094
M16
G05
M30
