M48
; DRILL file {KiCad 8.0.8} date 2025-04-17T13:25:43+0900
; FORMAT={-:-/ absolute / inch / decimal}
; #@! TF.CreationDate,2025-04-17T13:25:43+09:00
; #@! TF.GenerationSoftware,Kicad,Pcbnew,8.0.8
; #@! TF.FileFunction,NonPlated,1,2,NPTH
FMAT,2
INCH
; #@! TA.AperFunction,NonPlated,NPTH,ComponentDrill
T1C0.0197
; #@! TA.AperFunction,NonPlated,NPTH,ComponentDrill
T2C0.0689
; #@! TA.AperFunction,NonPlated,NPTH,ComponentDrill
T3C0.1181
; #@! TA.AperFunction,NonPlated,NPTH,ComponentDrill
T4C0.1200
; #@! TA.AperFunction,NonPlated,NPTH,ComponentDrill
T5C0.1570
%
G90
G05
T1
X2.3326Y-2.4843
X2.3637Y-2.4843
X2.3949Y-2.4843
X2.4261Y-2.4843
X2.4572Y-2.4843
X2.4884Y-2.4843
X2.5196Y-2.4843
X2.5494Y-6.2583
X2.5806Y-6.2583
X2.6118Y-6.2583
X2.6429Y-6.2583
X2.6741Y-6.2583
X2.7053Y-6.2583
X2.7364Y-6.2583
X6.2597Y-2.4843
X6.2909Y-2.4843
X6.3221Y-2.4843
X6.3532Y-2.4843
X6.3844Y-2.4843
X6.4156Y-2.4843
X6.4467Y-2.4843
X6.728Y-6.2583
X6.7592Y-6.2583
X6.7903Y-6.2583
X6.8215Y-6.2583
X6.8527Y-6.2583
X6.8838Y-6.2583
X6.915Y-6.2583
X8.699Y-6.2583
X8.7302Y-6.2583
X8.7613Y-6.2583
X8.7925Y-6.2583
X8.8237Y-6.2583
X8.8548Y-6.2583
X8.886Y-6.2583
X9.1644Y-2.4843
X9.1955Y-2.4843
X9.2267Y-2.4843
X9.2579Y-2.4843
X9.289Y-2.4843
X9.3202Y-2.4843
X9.3514Y-2.4843
X12.899Y-2.5236
X12.9302Y-2.5236
X12.9613Y-2.5236
X12.9925Y-2.5236
X13.0237Y-2.5236
X13.0548Y-2.5236
X13.086Y-2.5236
X14.142Y-6.2583
X14.1732Y-6.2583
X14.2043Y-6.2583
X14.2355Y-6.2583
X14.2667Y-6.2583
X14.2978Y-6.2583
X14.329Y-6.2583
T2
X1.1087Y-3.652
X1.1087Y-4.4
X1.1087Y-5.148
X1.1087Y-5.8961
X1.5087Y-3.652
X1.5087Y-4.4
X1.5087Y-5.148
X1.5087Y-5.8961
X1.8567Y-3.652
X1.8567Y-4.4
X1.8567Y-5.148
X1.8567Y-5.8961
X2.2567Y-3.652
X2.2567Y-4.4
X2.2567Y-5.148
X2.2567Y-5.8961
X2.7918Y-2.9039
X2.8853Y-5.8961
X2.9788Y-3.652
X3.0723Y-4.4
X3.1918Y-2.9039
X3.2593Y-5.148
X3.2853Y-5.8961
X3.3788Y-3.652
X3.4723Y-4.4
X3.5398Y-2.9039
X3.6593Y-5.148
X3.7268Y-5.8961
X3.9138Y-3.652
X3.9398Y-2.9039
X4.1008Y-4.4
X4.1268Y-5.8961
X4.2878Y-2.9039
X4.3138Y-3.652
X4.4748Y-5.148
X4.4748Y-5.8961
X4.5008Y-4.4
X4.6618Y-3.652
X4.6878Y-2.9039
X4.8488Y-4.4
X4.8748Y-5.148
X4.8748Y-5.8961
X5.0359Y-2.9039
X5.0618Y-3.652
X5.2229Y-5.148
X5.2488Y-4.4
X5.4099Y-3.652
X5.4359Y-2.9039
X5.5969Y-4.4
X5.6229Y-5.148
X5.7839Y-2.9039
X5.8099Y-3.652
X5.8764Y-5.8961
X5.9709Y-5.148
X5.9969Y-4.4
X6.1579Y-3.652
X6.1839Y-2.9039
X6.2764Y-5.8961
X6.3449Y-4.4
X6.3709Y-5.148
X6.5319Y-2.9039
X6.5579Y-3.652
X6.7189Y-5.148
X6.7449Y-4.4
X6.9059Y-3.652
X6.9319Y-2.9039
X7.0929Y-4.4
X7.1189Y-5.148
X7.28Y-2.9039
X7.28Y-5.8961
X7.3059Y-3.652
X7.467Y-5.148
X7.4929Y-4.4
X7.5525Y-3.652
X7.68Y-2.9039
X7.68Y-5.8961
X7.7395Y-4.4
X7.867Y-5.148
X7.9265Y-2.9039
X7.9265Y-5.8961
X7.9525Y-3.652
X8.1135Y-5.148
X8.1395Y-4.4
X8.3005Y-3.652
X8.3265Y-2.9039
X8.3265Y-5.8961
X8.4875Y-4.4
X8.5135Y-5.148
X8.6745Y-2.9039
X8.7005Y-3.652
X8.8615Y-5.148
X8.8875Y-4.4
X9.0485Y-3.652
X9.0495Y-5.8961
X9.0745Y-2.9039
X9.2356Y-4.4
X9.2615Y-5.148
X9.4226Y-2.9039
X9.4485Y-3.652
X9.4495Y-5.8961
X9.6096Y-5.148
X9.6356Y-4.4
X9.7966Y-3.652
X9.8226Y-2.9039
X9.9836Y-4.4
X10.0096Y-5.148
X10.1706Y-2.9039
X10.1706Y-5.8961
X10.1966Y-3.652
X10.3576Y-5.148
X10.3836Y-4.4
X10.5446Y-3.652
X10.5706Y-2.9039
X10.5706Y-5.8961
X10.7316Y-4.4
X10.7576Y-5.148
X10.9186Y-2.9039
X10.9186Y-5.8961
X10.9446Y-3.652
X11.1056Y-5.148
X11.1316Y-4.4
X11.2926Y-3.652
X11.3186Y-2.9039
X11.3186Y-5.8961
X11.4796Y-4.4
X11.5056Y-5.148
X11.6667Y-2.9039
X11.6667Y-5.8961
X11.6926Y-3.652
X11.8796Y-4.4
X12.0407Y-3.652
X12.0667Y-2.9039
X12.0667Y-5.8961
X12.1342Y-5.148
X12.4147Y-5.8961
X12.4407Y-3.652
X12.5342Y-5.148
X12.6952Y-4.4
X12.7887Y-2.9039
X12.8147Y-5.8961
X12.9757Y-3.652
X13.0952Y-4.4
X13.1627Y-5.148
X13.1627Y-5.8961
X13.1887Y-2.9039
X13.3757Y-3.652
X13.5627Y-5.148
X13.5627Y-5.8961
X13.9107Y-3.652
X13.9107Y-4.4
X13.9107Y-5.148
X13.9107Y-5.8961
X14.3107Y-3.652
X14.3107Y-4.4
X14.3107Y-5.148
X14.3107Y-5.8961
T3
X1.1587Y-4.3
X1.1587Y-5.048
X1.1587Y-5.7961
X1.4087Y-4.2
X1.4087Y-4.948
X1.4087Y-5.6961
X1.9067Y-4.3
X1.9067Y-5.048
X1.9067Y-5.7961
X2.1567Y-4.2
X2.1567Y-4.948
X2.1567Y-5.6961
X2.8418Y-2.8039
X2.9353Y-5.7961
X3.0288Y-3.552
X3.0918Y-2.7039
X3.1223Y-4.3
X3.1853Y-5.6961
X3.2788Y-3.452
X3.3093Y-5.048
X3.3723Y-4.2
X3.5593Y-4.948
X3.5898Y-2.8039
X3.7768Y-5.7961
X3.8398Y-2.7039
X3.9638Y-3.552
X4.0268Y-5.6961
X4.1508Y-4.3
X4.2138Y-3.452
X4.3378Y-2.8039
X4.4008Y-4.2
X4.5248Y-5.048
X4.5248Y-5.7961
X4.5878Y-2.7039
X4.7118Y-3.552
X4.7748Y-4.948
X4.7748Y-5.6961
X4.8988Y-4.3
X4.9618Y-3.452
X5.0859Y-2.8039
X5.1488Y-4.2
X5.2729Y-5.048
X5.3359Y-2.7039
X5.4599Y-3.552
X5.5229Y-4.948
X5.6469Y-4.3
X5.7099Y-3.452
X5.8839Y-3.1039
X5.8969Y-4.2
X5.9264Y-5.7961
X6.0209Y-5.048
X6.1339Y-3.0039
X6.1764Y-5.6961
X6.2079Y-3.552
X6.2709Y-4.948
X6.3949Y-4.3
X6.4579Y-3.452
X6.6319Y-3.1039
X6.6449Y-4.2
X6.7689Y-5.048
X6.8819Y-3.0039
X6.9559Y-3.552
X7.0189Y-4.948
X7.1429Y-4.3
X7.2059Y-3.452
X7.33Y-2.8039
X7.33Y-5.7961
X7.3929Y-4.2
X7.517Y-5.048
X7.58Y-2.7039
X7.58Y-5.6961
X7.6025Y-3.552
X7.767Y-4.948
X7.7895Y-4.3
X7.8525Y-3.452
X7.9765Y-2.8039
X7.9765Y-5.7961
X8.0395Y-4.2
X8.1635Y-5.048
X8.2265Y-2.7039
X8.2265Y-5.6961
X8.3505Y-3.552
X8.4135Y-4.948
X8.5375Y-4.3
X8.6005Y-3.452
X8.7745Y-3.1039
X8.7875Y-4.2
X8.9115Y-5.048
X9.0245Y-3.0039
X9.0985Y-3.552
X9.0995Y-5.7961
X9.1615Y-4.948
X9.2856Y-4.3
X9.3485Y-3.452
X9.3495Y-5.6961
X9.5226Y-3.1039
X9.5356Y-4.2
X9.6596Y-5.048
X9.7726Y-3.0039
X9.8466Y-3.552
X9.9096Y-4.948
X10.0336Y-4.3
X10.0966Y-3.452
X10.2206Y-2.8039
X10.2206Y-5.7961
X10.2836Y-4.2
X10.4076Y-5.048
X10.4706Y-2.7039
X10.4706Y-5.6961
X10.5946Y-3.552
X10.6576Y-4.948
X10.7816Y-4.3
X10.8446Y-3.452
X10.9686Y-2.8039
X10.9686Y-5.7961
X11.0316Y-4.2
X11.1556Y-5.048
X11.2186Y-2.7039
X11.2186Y-5.6961
X11.3426Y-3.552
X11.4056Y-4.948
X11.5296Y-4.3
X11.5926Y-3.452
X11.7167Y-2.8039
X11.7167Y-5.7961
X11.7796Y-4.2
X11.9667Y-2.7039
X11.9667Y-5.6961
X12.0907Y-3.552
X12.1842Y-5.048
X12.3407Y-3.452
X12.4342Y-4.948
X12.4647Y-5.7961
X12.7147Y-5.6961
X12.7452Y-4.3
X12.8387Y-2.8039
X12.9952Y-4.2
X13.0257Y-3.552
X13.0887Y-2.7039
X13.2127Y-5.048
X13.2127Y-5.7961
X13.2757Y-3.452
X13.4627Y-4.948
X13.4627Y-5.6961
X13.9607Y-3.552
X13.9607Y-4.3
X13.9607Y-5.048
X13.9607Y-5.7961
X14.2107Y-3.452
X14.2107Y-4.2
X14.2107Y-4.948
X14.2107Y-5.6961
T4
X2.9893Y-4.873
X3.9293Y-4.873
X5.6064Y-6.1711
X6.5464Y-6.1711
X8.7795Y-6.1711
X9.7195Y-6.1711
X12.4252Y-4.125
X12.5187Y-2.6289
X13.3652Y-4.125
X13.4587Y-2.6289
T5
X1.3087Y-3.652
X1.3087Y-4.4
X1.3087Y-5.148
X1.3087Y-5.8961
X2.0567Y-3.652
X2.0567Y-4.4
X2.0567Y-5.148
X2.0567Y-5.8961
X2.9893Y-5.473
X2.9918Y-2.9039
X3.0853Y-5.8961
X3.1788Y-3.652
X3.2723Y-4.4
X3.4593Y-5.148
X3.7398Y-2.9039
X3.9268Y-5.8961
X3.9293Y-5.473
X4.1138Y-3.652
X4.3008Y-4.4
X4.4878Y-2.9039
X4.6748Y-5.148
X4.6748Y-5.8961
X4.8618Y-3.652
X5.0488Y-4.4
X5.2359Y-2.9039
X5.4229Y-5.148
X5.6064Y-5.5711
X5.6099Y-3.652
X5.7969Y-4.4
X5.9839Y-2.9039
X6.0764Y-5.8961
X6.1709Y-5.148
X6.3579Y-3.652
X6.5449Y-4.4
X6.5464Y-5.5711
X6.7319Y-2.9039
X6.9189Y-5.148
X7.1059Y-3.652
X7.2929Y-4.4
X7.48Y-2.9039
X7.48Y-5.8961
X7.667Y-5.148
X7.7525Y-3.652
X7.9395Y-4.4
X8.1265Y-2.9039
X8.1265Y-5.8961
X8.3135Y-5.148
X8.5005Y-3.652
X8.6875Y-4.4
X8.7795Y-5.5711
X8.8745Y-2.9039
X9.0615Y-5.148
X9.2485Y-3.652
X9.2495Y-5.8961
X9.4356Y-4.4
X9.6226Y-2.9039
X9.7195Y-5.5711
X9.8096Y-5.148
X9.9966Y-3.652
X10.1836Y-4.4
X10.3706Y-2.9039
X10.3706Y-5.8961
X10.5576Y-5.148
X10.7446Y-3.652
X10.9316Y-4.4
X11.1186Y-2.9039
X11.1186Y-5.8961
X11.3056Y-5.148
X11.4926Y-3.652
X11.6796Y-4.4
X11.8667Y-2.9039
X11.8667Y-5.8961
X12.2407Y-3.652
X12.3342Y-5.148
X12.4252Y-4.725
X12.5187Y-3.2289
X12.6147Y-5.8961
X12.8952Y-4.4
X12.9887Y-2.9039
X13.1757Y-3.652
X13.3627Y-5.148
X13.3627Y-5.8961
X13.3652Y-4.725
X13.4587Y-3.2289
X14.1107Y-3.652
X14.1107Y-4.4
X14.1107Y-5.148
X14.1107Y-5.8961
M30
