%TF.GenerationSoftware,KiCad,Pcbnew,8.0.8*%
%TF.CreationDate,2025-04-10T14:10:57+09:00*%
%TF.ProjectId,sswkbd_wiring,7373776b-6264-45f7-9769-72696e672e6b,rev?*%
%TF.SameCoordinates,Original*%
%TF.FileFunction,Legend,Top*%
%TF.FilePolarity,Positive*%
%FSLAX46Y46*%
G04 Gerber Fmt 4.6, Leading zero omitted, Abs format (unit mm)*
G04 Created by KiCad (PCBNEW 8.0.8) date 2025-04-10 14:10:57*
%MOMM*%
%LPD*%
G01*
G04 APERTURE LIST*
%ADD10C,0.150000*%
%ADD11C,0.125000*%
%ADD12C,0.120000*%
%ADD13R,1.397000X1.397000*%
%ADD14C,1.397000*%
G04 APERTURE END LIST*
D10*
X246812200Y-68209523D02*
X246859819Y-68066666D01*
X246859819Y-68066666D02*
X246859819Y-67828571D01*
X246859819Y-67828571D02*
X246812200Y-67733333D01*
X246812200Y-67733333D02*
X246764580Y-67685714D01*
X246764580Y-67685714D02*
X246669342Y-67638095D01*
X246669342Y-67638095D02*
X246574104Y-67638095D01*
X246574104Y-67638095D02*
X246478866Y-67685714D01*
X246478866Y-67685714D02*
X246431247Y-67733333D01*
X246431247Y-67733333D02*
X246383628Y-67828571D01*
X246383628Y-67828571D02*
X246336009Y-68019047D01*
X246336009Y-68019047D02*
X246288390Y-68114285D01*
X246288390Y-68114285D02*
X246240771Y-68161904D01*
X246240771Y-68161904D02*
X246145533Y-68209523D01*
X246145533Y-68209523D02*
X246050295Y-68209523D01*
X246050295Y-68209523D02*
X245955057Y-68161904D01*
X245955057Y-68161904D02*
X245907438Y-68114285D01*
X245907438Y-68114285D02*
X245859819Y-68019047D01*
X245859819Y-68019047D02*
X245859819Y-67780952D01*
X245859819Y-67780952D02*
X245907438Y-67638095D01*
X245859819Y-67304761D02*
X246859819Y-67066666D01*
X246859819Y-67066666D02*
X246145533Y-66876190D01*
X246145533Y-66876190D02*
X246859819Y-66685714D01*
X246859819Y-66685714D02*
X245859819Y-66447619D01*
X246288390Y-65923809D02*
X246240771Y-66019047D01*
X246240771Y-66019047D02*
X246193152Y-66066666D01*
X246193152Y-66066666D02*
X246097914Y-66114285D01*
X246097914Y-66114285D02*
X246050295Y-66114285D01*
X246050295Y-66114285D02*
X245955057Y-66066666D01*
X245955057Y-66066666D02*
X245907438Y-66019047D01*
X245907438Y-66019047D02*
X245859819Y-65923809D01*
X245859819Y-65923809D02*
X245859819Y-65733333D01*
X245859819Y-65733333D02*
X245907438Y-65638095D01*
X245907438Y-65638095D02*
X245955057Y-65590476D01*
X245955057Y-65590476D02*
X246050295Y-65542857D01*
X246050295Y-65542857D02*
X246097914Y-65542857D01*
X246097914Y-65542857D02*
X246193152Y-65590476D01*
X246193152Y-65590476D02*
X246240771Y-65638095D01*
X246240771Y-65638095D02*
X246288390Y-65733333D01*
X246288390Y-65733333D02*
X246288390Y-65923809D01*
X246288390Y-65923809D02*
X246336009Y-66019047D01*
X246336009Y-66019047D02*
X246383628Y-66066666D01*
X246383628Y-66066666D02*
X246478866Y-66114285D01*
X246478866Y-66114285D02*
X246669342Y-66114285D01*
X246669342Y-66114285D02*
X246764580Y-66066666D01*
X246764580Y-66066666D02*
X246812200Y-66019047D01*
X246812200Y-66019047D02*
X246859819Y-65923809D01*
X246859819Y-65923809D02*
X246859819Y-65733333D01*
X246859819Y-65733333D02*
X246812200Y-65638095D01*
X246812200Y-65638095D02*
X246764580Y-65590476D01*
X246764580Y-65590476D02*
X246669342Y-65542857D01*
X246669342Y-65542857D02*
X246478866Y-65542857D01*
X246478866Y-65542857D02*
X246383628Y-65590476D01*
X246383628Y-65590476D02*
X246336009Y-65638095D01*
X246336009Y-65638095D02*
X246288390Y-65733333D01*
X246859819Y-64590476D02*
X246859819Y-65161904D01*
X246859819Y-64876190D02*
X245859819Y-64876190D01*
X245859819Y-64876190D02*
X246002676Y-64971428D01*
X246002676Y-64971428D02*
X246097914Y-65066666D01*
X246097914Y-65066666D02*
X246145533Y-65161904D01*
X184012200Y-68309523D02*
X184059819Y-68166666D01*
X184059819Y-68166666D02*
X184059819Y-67928571D01*
X184059819Y-67928571D02*
X184012200Y-67833333D01*
X184012200Y-67833333D02*
X183964580Y-67785714D01*
X183964580Y-67785714D02*
X183869342Y-67738095D01*
X183869342Y-67738095D02*
X183774104Y-67738095D01*
X183774104Y-67738095D02*
X183678866Y-67785714D01*
X183678866Y-67785714D02*
X183631247Y-67833333D01*
X183631247Y-67833333D02*
X183583628Y-67928571D01*
X183583628Y-67928571D02*
X183536009Y-68119047D01*
X183536009Y-68119047D02*
X183488390Y-68214285D01*
X183488390Y-68214285D02*
X183440771Y-68261904D01*
X183440771Y-68261904D02*
X183345533Y-68309523D01*
X183345533Y-68309523D02*
X183250295Y-68309523D01*
X183250295Y-68309523D02*
X183155057Y-68261904D01*
X183155057Y-68261904D02*
X183107438Y-68214285D01*
X183107438Y-68214285D02*
X183059819Y-68119047D01*
X183059819Y-68119047D02*
X183059819Y-67880952D01*
X183059819Y-67880952D02*
X183107438Y-67738095D01*
X183059819Y-67404761D02*
X184059819Y-67166666D01*
X184059819Y-67166666D02*
X183345533Y-66976190D01*
X183345533Y-66976190D02*
X184059819Y-66785714D01*
X184059819Y-66785714D02*
X183059819Y-66547619D01*
X183488390Y-66023809D02*
X183440771Y-66119047D01*
X183440771Y-66119047D02*
X183393152Y-66166666D01*
X183393152Y-66166666D02*
X183297914Y-66214285D01*
X183297914Y-66214285D02*
X183250295Y-66214285D01*
X183250295Y-66214285D02*
X183155057Y-66166666D01*
X183155057Y-66166666D02*
X183107438Y-66119047D01*
X183107438Y-66119047D02*
X183059819Y-66023809D01*
X183059819Y-66023809D02*
X183059819Y-65833333D01*
X183059819Y-65833333D02*
X183107438Y-65738095D01*
X183107438Y-65738095D02*
X183155057Y-65690476D01*
X183155057Y-65690476D02*
X183250295Y-65642857D01*
X183250295Y-65642857D02*
X183297914Y-65642857D01*
X183297914Y-65642857D02*
X183393152Y-65690476D01*
X183393152Y-65690476D02*
X183440771Y-65738095D01*
X183440771Y-65738095D02*
X183488390Y-65833333D01*
X183488390Y-65833333D02*
X183488390Y-66023809D01*
X183488390Y-66023809D02*
X183536009Y-66119047D01*
X183536009Y-66119047D02*
X183583628Y-66166666D01*
X183583628Y-66166666D02*
X183678866Y-66214285D01*
X183678866Y-66214285D02*
X183869342Y-66214285D01*
X183869342Y-66214285D02*
X183964580Y-66166666D01*
X183964580Y-66166666D02*
X184012200Y-66119047D01*
X184012200Y-66119047D02*
X184059819Y-66023809D01*
X184059819Y-66023809D02*
X184059819Y-65833333D01*
X184059819Y-65833333D02*
X184012200Y-65738095D01*
X184012200Y-65738095D02*
X183964580Y-65690476D01*
X183964580Y-65690476D02*
X183869342Y-65642857D01*
X183869342Y-65642857D02*
X183678866Y-65642857D01*
X183678866Y-65642857D02*
X183583628Y-65690476D01*
X183583628Y-65690476D02*
X183536009Y-65738095D01*
X183536009Y-65738095D02*
X183488390Y-65833333D01*
X183059819Y-65023809D02*
X183059819Y-64928571D01*
X183059819Y-64928571D02*
X183107438Y-64833333D01*
X183107438Y-64833333D02*
X183155057Y-64785714D01*
X183155057Y-64785714D02*
X183250295Y-64738095D01*
X183250295Y-64738095D02*
X183440771Y-64690476D01*
X183440771Y-64690476D02*
X183678866Y-64690476D01*
X183678866Y-64690476D02*
X183869342Y-64738095D01*
X183869342Y-64738095D02*
X183964580Y-64785714D01*
X183964580Y-64785714D02*
X184012200Y-64833333D01*
X184012200Y-64833333D02*
X184059819Y-64928571D01*
X184059819Y-64928571D02*
X184059819Y-65023809D01*
X184059819Y-65023809D02*
X184012200Y-65119047D01*
X184012200Y-65119047D02*
X183964580Y-65166666D01*
X183964580Y-65166666D02*
X183869342Y-65214285D01*
X183869342Y-65214285D02*
X183678866Y-65261904D01*
X183678866Y-65261904D02*
X183440771Y-65261904D01*
X183440771Y-65261904D02*
X183250295Y-65214285D01*
X183250295Y-65214285D02*
X183155057Y-65166666D01*
X183155057Y-65166666D02*
X183107438Y-65119047D01*
X183107438Y-65119047D02*
X183059819Y-65023809D01*
X374559819Y-114433333D02*
X375274104Y-114433333D01*
X375274104Y-114433333D02*
X375416961Y-114480952D01*
X375416961Y-114480952D02*
X375512200Y-114576190D01*
X375512200Y-114576190D02*
X375559819Y-114719047D01*
X375559819Y-114719047D02*
X375559819Y-114814285D01*
X374893152Y-113528571D02*
X375559819Y-113528571D01*
X374512200Y-113766666D02*
X375226485Y-114004761D01*
X375226485Y-114004761D02*
X375226485Y-113385714D01*
X253464819Y-68033333D02*
X254179104Y-68033333D01*
X254179104Y-68033333D02*
X254321961Y-68080952D01*
X254321961Y-68080952D02*
X254417200Y-68176190D01*
X254417200Y-68176190D02*
X254464819Y-68319047D01*
X254464819Y-68319047D02*
X254464819Y-68414285D01*
X253464819Y-67652380D02*
X253464819Y-67033333D01*
X253464819Y-67033333D02*
X253845771Y-67366666D01*
X253845771Y-67366666D02*
X253845771Y-67223809D01*
X253845771Y-67223809D02*
X253893390Y-67128571D01*
X253893390Y-67128571D02*
X253941009Y-67080952D01*
X253941009Y-67080952D02*
X254036247Y-67033333D01*
X254036247Y-67033333D02*
X254274342Y-67033333D01*
X254274342Y-67033333D02*
X254369580Y-67080952D01*
X254369580Y-67080952D02*
X254417200Y-67128571D01*
X254417200Y-67128571D02*
X254464819Y-67223809D01*
X254464819Y-67223809D02*
X254464819Y-67509523D01*
X254464819Y-67509523D02*
X254417200Y-67604761D01*
X254417200Y-67604761D02*
X254369580Y-67652380D01*
X154614819Y-68027083D02*
X155329104Y-68027083D01*
X155329104Y-68027083D02*
X155471961Y-68074702D01*
X155471961Y-68074702D02*
X155567200Y-68169940D01*
X155567200Y-68169940D02*
X155614819Y-68312797D01*
X155614819Y-68312797D02*
X155614819Y-68408035D01*
X154710057Y-67598511D02*
X154662438Y-67550892D01*
X154662438Y-67550892D02*
X154614819Y-67455654D01*
X154614819Y-67455654D02*
X154614819Y-67217559D01*
X154614819Y-67217559D02*
X154662438Y-67122321D01*
X154662438Y-67122321D02*
X154710057Y-67074702D01*
X154710057Y-67074702D02*
X154805295Y-67027083D01*
X154805295Y-67027083D02*
X154900533Y-67027083D01*
X154900533Y-67027083D02*
X155043390Y-67074702D01*
X155043390Y-67074702D02*
X155614819Y-67646130D01*
X155614819Y-67646130D02*
X155614819Y-67027083D01*
X25055416Y-65442189D02*
X25055416Y-66156474D01*
X25055416Y-66156474D02*
X25007797Y-66299331D01*
X25007797Y-66299331D02*
X24912559Y-66394570D01*
X24912559Y-66394570D02*
X24769702Y-66442189D01*
X24769702Y-66442189D02*
X24674464Y-66442189D01*
X26055416Y-66442189D02*
X25483988Y-66442189D01*
X25769702Y-66442189D02*
X25769702Y-65442189D01*
X25769702Y-65442189D02*
X25674464Y-65585046D01*
X25674464Y-65585046D02*
X25579226Y-65680284D01*
X25579226Y-65680284D02*
X25483988Y-65727903D01*
D11*
X39887964Y-77265933D02*
X39852250Y-77234029D01*
X39852250Y-77234029D02*
X39816535Y-77138314D01*
X39816535Y-77138314D02*
X39816535Y-77074505D01*
X39816535Y-77074505D02*
X39852250Y-76978791D01*
X39852250Y-76978791D02*
X39923678Y-76914981D01*
X39923678Y-76914981D02*
X39995107Y-76883076D01*
X39995107Y-76883076D02*
X40137964Y-76851172D01*
X40137964Y-76851172D02*
X40245107Y-76851172D01*
X40245107Y-76851172D02*
X40387964Y-76883076D01*
X40387964Y-76883076D02*
X40459392Y-76914981D01*
X40459392Y-76914981D02*
X40530821Y-76978791D01*
X40530821Y-76978791D02*
X40566535Y-77074505D01*
X40566535Y-77074505D02*
X40566535Y-77138314D01*
X40566535Y-77138314D02*
X40530821Y-77234029D01*
X40530821Y-77234029D02*
X40495107Y-77265933D01*
X40566535Y-77840219D02*
X40566535Y-77712600D01*
X40566535Y-77712600D02*
X40530821Y-77648791D01*
X40530821Y-77648791D02*
X40495107Y-77616886D01*
X40495107Y-77616886D02*
X40387964Y-77553076D01*
X40387964Y-77553076D02*
X40245107Y-77521172D01*
X40245107Y-77521172D02*
X39959392Y-77521172D01*
X39959392Y-77521172D02*
X39887964Y-77553076D01*
X39887964Y-77553076D02*
X39852250Y-77584981D01*
X39852250Y-77584981D02*
X39816535Y-77648791D01*
X39816535Y-77648791D02*
X39816535Y-77776410D01*
X39816535Y-77776410D02*
X39852250Y-77840219D01*
X39852250Y-77840219D02*
X39887964Y-77872124D01*
X39887964Y-77872124D02*
X39959392Y-77904029D01*
X39959392Y-77904029D02*
X40137964Y-77904029D01*
X40137964Y-77904029D02*
X40209392Y-77872124D01*
X40209392Y-77872124D02*
X40245107Y-77840219D01*
X40245107Y-77840219D02*
X40280821Y-77776410D01*
X40280821Y-77776410D02*
X40280821Y-77648791D01*
X40280821Y-77648791D02*
X40245107Y-77584981D01*
X40245107Y-77584981D02*
X40209392Y-77553076D01*
X40209392Y-77553076D02*
X40137964Y-77521172D01*
X40602250Y-78669743D02*
X39637964Y-78095457D01*
X40566535Y-79212124D02*
X40566535Y-78893076D01*
X40566535Y-78893076D02*
X40209392Y-78861172D01*
X40209392Y-78861172D02*
X40245107Y-78893076D01*
X40245107Y-78893076D02*
X40280821Y-78956886D01*
X40280821Y-78956886D02*
X40280821Y-79116410D01*
X40280821Y-79116410D02*
X40245107Y-79180219D01*
X40245107Y-79180219D02*
X40209392Y-79212124D01*
X40209392Y-79212124D02*
X40137964Y-79244029D01*
X40137964Y-79244029D02*
X39959392Y-79244029D01*
X39959392Y-79244029D02*
X39887964Y-79212124D01*
X39887964Y-79212124D02*
X39852250Y-79180219D01*
X39852250Y-79180219D02*
X39816535Y-79116410D01*
X39816535Y-79116410D02*
X39816535Y-78956886D01*
X39816535Y-78956886D02*
X39852250Y-78893076D01*
X39852250Y-78893076D02*
X39887964Y-78861172D01*
X29516535Y-67814981D02*
X29516535Y-67432124D01*
X29516535Y-67623552D02*
X30266535Y-67623552D01*
X30266535Y-67623552D02*
X30159392Y-67559743D01*
X30159392Y-67559743D02*
X30087964Y-67495933D01*
X30087964Y-67495933D02*
X30052250Y-67432124D01*
X30266535Y-68229742D02*
X30266535Y-68293552D01*
X30266535Y-68293552D02*
X30230821Y-68357361D01*
X30230821Y-68357361D02*
X30195107Y-68389266D01*
X30195107Y-68389266D02*
X30123678Y-68421171D01*
X30123678Y-68421171D02*
X29980821Y-68453076D01*
X29980821Y-68453076D02*
X29802250Y-68453076D01*
X29802250Y-68453076D02*
X29659392Y-68421171D01*
X29659392Y-68421171D02*
X29587964Y-68389266D01*
X29587964Y-68389266D02*
X29552250Y-68357361D01*
X29552250Y-68357361D02*
X29516535Y-68293552D01*
X29516535Y-68293552D02*
X29516535Y-68229742D01*
X29516535Y-68229742D02*
X29552250Y-68165933D01*
X29552250Y-68165933D02*
X29587964Y-68134028D01*
X29587964Y-68134028D02*
X29659392Y-68102123D01*
X29659392Y-68102123D02*
X29802250Y-68070219D01*
X29802250Y-68070219D02*
X29980821Y-68070219D01*
X29980821Y-68070219D02*
X30123678Y-68102123D01*
X30123678Y-68102123D02*
X30195107Y-68134028D01*
X30195107Y-68134028D02*
X30230821Y-68165933D01*
X30230821Y-68165933D02*
X30266535Y-68229742D01*
X30302250Y-69218790D02*
X29337964Y-68644504D01*
X29909392Y-69665457D02*
X29873678Y-69761171D01*
X29873678Y-69761171D02*
X29837964Y-69793076D01*
X29837964Y-69793076D02*
X29766535Y-69824980D01*
X29766535Y-69824980D02*
X29659392Y-69824980D01*
X29659392Y-69824980D02*
X29587964Y-69793076D01*
X29587964Y-69793076D02*
X29552250Y-69761171D01*
X29552250Y-69761171D02*
X29516535Y-69697361D01*
X29516535Y-69697361D02*
X29516535Y-69442123D01*
X29516535Y-69442123D02*
X30266535Y-69442123D01*
X30266535Y-69442123D02*
X30266535Y-69665457D01*
X30266535Y-69665457D02*
X30230821Y-69729266D01*
X30230821Y-69729266D02*
X30195107Y-69761171D01*
X30195107Y-69761171D02*
X30123678Y-69793076D01*
X30123678Y-69793076D02*
X30052250Y-69793076D01*
X30052250Y-69793076D02*
X29980821Y-69761171D01*
X29980821Y-69761171D02*
X29945107Y-69729266D01*
X29945107Y-69729266D02*
X29909392Y-69665457D01*
X29909392Y-69665457D02*
X29909392Y-69442123D01*
X30266535Y-70399266D02*
X30266535Y-70271647D01*
X30266535Y-70271647D02*
X30230821Y-70207838D01*
X30230821Y-70207838D02*
X30195107Y-70175933D01*
X30195107Y-70175933D02*
X30087964Y-70112123D01*
X30087964Y-70112123D02*
X29945107Y-70080219D01*
X29945107Y-70080219D02*
X29659392Y-70080219D01*
X29659392Y-70080219D02*
X29587964Y-70112123D01*
X29587964Y-70112123D02*
X29552250Y-70144028D01*
X29552250Y-70144028D02*
X29516535Y-70207838D01*
X29516535Y-70207838D02*
X29516535Y-70335457D01*
X29516535Y-70335457D02*
X29552250Y-70399266D01*
X29552250Y-70399266D02*
X29587964Y-70431171D01*
X29587964Y-70431171D02*
X29659392Y-70463076D01*
X29659392Y-70463076D02*
X29837964Y-70463076D01*
X29837964Y-70463076D02*
X29909392Y-70431171D01*
X29909392Y-70431171D02*
X29945107Y-70399266D01*
X29945107Y-70399266D02*
X29980821Y-70335457D01*
X29980821Y-70335457D02*
X29980821Y-70207838D01*
X29980821Y-70207838D02*
X29945107Y-70144028D01*
X29945107Y-70144028D02*
X29909392Y-70112123D01*
X29909392Y-70112123D02*
X29837964Y-70080219D01*
X42430821Y-67511886D02*
X42430821Y-67830933D01*
X42216535Y-67448076D02*
X42966535Y-67671409D01*
X42966535Y-67671409D02*
X42216535Y-67894743D01*
X42216535Y-68469029D02*
X42216535Y-68086172D01*
X42216535Y-68277600D02*
X42966535Y-68277600D01*
X42966535Y-68277600D02*
X42859392Y-68213791D01*
X42859392Y-68213791D02*
X42787964Y-68149981D01*
X42787964Y-68149981D02*
X42752250Y-68086172D01*
X43002250Y-69234743D02*
X42037964Y-68660457D01*
X42609392Y-69681410D02*
X42609392Y-69458076D01*
X42216535Y-69458076D02*
X42966535Y-69458076D01*
X42966535Y-69458076D02*
X42966535Y-69777124D01*
X42966535Y-70319505D02*
X42966535Y-70191886D01*
X42966535Y-70191886D02*
X42930821Y-70128077D01*
X42930821Y-70128077D02*
X42895107Y-70096172D01*
X42895107Y-70096172D02*
X42787964Y-70032362D01*
X42787964Y-70032362D02*
X42645107Y-70000458D01*
X42645107Y-70000458D02*
X42359392Y-70000458D01*
X42359392Y-70000458D02*
X42287964Y-70032362D01*
X42287964Y-70032362D02*
X42252250Y-70064267D01*
X42252250Y-70064267D02*
X42216535Y-70128077D01*
X42216535Y-70128077D02*
X42216535Y-70255696D01*
X42216535Y-70255696D02*
X42252250Y-70319505D01*
X42252250Y-70319505D02*
X42287964Y-70351410D01*
X42287964Y-70351410D02*
X42359392Y-70383315D01*
X42359392Y-70383315D02*
X42537964Y-70383315D01*
X42537964Y-70383315D02*
X42609392Y-70351410D01*
X42609392Y-70351410D02*
X42645107Y-70319505D01*
X42645107Y-70319505D02*
X42680821Y-70255696D01*
X42680821Y-70255696D02*
X42680821Y-70128077D01*
X42680821Y-70128077D02*
X42645107Y-70064267D01*
X42645107Y-70064267D02*
X42609392Y-70032362D01*
X42609392Y-70032362D02*
X42537964Y-70000458D01*
X44902250Y-74324981D02*
X44866535Y-74420695D01*
X44866535Y-74420695D02*
X44866535Y-74580219D01*
X44866535Y-74580219D02*
X44902250Y-74644028D01*
X44902250Y-74644028D02*
X44937964Y-74675933D01*
X44937964Y-74675933D02*
X45009392Y-74707838D01*
X45009392Y-74707838D02*
X45080821Y-74707838D01*
X45080821Y-74707838D02*
X45152250Y-74675933D01*
X45152250Y-74675933D02*
X45187964Y-74644028D01*
X45187964Y-74644028D02*
X45223678Y-74580219D01*
X45223678Y-74580219D02*
X45259392Y-74452600D01*
X45259392Y-74452600D02*
X45295107Y-74388790D01*
X45295107Y-74388790D02*
X45330821Y-74356885D01*
X45330821Y-74356885D02*
X45402250Y-74324981D01*
X45402250Y-74324981D02*
X45473678Y-74324981D01*
X45473678Y-74324981D02*
X45545107Y-74356885D01*
X45545107Y-74356885D02*
X45580821Y-74388790D01*
X45580821Y-74388790D02*
X45616535Y-74452600D01*
X45616535Y-74452600D02*
X45616535Y-74612123D01*
X45616535Y-74612123D02*
X45580821Y-74707838D01*
X44937964Y-75377837D02*
X44902250Y-75345933D01*
X44902250Y-75345933D02*
X44866535Y-75250218D01*
X44866535Y-75250218D02*
X44866535Y-75186409D01*
X44866535Y-75186409D02*
X44902250Y-75090695D01*
X44902250Y-75090695D02*
X44973678Y-75026885D01*
X44973678Y-75026885D02*
X45045107Y-74994980D01*
X45045107Y-74994980D02*
X45187964Y-74963076D01*
X45187964Y-74963076D02*
X45295107Y-74963076D01*
X45295107Y-74963076D02*
X45437964Y-74994980D01*
X45437964Y-74994980D02*
X45509392Y-75026885D01*
X45509392Y-75026885D02*
X45580821Y-75090695D01*
X45580821Y-75090695D02*
X45616535Y-75186409D01*
X45616535Y-75186409D02*
X45616535Y-75250218D01*
X45616535Y-75250218D02*
X45580821Y-75345933D01*
X45580821Y-75345933D02*
X45545107Y-75377837D01*
X44866535Y-75984028D02*
X44866535Y-75664980D01*
X44866535Y-75664980D02*
X45616535Y-75664980D01*
X45652250Y-76685933D02*
X44687964Y-76111647D01*
X44866535Y-76909266D02*
X45616535Y-76909266D01*
X45616535Y-76909266D02*
X45616535Y-77068790D01*
X45616535Y-77068790D02*
X45580821Y-77164504D01*
X45580821Y-77164504D02*
X45509392Y-77228314D01*
X45509392Y-77228314D02*
X45437964Y-77260219D01*
X45437964Y-77260219D02*
X45295107Y-77292123D01*
X45295107Y-77292123D02*
X45187964Y-77292123D01*
X45187964Y-77292123D02*
X45045107Y-77260219D01*
X45045107Y-77260219D02*
X44973678Y-77228314D01*
X44973678Y-77228314D02*
X44902250Y-77164504D01*
X44902250Y-77164504D02*
X44866535Y-77068790D01*
X44866535Y-77068790D02*
X44866535Y-76909266D01*
X45616535Y-77706885D02*
X45616535Y-77770695D01*
X45616535Y-77770695D02*
X45580821Y-77834504D01*
X45580821Y-77834504D02*
X45545107Y-77866409D01*
X45545107Y-77866409D02*
X45473678Y-77898314D01*
X45473678Y-77898314D02*
X45330821Y-77930219D01*
X45330821Y-77930219D02*
X45152250Y-77930219D01*
X45152250Y-77930219D02*
X45009392Y-77898314D01*
X45009392Y-77898314D02*
X44937964Y-77866409D01*
X44937964Y-77866409D02*
X44902250Y-77834504D01*
X44902250Y-77834504D02*
X44866535Y-77770695D01*
X44866535Y-77770695D02*
X44866535Y-77706885D01*
X44866535Y-77706885D02*
X44902250Y-77643076D01*
X44902250Y-77643076D02*
X44937964Y-77611171D01*
X44937964Y-77611171D02*
X45009392Y-77579266D01*
X45009392Y-77579266D02*
X45152250Y-77547362D01*
X45152250Y-77547362D02*
X45330821Y-77547362D01*
X45330821Y-77547362D02*
X45473678Y-77579266D01*
X45473678Y-77579266D02*
X45545107Y-77611171D01*
X45545107Y-77611171D02*
X45580821Y-77643076D01*
X45580821Y-77643076D02*
X45616535Y-77706885D01*
X45652250Y-78695933D02*
X44687964Y-78121647D01*
X45616535Y-78855457D02*
X45616535Y-79270219D01*
X45616535Y-79270219D02*
X45330821Y-79046885D01*
X45330821Y-79046885D02*
X45330821Y-79142600D01*
X45330821Y-79142600D02*
X45295107Y-79206409D01*
X45295107Y-79206409D02*
X45259392Y-79238314D01*
X45259392Y-79238314D02*
X45187964Y-79270219D01*
X45187964Y-79270219D02*
X45009392Y-79270219D01*
X45009392Y-79270219D02*
X44937964Y-79238314D01*
X44937964Y-79238314D02*
X44902250Y-79206409D01*
X44902250Y-79206409D02*
X44866535Y-79142600D01*
X44866535Y-79142600D02*
X44866535Y-78951171D01*
X44866535Y-78951171D02*
X44902250Y-78887362D01*
X44902250Y-78887362D02*
X44937964Y-78855457D01*
X37116535Y-67814981D02*
X37116535Y-67432124D01*
X37116535Y-67623552D02*
X37866535Y-67623552D01*
X37866535Y-67623552D02*
X37759392Y-67559743D01*
X37759392Y-67559743D02*
X37687964Y-67495933D01*
X37687964Y-67495933D02*
X37652250Y-67432124D01*
X37866535Y-68421171D02*
X37866535Y-68102123D01*
X37866535Y-68102123D02*
X37509392Y-68070219D01*
X37509392Y-68070219D02*
X37545107Y-68102123D01*
X37545107Y-68102123D02*
X37580821Y-68165933D01*
X37580821Y-68165933D02*
X37580821Y-68325457D01*
X37580821Y-68325457D02*
X37545107Y-68389266D01*
X37545107Y-68389266D02*
X37509392Y-68421171D01*
X37509392Y-68421171D02*
X37437964Y-68453076D01*
X37437964Y-68453076D02*
X37259392Y-68453076D01*
X37259392Y-68453076D02*
X37187964Y-68421171D01*
X37187964Y-68421171D02*
X37152250Y-68389266D01*
X37152250Y-68389266D02*
X37116535Y-68325457D01*
X37116535Y-68325457D02*
X37116535Y-68165933D01*
X37116535Y-68165933D02*
X37152250Y-68102123D01*
X37152250Y-68102123D02*
X37187964Y-68070219D01*
X37902250Y-69218790D02*
X36937964Y-68644504D01*
X37509392Y-69665457D02*
X37473678Y-69761171D01*
X37473678Y-69761171D02*
X37437964Y-69793076D01*
X37437964Y-69793076D02*
X37366535Y-69824980D01*
X37366535Y-69824980D02*
X37259392Y-69824980D01*
X37259392Y-69824980D02*
X37187964Y-69793076D01*
X37187964Y-69793076D02*
X37152250Y-69761171D01*
X37152250Y-69761171D02*
X37116535Y-69697361D01*
X37116535Y-69697361D02*
X37116535Y-69442123D01*
X37116535Y-69442123D02*
X37866535Y-69442123D01*
X37866535Y-69442123D02*
X37866535Y-69665457D01*
X37866535Y-69665457D02*
X37830821Y-69729266D01*
X37830821Y-69729266D02*
X37795107Y-69761171D01*
X37795107Y-69761171D02*
X37723678Y-69793076D01*
X37723678Y-69793076D02*
X37652250Y-69793076D01*
X37652250Y-69793076D02*
X37580821Y-69761171D01*
X37580821Y-69761171D02*
X37545107Y-69729266D01*
X37545107Y-69729266D02*
X37509392Y-69665457D01*
X37509392Y-69665457D02*
X37509392Y-69442123D01*
X37116535Y-70463076D02*
X37116535Y-70080219D01*
X37116535Y-70271647D02*
X37866535Y-70271647D01*
X37866535Y-70271647D02*
X37759392Y-70207838D01*
X37759392Y-70207838D02*
X37687964Y-70144028D01*
X37687964Y-70144028D02*
X37652250Y-70080219D01*
X47402250Y-74309029D02*
X47366535Y-74404743D01*
X47366535Y-74404743D02*
X47366535Y-74564267D01*
X47366535Y-74564267D02*
X47402250Y-74628076D01*
X47402250Y-74628076D02*
X47437964Y-74659981D01*
X47437964Y-74659981D02*
X47509392Y-74691886D01*
X47509392Y-74691886D02*
X47580821Y-74691886D01*
X47580821Y-74691886D02*
X47652250Y-74659981D01*
X47652250Y-74659981D02*
X47687964Y-74628076D01*
X47687964Y-74628076D02*
X47723678Y-74564267D01*
X47723678Y-74564267D02*
X47759392Y-74436648D01*
X47759392Y-74436648D02*
X47795107Y-74372838D01*
X47795107Y-74372838D02*
X47830821Y-74340933D01*
X47830821Y-74340933D02*
X47902250Y-74309029D01*
X47902250Y-74309029D02*
X47973678Y-74309029D01*
X47973678Y-74309029D02*
X48045107Y-74340933D01*
X48045107Y-74340933D02*
X48080821Y-74372838D01*
X48080821Y-74372838D02*
X48116535Y-74436648D01*
X48116535Y-74436648D02*
X48116535Y-74596171D01*
X48116535Y-74596171D02*
X48080821Y-74691886D01*
X47366535Y-74979028D02*
X48116535Y-74979028D01*
X48116535Y-74979028D02*
X48116535Y-75138552D01*
X48116535Y-75138552D02*
X48080821Y-75234266D01*
X48080821Y-75234266D02*
X48009392Y-75298076D01*
X48009392Y-75298076D02*
X47937964Y-75329981D01*
X47937964Y-75329981D02*
X47795107Y-75361885D01*
X47795107Y-75361885D02*
X47687964Y-75361885D01*
X47687964Y-75361885D02*
X47545107Y-75329981D01*
X47545107Y-75329981D02*
X47473678Y-75298076D01*
X47473678Y-75298076D02*
X47402250Y-75234266D01*
X47402250Y-75234266D02*
X47366535Y-75138552D01*
X47366535Y-75138552D02*
X47366535Y-74979028D01*
X47580821Y-75617124D02*
X47580821Y-75936171D01*
X47366535Y-75553314D02*
X48116535Y-75776647D01*
X48116535Y-75776647D02*
X47366535Y-75999981D01*
X48152250Y-76701886D02*
X47187964Y-76127600D01*
X47366535Y-76925219D02*
X48116535Y-76925219D01*
X48116535Y-76925219D02*
X48116535Y-77084743D01*
X48116535Y-77084743D02*
X48080821Y-77180457D01*
X48080821Y-77180457D02*
X48009392Y-77244267D01*
X48009392Y-77244267D02*
X47937964Y-77276172D01*
X47937964Y-77276172D02*
X47795107Y-77308076D01*
X47795107Y-77308076D02*
X47687964Y-77308076D01*
X47687964Y-77308076D02*
X47545107Y-77276172D01*
X47545107Y-77276172D02*
X47473678Y-77244267D01*
X47473678Y-77244267D02*
X47402250Y-77180457D01*
X47402250Y-77180457D02*
X47366535Y-77084743D01*
X47366535Y-77084743D02*
X47366535Y-76925219D01*
X47366535Y-77946172D02*
X47366535Y-77563315D01*
X47366535Y-77754743D02*
X48116535Y-77754743D01*
X48116535Y-77754743D02*
X48009392Y-77690934D01*
X48009392Y-77690934D02*
X47937964Y-77627124D01*
X47937964Y-77627124D02*
X47902250Y-77563315D01*
X48152250Y-78711886D02*
X47187964Y-78137600D01*
X48045107Y-78903315D02*
X48080821Y-78935219D01*
X48080821Y-78935219D02*
X48116535Y-78999029D01*
X48116535Y-78999029D02*
X48116535Y-79158553D01*
X48116535Y-79158553D02*
X48080821Y-79222362D01*
X48080821Y-79222362D02*
X48045107Y-79254267D01*
X48045107Y-79254267D02*
X47973678Y-79286172D01*
X47973678Y-79286172D02*
X47902250Y-79286172D01*
X47902250Y-79286172D02*
X47795107Y-79254267D01*
X47795107Y-79254267D02*
X47366535Y-78871410D01*
X47366535Y-78871410D02*
X47366535Y-79286172D01*
X50666535Y-67454266D02*
X49916535Y-67677599D01*
X49916535Y-67677599D02*
X50666535Y-67900933D01*
X49987964Y-68507123D02*
X49952250Y-68475219D01*
X49952250Y-68475219D02*
X49916535Y-68379504D01*
X49916535Y-68379504D02*
X49916535Y-68315695D01*
X49916535Y-68315695D02*
X49952250Y-68219981D01*
X49952250Y-68219981D02*
X50023678Y-68156171D01*
X50023678Y-68156171D02*
X50095107Y-68124266D01*
X50095107Y-68124266D02*
X50237964Y-68092362D01*
X50237964Y-68092362D02*
X50345107Y-68092362D01*
X50345107Y-68092362D02*
X50487964Y-68124266D01*
X50487964Y-68124266D02*
X50559392Y-68156171D01*
X50559392Y-68156171D02*
X50630821Y-68219981D01*
X50630821Y-68219981D02*
X50666535Y-68315695D01*
X50666535Y-68315695D02*
X50666535Y-68379504D01*
X50666535Y-68379504D02*
X50630821Y-68475219D01*
X50630821Y-68475219D02*
X50595107Y-68507123D01*
X49987964Y-69177123D02*
X49952250Y-69145219D01*
X49952250Y-69145219D02*
X49916535Y-69049504D01*
X49916535Y-69049504D02*
X49916535Y-68985695D01*
X49916535Y-68985695D02*
X49952250Y-68889981D01*
X49952250Y-68889981D02*
X50023678Y-68826171D01*
X50023678Y-68826171D02*
X50095107Y-68794266D01*
X50095107Y-68794266D02*
X50237964Y-68762362D01*
X50237964Y-68762362D02*
X50345107Y-68762362D01*
X50345107Y-68762362D02*
X50487964Y-68794266D01*
X50487964Y-68794266D02*
X50559392Y-68826171D01*
X50559392Y-68826171D02*
X50630821Y-68889981D01*
X50630821Y-68889981D02*
X50666535Y-68985695D01*
X50666535Y-68985695D02*
X50666535Y-69049504D01*
X50666535Y-69049504D02*
X50630821Y-69145219D01*
X50630821Y-69145219D02*
X50595107Y-69177123D01*
X57416535Y-75758790D02*
X58166535Y-75758790D01*
X58166535Y-75758790D02*
X58166535Y-75918314D01*
X58166535Y-75918314D02*
X58130821Y-76014028D01*
X58130821Y-76014028D02*
X58059392Y-76077838D01*
X58059392Y-76077838D02*
X57987964Y-76109743D01*
X57987964Y-76109743D02*
X57845107Y-76141647D01*
X57845107Y-76141647D02*
X57737964Y-76141647D01*
X57737964Y-76141647D02*
X57595107Y-76109743D01*
X57595107Y-76109743D02*
X57523678Y-76077838D01*
X57523678Y-76077838D02*
X57452250Y-76014028D01*
X57452250Y-76014028D02*
X57416535Y-75918314D01*
X57416535Y-75918314D02*
X57416535Y-75758790D01*
X58166535Y-76364981D02*
X58166535Y-76779743D01*
X58166535Y-76779743D02*
X57880821Y-76556409D01*
X57880821Y-76556409D02*
X57880821Y-76652124D01*
X57880821Y-76652124D02*
X57845107Y-76715933D01*
X57845107Y-76715933D02*
X57809392Y-76747838D01*
X57809392Y-76747838D02*
X57737964Y-76779743D01*
X57737964Y-76779743D02*
X57559392Y-76779743D01*
X57559392Y-76779743D02*
X57487964Y-76747838D01*
X57487964Y-76747838D02*
X57452250Y-76715933D01*
X57452250Y-76715933D02*
X57416535Y-76652124D01*
X57416535Y-76652124D02*
X57416535Y-76460695D01*
X57416535Y-76460695D02*
X57452250Y-76396886D01*
X57452250Y-76396886D02*
X57487964Y-76364981D01*
X58202250Y-77545457D02*
X57237964Y-76971171D01*
X58166535Y-77673076D02*
X58166535Y-78055933D01*
X57416535Y-77864505D02*
X58166535Y-77864505D01*
X58166535Y-78215457D02*
X57416535Y-78662123D01*
X58166535Y-78662123D02*
X57416535Y-78215457D01*
X58166535Y-79044980D02*
X58166535Y-79108790D01*
X58166535Y-79108790D02*
X58130821Y-79172599D01*
X58130821Y-79172599D02*
X58095107Y-79204504D01*
X58095107Y-79204504D02*
X58023678Y-79236409D01*
X58023678Y-79236409D02*
X57880821Y-79268314D01*
X57880821Y-79268314D02*
X57702250Y-79268314D01*
X57702250Y-79268314D02*
X57559392Y-79236409D01*
X57559392Y-79236409D02*
X57487964Y-79204504D01*
X57487964Y-79204504D02*
X57452250Y-79172599D01*
X57452250Y-79172599D02*
X57416535Y-79108790D01*
X57416535Y-79108790D02*
X57416535Y-79044980D01*
X57416535Y-79044980D02*
X57452250Y-78981171D01*
X57452250Y-78981171D02*
X57487964Y-78949266D01*
X57487964Y-78949266D02*
X57559392Y-78917361D01*
X57559392Y-78917361D02*
X57702250Y-78885457D01*
X57702250Y-78885457D02*
X57880821Y-78885457D01*
X57880821Y-78885457D02*
X58023678Y-78917361D01*
X58023678Y-78917361D02*
X58095107Y-78949266D01*
X58095107Y-78949266D02*
X58130821Y-78981171D01*
X58130821Y-78981171D02*
X58166535Y-79044980D01*
X54866535Y-75679028D02*
X55616535Y-75679028D01*
X55616535Y-75679028D02*
X55616535Y-75838552D01*
X55616535Y-75838552D02*
X55580821Y-75934266D01*
X55580821Y-75934266D02*
X55509392Y-75998076D01*
X55509392Y-75998076D02*
X55437964Y-76029981D01*
X55437964Y-76029981D02*
X55295107Y-76061885D01*
X55295107Y-76061885D02*
X55187964Y-76061885D01*
X55187964Y-76061885D02*
X55045107Y-76029981D01*
X55045107Y-76029981D02*
X54973678Y-75998076D01*
X54973678Y-75998076D02*
X54902250Y-75934266D01*
X54902250Y-75934266D02*
X54866535Y-75838552D01*
X54866535Y-75838552D02*
X54866535Y-75679028D01*
X55545107Y-76317124D02*
X55580821Y-76349028D01*
X55580821Y-76349028D02*
X55616535Y-76412838D01*
X55616535Y-76412838D02*
X55616535Y-76572362D01*
X55616535Y-76572362D02*
X55580821Y-76636171D01*
X55580821Y-76636171D02*
X55545107Y-76668076D01*
X55545107Y-76668076D02*
X55473678Y-76699981D01*
X55473678Y-76699981D02*
X55402250Y-76699981D01*
X55402250Y-76699981D02*
X55295107Y-76668076D01*
X55295107Y-76668076D02*
X54866535Y-76285219D01*
X54866535Y-76285219D02*
X54866535Y-76699981D01*
X55652250Y-77465695D02*
X54687964Y-76891409D01*
X54866535Y-78071885D02*
X55223678Y-77848552D01*
X54866535Y-77689028D02*
X55616535Y-77689028D01*
X55616535Y-77689028D02*
X55616535Y-77944266D01*
X55616535Y-77944266D02*
X55580821Y-78008076D01*
X55580821Y-78008076D02*
X55545107Y-78039981D01*
X55545107Y-78039981D02*
X55473678Y-78071885D01*
X55473678Y-78071885D02*
X55366535Y-78071885D01*
X55366535Y-78071885D02*
X55295107Y-78039981D01*
X55295107Y-78039981D02*
X55259392Y-78008076D01*
X55259392Y-78008076D02*
X55223678Y-77944266D01*
X55223678Y-77944266D02*
X55223678Y-77689028D01*
X55616535Y-78295219D02*
X54866535Y-78741885D01*
X55616535Y-78741885D02*
X54866535Y-78295219D01*
X54866535Y-79348076D02*
X54866535Y-78965219D01*
X54866535Y-79156647D02*
X55616535Y-79156647D01*
X55616535Y-79156647D02*
X55509392Y-79092838D01*
X55509392Y-79092838D02*
X55437964Y-79029028D01*
X55437964Y-79029028D02*
X55402250Y-78965219D01*
X52366535Y-67980695D02*
X52723678Y-67757362D01*
X52366535Y-67597838D02*
X53116535Y-67597838D01*
X53116535Y-67597838D02*
X53116535Y-67853076D01*
X53116535Y-67853076D02*
X53080821Y-67916886D01*
X53080821Y-67916886D02*
X53045107Y-67948791D01*
X53045107Y-67948791D02*
X52973678Y-67980695D01*
X52973678Y-67980695D02*
X52866535Y-67980695D01*
X52866535Y-67980695D02*
X52795107Y-67948791D01*
X52795107Y-67948791D02*
X52759392Y-67916886D01*
X52759392Y-67916886D02*
X52723678Y-67853076D01*
X52723678Y-67853076D02*
X52723678Y-67597838D01*
X52402250Y-68235934D02*
X52366535Y-68331648D01*
X52366535Y-68331648D02*
X52366535Y-68491172D01*
X52366535Y-68491172D02*
X52402250Y-68554981D01*
X52402250Y-68554981D02*
X52437964Y-68586886D01*
X52437964Y-68586886D02*
X52509392Y-68618791D01*
X52509392Y-68618791D02*
X52580821Y-68618791D01*
X52580821Y-68618791D02*
X52652250Y-68586886D01*
X52652250Y-68586886D02*
X52687964Y-68554981D01*
X52687964Y-68554981D02*
X52723678Y-68491172D01*
X52723678Y-68491172D02*
X52759392Y-68363553D01*
X52759392Y-68363553D02*
X52795107Y-68299743D01*
X52795107Y-68299743D02*
X52830821Y-68267838D01*
X52830821Y-68267838D02*
X52902250Y-68235934D01*
X52902250Y-68235934D02*
X52973678Y-68235934D01*
X52973678Y-68235934D02*
X53045107Y-68267838D01*
X53045107Y-68267838D02*
X53080821Y-68299743D01*
X53080821Y-68299743D02*
X53116535Y-68363553D01*
X53116535Y-68363553D02*
X53116535Y-68523076D01*
X53116535Y-68523076D02*
X53080821Y-68618791D01*
X53116535Y-68810219D02*
X53116535Y-69193076D01*
X52366535Y-69001648D02*
X53116535Y-69001648D01*
X37266535Y-76883076D02*
X38016535Y-76883076D01*
X38016535Y-76883076D02*
X38016535Y-77042600D01*
X38016535Y-77042600D02*
X37980821Y-77138314D01*
X37980821Y-77138314D02*
X37909392Y-77202124D01*
X37909392Y-77202124D02*
X37837964Y-77234029D01*
X37837964Y-77234029D02*
X37695107Y-77265933D01*
X37695107Y-77265933D02*
X37587964Y-77265933D01*
X37587964Y-77265933D02*
X37445107Y-77234029D01*
X37445107Y-77234029D02*
X37373678Y-77202124D01*
X37373678Y-77202124D02*
X37302250Y-77138314D01*
X37302250Y-77138314D02*
X37266535Y-77042600D01*
X37266535Y-77042600D02*
X37266535Y-76883076D01*
X38016535Y-77489267D02*
X38016535Y-77935933D01*
X38016535Y-77935933D02*
X37266535Y-77648791D01*
X38052250Y-78669743D02*
X37087964Y-78095457D01*
X38016535Y-79180219D02*
X38016535Y-79052600D01*
X38016535Y-79052600D02*
X37980821Y-78988791D01*
X37980821Y-78988791D02*
X37945107Y-78956886D01*
X37945107Y-78956886D02*
X37837964Y-78893076D01*
X37837964Y-78893076D02*
X37695107Y-78861172D01*
X37695107Y-78861172D02*
X37409392Y-78861172D01*
X37409392Y-78861172D02*
X37337964Y-78893076D01*
X37337964Y-78893076D02*
X37302250Y-78924981D01*
X37302250Y-78924981D02*
X37266535Y-78988791D01*
X37266535Y-78988791D02*
X37266535Y-79116410D01*
X37266535Y-79116410D02*
X37302250Y-79180219D01*
X37302250Y-79180219D02*
X37337964Y-79212124D01*
X37337964Y-79212124D02*
X37409392Y-79244029D01*
X37409392Y-79244029D02*
X37587964Y-79244029D01*
X37587964Y-79244029D02*
X37659392Y-79212124D01*
X37659392Y-79212124D02*
X37695107Y-79180219D01*
X37695107Y-79180219D02*
X37730821Y-79116410D01*
X37730821Y-79116410D02*
X37730821Y-78988791D01*
X37730821Y-78988791D02*
X37695107Y-78924981D01*
X37695107Y-78924981D02*
X37659392Y-78893076D01*
X37659392Y-78893076D02*
X37587964Y-78861172D01*
X42366535Y-76883076D02*
X43116535Y-76883076D01*
X43116535Y-76883076D02*
X43116535Y-77042600D01*
X43116535Y-77042600D02*
X43080821Y-77138314D01*
X43080821Y-77138314D02*
X43009392Y-77202124D01*
X43009392Y-77202124D02*
X42937964Y-77234029D01*
X42937964Y-77234029D02*
X42795107Y-77265933D01*
X42795107Y-77265933D02*
X42687964Y-77265933D01*
X42687964Y-77265933D02*
X42545107Y-77234029D01*
X42545107Y-77234029D02*
X42473678Y-77202124D01*
X42473678Y-77202124D02*
X42402250Y-77138314D01*
X42402250Y-77138314D02*
X42366535Y-77042600D01*
X42366535Y-77042600D02*
X42366535Y-76883076D01*
X42866535Y-77840219D02*
X42366535Y-77840219D01*
X43152250Y-77680695D02*
X42616535Y-77521172D01*
X42616535Y-77521172D02*
X42616535Y-77935933D01*
X43152250Y-78669743D02*
X42187964Y-78095457D01*
X42866535Y-79180219D02*
X42366535Y-79180219D01*
X43152250Y-79020695D02*
X42616535Y-78861172D01*
X42616535Y-78861172D02*
X42616535Y-79275933D01*
X39880821Y-67511886D02*
X39880821Y-67830933D01*
X39666535Y-67448076D02*
X40416535Y-67671409D01*
X40416535Y-67671409D02*
X39666535Y-67894743D01*
X40416535Y-68245695D02*
X40416535Y-68309505D01*
X40416535Y-68309505D02*
X40380821Y-68373314D01*
X40380821Y-68373314D02*
X40345107Y-68405219D01*
X40345107Y-68405219D02*
X40273678Y-68437124D01*
X40273678Y-68437124D02*
X40130821Y-68469029D01*
X40130821Y-68469029D02*
X39952250Y-68469029D01*
X39952250Y-68469029D02*
X39809392Y-68437124D01*
X39809392Y-68437124D02*
X39737964Y-68405219D01*
X39737964Y-68405219D02*
X39702250Y-68373314D01*
X39702250Y-68373314D02*
X39666535Y-68309505D01*
X39666535Y-68309505D02*
X39666535Y-68245695D01*
X39666535Y-68245695D02*
X39702250Y-68181886D01*
X39702250Y-68181886D02*
X39737964Y-68149981D01*
X39737964Y-68149981D02*
X39809392Y-68118076D01*
X39809392Y-68118076D02*
X39952250Y-68086172D01*
X39952250Y-68086172D02*
X40130821Y-68086172D01*
X40130821Y-68086172D02*
X40273678Y-68118076D01*
X40273678Y-68118076D02*
X40345107Y-68149981D01*
X40345107Y-68149981D02*
X40380821Y-68181886D01*
X40380821Y-68181886D02*
X40416535Y-68245695D01*
X40452250Y-69234743D02*
X39487964Y-68660457D01*
X40059392Y-69681410D02*
X40059392Y-69458076D01*
X39666535Y-69458076D02*
X40416535Y-69458076D01*
X40416535Y-69458076D02*
X40416535Y-69777124D01*
X40416535Y-69968553D02*
X40416535Y-70415219D01*
X40416535Y-70415219D02*
X39666535Y-70128077D01*
X34566535Y-67814981D02*
X34566535Y-67432124D01*
X34566535Y-67623552D02*
X35316535Y-67623552D01*
X35316535Y-67623552D02*
X35209392Y-67559743D01*
X35209392Y-67559743D02*
X35137964Y-67495933D01*
X35137964Y-67495933D02*
X35102250Y-67432124D01*
X35066535Y-68389266D02*
X34566535Y-68389266D01*
X35352250Y-68229742D02*
X34816535Y-68070219D01*
X34816535Y-68070219D02*
X34816535Y-68484980D01*
X35352250Y-69218790D02*
X34387964Y-68644504D01*
X34959392Y-69665457D02*
X34923678Y-69761171D01*
X34923678Y-69761171D02*
X34887964Y-69793076D01*
X34887964Y-69793076D02*
X34816535Y-69824980D01*
X34816535Y-69824980D02*
X34709392Y-69824980D01*
X34709392Y-69824980D02*
X34637964Y-69793076D01*
X34637964Y-69793076D02*
X34602250Y-69761171D01*
X34602250Y-69761171D02*
X34566535Y-69697361D01*
X34566535Y-69697361D02*
X34566535Y-69442123D01*
X34566535Y-69442123D02*
X35316535Y-69442123D01*
X35316535Y-69442123D02*
X35316535Y-69665457D01*
X35316535Y-69665457D02*
X35280821Y-69729266D01*
X35280821Y-69729266D02*
X35245107Y-69761171D01*
X35245107Y-69761171D02*
X35173678Y-69793076D01*
X35173678Y-69793076D02*
X35102250Y-69793076D01*
X35102250Y-69793076D02*
X35030821Y-69761171D01*
X35030821Y-69761171D02*
X34995107Y-69729266D01*
X34995107Y-69729266D02*
X34959392Y-69665457D01*
X34959392Y-69665457D02*
X34959392Y-69442123D01*
X35316535Y-70048314D02*
X35316535Y-70463076D01*
X35316535Y-70463076D02*
X35030821Y-70239742D01*
X35030821Y-70239742D02*
X35030821Y-70335457D01*
X35030821Y-70335457D02*
X34995107Y-70399266D01*
X34995107Y-70399266D02*
X34959392Y-70431171D01*
X34959392Y-70431171D02*
X34887964Y-70463076D01*
X34887964Y-70463076D02*
X34709392Y-70463076D01*
X34709392Y-70463076D02*
X34637964Y-70431171D01*
X34637964Y-70431171D02*
X34602250Y-70399266D01*
X34602250Y-70399266D02*
X34566535Y-70335457D01*
X34566535Y-70335457D02*
X34566535Y-70144028D01*
X34566535Y-70144028D02*
X34602250Y-70080219D01*
X34602250Y-70080219D02*
X34637964Y-70048314D01*
X57466535Y-67884980D02*
X57823678Y-67661647D01*
X57466535Y-67502123D02*
X58216535Y-67502123D01*
X58216535Y-67502123D02*
X58216535Y-67757361D01*
X58216535Y-67757361D02*
X58180821Y-67821171D01*
X58180821Y-67821171D02*
X58145107Y-67853076D01*
X58145107Y-67853076D02*
X58073678Y-67884980D01*
X58073678Y-67884980D02*
X57966535Y-67884980D01*
X57966535Y-67884980D02*
X57895107Y-67853076D01*
X57895107Y-67853076D02*
X57859392Y-67821171D01*
X57859392Y-67821171D02*
X57823678Y-67757361D01*
X57823678Y-67757361D02*
X57823678Y-67502123D01*
X57680821Y-68140219D02*
X57680821Y-68459266D01*
X57466535Y-68076409D02*
X58216535Y-68299742D01*
X58216535Y-68299742D02*
X57466535Y-68523076D01*
X58216535Y-68682600D02*
X57466535Y-68842124D01*
X57466535Y-68842124D02*
X58002250Y-68969743D01*
X58002250Y-68969743D02*
X57466535Y-69097362D01*
X57466535Y-69097362D02*
X58216535Y-69256886D01*
D12*
X62597724Y-75739028D02*
X61847724Y-75739028D01*
X61847724Y-75739028D02*
X62383438Y-75489028D01*
X62383438Y-75489028D02*
X61847724Y-75239028D01*
X61847724Y-75239028D02*
X62597724Y-75239028D01*
X62597724Y-74881885D02*
X62097724Y-74881885D01*
X61847724Y-74881885D02*
X61883438Y-74917599D01*
X61883438Y-74917599D02*
X61919152Y-74881885D01*
X61919152Y-74881885D02*
X61883438Y-74846171D01*
X61883438Y-74846171D02*
X61847724Y-74881885D01*
X61847724Y-74881885D02*
X61919152Y-74881885D01*
X62562010Y-74203314D02*
X62597724Y-74274742D01*
X62597724Y-74274742D02*
X62597724Y-74417599D01*
X62597724Y-74417599D02*
X62562010Y-74489028D01*
X62562010Y-74489028D02*
X62526295Y-74524742D01*
X62526295Y-74524742D02*
X62454867Y-74560456D01*
X62454867Y-74560456D02*
X62240581Y-74560456D01*
X62240581Y-74560456D02*
X62169152Y-74524742D01*
X62169152Y-74524742D02*
X62133438Y-74489028D01*
X62133438Y-74489028D02*
X62097724Y-74417599D01*
X62097724Y-74417599D02*
X62097724Y-74274742D01*
X62097724Y-74274742D02*
X62133438Y-74203314D01*
X62597724Y-73881885D02*
X62097724Y-73881885D01*
X62240581Y-73881885D02*
X62169152Y-73846171D01*
X62169152Y-73846171D02*
X62133438Y-73810457D01*
X62133438Y-73810457D02*
X62097724Y-73739028D01*
X62097724Y-73739028D02*
X62097724Y-73667599D01*
X62597724Y-73310456D02*
X62562010Y-73381885D01*
X62562010Y-73381885D02*
X62526295Y-73417599D01*
X62526295Y-73417599D02*
X62454867Y-73453313D01*
X62454867Y-73453313D02*
X62240581Y-73453313D01*
X62240581Y-73453313D02*
X62169152Y-73417599D01*
X62169152Y-73417599D02*
X62133438Y-73381885D01*
X62133438Y-73381885D02*
X62097724Y-73310456D01*
X62097724Y-73310456D02*
X62097724Y-73203313D01*
X62097724Y-73203313D02*
X62133438Y-73131885D01*
X62133438Y-73131885D02*
X62169152Y-73096171D01*
X62169152Y-73096171D02*
X62240581Y-73060456D01*
X62240581Y-73060456D02*
X62454867Y-73060456D01*
X62454867Y-73060456D02*
X62526295Y-73096171D01*
X62526295Y-73096171D02*
X62562010Y-73131885D01*
X62562010Y-73131885D02*
X62597724Y-73203313D01*
X62597724Y-73203313D02*
X62597724Y-73310456D01*
X61847724Y-72739028D02*
X62454867Y-72739028D01*
X62454867Y-72739028D02*
X62526295Y-72703314D01*
X62526295Y-72703314D02*
X62562010Y-72667600D01*
X62562010Y-72667600D02*
X62597724Y-72596171D01*
X62597724Y-72596171D02*
X62597724Y-72453314D01*
X62597724Y-72453314D02*
X62562010Y-72381885D01*
X62562010Y-72381885D02*
X62526295Y-72346171D01*
X62526295Y-72346171D02*
X62454867Y-72310457D01*
X62454867Y-72310457D02*
X61847724Y-72310457D01*
X62562010Y-71989028D02*
X62597724Y-71881886D01*
X62597724Y-71881886D02*
X62597724Y-71703314D01*
X62597724Y-71703314D02*
X62562010Y-71631886D01*
X62562010Y-71631886D02*
X62526295Y-71596171D01*
X62526295Y-71596171D02*
X62454867Y-71560457D01*
X62454867Y-71560457D02*
X62383438Y-71560457D01*
X62383438Y-71560457D02*
X62312010Y-71596171D01*
X62312010Y-71596171D02*
X62276295Y-71631886D01*
X62276295Y-71631886D02*
X62240581Y-71703314D01*
X62240581Y-71703314D02*
X62204867Y-71846171D01*
X62204867Y-71846171D02*
X62169152Y-71917600D01*
X62169152Y-71917600D02*
X62133438Y-71953314D01*
X62133438Y-71953314D02*
X62062010Y-71989028D01*
X62062010Y-71989028D02*
X61990581Y-71989028D01*
X61990581Y-71989028D02*
X61919152Y-71953314D01*
X61919152Y-71953314D02*
X61883438Y-71917600D01*
X61883438Y-71917600D02*
X61847724Y-71846171D01*
X61847724Y-71846171D02*
X61847724Y-71667600D01*
X61847724Y-71667600D02*
X61883438Y-71560457D01*
X62204867Y-70989028D02*
X62240581Y-70881885D01*
X62240581Y-70881885D02*
X62276295Y-70846171D01*
X62276295Y-70846171D02*
X62347724Y-70810457D01*
X62347724Y-70810457D02*
X62454867Y-70810457D01*
X62454867Y-70810457D02*
X62526295Y-70846171D01*
X62526295Y-70846171D02*
X62562010Y-70881885D01*
X62562010Y-70881885D02*
X62597724Y-70953314D01*
X62597724Y-70953314D02*
X62597724Y-71239028D01*
X62597724Y-71239028D02*
X61847724Y-71239028D01*
X61847724Y-71239028D02*
X61847724Y-70989028D01*
X61847724Y-70989028D02*
X61883438Y-70917600D01*
X61883438Y-70917600D02*
X61919152Y-70881885D01*
X61919152Y-70881885D02*
X61990581Y-70846171D01*
X61990581Y-70846171D02*
X62062010Y-70846171D01*
X62062010Y-70846171D02*
X62133438Y-70881885D01*
X62133438Y-70881885D02*
X62169152Y-70917600D01*
X62169152Y-70917600D02*
X62204867Y-70989028D01*
X62204867Y-70989028D02*
X62204867Y-71239028D01*
D11*
X30059392Y-77106410D02*
X30023678Y-77202124D01*
X30023678Y-77202124D02*
X29987964Y-77234029D01*
X29987964Y-77234029D02*
X29916535Y-77265933D01*
X29916535Y-77265933D02*
X29809392Y-77265933D01*
X29809392Y-77265933D02*
X29737964Y-77234029D01*
X29737964Y-77234029D02*
X29702250Y-77202124D01*
X29702250Y-77202124D02*
X29666535Y-77138314D01*
X29666535Y-77138314D02*
X29666535Y-76883076D01*
X29666535Y-76883076D02*
X30416535Y-76883076D01*
X30416535Y-76883076D02*
X30416535Y-77106410D01*
X30416535Y-77106410D02*
X30380821Y-77170219D01*
X30380821Y-77170219D02*
X30345107Y-77202124D01*
X30345107Y-77202124D02*
X30273678Y-77234029D01*
X30273678Y-77234029D02*
X30202250Y-77234029D01*
X30202250Y-77234029D02*
X30130821Y-77202124D01*
X30130821Y-77202124D02*
X30095107Y-77170219D01*
X30095107Y-77170219D02*
X30059392Y-77106410D01*
X30059392Y-77106410D02*
X30059392Y-76883076D01*
X30416535Y-77872124D02*
X30416535Y-77553076D01*
X30416535Y-77553076D02*
X30059392Y-77521172D01*
X30059392Y-77521172D02*
X30095107Y-77553076D01*
X30095107Y-77553076D02*
X30130821Y-77616886D01*
X30130821Y-77616886D02*
X30130821Y-77776410D01*
X30130821Y-77776410D02*
X30095107Y-77840219D01*
X30095107Y-77840219D02*
X30059392Y-77872124D01*
X30059392Y-77872124D02*
X29987964Y-77904029D01*
X29987964Y-77904029D02*
X29809392Y-77904029D01*
X29809392Y-77904029D02*
X29737964Y-77872124D01*
X29737964Y-77872124D02*
X29702250Y-77840219D01*
X29702250Y-77840219D02*
X29666535Y-77776410D01*
X29666535Y-77776410D02*
X29666535Y-77616886D01*
X29666535Y-77616886D02*
X29702250Y-77553076D01*
X29702250Y-77553076D02*
X29737964Y-77521172D01*
X30452250Y-78669743D02*
X29487964Y-78095457D01*
X29666535Y-78924981D02*
X29666535Y-79052600D01*
X29666535Y-79052600D02*
X29702250Y-79116410D01*
X29702250Y-79116410D02*
X29737964Y-79148314D01*
X29737964Y-79148314D02*
X29845107Y-79212124D01*
X29845107Y-79212124D02*
X29987964Y-79244029D01*
X29987964Y-79244029D02*
X30273678Y-79244029D01*
X30273678Y-79244029D02*
X30345107Y-79212124D01*
X30345107Y-79212124D02*
X30380821Y-79180219D01*
X30380821Y-79180219D02*
X30416535Y-79116410D01*
X30416535Y-79116410D02*
X30416535Y-78988791D01*
X30416535Y-78988791D02*
X30380821Y-78924981D01*
X30380821Y-78924981D02*
X30345107Y-78893076D01*
X30345107Y-78893076D02*
X30273678Y-78861172D01*
X30273678Y-78861172D02*
X30095107Y-78861172D01*
X30095107Y-78861172D02*
X30023678Y-78893076D01*
X30023678Y-78893076D02*
X29987964Y-78924981D01*
X29987964Y-78924981D02*
X29952250Y-78988791D01*
X29952250Y-78988791D02*
X29952250Y-79116410D01*
X29952250Y-79116410D02*
X29987964Y-79180219D01*
X29987964Y-79180219D02*
X30023678Y-79212124D01*
X30023678Y-79212124D02*
X30095107Y-79244029D01*
X44930821Y-67511886D02*
X44930821Y-67830933D01*
X44716535Y-67448076D02*
X45466535Y-67671409D01*
X45466535Y-67671409D02*
X44716535Y-67894743D01*
X45395107Y-68086172D02*
X45430821Y-68118076D01*
X45430821Y-68118076D02*
X45466535Y-68181886D01*
X45466535Y-68181886D02*
X45466535Y-68341410D01*
X45466535Y-68341410D02*
X45430821Y-68405219D01*
X45430821Y-68405219D02*
X45395107Y-68437124D01*
X45395107Y-68437124D02*
X45323678Y-68469029D01*
X45323678Y-68469029D02*
X45252250Y-68469029D01*
X45252250Y-68469029D02*
X45145107Y-68437124D01*
X45145107Y-68437124D02*
X44716535Y-68054267D01*
X44716535Y-68054267D02*
X44716535Y-68469029D01*
X45502250Y-69234743D02*
X44537964Y-68660457D01*
X45109392Y-69681410D02*
X45109392Y-69458076D01*
X44716535Y-69458076D02*
X45466535Y-69458076D01*
X45466535Y-69458076D02*
X45466535Y-69777124D01*
X45466535Y-70351410D02*
X45466535Y-70032362D01*
X45466535Y-70032362D02*
X45109392Y-70000458D01*
X45109392Y-70000458D02*
X45145107Y-70032362D01*
X45145107Y-70032362D02*
X45180821Y-70096172D01*
X45180821Y-70096172D02*
X45180821Y-70255696D01*
X45180821Y-70255696D02*
X45145107Y-70319505D01*
X45145107Y-70319505D02*
X45109392Y-70351410D01*
X45109392Y-70351410D02*
X45037964Y-70383315D01*
X45037964Y-70383315D02*
X44859392Y-70383315D01*
X44859392Y-70383315D02*
X44787964Y-70351410D01*
X44787964Y-70351410D02*
X44752250Y-70319505D01*
X44752250Y-70319505D02*
X44716535Y-70255696D01*
X44716535Y-70255696D02*
X44716535Y-70096172D01*
X44716535Y-70096172D02*
X44752250Y-70032362D01*
X44752250Y-70032362D02*
X44787964Y-70000458D01*
X53030821Y-77787124D02*
X53066535Y-77723314D01*
X53066535Y-77723314D02*
X53066535Y-77627600D01*
X53066535Y-77627600D02*
X53030821Y-77531886D01*
X53030821Y-77531886D02*
X52959392Y-77468076D01*
X52959392Y-77468076D02*
X52887964Y-77436171D01*
X52887964Y-77436171D02*
X52745107Y-77404267D01*
X52745107Y-77404267D02*
X52637964Y-77404267D01*
X52637964Y-77404267D02*
X52495107Y-77436171D01*
X52495107Y-77436171D02*
X52423678Y-77468076D01*
X52423678Y-77468076D02*
X52352250Y-77531886D01*
X52352250Y-77531886D02*
X52316535Y-77627600D01*
X52316535Y-77627600D02*
X52316535Y-77691409D01*
X52316535Y-77691409D02*
X52352250Y-77787124D01*
X52352250Y-77787124D02*
X52387964Y-77819028D01*
X52387964Y-77819028D02*
X52637964Y-77819028D01*
X52637964Y-77819028D02*
X52637964Y-77691409D01*
X52316535Y-78106171D02*
X53066535Y-78106171D01*
X53066535Y-78106171D02*
X52316535Y-78489028D01*
X52316535Y-78489028D02*
X53066535Y-78489028D01*
X52316535Y-78808076D02*
X53066535Y-78808076D01*
X53066535Y-78808076D02*
X53066535Y-78967600D01*
X53066535Y-78967600D02*
X53030821Y-79063314D01*
X53030821Y-79063314D02*
X52959392Y-79127124D01*
X52959392Y-79127124D02*
X52887964Y-79159029D01*
X52887964Y-79159029D02*
X52745107Y-79190933D01*
X52745107Y-79190933D02*
X52637964Y-79190933D01*
X52637964Y-79190933D02*
X52495107Y-79159029D01*
X52495107Y-79159029D02*
X52423678Y-79127124D01*
X52423678Y-79127124D02*
X52352250Y-79063314D01*
X52352250Y-79063314D02*
X52316535Y-78967600D01*
X52316535Y-78967600D02*
X52316535Y-78808076D01*
X32559392Y-77106410D02*
X32523678Y-77202124D01*
X32523678Y-77202124D02*
X32487964Y-77234029D01*
X32487964Y-77234029D02*
X32416535Y-77265933D01*
X32416535Y-77265933D02*
X32309392Y-77265933D01*
X32309392Y-77265933D02*
X32237964Y-77234029D01*
X32237964Y-77234029D02*
X32202250Y-77202124D01*
X32202250Y-77202124D02*
X32166535Y-77138314D01*
X32166535Y-77138314D02*
X32166535Y-76883076D01*
X32166535Y-76883076D02*
X32916535Y-76883076D01*
X32916535Y-76883076D02*
X32916535Y-77106410D01*
X32916535Y-77106410D02*
X32880821Y-77170219D01*
X32880821Y-77170219D02*
X32845107Y-77202124D01*
X32845107Y-77202124D02*
X32773678Y-77234029D01*
X32773678Y-77234029D02*
X32702250Y-77234029D01*
X32702250Y-77234029D02*
X32630821Y-77202124D01*
X32630821Y-77202124D02*
X32595107Y-77170219D01*
X32595107Y-77170219D02*
X32559392Y-77106410D01*
X32559392Y-77106410D02*
X32559392Y-76883076D01*
X32666535Y-77840219D02*
X32166535Y-77840219D01*
X32952250Y-77680695D02*
X32416535Y-77521172D01*
X32416535Y-77521172D02*
X32416535Y-77935933D01*
X32952250Y-78669743D02*
X31987964Y-78095457D01*
X32595107Y-78988791D02*
X32630821Y-78924981D01*
X32630821Y-78924981D02*
X32666535Y-78893076D01*
X32666535Y-78893076D02*
X32737964Y-78861172D01*
X32737964Y-78861172D02*
X32773678Y-78861172D01*
X32773678Y-78861172D02*
X32845107Y-78893076D01*
X32845107Y-78893076D02*
X32880821Y-78924981D01*
X32880821Y-78924981D02*
X32916535Y-78988791D01*
X32916535Y-78988791D02*
X32916535Y-79116410D01*
X32916535Y-79116410D02*
X32880821Y-79180219D01*
X32880821Y-79180219D02*
X32845107Y-79212124D01*
X32845107Y-79212124D02*
X32773678Y-79244029D01*
X32773678Y-79244029D02*
X32737964Y-79244029D01*
X32737964Y-79244029D02*
X32666535Y-79212124D01*
X32666535Y-79212124D02*
X32630821Y-79180219D01*
X32630821Y-79180219D02*
X32595107Y-79116410D01*
X32595107Y-79116410D02*
X32595107Y-78988791D01*
X32595107Y-78988791D02*
X32559392Y-78924981D01*
X32559392Y-78924981D02*
X32523678Y-78893076D01*
X32523678Y-78893076D02*
X32452250Y-78861172D01*
X32452250Y-78861172D02*
X32309392Y-78861172D01*
X32309392Y-78861172D02*
X32237964Y-78893076D01*
X32237964Y-78893076D02*
X32202250Y-78924981D01*
X32202250Y-78924981D02*
X32166535Y-78988791D01*
X32166535Y-78988791D02*
X32166535Y-79116410D01*
X32166535Y-79116410D02*
X32202250Y-79180219D01*
X32202250Y-79180219D02*
X32237964Y-79212124D01*
X32237964Y-79212124D02*
X32309392Y-79244029D01*
X32309392Y-79244029D02*
X32452250Y-79244029D01*
X32452250Y-79244029D02*
X32523678Y-79212124D01*
X32523678Y-79212124D02*
X32559392Y-79180219D01*
X32559392Y-79180219D02*
X32595107Y-79116410D01*
X35109392Y-76914981D02*
X35109392Y-77138315D01*
X34716535Y-77234029D02*
X34716535Y-76914981D01*
X34716535Y-76914981D02*
X35466535Y-76914981D01*
X35466535Y-76914981D02*
X35466535Y-77234029D01*
X35466535Y-77808314D02*
X35466535Y-77680695D01*
X35466535Y-77680695D02*
X35430821Y-77616886D01*
X35430821Y-77616886D02*
X35395107Y-77584981D01*
X35395107Y-77584981D02*
X35287964Y-77521171D01*
X35287964Y-77521171D02*
X35145107Y-77489267D01*
X35145107Y-77489267D02*
X34859392Y-77489267D01*
X34859392Y-77489267D02*
X34787964Y-77521171D01*
X34787964Y-77521171D02*
X34752250Y-77553076D01*
X34752250Y-77553076D02*
X34716535Y-77616886D01*
X34716535Y-77616886D02*
X34716535Y-77744505D01*
X34716535Y-77744505D02*
X34752250Y-77808314D01*
X34752250Y-77808314D02*
X34787964Y-77840219D01*
X34787964Y-77840219D02*
X34859392Y-77872124D01*
X34859392Y-77872124D02*
X35037964Y-77872124D01*
X35037964Y-77872124D02*
X35109392Y-77840219D01*
X35109392Y-77840219D02*
X35145107Y-77808314D01*
X35145107Y-77808314D02*
X35180821Y-77744505D01*
X35180821Y-77744505D02*
X35180821Y-77616886D01*
X35180821Y-77616886D02*
X35145107Y-77553076D01*
X35145107Y-77553076D02*
X35109392Y-77521171D01*
X35109392Y-77521171D02*
X35037964Y-77489267D01*
X35502250Y-78637838D02*
X34537964Y-78063552D01*
X35466535Y-78797362D02*
X35466535Y-79244028D01*
X35466535Y-79244028D02*
X34716535Y-78956886D01*
X50580821Y-77787124D02*
X50616535Y-77723314D01*
X50616535Y-77723314D02*
X50616535Y-77627600D01*
X50616535Y-77627600D02*
X50580821Y-77531886D01*
X50580821Y-77531886D02*
X50509392Y-77468076D01*
X50509392Y-77468076D02*
X50437964Y-77436171D01*
X50437964Y-77436171D02*
X50295107Y-77404267D01*
X50295107Y-77404267D02*
X50187964Y-77404267D01*
X50187964Y-77404267D02*
X50045107Y-77436171D01*
X50045107Y-77436171D02*
X49973678Y-77468076D01*
X49973678Y-77468076D02*
X49902250Y-77531886D01*
X49902250Y-77531886D02*
X49866535Y-77627600D01*
X49866535Y-77627600D02*
X49866535Y-77691409D01*
X49866535Y-77691409D02*
X49902250Y-77787124D01*
X49902250Y-77787124D02*
X49937964Y-77819028D01*
X49937964Y-77819028D02*
X50187964Y-77819028D01*
X50187964Y-77819028D02*
X50187964Y-77691409D01*
X49866535Y-78106171D02*
X50616535Y-78106171D01*
X50616535Y-78106171D02*
X49866535Y-78489028D01*
X49866535Y-78489028D02*
X50616535Y-78489028D01*
X49866535Y-78808076D02*
X50616535Y-78808076D01*
X50616535Y-78808076D02*
X50616535Y-78967600D01*
X50616535Y-78967600D02*
X50580821Y-79063314D01*
X50580821Y-79063314D02*
X50509392Y-79127124D01*
X50509392Y-79127124D02*
X50437964Y-79159029D01*
X50437964Y-79159029D02*
X50295107Y-79190933D01*
X50295107Y-79190933D02*
X50187964Y-79190933D01*
X50187964Y-79190933D02*
X50045107Y-79159029D01*
X50045107Y-79159029D02*
X49973678Y-79127124D01*
X49973678Y-79127124D02*
X49902250Y-79063314D01*
X49902250Y-79063314D02*
X49866535Y-78967600D01*
X49866535Y-78967600D02*
X49866535Y-78808076D01*
X55630821Y-67837124D02*
X55666535Y-67773314D01*
X55666535Y-67773314D02*
X55666535Y-67677600D01*
X55666535Y-67677600D02*
X55630821Y-67581886D01*
X55630821Y-67581886D02*
X55559392Y-67518076D01*
X55559392Y-67518076D02*
X55487964Y-67486171D01*
X55487964Y-67486171D02*
X55345107Y-67454267D01*
X55345107Y-67454267D02*
X55237964Y-67454267D01*
X55237964Y-67454267D02*
X55095107Y-67486171D01*
X55095107Y-67486171D02*
X55023678Y-67518076D01*
X55023678Y-67518076D02*
X54952250Y-67581886D01*
X54952250Y-67581886D02*
X54916535Y-67677600D01*
X54916535Y-67677600D02*
X54916535Y-67741409D01*
X54916535Y-67741409D02*
X54952250Y-67837124D01*
X54952250Y-67837124D02*
X54987964Y-67869028D01*
X54987964Y-67869028D02*
X55237964Y-67869028D01*
X55237964Y-67869028D02*
X55237964Y-67741409D01*
X54916535Y-68156171D02*
X55666535Y-68156171D01*
X55666535Y-68156171D02*
X54916535Y-68539028D01*
X54916535Y-68539028D02*
X55666535Y-68539028D01*
X54916535Y-68858076D02*
X55666535Y-68858076D01*
X55666535Y-68858076D02*
X55666535Y-69017600D01*
X55666535Y-69017600D02*
X55630821Y-69113314D01*
X55630821Y-69113314D02*
X55559392Y-69177124D01*
X55559392Y-69177124D02*
X55487964Y-69209029D01*
X55487964Y-69209029D02*
X55345107Y-69240933D01*
X55345107Y-69240933D02*
X55237964Y-69240933D01*
X55237964Y-69240933D02*
X55095107Y-69209029D01*
X55095107Y-69209029D02*
X55023678Y-69177124D01*
X55023678Y-69177124D02*
X54952250Y-69113314D01*
X54952250Y-69113314D02*
X54916535Y-69017600D01*
X54916535Y-69017600D02*
X54916535Y-68858076D01*
D12*
X62597724Y-75739028D02*
X61847724Y-75739028D01*
X61847724Y-75739028D02*
X62383438Y-75489028D01*
X62383438Y-75489028D02*
X61847724Y-75239028D01*
X61847724Y-75239028D02*
X62597724Y-75239028D01*
X62597724Y-74881885D02*
X62097724Y-74881885D01*
X61847724Y-74881885D02*
X61883438Y-74917599D01*
X61883438Y-74917599D02*
X61919152Y-74881885D01*
X61919152Y-74881885D02*
X61883438Y-74846171D01*
X61883438Y-74846171D02*
X61847724Y-74881885D01*
X61847724Y-74881885D02*
X61919152Y-74881885D01*
X62562010Y-74203314D02*
X62597724Y-74274742D01*
X62597724Y-74274742D02*
X62597724Y-74417599D01*
X62597724Y-74417599D02*
X62562010Y-74489028D01*
X62562010Y-74489028D02*
X62526295Y-74524742D01*
X62526295Y-74524742D02*
X62454867Y-74560456D01*
X62454867Y-74560456D02*
X62240581Y-74560456D01*
X62240581Y-74560456D02*
X62169152Y-74524742D01*
X62169152Y-74524742D02*
X62133438Y-74489028D01*
X62133438Y-74489028D02*
X62097724Y-74417599D01*
X62097724Y-74417599D02*
X62097724Y-74274742D01*
X62097724Y-74274742D02*
X62133438Y-74203314D01*
X62597724Y-73881885D02*
X62097724Y-73881885D01*
X62240581Y-73881885D02*
X62169152Y-73846171D01*
X62169152Y-73846171D02*
X62133438Y-73810457D01*
X62133438Y-73810457D02*
X62097724Y-73739028D01*
X62097724Y-73739028D02*
X62097724Y-73667599D01*
X62597724Y-73310456D02*
X62562010Y-73381885D01*
X62562010Y-73381885D02*
X62526295Y-73417599D01*
X62526295Y-73417599D02*
X62454867Y-73453313D01*
X62454867Y-73453313D02*
X62240581Y-73453313D01*
X62240581Y-73453313D02*
X62169152Y-73417599D01*
X62169152Y-73417599D02*
X62133438Y-73381885D01*
X62133438Y-73381885D02*
X62097724Y-73310456D01*
X62097724Y-73310456D02*
X62097724Y-73203313D01*
X62097724Y-73203313D02*
X62133438Y-73131885D01*
X62133438Y-73131885D02*
X62169152Y-73096171D01*
X62169152Y-73096171D02*
X62240581Y-73060456D01*
X62240581Y-73060456D02*
X62454867Y-73060456D01*
X62454867Y-73060456D02*
X62526295Y-73096171D01*
X62526295Y-73096171D02*
X62562010Y-73131885D01*
X62562010Y-73131885D02*
X62597724Y-73203313D01*
X62597724Y-73203313D02*
X62597724Y-73310456D01*
X61847724Y-72739028D02*
X62454867Y-72739028D01*
X62454867Y-72739028D02*
X62526295Y-72703314D01*
X62526295Y-72703314D02*
X62562010Y-72667600D01*
X62562010Y-72667600D02*
X62597724Y-72596171D01*
X62597724Y-72596171D02*
X62597724Y-72453314D01*
X62597724Y-72453314D02*
X62562010Y-72381885D01*
X62562010Y-72381885D02*
X62526295Y-72346171D01*
X62526295Y-72346171D02*
X62454867Y-72310457D01*
X62454867Y-72310457D02*
X61847724Y-72310457D01*
X62562010Y-71989028D02*
X62597724Y-71881886D01*
X62597724Y-71881886D02*
X62597724Y-71703314D01*
X62597724Y-71703314D02*
X62562010Y-71631886D01*
X62562010Y-71631886D02*
X62526295Y-71596171D01*
X62526295Y-71596171D02*
X62454867Y-71560457D01*
X62454867Y-71560457D02*
X62383438Y-71560457D01*
X62383438Y-71560457D02*
X62312010Y-71596171D01*
X62312010Y-71596171D02*
X62276295Y-71631886D01*
X62276295Y-71631886D02*
X62240581Y-71703314D01*
X62240581Y-71703314D02*
X62204867Y-71846171D01*
X62204867Y-71846171D02*
X62169152Y-71917600D01*
X62169152Y-71917600D02*
X62133438Y-71953314D01*
X62133438Y-71953314D02*
X62062010Y-71989028D01*
X62062010Y-71989028D02*
X61990581Y-71989028D01*
X61990581Y-71989028D02*
X61919152Y-71953314D01*
X61919152Y-71953314D02*
X61883438Y-71917600D01*
X61883438Y-71917600D02*
X61847724Y-71846171D01*
X61847724Y-71846171D02*
X61847724Y-71667600D01*
X61847724Y-71667600D02*
X61883438Y-71560457D01*
X62204867Y-70989028D02*
X62240581Y-70881885D01*
X62240581Y-70881885D02*
X62276295Y-70846171D01*
X62276295Y-70846171D02*
X62347724Y-70810457D01*
X62347724Y-70810457D02*
X62454867Y-70810457D01*
X62454867Y-70810457D02*
X62526295Y-70846171D01*
X62526295Y-70846171D02*
X62562010Y-70881885D01*
X62562010Y-70881885D02*
X62597724Y-70953314D01*
X62597724Y-70953314D02*
X62597724Y-71239028D01*
X62597724Y-71239028D02*
X61847724Y-71239028D01*
X61847724Y-71239028D02*
X61847724Y-70989028D01*
X61847724Y-70989028D02*
X61883438Y-70917600D01*
X61883438Y-70917600D02*
X61919152Y-70881885D01*
X61919152Y-70881885D02*
X61990581Y-70846171D01*
X61990581Y-70846171D02*
X62062010Y-70846171D01*
X62062010Y-70846171D02*
X62133438Y-70881885D01*
X62133438Y-70881885D02*
X62169152Y-70917600D01*
X62169152Y-70917600D02*
X62204867Y-70989028D01*
X62204867Y-70989028D02*
X62204867Y-71239028D01*
D11*
X32016535Y-67814981D02*
X32016535Y-67432124D01*
X32016535Y-67623552D02*
X32766535Y-67623552D01*
X32766535Y-67623552D02*
X32659392Y-67559743D01*
X32659392Y-67559743D02*
X32587964Y-67495933D01*
X32587964Y-67495933D02*
X32552250Y-67432124D01*
X32766535Y-68389266D02*
X32766535Y-68261647D01*
X32766535Y-68261647D02*
X32730821Y-68197838D01*
X32730821Y-68197838D02*
X32695107Y-68165933D01*
X32695107Y-68165933D02*
X32587964Y-68102123D01*
X32587964Y-68102123D02*
X32445107Y-68070219D01*
X32445107Y-68070219D02*
X32159392Y-68070219D01*
X32159392Y-68070219D02*
X32087964Y-68102123D01*
X32087964Y-68102123D02*
X32052250Y-68134028D01*
X32052250Y-68134028D02*
X32016535Y-68197838D01*
X32016535Y-68197838D02*
X32016535Y-68325457D01*
X32016535Y-68325457D02*
X32052250Y-68389266D01*
X32052250Y-68389266D02*
X32087964Y-68421171D01*
X32087964Y-68421171D02*
X32159392Y-68453076D01*
X32159392Y-68453076D02*
X32337964Y-68453076D01*
X32337964Y-68453076D02*
X32409392Y-68421171D01*
X32409392Y-68421171D02*
X32445107Y-68389266D01*
X32445107Y-68389266D02*
X32480821Y-68325457D01*
X32480821Y-68325457D02*
X32480821Y-68197838D01*
X32480821Y-68197838D02*
X32445107Y-68134028D01*
X32445107Y-68134028D02*
X32409392Y-68102123D01*
X32409392Y-68102123D02*
X32337964Y-68070219D01*
X32802250Y-69218790D02*
X31837964Y-68644504D01*
X32409392Y-69665457D02*
X32373678Y-69761171D01*
X32373678Y-69761171D02*
X32337964Y-69793076D01*
X32337964Y-69793076D02*
X32266535Y-69824980D01*
X32266535Y-69824980D02*
X32159392Y-69824980D01*
X32159392Y-69824980D02*
X32087964Y-69793076D01*
X32087964Y-69793076D02*
X32052250Y-69761171D01*
X32052250Y-69761171D02*
X32016535Y-69697361D01*
X32016535Y-69697361D02*
X32016535Y-69442123D01*
X32016535Y-69442123D02*
X32766535Y-69442123D01*
X32766535Y-69442123D02*
X32766535Y-69665457D01*
X32766535Y-69665457D02*
X32730821Y-69729266D01*
X32730821Y-69729266D02*
X32695107Y-69761171D01*
X32695107Y-69761171D02*
X32623678Y-69793076D01*
X32623678Y-69793076D02*
X32552250Y-69793076D01*
X32552250Y-69793076D02*
X32480821Y-69761171D01*
X32480821Y-69761171D02*
X32445107Y-69729266D01*
X32445107Y-69729266D02*
X32409392Y-69665457D01*
X32409392Y-69665457D02*
X32409392Y-69442123D01*
X32695107Y-70080219D02*
X32730821Y-70112123D01*
X32730821Y-70112123D02*
X32766535Y-70175933D01*
X32766535Y-70175933D02*
X32766535Y-70335457D01*
X32766535Y-70335457D02*
X32730821Y-70399266D01*
X32730821Y-70399266D02*
X32695107Y-70431171D01*
X32695107Y-70431171D02*
X32623678Y-70463076D01*
X32623678Y-70463076D02*
X32552250Y-70463076D01*
X32552250Y-70463076D02*
X32445107Y-70431171D01*
X32445107Y-70431171D02*
X32016535Y-70048314D01*
X32016535Y-70048314D02*
X32016535Y-70463076D01*
X47430821Y-67511886D02*
X47430821Y-67830933D01*
X47216535Y-67448076D02*
X47966535Y-67671409D01*
X47966535Y-67671409D02*
X47216535Y-67894743D01*
X47966535Y-68054267D02*
X47966535Y-68469029D01*
X47966535Y-68469029D02*
X47680821Y-68245695D01*
X47680821Y-68245695D02*
X47680821Y-68341410D01*
X47680821Y-68341410D02*
X47645107Y-68405219D01*
X47645107Y-68405219D02*
X47609392Y-68437124D01*
X47609392Y-68437124D02*
X47537964Y-68469029D01*
X47537964Y-68469029D02*
X47359392Y-68469029D01*
X47359392Y-68469029D02*
X47287964Y-68437124D01*
X47287964Y-68437124D02*
X47252250Y-68405219D01*
X47252250Y-68405219D02*
X47216535Y-68341410D01*
X47216535Y-68341410D02*
X47216535Y-68149981D01*
X47216535Y-68149981D02*
X47252250Y-68086172D01*
X47252250Y-68086172D02*
X47287964Y-68054267D01*
X48002250Y-69234743D02*
X47037964Y-68660457D01*
X47609392Y-69681410D02*
X47609392Y-69458076D01*
X47216535Y-69458076D02*
X47966535Y-69458076D01*
X47966535Y-69458076D02*
X47966535Y-69777124D01*
X47716535Y-70319505D02*
X47216535Y-70319505D01*
X48002250Y-70159981D02*
X47466535Y-70000458D01*
X47466535Y-70000458D02*
X47466535Y-70415219D01*
D12*
%TO.C,SW81*%
X245405000Y-65070000D02*
X245405000Y-66400000D01*
X244075000Y-65070000D02*
X245405000Y-65070000D01*
X242805000Y-65070000D02*
X240205000Y-65070000D01*
X242805000Y-65070000D02*
X242805000Y-67730000D01*
X240205000Y-65070000D02*
X240205000Y-67730000D01*
X242805000Y-67730000D02*
X240205000Y-67730000D01*
%TO.C,SW80*%
X180005000Y-67830000D02*
X177405000Y-67830000D01*
X177405000Y-65170000D02*
X177405000Y-67830000D01*
X180005000Y-65170000D02*
X180005000Y-67830000D01*
X180005000Y-65170000D02*
X177405000Y-65170000D01*
X181275000Y-65170000D02*
X182605000Y-65170000D01*
X182605000Y-65170000D02*
X182605000Y-66500000D01*
%TO.C,J4*%
X374105000Y-112770000D02*
X374105000Y-114100000D01*
X372775000Y-112770000D02*
X374105000Y-112770000D01*
X371505000Y-112770000D02*
X368905000Y-112770000D01*
X371505000Y-112770000D02*
X371505000Y-115430000D01*
X368905000Y-112770000D02*
X368905000Y-115430000D01*
X371505000Y-115430000D02*
X368905000Y-115430000D01*
%TO.C,J3*%
X255010000Y-69030000D02*
X255010000Y-67700000D01*
X256340000Y-69030000D02*
X255010000Y-69030000D01*
X257610000Y-69030000D02*
X265290000Y-69030000D01*
X257610000Y-69030000D02*
X257610000Y-66370000D01*
X265290000Y-69030000D02*
X265290000Y-66370000D01*
X257610000Y-66370000D02*
X265290000Y-66370000D01*
%TO.C,J2*%
X158760000Y-66363750D02*
X166440000Y-66363750D01*
X166440000Y-69023750D02*
X166440000Y-66363750D01*
X158760000Y-69023750D02*
X158760000Y-66363750D01*
X158760000Y-69023750D02*
X166440000Y-69023750D01*
X157490000Y-69023750D02*
X156160000Y-69023750D01*
X156160000Y-69023750D02*
X156160000Y-67693750D01*
%TO.C,J1*%
X24058750Y-66987370D02*
X25388750Y-66987370D01*
X24058750Y-68317370D02*
X24058750Y-66987370D01*
X24058750Y-69587370D02*
X24058750Y-77267370D01*
X24058750Y-69587370D02*
X26718750Y-69587370D01*
X24058750Y-77267370D02*
X26718750Y-77267370D01*
X26718750Y-69587370D02*
X26718750Y-77267370D01*
D10*
%TO.C,D32*%
X390759249Y-92454950D02*
X390759249Y-97854950D01*
X390759249Y-97854950D02*
X392259249Y-97854950D01*
X391009249Y-94654950D02*
X392009249Y-94654950D01*
X391009249Y-95654950D02*
X392009249Y-95654950D01*
X391509249Y-95554950D02*
X391009249Y-94654950D01*
X392009249Y-94654950D02*
X391509249Y-95554950D01*
X392259249Y-92454950D02*
X390759249Y-92454950D01*
X392259249Y-97854950D02*
X392259249Y-92454950D01*
%TO.C,D67*%
X85711999Y-149504950D02*
X85711999Y-154904950D01*
X85711999Y-154904950D02*
X87211999Y-154904950D01*
X85961999Y-151704950D02*
X86961999Y-151704950D01*
X85961999Y-152704950D02*
X86961999Y-152704950D01*
X86461999Y-152604950D02*
X85961999Y-151704950D01*
X86961999Y-151704950D02*
X86461999Y-152604950D01*
X87211999Y-149504950D02*
X85711999Y-149504950D01*
X87211999Y-154904950D02*
X87211999Y-149504950D01*
%TO.C,D50*%
X59524999Y-130504950D02*
X59524999Y-135904950D01*
X59524999Y-135904950D02*
X61024999Y-135904950D01*
X59774999Y-132704950D02*
X60774999Y-132704950D01*
X59774999Y-133704950D02*
X60774999Y-133704950D01*
X60274999Y-133604950D02*
X59774999Y-132704950D01*
X60774999Y-132704950D02*
X60274999Y-133604950D01*
X61024999Y-130504950D02*
X59524999Y-130504950D01*
X61024999Y-135904950D02*
X61024999Y-130504950D01*
%TO.C,D73*%
X267284249Y-149504950D02*
X267284249Y-154904950D01*
X267284249Y-154904950D02*
X268784249Y-154904950D01*
X267534249Y-151704950D02*
X268534249Y-151704950D01*
X267534249Y-152704950D02*
X268534249Y-152704950D01*
X268034249Y-152604950D02*
X267534249Y-151704950D01*
X268534249Y-151704950D02*
X268034249Y-152604950D01*
X268784249Y-149504950D02*
X267284249Y-149504950D01*
X268784249Y-154904950D02*
X268784249Y-149504950D01*
%TO.C,D46*%
X329009249Y-111479950D02*
X329009249Y-116879950D01*
X329009249Y-116879950D02*
X330509249Y-116879950D01*
X329259249Y-113679950D02*
X330259249Y-113679950D01*
X329259249Y-114679950D02*
X330259249Y-114679950D01*
X329759249Y-114579950D02*
X329259249Y-113679950D01*
X330259249Y-113679950D02*
X329759249Y-114579950D01*
X330509249Y-111479950D02*
X329009249Y-111479950D01*
X330509249Y-116879950D02*
X330509249Y-111479950D01*
%TO.C,D38*%
X154611999Y-111479950D02*
X154611999Y-116879950D01*
X154611999Y-116879950D02*
X156111999Y-116879950D01*
X154861999Y-113679950D02*
X155861999Y-113679950D01*
X154861999Y-114679950D02*
X155861999Y-114679950D01*
X155361999Y-114579950D02*
X154861999Y-113679950D01*
X155861999Y-113679950D02*
X155361999Y-114579950D01*
X156111999Y-111479950D02*
X154611999Y-111479950D01*
X156111999Y-116879950D02*
X156111999Y-111479950D01*
%TO.C,D76*%
X333759249Y-149504950D02*
X333759249Y-154904950D01*
X333759249Y-154904950D02*
X335259249Y-154904950D01*
X334009249Y-151704950D02*
X335009249Y-151704950D01*
X334009249Y-152704950D02*
X335009249Y-152704950D01*
X334509249Y-152604950D02*
X334009249Y-151704950D01*
X335009249Y-151704950D02*
X334509249Y-152604950D01*
X335259249Y-149504950D02*
X333759249Y-149504950D01*
X335259249Y-154904950D02*
X335259249Y-149504950D01*
%TO.C,D74*%
X295759249Y-149504950D02*
X295759249Y-154904950D01*
X295759249Y-154904950D02*
X297259249Y-154904950D01*
X296009249Y-151704950D02*
X297009249Y-151704950D01*
X296009249Y-152704950D02*
X297009249Y-152704950D01*
X296509249Y-152604950D02*
X296009249Y-151704950D01*
X297009249Y-151704950D02*
X296509249Y-152604950D01*
X297259249Y-149504950D02*
X295759249Y-149504950D01*
X297259249Y-154904950D02*
X297259249Y-149504950D01*
%TO.C,D52*%
X126111999Y-130504950D02*
X126111999Y-135904950D01*
X126111999Y-135904950D02*
X127611999Y-135904950D01*
X126361999Y-132704950D02*
X127361999Y-132704950D01*
X126361999Y-133704950D02*
X127361999Y-133704950D01*
X126861999Y-133604950D02*
X126361999Y-132704950D01*
X127361999Y-132704950D02*
X126861999Y-133604950D01*
X127611999Y-130504950D02*
X126111999Y-130504950D01*
X127611999Y-135904950D02*
X127611999Y-130504950D01*
%TO.C,D39*%
X173611999Y-111479950D02*
X173611999Y-116879950D01*
X173611999Y-116879950D02*
X175111999Y-116879950D01*
X173861999Y-113679950D02*
X174861999Y-113679950D01*
X173861999Y-114679950D02*
X174861999Y-114679950D01*
X174361999Y-114579950D02*
X173861999Y-113679950D01*
X174861999Y-113679950D02*
X174361999Y-114579950D01*
X175111999Y-111479950D02*
X173611999Y-111479950D01*
X175111999Y-116879950D02*
X175111999Y-111479950D01*
%TO.C,D15*%
X371741000Y-73448000D02*
X371741000Y-78848000D01*
X371741000Y-78848000D02*
X373241000Y-78848000D01*
X371991000Y-75648000D02*
X372991000Y-75648000D01*
X371991000Y-76648000D02*
X372991000Y-76648000D01*
X372491000Y-76548000D02*
X371991000Y-75648000D01*
X372991000Y-75648000D02*
X372491000Y-76548000D01*
X373241000Y-73448000D02*
X371741000Y-73448000D01*
X373241000Y-78848000D02*
X373241000Y-73448000D01*
%TO.C,D44*%
X291009249Y-111479950D02*
X291009249Y-116879950D01*
X291009249Y-116879950D02*
X292509249Y-116879950D01*
X291259249Y-113679950D02*
X292259249Y-113679950D01*
X291259249Y-114679950D02*
X292259249Y-114679950D01*
X291759249Y-114579950D02*
X291259249Y-113679950D01*
X292259249Y-113679950D02*
X291759249Y-114579950D01*
X292509249Y-111479950D02*
X291009249Y-111479950D01*
X292509249Y-116879950D02*
X292509249Y-111479950D01*
%TO.C,D4*%
X140361999Y-73454950D02*
X140361999Y-78854950D01*
X140361999Y-78854950D02*
X141861999Y-78854950D01*
X140611999Y-75654950D02*
X141611999Y-75654950D01*
X140611999Y-76654950D02*
X141611999Y-76654950D01*
X141111999Y-76554950D02*
X140611999Y-75654950D01*
X141611999Y-75654950D02*
X141111999Y-76554950D01*
X141861999Y-73454950D02*
X140361999Y-73454950D01*
X141861999Y-78854950D02*
X141861999Y-73454950D01*
%TO.C,D43*%
X272009249Y-111479950D02*
X272009249Y-116879950D01*
X272009249Y-116879950D02*
X273509249Y-116879950D01*
X272259249Y-113679950D02*
X273259249Y-113679950D01*
X272259249Y-114679950D02*
X273259249Y-114679950D01*
X272759249Y-114579950D02*
X272259249Y-113679950D01*
X273259249Y-113679950D02*
X272759249Y-114579950D01*
X273509249Y-111479950D02*
X272009249Y-111479950D01*
X273509249Y-116879950D02*
X273509249Y-111479950D01*
%TO.C,D41*%
X234009249Y-111479950D02*
X234009249Y-116879950D01*
X234009249Y-116879950D02*
X235509249Y-116879950D01*
X234259249Y-113679950D02*
X235259249Y-113679950D01*
X234259249Y-114679950D02*
X235259249Y-114679950D01*
X234759249Y-114579950D02*
X234259249Y-113679950D01*
X235259249Y-113679950D02*
X234759249Y-114579950D01*
X235509249Y-111479950D02*
X234009249Y-111479950D01*
X235509249Y-116879950D02*
X235509249Y-111479950D01*
%TO.C,D1*%
X83361999Y-73454950D02*
X83361999Y-78854950D01*
X83361999Y-78854950D02*
X84861999Y-78854950D01*
X83611999Y-75654950D02*
X84611999Y-75654950D01*
X83611999Y-76654950D02*
X84611999Y-76654950D01*
X84111999Y-76554950D02*
X83611999Y-75654950D01*
X84611999Y-75654950D02*
X84111999Y-76554950D01*
X84861999Y-73454950D02*
X83361999Y-73454950D01*
X84861999Y-78854950D02*
X84861999Y-73454950D01*
%TO.C,D11*%
X295759249Y-73454950D02*
X295759249Y-78854950D01*
X295759249Y-78854950D02*
X297259249Y-78854950D01*
X296009249Y-75654950D02*
X297009249Y-75654950D01*
X296009249Y-76654950D02*
X297009249Y-76654950D01*
X296509249Y-76554950D02*
X296009249Y-75654950D01*
X297009249Y-75654950D02*
X296509249Y-76554950D01*
X297259249Y-73454950D02*
X295759249Y-73454950D01*
X297259249Y-78854950D02*
X297259249Y-73454950D01*
%TO.C,D51*%
X95211999Y-130504950D02*
X95211999Y-135904950D01*
X95211999Y-135904950D02*
X96711999Y-135904950D01*
X95461999Y-132704950D02*
X96461999Y-132704950D01*
X95461999Y-133704950D02*
X96461999Y-133704950D01*
X95961999Y-133604950D02*
X95461999Y-132704950D01*
X96461999Y-132704950D02*
X95961999Y-133604950D01*
X96711999Y-130504950D02*
X95211999Y-130504950D01*
X96711999Y-135904950D02*
X96711999Y-130504950D01*
%TO.C,D59*%
X281509249Y-130504950D02*
X281509249Y-135904950D01*
X281509249Y-135904950D02*
X283009249Y-135904950D01*
X281759249Y-132704950D02*
X282759249Y-132704950D01*
X281759249Y-133704950D02*
X282759249Y-133704950D01*
X282259249Y-133604950D02*
X281759249Y-132704950D01*
X282759249Y-132704950D02*
X282259249Y-133604950D01*
X283009249Y-130504950D02*
X281509249Y-130504950D01*
X283009249Y-135904950D02*
X283009249Y-130504950D01*
%TO.C,D9*%
X240850000Y-72600000D02*
X240850000Y-78000000D01*
X240850000Y-78000000D02*
X242350000Y-78000000D01*
X241100000Y-74800000D02*
X242100000Y-74800000D01*
X241100000Y-75800000D02*
X242100000Y-75800000D01*
X241600000Y-75700000D02*
X241100000Y-74800000D01*
X242100000Y-74800000D02*
X241600000Y-75700000D01*
X242350000Y-72600000D02*
X240850000Y-72600000D01*
X242350000Y-78000000D02*
X242350000Y-72600000D01*
%TO.C,D3*%
X121361999Y-73454950D02*
X121361999Y-78854950D01*
X121361999Y-78854950D02*
X122861999Y-78854950D01*
X121611999Y-75654950D02*
X122611999Y-75654950D01*
X121611999Y-76654950D02*
X122611999Y-76654950D01*
X122111999Y-76554950D02*
X121611999Y-75654950D01*
X122611999Y-75654950D02*
X122111999Y-76554950D01*
X122861999Y-73454950D02*
X121361999Y-73454950D01*
X122861999Y-78854950D02*
X122861999Y-73454950D01*
%TO.C,D42*%
X253009249Y-111479950D02*
X253009249Y-116879950D01*
X253009249Y-116879950D02*
X254509249Y-116879950D01*
X253259249Y-113679950D02*
X254259249Y-113679950D01*
X253259249Y-114679950D02*
X254259249Y-114679950D01*
X253759249Y-114579950D02*
X253259249Y-113679950D01*
X254259249Y-113679950D02*
X253759249Y-114579950D01*
X254509249Y-111479950D02*
X253009249Y-111479950D01*
X254509249Y-116879950D02*
X254509249Y-111479950D01*
%TO.C,D64*%
X390759249Y-130504950D02*
X390759249Y-135904950D01*
X390759249Y-135904950D02*
X392259249Y-135904950D01*
X391009249Y-132704950D02*
X392009249Y-132704950D01*
X391009249Y-133704950D02*
X392009249Y-133704950D01*
X391509249Y-133604950D02*
X391009249Y-132704950D01*
X392009249Y-132704950D02*
X391509249Y-133604950D01*
X392259249Y-130504950D02*
X390759249Y-130504950D01*
X392259249Y-135904950D02*
X392259249Y-130504950D01*
%TO.C,D23*%
X171045000Y-95080000D02*
X171045000Y-100480000D01*
X171045000Y-100480000D02*
X172545000Y-100480000D01*
X171295000Y-97280000D02*
X172295000Y-97280000D01*
X171295000Y-98280000D02*
X172295000Y-98280000D01*
X171795000Y-98180000D02*
X171295000Y-97280000D01*
X172295000Y-97280000D02*
X171795000Y-98180000D01*
X172545000Y-95080000D02*
X171045000Y-95080000D01*
X172545000Y-100480000D02*
X172545000Y-95080000D01*
%TO.C,D33*%
X40524999Y-111479950D02*
X40524999Y-116879950D01*
X40524999Y-116879950D02*
X42024999Y-116879950D01*
X40774999Y-113679950D02*
X41774999Y-113679950D01*
X40774999Y-114679950D02*
X41774999Y-114679950D01*
X41274999Y-114579950D02*
X40774999Y-113679950D01*
X41774999Y-113679950D02*
X41274999Y-114579950D01*
X42024999Y-111479950D02*
X40524999Y-111479950D01*
X42024999Y-116879950D02*
X42024999Y-111479950D01*
%TO.C,D8*%
X238759249Y-73454950D02*
X238759249Y-78854950D01*
X238759249Y-78854950D02*
X240259249Y-78854950D01*
X239009249Y-75654950D02*
X240009249Y-75654950D01*
X239009249Y-76654950D02*
X240009249Y-76654950D01*
X239509249Y-76554950D02*
X239009249Y-75654950D01*
X240009249Y-75654950D02*
X239509249Y-76554950D01*
X240259249Y-73454950D02*
X238759249Y-73454950D01*
X240259249Y-78854950D02*
X240259249Y-73454950D01*
%TO.C,D45*%
X310009249Y-111479950D02*
X310009249Y-116879950D01*
X310009249Y-116879950D02*
X311509249Y-116879950D01*
X310259249Y-113679950D02*
X311259249Y-113679950D01*
X310259249Y-114679950D02*
X311259249Y-114679950D01*
X310759249Y-114579950D02*
X310259249Y-113679950D01*
X311259249Y-113679950D02*
X310759249Y-114579950D01*
X311509249Y-111479950D02*
X310009249Y-111479950D01*
X311509249Y-116879950D02*
X311509249Y-111479950D01*
%TO.C,D65*%
X40524999Y-149504950D02*
X40524999Y-154904950D01*
X40524999Y-154904950D02*
X42024999Y-154904950D01*
X40774999Y-151704950D02*
X41774999Y-151704950D01*
X40774999Y-152704950D02*
X41774999Y-152704950D01*
X41274999Y-152604950D02*
X40774999Y-151704950D01*
X41774999Y-151704950D02*
X41274999Y-152604950D01*
X42024999Y-149504950D02*
X40524999Y-149504950D01*
X42024999Y-154904950D02*
X42024999Y-149504950D01*
%TO.C,D70*%
X161711999Y-149504950D02*
X161711999Y-154904950D01*
X161711999Y-154904950D02*
X163211999Y-154904950D01*
X161961999Y-151704950D02*
X162961999Y-151704950D01*
X161961999Y-152704950D02*
X162961999Y-152704950D01*
X162461999Y-152604950D02*
X161961999Y-151704950D01*
X162961999Y-151704950D02*
X162461999Y-152604950D01*
X163211999Y-149504950D02*
X161711999Y-149504950D01*
X163211999Y-154904950D02*
X163211999Y-149504950D01*
%TO.C,D24*%
X229259249Y-92454950D02*
X229259249Y-97854950D01*
X229259249Y-97854950D02*
X230759249Y-97854950D01*
X229509249Y-94654950D02*
X230509249Y-94654950D01*
X229509249Y-95654950D02*
X230509249Y-95654950D01*
X230009249Y-95554950D02*
X229509249Y-94654950D01*
X230509249Y-94654950D02*
X230009249Y-95554950D01*
X230759249Y-92454950D02*
X229259249Y-92454950D01*
X230759249Y-97854950D02*
X230759249Y-92454950D01*
%TO.C,D26*%
X267259249Y-92454950D02*
X267259249Y-97854950D01*
X267259249Y-97854950D02*
X268759249Y-97854950D01*
X267509249Y-94654950D02*
X268509249Y-94654950D01*
X267509249Y-95654950D02*
X268509249Y-95654950D01*
X268009249Y-95554950D02*
X267509249Y-94654950D01*
X268509249Y-94654950D02*
X268009249Y-95554950D01*
X268759249Y-92454950D02*
X267259249Y-92454950D01*
X268759249Y-97854950D02*
X268759249Y-92454950D01*
%TO.C,D6*%
X161850000Y-71700000D02*
X161850000Y-77100000D01*
X161850000Y-77100000D02*
X163350000Y-77100000D01*
X162100000Y-73900000D02*
X163100000Y-73900000D01*
X162100000Y-74900000D02*
X163100000Y-74900000D01*
X162600000Y-74800000D02*
X162100000Y-73900000D01*
X163100000Y-73900000D02*
X162600000Y-74800000D01*
X163350000Y-71700000D02*
X161850000Y-71700000D01*
X163350000Y-77100000D02*
X163350000Y-71700000D01*
%TO.C,D14*%
X362284249Y-73454950D02*
X362284249Y-78854950D01*
X362284249Y-78854950D02*
X363784249Y-78854950D01*
X362534249Y-75654950D02*
X363534249Y-75654950D01*
X362534249Y-76654950D02*
X363534249Y-76654950D01*
X363034249Y-76554950D02*
X362534249Y-75654950D01*
X363534249Y-75654950D02*
X363034249Y-76554950D01*
X363784249Y-73454950D02*
X362284249Y-73454950D01*
X363784249Y-78854950D02*
X363784249Y-73454950D01*
%TO.C,D12*%
X314759249Y-73454950D02*
X314759249Y-78854950D01*
X314759249Y-78854950D02*
X316259249Y-78854950D01*
X315009249Y-75654950D02*
X316009249Y-75654950D01*
X315009249Y-76654950D02*
X316009249Y-76654950D01*
X315509249Y-76554950D02*
X315009249Y-75654950D01*
X316009249Y-75654950D02*
X315509249Y-76554950D01*
X316259249Y-73454950D02*
X314759249Y-73454950D01*
X316259249Y-78854950D02*
X316259249Y-73454950D01*
%TO.C,D36*%
X116611999Y-111479950D02*
X116611999Y-116879950D01*
X116611999Y-116879950D02*
X118111999Y-116879950D01*
X116861999Y-113679950D02*
X117861999Y-113679950D01*
X116861999Y-114679950D02*
X117861999Y-114679950D01*
X117361999Y-114579950D02*
X116861999Y-113679950D01*
X117861999Y-113679950D02*
X117361999Y-114579950D01*
X118111999Y-111479950D02*
X116611999Y-111479950D01*
X118111999Y-116879950D02*
X118111999Y-111479950D01*
%TO.C,D29*%
X324259249Y-92454950D02*
X324259249Y-97854950D01*
X324259249Y-97854950D02*
X325759249Y-97854950D01*
X324509249Y-94654950D02*
X325509249Y-94654950D01*
X324509249Y-95654950D02*
X325509249Y-95654950D01*
X325009249Y-95554950D02*
X324509249Y-94654950D01*
X325509249Y-94654950D02*
X325009249Y-95554950D01*
X325759249Y-92454950D02*
X324259249Y-92454950D01*
X325759249Y-97854950D02*
X325759249Y-92454950D01*
%TO.C,D69*%
X126111999Y-149504950D02*
X126111999Y-154904950D01*
X126111999Y-154904950D02*
X127611999Y-154904950D01*
X126361999Y-151704950D02*
X127361999Y-151704950D01*
X126361999Y-152704950D02*
X127361999Y-152704950D01*
X126861999Y-152604950D02*
X126361999Y-151704950D01*
X127361999Y-151704950D02*
X126861999Y-152604950D01*
X127611999Y-149504950D02*
X126111999Y-149504950D01*
X127611999Y-154904950D02*
X127611999Y-149504950D01*
%TO.C,D20*%
X130861999Y-92454950D02*
X130861999Y-97854950D01*
X130861999Y-97854950D02*
X132361999Y-97854950D01*
X131111999Y-94654950D02*
X132111999Y-94654950D01*
X131111999Y-95654950D02*
X132111999Y-95654950D01*
X131611999Y-95554950D02*
X131111999Y-94654950D01*
X132111999Y-94654950D02*
X131611999Y-95554950D01*
X132361999Y-92454950D02*
X130861999Y-92454950D01*
X132361999Y-97854950D02*
X132361999Y-92454950D01*
%TO.C,D47*%
X359909249Y-111479950D02*
X359909249Y-116879950D01*
X359909249Y-116879950D02*
X361409249Y-116879950D01*
X360159249Y-113679950D02*
X361159249Y-113679950D01*
X360159249Y-114679950D02*
X361159249Y-114679950D01*
X360659249Y-114579950D02*
X360159249Y-113679950D01*
X361159249Y-113679950D02*
X360659249Y-114579950D01*
X361409249Y-111479950D02*
X359909249Y-111479950D01*
X361409249Y-116879950D02*
X361409249Y-111479950D01*
%TO.C,D62*%
X346800000Y-127750000D02*
X346800000Y-133150000D01*
X346800000Y-133150000D02*
X348300000Y-133150000D01*
X347050000Y-129950000D02*
X348050000Y-129950000D01*
X347050000Y-130950000D02*
X348050000Y-130950000D01*
X347550000Y-130850000D02*
X347050000Y-129950000D01*
X348050000Y-129950000D02*
X347550000Y-130850000D01*
X348300000Y-127750000D02*
X346800000Y-127750000D01*
X348300000Y-133150000D02*
X348300000Y-127750000D01*
%TO.C,D48*%
X390759249Y-111479950D02*
X390759249Y-116879950D01*
X390759249Y-116879950D02*
X392259249Y-116879950D01*
X391009249Y-113679950D02*
X392009249Y-113679950D01*
X391009249Y-114679950D02*
X392009249Y-114679950D01*
X391509249Y-114579950D02*
X391009249Y-113679950D01*
X392009249Y-113679950D02*
X391509249Y-114579950D01*
X392259249Y-111479950D02*
X390759249Y-111479950D01*
X392259249Y-116879950D02*
X392259249Y-111479950D01*
%TO.C,D22*%
X168861999Y-92454950D02*
X168861999Y-97854950D01*
X168861999Y-97854950D02*
X170361999Y-97854950D01*
X169111999Y-94654950D02*
X170111999Y-94654950D01*
X169111999Y-95654950D02*
X170111999Y-95654950D01*
X169611999Y-95554950D02*
X169111999Y-94654950D01*
X170111999Y-94654950D02*
X169611999Y-95554950D01*
X170361999Y-92454950D02*
X168861999Y-92454950D01*
X170361999Y-97854950D02*
X170361999Y-92454950D01*
%TO.C,D16*%
X40524999Y-92454950D02*
X40524999Y-97854950D01*
X40524999Y-97854950D02*
X42024999Y-97854950D01*
X40774999Y-94654950D02*
X41774999Y-94654950D01*
X40774999Y-95654950D02*
X41774999Y-95654950D01*
X41274999Y-95554950D02*
X40774999Y-94654950D01*
X41774999Y-94654950D02*
X41274999Y-95554950D01*
X42024999Y-92454950D02*
X40524999Y-92454950D01*
X42024999Y-97854950D02*
X42024999Y-92454950D01*
%TO.C,D49*%
X40524999Y-130504950D02*
X40524999Y-135904950D01*
X40524999Y-135904950D02*
X42024999Y-135904950D01*
X40774999Y-132704950D02*
X41774999Y-132704950D01*
X40774999Y-133704950D02*
X41774999Y-133704950D01*
X41274999Y-133604950D02*
X40774999Y-132704950D01*
X41774999Y-132704950D02*
X41274999Y-133604950D01*
X42024999Y-130504950D02*
X40524999Y-130504950D01*
X42024999Y-135904950D02*
X42024999Y-130504950D01*
%TO.C,D25*%
X248259249Y-92454950D02*
X248259249Y-97854950D01*
X248259249Y-97854950D02*
X249759249Y-97854950D01*
X248509249Y-94654950D02*
X249509249Y-94654950D01*
X248509249Y-95654950D02*
X249509249Y-95654950D01*
X249009249Y-95554950D02*
X248509249Y-94654950D01*
X249509249Y-94654950D02*
X249009249Y-95554950D01*
X249759249Y-92454950D02*
X248259249Y-92454950D01*
X249759249Y-97854950D02*
X249759249Y-92454950D01*
%TO.C,D53*%
X145111999Y-130504950D02*
X145111999Y-135904950D01*
X145111999Y-135904950D02*
X146611999Y-135904950D01*
X145361999Y-132704950D02*
X146361999Y-132704950D01*
X145361999Y-133704950D02*
X146361999Y-133704950D01*
X145861999Y-133604950D02*
X145361999Y-132704950D01*
X146361999Y-132704950D02*
X145861999Y-133604950D01*
X146611999Y-130504950D02*
X145111999Y-130504950D01*
X146611999Y-135904950D02*
X146611999Y-130504950D01*
%TO.C,D28*%
X305259249Y-92454950D02*
X305259249Y-97854950D01*
X305259249Y-97854950D02*
X306759249Y-97854950D01*
X305509249Y-94654950D02*
X306509249Y-94654950D01*
X305509249Y-95654950D02*
X306509249Y-95654950D01*
X306009249Y-95554950D02*
X305509249Y-94654950D01*
X306509249Y-94654950D02*
X306009249Y-95554950D01*
X306759249Y-92454950D02*
X305259249Y-92454950D01*
X306759249Y-97854950D02*
X306759249Y-92454950D01*
%TO.C,D7*%
X180505000Y-76055000D02*
X180505000Y-81455000D01*
X180505000Y-81455000D02*
X182005000Y-81455000D01*
X180755000Y-78255000D02*
X181755000Y-78255000D01*
X180755000Y-79255000D02*
X181755000Y-79255000D01*
X181255000Y-79155000D02*
X180755000Y-78255000D01*
X181755000Y-78255000D02*
X181255000Y-79155000D01*
X182005000Y-76055000D02*
X180505000Y-76055000D01*
X182005000Y-81455000D02*
X182005000Y-76055000D01*
%TO.C,D61*%
X319509249Y-130504950D02*
X319509249Y-135904950D01*
X319509249Y-135904950D02*
X321009249Y-135904950D01*
X319759249Y-132704950D02*
X320759249Y-132704950D01*
X319759249Y-133704950D02*
X320759249Y-133704950D01*
X320259249Y-133604950D02*
X319759249Y-132704950D01*
X320759249Y-132704950D02*
X320259249Y-133604950D01*
X321009249Y-130504950D02*
X319509249Y-130504950D01*
X321009249Y-135904950D02*
X321009249Y-130504950D01*
%TO.C,D37*%
X135611999Y-111479950D02*
X135611999Y-116879950D01*
X135611999Y-116879950D02*
X137111999Y-116879950D01*
X135861999Y-113679950D02*
X136861999Y-113679950D01*
X135861999Y-114679950D02*
X136861999Y-114679950D01*
X136361999Y-114579950D02*
X135861999Y-113679950D01*
X136861999Y-113679950D02*
X136361999Y-114579950D01*
X137111999Y-111479950D02*
X135611999Y-111479950D01*
X137111999Y-116879950D02*
X137111999Y-111479950D01*
%TO.C,D77*%
X352759249Y-149504950D02*
X352759249Y-154904950D01*
X352759249Y-154904950D02*
X354259249Y-154904950D01*
X353009249Y-151704950D02*
X354009249Y-151704950D01*
X353009249Y-152704950D02*
X354009249Y-152704950D01*
X353509249Y-152604950D02*
X353009249Y-151704950D01*
X354009249Y-151704950D02*
X353509249Y-152604950D01*
X354259249Y-149504950D02*
X352759249Y-149504950D01*
X354259249Y-154904950D02*
X354259249Y-149504950D01*
%TO.C,U2*%
X323478000Y-126951400D02*
X323478000Y-134451400D01*
X323478000Y-134451400D02*
X324778000Y-134451400D01*
X323828000Y-130201400D02*
X324478000Y-130701400D01*
X323828000Y-131201400D02*
X323828000Y-130201400D01*
X323978000Y-131051400D02*
X323978000Y-130351400D01*
X324128000Y-130951400D02*
X324128000Y-130451400D01*
X324278000Y-130851400D02*
X324278000Y-130551400D01*
X324478000Y-130701400D02*
X323828000Y-131201400D01*
X324778000Y-126951400D02*
X323478000Y-126951400D01*
X324778000Y-134451400D02*
X324778000Y-126951400D01*
X329078000Y-121951400D02*
X329078000Y-122751400D01*
X329078000Y-121951400D02*
X329928000Y-121951400D01*
X329078000Y-139451400D02*
X329078000Y-138601400D01*
X329078000Y-139451400D02*
X329928000Y-139451400D01*
X358378000Y-139451400D02*
X359278000Y-139451400D01*
X358428000Y-121951400D02*
X359278000Y-121951400D01*
X359278000Y-121951400D02*
X359278000Y-122811400D01*
X359278000Y-139451400D02*
X359278000Y-138601400D01*
%TO.C,D10*%
X260250000Y-73900000D02*
X260250000Y-79300000D01*
X260250000Y-79300000D02*
X261750000Y-79300000D01*
X260500000Y-76100000D02*
X261500000Y-76100000D01*
X260500000Y-77100000D02*
X261500000Y-77100000D01*
X261000000Y-77000000D02*
X260500000Y-76100000D01*
X261500000Y-76100000D02*
X261000000Y-77000000D01*
X261750000Y-73900000D02*
X260250000Y-73900000D01*
X261750000Y-79300000D02*
X261750000Y-73900000D01*
%TO.C,D57*%
X243509249Y-130504950D02*
X243509249Y-135904950D01*
X243509249Y-135904950D02*
X245009249Y-135904950D01*
X243759249Y-132704950D02*
X244759249Y-132704950D01*
X243759249Y-133704950D02*
X244759249Y-133704950D01*
X244259249Y-133604950D02*
X243759249Y-132704950D01*
X244759249Y-132704950D02*
X244259249Y-133604950D01*
X245009249Y-130504950D02*
X243509249Y-130504950D01*
X245009249Y-135904950D02*
X245009249Y-130504950D01*
%TO.C,D75*%
X314759249Y-149504950D02*
X314759249Y-154904950D01*
X314759249Y-154904950D02*
X316259249Y-154904950D01*
X315009249Y-151704950D02*
X316009249Y-151704950D01*
X315009249Y-152704950D02*
X316009249Y-152704950D01*
X315509249Y-152604950D02*
X315009249Y-151704950D01*
X316009249Y-151704950D02*
X315509249Y-152604950D01*
X316259249Y-149504950D02*
X314759249Y-149504950D01*
X316259249Y-154904950D02*
X316259249Y-149504950D01*
%TO.C,D56*%
X185290000Y-132320000D02*
X185290000Y-137720000D01*
X185290000Y-137720000D02*
X186790000Y-137720000D01*
X185540000Y-134520000D02*
X186540000Y-134520000D01*
X185540000Y-135520000D02*
X186540000Y-135520000D01*
X186040000Y-135420000D02*
X185540000Y-134520000D01*
X186540000Y-134520000D02*
X186040000Y-135420000D01*
X186790000Y-132320000D02*
X185290000Y-132320000D01*
X186790000Y-137720000D02*
X186790000Y-132320000D01*
%TO.C,D60*%
X300509249Y-130504950D02*
X300509249Y-135904950D01*
X300509249Y-135904950D02*
X302009249Y-135904950D01*
X300759249Y-132704950D02*
X301759249Y-132704950D01*
X300759249Y-133704950D02*
X301759249Y-133704950D01*
X301259249Y-133604950D02*
X300759249Y-132704950D01*
X301759249Y-132704950D02*
X301259249Y-133604950D01*
X302009249Y-130504950D02*
X300509249Y-130504950D01*
X302009249Y-135904950D02*
X302009249Y-130504950D01*
%TO.C,D5*%
X142887000Y-71846000D02*
X142887000Y-77246000D01*
X142887000Y-77246000D02*
X144387000Y-77246000D01*
X143137000Y-74046000D02*
X144137000Y-74046000D01*
X143137000Y-75046000D02*
X144137000Y-75046000D01*
X143637000Y-74946000D02*
X143137000Y-74046000D01*
X144137000Y-74046000D02*
X143637000Y-74946000D01*
X144387000Y-71846000D02*
X142887000Y-71846000D01*
X144387000Y-77246000D02*
X144387000Y-71846000D01*
%TO.C,D35*%
X90461999Y-111479950D02*
X90461999Y-116879950D01*
X90461999Y-116879950D02*
X91961999Y-116879950D01*
X90711999Y-113679950D02*
X91711999Y-113679950D01*
X90711999Y-114679950D02*
X91711999Y-114679950D01*
X91211999Y-114579950D02*
X90711999Y-113679950D01*
X91711999Y-113679950D02*
X91211999Y-114579950D01*
X91961999Y-111479950D02*
X90461999Y-111479950D01*
X91961999Y-116879950D02*
X91961999Y-111479950D01*
%TO.C,D21*%
X149861999Y-92454950D02*
X149861999Y-97854950D01*
X149861999Y-97854950D02*
X151361999Y-97854950D01*
X150111999Y-94654950D02*
X151111999Y-94654950D01*
X150111999Y-95654950D02*
X151111999Y-95654950D01*
X150611999Y-95554950D02*
X150111999Y-94654950D01*
X151111999Y-94654950D02*
X150611999Y-95554950D01*
X151361999Y-92454950D02*
X149861999Y-92454950D01*
X151361999Y-97854950D02*
X151361999Y-92454950D01*
%TO.C,D13*%
X333759249Y-73454950D02*
X333759249Y-78854950D01*
X333759249Y-78854950D02*
X335259249Y-78854950D01*
X334009249Y-75654950D02*
X335009249Y-75654950D01*
X334009249Y-76654950D02*
X335009249Y-76654950D01*
X334509249Y-76554950D02*
X334009249Y-75654950D01*
X335009249Y-75654950D02*
X334509249Y-76554950D01*
X335259249Y-73454950D02*
X333759249Y-73454950D01*
X335259249Y-78854950D02*
X335259249Y-73454950D01*
%TO.C,D18*%
X88086999Y-92454950D02*
X88086999Y-97854950D01*
X88086999Y-97854950D02*
X89586999Y-97854950D01*
X88336999Y-94654950D02*
X89336999Y-94654950D01*
X88336999Y-95654950D02*
X89336999Y-95654950D01*
X88836999Y-95554950D02*
X88336999Y-94654950D01*
X89336999Y-94654950D02*
X88836999Y-95554950D01*
X89586999Y-92454950D02*
X88086999Y-92454950D01*
X89586999Y-97854950D02*
X89586999Y-92454950D01*
%TO.C,D27*%
X286259249Y-92454950D02*
X286259249Y-97854950D01*
X286259249Y-97854950D02*
X287759249Y-97854950D01*
X286509249Y-94654950D02*
X287509249Y-94654950D01*
X286509249Y-95654950D02*
X287509249Y-95654950D01*
X287009249Y-95554950D02*
X286509249Y-94654950D01*
X287509249Y-94654950D02*
X287009249Y-95554950D01*
X287759249Y-92454950D02*
X286259249Y-92454950D01*
X287759249Y-97854950D02*
X287759249Y-92454950D01*
%TO.C,D55*%
X183111999Y-130504950D02*
X183111999Y-135904950D01*
X183111999Y-135904950D02*
X184611999Y-135904950D01*
X183361999Y-132704950D02*
X184361999Y-132704950D01*
X183361999Y-133704950D02*
X184361999Y-133704950D01*
X183861999Y-133604950D02*
X183361999Y-132704950D01*
X184361999Y-132704950D02*
X183861999Y-133604950D01*
X184611999Y-130504950D02*
X183111999Y-130504950D01*
X184611999Y-135904950D02*
X184611999Y-130504950D01*
%TO.C,D54*%
X164111999Y-130504950D02*
X164111999Y-135904950D01*
X164111999Y-135904950D02*
X165611999Y-135904950D01*
X164361999Y-132704950D02*
X165361999Y-132704950D01*
X164361999Y-133704950D02*
X165361999Y-133704950D01*
X164861999Y-133604950D02*
X164361999Y-132704950D01*
X165361999Y-132704950D02*
X164861999Y-133604950D01*
X165611999Y-130504950D02*
X164111999Y-130504950D01*
X165611999Y-135904950D02*
X165611999Y-130504950D01*
%TO.C,D2*%
X102361999Y-73454950D02*
X102361999Y-78854950D01*
X102361999Y-78854950D02*
X103861999Y-78854950D01*
X102611999Y-75654950D02*
X103611999Y-75654950D01*
X102611999Y-76654950D02*
X103611999Y-76654950D01*
X103111999Y-76554950D02*
X102611999Y-75654950D01*
X103611999Y-75654950D02*
X103111999Y-76554950D01*
X103861999Y-73454950D02*
X102361999Y-73454950D01*
X103861999Y-78854950D02*
X103861999Y-73454950D01*
%TO.C,D79*%
X390759249Y-149504950D02*
X390759249Y-154904950D01*
X390759249Y-154904950D02*
X392259249Y-154904950D01*
X391009249Y-151704950D02*
X392009249Y-151704950D01*
X391009249Y-152704950D02*
X392009249Y-152704950D01*
X391509249Y-152604950D02*
X391009249Y-151704950D01*
X392009249Y-151704950D02*
X391509249Y-152604950D01*
X392259249Y-149504950D02*
X390759249Y-149504950D01*
X392259249Y-154904950D02*
X392259249Y-149504950D01*
%TO.C,D78*%
X371759249Y-149504950D02*
X371759249Y-154904950D01*
X371759249Y-154904950D02*
X373259249Y-154904950D01*
X372009249Y-151704950D02*
X373009249Y-151704950D01*
X372009249Y-152704950D02*
X373009249Y-152704950D01*
X372509249Y-152604950D02*
X372009249Y-151704950D01*
X373009249Y-151704950D02*
X372509249Y-152604950D01*
X373259249Y-149504950D02*
X371759249Y-149504950D01*
X373259249Y-154904950D02*
X373259249Y-149504950D01*
%TO.C,U1*%
X28707000Y-64592600D02*
X28707000Y-65442600D01*
X28707000Y-82092600D02*
X28707000Y-81232600D01*
X29557000Y-82092600D02*
X28707000Y-82092600D01*
X29607000Y-64592600D02*
X28707000Y-64592600D01*
X58907000Y-64592600D02*
X58057000Y-64592600D01*
X58907000Y-64592600D02*
X58907000Y-65442600D01*
X58907000Y-82092600D02*
X58057000Y-82092600D01*
X58907000Y-82092600D02*
X58907000Y-81292600D01*
X63207000Y-69592600D02*
X63207000Y-77092600D01*
X63207000Y-77092600D02*
X64507000Y-77092600D01*
X63507000Y-73342600D02*
X64157000Y-72842600D01*
X63707000Y-73192600D02*
X63707000Y-73492600D01*
X63857000Y-73092600D02*
X63857000Y-73592600D01*
X64007000Y-72992600D02*
X64007000Y-73692600D01*
X64157000Y-72842600D02*
X64157000Y-73842600D01*
X64157000Y-73842600D02*
X63507000Y-73342600D01*
X64507000Y-69592600D02*
X63207000Y-69592600D01*
X64507000Y-77092600D02*
X64507000Y-69592600D01*
%TO.C,D34*%
X59524999Y-111479950D02*
X59524999Y-116879950D01*
X59524999Y-116879950D02*
X61024999Y-116879950D01*
X59774999Y-113679950D02*
X60774999Y-113679950D01*
X59774999Y-114679950D02*
X60774999Y-114679950D01*
X60274999Y-114579950D02*
X59774999Y-113679950D01*
X60774999Y-113679950D02*
X60274999Y-114579950D01*
X61024999Y-111479950D02*
X59524999Y-111479950D01*
X61024999Y-116879950D02*
X61024999Y-111479950D01*
%TO.C,D71*%
X178945000Y-149605000D02*
X178945000Y-155005000D01*
X178945000Y-155005000D02*
X180445000Y-155005000D01*
X179195000Y-151805000D02*
X180195000Y-151805000D01*
X179195000Y-152805000D02*
X180195000Y-152805000D01*
X179695000Y-152705000D02*
X179195000Y-151805000D01*
X180195000Y-151805000D02*
X179695000Y-152705000D01*
X180445000Y-149605000D02*
X178945000Y-149605000D01*
X180445000Y-155005000D02*
X180445000Y-149605000D01*
%TO.C,D58*%
X262509249Y-130504950D02*
X262509249Y-135904950D01*
X262509249Y-135904950D02*
X264009249Y-135904950D01*
X262759249Y-132704950D02*
X263759249Y-132704950D01*
X262759249Y-133704950D02*
X263759249Y-133704950D01*
X263259249Y-133604950D02*
X262759249Y-132704950D01*
X263759249Y-132704950D02*
X263259249Y-133604950D01*
X264009249Y-130504950D02*
X262509249Y-130504950D01*
X264009249Y-135904950D02*
X264009249Y-130504950D01*
%TO.C,D31*%
X367034249Y-92454950D02*
X367034249Y-97854950D01*
X367034249Y-97854950D02*
X368534249Y-97854950D01*
X367284249Y-94654950D02*
X368284249Y-94654950D01*
X367284249Y-95654950D02*
X368284249Y-95654950D01*
X367784249Y-95554950D02*
X367284249Y-94654950D01*
X368284249Y-94654950D02*
X367784249Y-95554950D01*
X368534249Y-92454950D02*
X367034249Y-92454950D01*
X368534249Y-97854950D02*
X368534249Y-92454950D01*
%TO.C,D68*%
X107111999Y-149504950D02*
X107111999Y-154904950D01*
X107111999Y-154904950D02*
X108611999Y-154904950D01*
X107361999Y-151704950D02*
X108361999Y-151704950D01*
X107361999Y-152704950D02*
X108361999Y-152704950D01*
X107861999Y-152604950D02*
X107361999Y-151704950D01*
X108361999Y-151704950D02*
X107861999Y-152604950D01*
X108611999Y-149504950D02*
X107111999Y-149504950D01*
X108611999Y-154904950D02*
X108611999Y-149504950D01*
%TO.C,D19*%
X111861999Y-92454950D02*
X111861999Y-97854950D01*
X111861999Y-97854950D02*
X113361999Y-97854950D01*
X112111999Y-94654950D02*
X113111999Y-94654950D01*
X112111999Y-95654950D02*
X113111999Y-95654950D01*
X112611999Y-95554950D02*
X112111999Y-94654950D01*
X113111999Y-94654950D02*
X112611999Y-95554950D01*
X113361999Y-92454950D02*
X111861999Y-92454950D01*
X113361999Y-97854950D02*
X113361999Y-92454950D01*
%TO.C,D17*%
X59524999Y-92454950D02*
X59524999Y-97854950D01*
X59524999Y-97854950D02*
X61024999Y-97854950D01*
X59774999Y-94654950D02*
X60774999Y-94654950D01*
X59774999Y-95654950D02*
X60774999Y-95654950D01*
X60274999Y-95554950D02*
X59774999Y-94654950D01*
X60774999Y-94654950D02*
X60274999Y-95554950D01*
X61024999Y-92454950D02*
X59524999Y-92454950D01*
X61024999Y-97854950D02*
X61024999Y-92454950D01*
%TO.C,D72*%
X238759249Y-149504950D02*
X238759249Y-154904950D01*
X238759249Y-154904950D02*
X240259249Y-154904950D01*
X239009249Y-151704950D02*
X240009249Y-151704950D01*
X239009249Y-152704950D02*
X240009249Y-152704950D01*
X239509249Y-152604950D02*
X239009249Y-151704950D01*
X240009249Y-151704950D02*
X239509249Y-152604950D01*
X240259249Y-149504950D02*
X238759249Y-149504950D01*
X240259249Y-154904950D02*
X240259249Y-149504950D01*
%TO.C,D30*%
X343259249Y-92454950D02*
X343259249Y-97854950D01*
X343259249Y-97854950D02*
X344759249Y-97854950D01*
X343509249Y-94654950D02*
X344509249Y-94654950D01*
X343509249Y-95654950D02*
X344509249Y-95654950D01*
X344009249Y-95554950D02*
X343509249Y-94654950D01*
X344509249Y-94654950D02*
X344009249Y-95554950D01*
X344759249Y-92454950D02*
X343259249Y-92454950D01*
X344759249Y-97854950D02*
X344759249Y-92454950D01*
%TO.C,D63*%
X371759249Y-130504950D02*
X371759249Y-135904950D01*
X371759249Y-135904950D02*
X373259249Y-135904950D01*
X372009249Y-132704950D02*
X373009249Y-132704950D01*
X372009249Y-133704950D02*
X373009249Y-133704950D01*
X372509249Y-133604950D02*
X372009249Y-132704950D01*
X373009249Y-132704950D02*
X372509249Y-133604950D01*
X373259249Y-130504950D02*
X371759249Y-130504950D01*
X373259249Y-135904950D02*
X373259249Y-130504950D01*
%TO.C,D40*%
X175775000Y-114050000D02*
X175775000Y-119450000D01*
X175775000Y-119450000D02*
X177275000Y-119450000D01*
X176025000Y-116250000D02*
X177025000Y-116250000D01*
X176025000Y-117250000D02*
X177025000Y-117250000D01*
X176525000Y-117150000D02*
X176025000Y-116250000D01*
X177025000Y-116250000D02*
X176525000Y-117150000D01*
X177275000Y-114050000D02*
X175775000Y-114050000D01*
X177275000Y-119450000D02*
X177275000Y-114050000D01*
%TO.C,D66*%
X59524999Y-149504950D02*
X59524999Y-154904950D01*
X59524999Y-154904950D02*
X61024999Y-154904950D01*
X59774999Y-151704950D02*
X60774999Y-151704950D01*
X59774999Y-152704950D02*
X60774999Y-152704950D01*
X60274999Y-152604950D02*
X59774999Y-151704950D01*
X60774999Y-151704950D02*
X60274999Y-152604950D01*
X61024999Y-149504950D02*
X59524999Y-149504950D01*
X61024999Y-154904950D02*
X61024999Y-149504950D01*
%TD*%
D13*
%TO.C,D32*%
X391509249Y-98964950D03*
D14*
X391509249Y-91344950D03*
%TD*%
D13*
%TO.C,D67*%
X86461999Y-156014950D03*
D14*
X86461999Y-148394950D03*
%TD*%
D13*
%TO.C,D50*%
X60274999Y-137014950D03*
D14*
X60274999Y-129394950D03*
%TD*%
D13*
%TO.C,D73*%
X268034249Y-156014950D03*
D14*
X268034249Y-148394950D03*
%TD*%
D13*
%TO.C,D46*%
X329759249Y-117989950D03*
D14*
X329759249Y-110369950D03*
%TD*%
D13*
%TO.C,D38*%
X155361999Y-117989950D03*
D14*
X155361999Y-110369950D03*
%TD*%
D13*
%TO.C,D76*%
X334509249Y-156014950D03*
D14*
X334509249Y-148394950D03*
%TD*%
D13*
%TO.C,D74*%
X296509249Y-156014950D03*
D14*
X296509249Y-148394950D03*
%TD*%
D13*
%TO.C,D52*%
X126861999Y-137014950D03*
D14*
X126861999Y-129394950D03*
%TD*%
D13*
%TO.C,D39*%
X174361999Y-117989950D03*
D14*
X174361999Y-110369950D03*
%TD*%
D13*
%TO.C,D15*%
X372491000Y-79958000D03*
D14*
X372491000Y-72338000D03*
%TD*%
D13*
%TO.C,D44*%
X291759249Y-117989950D03*
D14*
X291759249Y-110369950D03*
%TD*%
D13*
%TO.C,D4*%
X141111999Y-79964950D03*
D14*
X141111999Y-72344950D03*
%TD*%
D13*
%TO.C,D43*%
X272759249Y-117989950D03*
D14*
X272759249Y-110369950D03*
%TD*%
D13*
%TO.C,D41*%
X234759249Y-117989950D03*
D14*
X234759249Y-110369950D03*
%TD*%
D13*
%TO.C,D1*%
X84111999Y-79964950D03*
D14*
X84111999Y-72344950D03*
%TD*%
D13*
%TO.C,D11*%
X296509249Y-79964950D03*
D14*
X296509249Y-72344950D03*
%TD*%
D13*
%TO.C,D51*%
X95961999Y-137014950D03*
D14*
X95961999Y-129394950D03*
%TD*%
D13*
%TO.C,D59*%
X282259249Y-137014950D03*
D14*
X282259249Y-129394950D03*
%TD*%
D13*
%TO.C,D9*%
X241600000Y-79110000D03*
D14*
X241600000Y-71490000D03*
%TD*%
D13*
%TO.C,D3*%
X122111999Y-79964950D03*
D14*
X122111999Y-72344950D03*
%TD*%
D13*
%TO.C,D42*%
X253759249Y-117989950D03*
D14*
X253759249Y-110369950D03*
%TD*%
D13*
%TO.C,D64*%
X391509249Y-137014950D03*
D14*
X391509249Y-129394950D03*
%TD*%
D13*
%TO.C,D23*%
X171795000Y-101590000D03*
D14*
X171795000Y-93970000D03*
%TD*%
D13*
%TO.C,D33*%
X41274999Y-117989950D03*
D14*
X41274999Y-110369950D03*
%TD*%
D13*
%TO.C,D8*%
X239509249Y-79964950D03*
D14*
X239509249Y-72344950D03*
%TD*%
D13*
%TO.C,D45*%
X310759249Y-117989950D03*
D14*
X310759249Y-110369950D03*
%TD*%
D13*
%TO.C,D65*%
X41274999Y-156014950D03*
D14*
X41274999Y-148394950D03*
%TD*%
D13*
%TO.C,D70*%
X162461999Y-156014950D03*
D14*
X162461999Y-148394950D03*
%TD*%
D13*
%TO.C,D24*%
X230009249Y-98964950D03*
D14*
X230009249Y-91344950D03*
%TD*%
D13*
%TO.C,D26*%
X268009249Y-98964950D03*
D14*
X268009249Y-91344950D03*
%TD*%
D13*
%TO.C,D6*%
X162600000Y-78210000D03*
D14*
X162600000Y-70590000D03*
%TD*%
D13*
%TO.C,D14*%
X363034249Y-79964950D03*
D14*
X363034249Y-72344950D03*
%TD*%
D13*
%TO.C,D12*%
X315509249Y-79964950D03*
D14*
X315509249Y-72344950D03*
%TD*%
D13*
%TO.C,D36*%
X117361999Y-117989950D03*
D14*
X117361999Y-110369950D03*
%TD*%
D13*
%TO.C,D29*%
X325009249Y-98964950D03*
D14*
X325009249Y-91344950D03*
%TD*%
D13*
%TO.C,D69*%
X126861999Y-156014950D03*
D14*
X126861999Y-148394950D03*
%TD*%
D13*
%TO.C,D20*%
X131611999Y-98964950D03*
D14*
X131611999Y-91344950D03*
%TD*%
D13*
%TO.C,D47*%
X360659249Y-117989950D03*
D14*
X360659249Y-110369950D03*
%TD*%
D13*
%TO.C,D62*%
X347550000Y-134260000D03*
D14*
X347550000Y-126640000D03*
%TD*%
D13*
%TO.C,D48*%
X391509249Y-117989950D03*
D14*
X391509249Y-110369950D03*
%TD*%
D13*
%TO.C,D22*%
X169611999Y-98964950D03*
D14*
X169611999Y-91344950D03*
%TD*%
D13*
%TO.C,D16*%
X41274999Y-98964950D03*
D14*
X41274999Y-91344950D03*
%TD*%
D13*
%TO.C,D49*%
X41274999Y-137014950D03*
D14*
X41274999Y-129394950D03*
%TD*%
D13*
%TO.C,D25*%
X249009249Y-98964950D03*
D14*
X249009249Y-91344950D03*
%TD*%
D13*
%TO.C,D53*%
X145861999Y-137014950D03*
D14*
X145861999Y-129394950D03*
%TD*%
D13*
%TO.C,D28*%
X306009249Y-98964950D03*
D14*
X306009249Y-91344950D03*
%TD*%
D13*
%TO.C,D7*%
X181255000Y-82565000D03*
D14*
X181255000Y-74945000D03*
%TD*%
D13*
%TO.C,D61*%
X320259249Y-137014950D03*
D14*
X320259249Y-129394950D03*
%TD*%
D13*
%TO.C,D37*%
X136361999Y-117989950D03*
D14*
X136361999Y-110369950D03*
%TD*%
D13*
%TO.C,D77*%
X353509249Y-156014950D03*
D14*
X353509249Y-148394950D03*
%TD*%
D13*
%TO.C,D10*%
X261000000Y-80410000D03*
D14*
X261000000Y-72790000D03*
%TD*%
D13*
%TO.C,D57*%
X244259249Y-137014950D03*
D14*
X244259249Y-129394950D03*
%TD*%
D13*
%TO.C,D75*%
X315509249Y-156014950D03*
D14*
X315509249Y-148394950D03*
%TD*%
D13*
%TO.C,D56*%
X186040000Y-138830000D03*
D14*
X186040000Y-131210000D03*
%TD*%
D13*
%TO.C,D60*%
X301259249Y-137014950D03*
D14*
X301259249Y-129394950D03*
%TD*%
D13*
%TO.C,D5*%
X143637000Y-78356000D03*
D14*
X143637000Y-70736000D03*
%TD*%
D13*
%TO.C,D35*%
X91211999Y-117989950D03*
D14*
X91211999Y-110369950D03*
%TD*%
D13*
%TO.C,D21*%
X150611999Y-98964950D03*
D14*
X150611999Y-91344950D03*
%TD*%
D13*
%TO.C,D13*%
X334509249Y-79964950D03*
D14*
X334509249Y-72344950D03*
%TD*%
D13*
%TO.C,D18*%
X88836999Y-98964950D03*
D14*
X88836999Y-91344950D03*
%TD*%
D13*
%TO.C,D27*%
X287009249Y-98964950D03*
D14*
X287009249Y-91344950D03*
%TD*%
D13*
%TO.C,D55*%
X183861999Y-137014950D03*
D14*
X183861999Y-129394950D03*
%TD*%
D13*
%TO.C,D54*%
X164861999Y-137014950D03*
D14*
X164861999Y-129394950D03*
%TD*%
D13*
%TO.C,D2*%
X103111999Y-79964950D03*
D14*
X103111999Y-72344950D03*
%TD*%
D13*
%TO.C,D79*%
X391509249Y-156014950D03*
D14*
X391509249Y-148394950D03*
%TD*%
D13*
%TO.C,D78*%
X372509249Y-156014950D03*
D14*
X372509249Y-148394950D03*
%TD*%
D13*
%TO.C,D34*%
X60274999Y-117989950D03*
D14*
X60274999Y-110369950D03*
%TD*%
D13*
%TO.C,D71*%
X179695000Y-156115000D03*
D14*
X179695000Y-148495000D03*
%TD*%
D13*
%TO.C,D58*%
X263259249Y-137014950D03*
D14*
X263259249Y-129394950D03*
%TD*%
D13*
%TO.C,D31*%
X367784249Y-98964950D03*
D14*
X367784249Y-91344950D03*
%TD*%
D13*
%TO.C,D68*%
X107861999Y-156014950D03*
D14*
X107861999Y-148394950D03*
%TD*%
D13*
%TO.C,D19*%
X112611999Y-98964950D03*
D14*
X112611999Y-91344950D03*
%TD*%
D13*
%TO.C,D17*%
X60274999Y-98964950D03*
D14*
X60274999Y-91344950D03*
%TD*%
D13*
%TO.C,D72*%
X239509249Y-156014950D03*
D14*
X239509249Y-148394950D03*
%TD*%
D13*
%TO.C,D30*%
X344009249Y-98964950D03*
D14*
X344009249Y-91344950D03*
%TD*%
D13*
%TO.C,D63*%
X372509249Y-137014950D03*
D14*
X372509249Y-129394950D03*
%TD*%
D13*
%TO.C,D40*%
X176525000Y-120560000D03*
D14*
X176525000Y-112940000D03*
%TD*%
M02*
