M48
; DRILL file {KiCad 8.0.8} date 2025-04-10T14:11:04+0900
; FORMAT={-:-/ absolute / inch / decimal}
; #@! TF.CreationDate,2025-04-10T14:11:04+09:00
; #@! TF.GenerationSoftware,Kicad,Pcbnew,8.0.8
; #@! TF.FileFunction,Plated,1,2,PTH
FMAT,2
INCH
; #@! TA.AperFunction,Plated,PTH,ViaDrill
T1C0.0118
; #@! TA.AperFunction,Plated,PTH,ComponentDrill
T2C0.0197
; #@! TA.AperFunction,Plated,PTH,ComponentDrill
T3C0.0320
; #@! TA.AperFunction,Plated,PTH,ComponentDrill
T4C0.0394
; #@! TA.AperFunction,Plated,PTH,ComponentDrill
T5C0.0591
%
G90
G05
T1
X0.97Y-3.1142
X0.97Y-6.05
X0.995Y-3.165
X1.0312Y-3.4385
X1.045Y-3.356
X1.061Y-6.1181
X1.065Y-5.3996
X1.0728Y-3.939
X1.0866Y-4.6634
X1.0945Y-2.6142
X1.1033Y-2.6772
X1.105Y-3.395
X1.1339Y-3.0866
X1.175Y-3.075
X1.1969Y-4.0709
X1.2126Y-2.8031
X1.2126Y-2.8661
X1.2835Y-2.8228
X1.345Y-3.0543
X1.3504Y-2.8465
X1.4094Y-4.7146
X1.4154Y-6.1614
X1.4173Y-4.5217
X1.4232Y-3.752
X1.4291Y-2.9449
X1.4685Y-2.9094
X1.4764Y-6.063
X1.5551Y-2.8543
X1.575Y-3.0343
X1.5984Y-2.7992
X1.675Y-3.0143
X1.7047Y-4.7165
X1.7224Y-4.0236
X1.7343Y-5.4902
X1.75Y-4.752
X1.775Y-2.9907
X1.7812Y-3.6572
X1.7812Y-4.1875
X1.7812Y-4.375
X1.7812Y-4.9365
X1.7812Y-5.1553
X1.7812Y-5.622
X1.8071Y-2.9449
X1.815Y-4.0236
X1.8169Y-4.752
X1.825Y-5.26
X1.8425Y-5.9961
X1.874Y-5.4213
X1.874Y-6.0906
X1.875Y-2.9671
X1.875Y-3.105
X1.8898Y-5.311
X1.8898Y-5.4902
X1.9252Y-2.9094
X1.9469Y-6.1555
X1.9626Y-4.6673
X1.9921Y-5.4213
X2.0787Y-2.9094
X2.0984Y-4.752
X2.115Y-3.935
X2.1634Y-4.8012
X2.1713Y-4.0236
X2.205Y-3.935
X2.2323Y-4.6063
X2.25Y-4.752
X2.2539Y-5.313
X2.2638Y-3.8622
X2.2795Y-2.6575
X2.2795Y-2.7087
X2.2795Y-2.8346
X2.313Y-4.0236
X2.365Y-3.31
X2.54Y-2.975
X2.54Y-3.8
X2.6083Y-3.485
X2.6083Y-3.92
X2.6083Y-4.0689
X2.6083Y-4.1634
X2.6083Y-4.4803
X2.6083Y-4.622
X2.6083Y-5.22
X2.6083Y-5.32
X2.6496Y-4.0236
X2.6496Y-5.3465
X2.6811Y-3.1299
X2.715Y-2.898
X2.7461Y-3.128
X2.7579Y-4.1083
X2.7638Y-3.4882
X2.8125Y-5.7158
X2.8228Y-3.437
X2.855Y-3.65
X2.885Y-3.28
X2.885Y-3.76
X2.905Y-6.01
X2.9062Y-3.6572
X2.9075Y-3.9823
X2.9114Y-6.065
X2.9587Y-4.0689
X3.0Y-4.1875
X3.0Y-4.4375
X3.055Y-3.72
X3.0571Y-3.2343
X3.0571Y-3.4213
X3.07Y-3.985
X3.07Y-4.125
X3.1Y-3.24
X3.126Y-5.502
X3.13Y-4.752
X3.1457Y-4.5079
X3.165Y-4.0236
X3.1875Y-4.9365
X3.1875Y-5.1553
X3.2Y-5.85
X3.2025Y-4.6825
X3.205Y-4.88
X3.24Y-4.75
X3.26Y-5.265
X3.35Y-5.495
X3.4449Y-3.1594
X3.4567Y-4.7047
X3.4688Y-2.878
X3.4688Y-3.3447
X3.4961Y-3.1594
X3.5768Y-5.4311
X3.75Y-3.815
X3.7657Y-6.0256
X3.8012Y-4.0236
X3.815Y-3.26
X3.82Y-6.155
X3.835Y-3.3957
X3.835Y-3.471
X3.835Y-3.636
X3.835Y-4.295
X3.865Y-3.815
X3.872Y-4.0236
X3.8916Y-3.2734
X3.9488Y-3.4331
X3.95Y-3.23
X3.985Y-3.925
X3.985Y-4.4
X4.04Y-6.0
X4.0512Y-5.4331
X4.0728Y-4.7067
X4.085Y-4.195
X4.1476Y-4.7677
X4.18Y-4.665
X4.1811Y-3.1594
X4.21Y-2.878
X4.21Y-3.286
X4.2402Y-3.1575
X4.27Y-4.0689
X4.2913Y-4.7677
X4.345Y-3.1934
X4.355Y-5.985
X4.38Y-3.155
X4.395Y-4.939
X4.41Y-4.0689
X4.415Y-3.37
X4.45Y-3.1934
X4.46Y-4.7677
X4.4626Y-5.5079
X4.4882Y-6.1875
X4.505Y-4.725
X4.54Y-4.7677
X4.54Y-5.41
X4.545Y-3.725
X4.545Y-6.155
X4.5512Y-4.0236
X4.5839Y-3.4821
X4.585Y-3.281
X4.585Y-3.631
X4.59Y-5.58
X4.62Y-3.84
X4.6324Y-4.1274
X4.6358Y-3.3268
X4.6457Y-3.2126
X4.67Y-3.39
X4.715Y-3.24
X4.7382Y-4.7697
X4.755Y-3.96
X4.77Y-4.385
X4.77Y-4.849
X4.7894Y-5.4488
X4.795Y-4.0236
X4.83Y-4.715
X4.84Y-4.155
X4.84Y-4.7697
X4.9311Y-3.1535
X4.935Y-4.5059
X4.96Y-2.878
X4.96Y-3.326
X4.9961Y-3.1535
X5.06Y-3.13
X5.06Y-3.1934
X5.075Y-5.165
X5.1083Y-5.4429
X5.1142Y-5.5079
X5.145Y-5.144
X5.145Y-5.617
X5.1791Y-5.5079
X5.185Y-5.395
X5.1949Y-5.4409
X5.22Y-3.335
X5.3Y-3.83
X5.3071Y-4.0236
X5.33Y-3.261
X5.33Y-3.631
X5.3319Y-3.4766
X5.345Y-5.4409
X5.38Y-3.83
X5.3819Y-4.0236
X5.382Y-4.122
X5.385Y-3.1934
X5.4075Y-3.2992
X5.41Y-3.035
X5.43Y-3.915
X5.4478Y-3.1388
X5.47Y-4.455
X5.4803Y-3.2283
X5.4862Y-4.7697
X5.52Y-4.375
X5.5217Y-4.8524
X5.565Y-4.505
X5.5669Y-4.7697
X5.61Y-3.23
X5.61Y-3.335
X5.615Y-4.65
X5.66Y-3.15
X5.66Y-3.1934
X5.705Y-3.36
X5.72Y-2.985
X5.755Y-2.775
X5.755Y-4.15
X5.76Y-4.0827
X5.7835Y-2.985
X5.7953Y-2.6614
X5.835Y-5.685
X5.855Y-4.0827
X5.9081Y-4.7283
X5.9094Y-6.0118
X5.935Y-6.155
X5.937Y-5.4882
X5.96Y-4.8091
X5.9724Y-5.5335
X6.02Y-4.88
X6.035Y-5.41
X6.06Y-3.74
X6.0669Y-4.0236
X6.085Y-4.8091
X6.095Y-2.635
X6.095Y-3.626
X6.12Y-3.0964
X6.12Y-3.1934
X6.1299Y-4.0236
X6.13Y-3.725
X6.1437Y-3.2874
X6.15Y-4.0827
X6.19Y-6.015
X6.205Y-4.2
X6.2396Y-2.7554
X6.2461Y-3.2618
X6.265Y-4.375
X6.295Y-5.575
X6.3071Y-4.6457
X6.36Y-5.43
X6.372Y-4.7697
X6.385Y-5.335
X6.42Y-4.0827
X6.4252Y-3.18
X6.4528Y-5.4567
X6.4665Y-4.7697
X6.4941Y-3.18
X6.5Y-3.34
X6.54Y-4.845
X6.58Y-4.929
X6.6164Y-5.4682
X6.64Y-5.119
X6.655Y-4.845
X6.66Y-5.632
X6.665Y-3.2441
X6.6909Y-5.4665
X6.7028Y-5.3937
X6.705Y-5.255
X6.74Y-3.13
X6.77Y-3.035
X6.78Y-3.63
X6.8051Y-4.0531
X6.835Y-3.315
X6.8563Y-3.2441
X6.87Y-3.42
X6.875Y-3.31
X6.885Y-5.4547
X6.9336Y-3.2014
X6.945Y-3.905
X6.945Y-4.18
X6.955Y-2.705
X6.96Y-3.395
X6.985Y-5.635
X6.9862Y-3.3274
X7.0Y-4.39
X7.015Y-3.085
X7.0186Y-3.2864
X7.055Y-2.805
X7.11Y-5.26
X7.1299Y-3.315
X7.13Y-3.351
X7.16Y-4.205
X7.18Y-4.675
X7.1909Y-4.7795
X7.205Y-2.868
X7.2402Y-3.1535
X7.28Y-4.804
X7.2953Y-6.0591
X7.305Y-6.11
X7.3583Y-5.5689
X7.385Y-5.119
X7.385Y-5.687
X7.42Y-4.87
X7.505Y-4.63
X7.51Y-5.41
X7.58Y-3.005
X7.645Y-6.01
X7.66Y-2.605
X7.765Y-5.255
X8.555Y-3.815
X8.785Y-4.105
X8.815Y-4.5
X8.845Y-3.765
X8.8634Y-6.1819
X8.88Y-3.18
X8.885Y-2.7
X8.91Y-3.54
X8.945Y-3.365
X8.955Y-4.105
X9.115Y-3.505
X9.12Y-5.405
X9.19Y-3.85
X9.22Y-6.02
X9.25Y-3.845
X9.25Y-4.73
X9.26Y-4.83
X9.26Y-5.035
X9.27Y-3.205
X9.2874Y-6.1102
X9.29Y-3.98
X9.355Y-3.325
X9.455Y-4.73
X9.515Y-4.65
X9.5197Y-5.4921
X9.5276Y-5.3583
X9.6024Y-4.1496
X9.6024Y-4.2165
X9.6299Y-3.2047
X9.6614Y-5.2165
X9.6654Y-5.2756
X9.685Y-3.3228
X9.695Y-4.065
X9.695Y-5.33
X9.7323Y-5.189
X9.735Y-4.065
X9.735Y-5.245
X9.7717Y-2.7953
X9.81Y-5.315
X9.865Y-5.4
X9.865Y-5.8
X9.925Y-4.815
X9.96Y-5.49
X9.995Y-6.1
X10.022Y-6.2517
X10.035Y-5.58
X10.04Y-3.82
X10.08Y-6.215
X10.085Y-3.975
X10.085Y-5.535
X10.1063Y-2.7362
X10.126Y-2.9016
X10.126Y-3.1417
X10.126Y-3.285
X10.16Y-4.19
X10.16Y-5.215
X10.17Y-4.745
X10.27Y-4.16
X10.2717Y-4.7283
X10.3425Y-4.7283
X10.41Y-4.16
X10.4646Y-2.6417
X10.54Y-5.4
X10.545Y-3.975
X10.585Y-5.51
X10.635Y-4.625
X10.68Y-3.7
X10.7047Y-2.6299
X10.715Y-3.4173
X10.715Y-3.845
X10.78Y-3.805
X10.81Y-4.485
X10.81Y-5.795
X10.811Y-2.7402
X10.82Y-3.975
X10.8453Y-5.6024
X10.87Y-4.675
X10.875Y-5.245
X10.895Y-5.44
X10.905Y-4.455
X10.925Y-5.51
X10.93Y-4.61
X10.9646Y-5.3661
X10.98Y-4.74
X11.01Y-5.5
X11.05Y-4.5
X11.0591Y-6.1339
X11.085Y-4.71
X11.09Y-6.2362
X11.125Y-3.1299
X11.125Y-3.245
X11.1417Y-6.1969
X11.1614Y-5.2087
X11.18Y-4.105
X11.185Y-5.495
X11.21Y-6.175
X11.22Y-6.0
X11.2205Y-5.315
X11.26Y-5.19
X11.335Y-4.935
X11.355Y-4.83
X11.36Y-3.35
X11.4921Y-3.878
X11.4921Y-4.1102
X11.5Y-5.795
X11.51Y-4.725
X11.5118Y-5.4213
X11.545Y-3.98
X11.57Y-5.53
X11.58Y-3.215
X11.5866Y-3.9685
X11.635Y-4.705
X11.64Y-4.205
X11.6535Y-3.9685
X11.705Y-4.775
X11.71Y-5.61
X11.715Y-4.065
X11.7559Y-5.7087
X11.77Y-6.19
X11.811Y-5.6535
X11.835Y-4.71
X11.865Y-6.2362
X11.874Y-5.6102
X11.875Y-3.23
X11.878Y-5.5276
X11.935Y-3.175
X11.945Y-6.155
X11.9764Y-4.9252
X12.0039Y-5.5315
X12.01Y-5.5969
X12.0109Y-5.495
X12.0472Y-4.9252
X12.115Y-4.06
X12.1257Y-5.5532
X12.1417Y-4.2992
X12.15Y-3.86
X12.15Y-3.925
X12.165Y-5.49
X12.195Y-3.43
X12.195Y-3.825
X12.21Y-5.435
X12.2126Y-6.1575
X12.2441Y-5.8189
X12.2598Y-3.1496
X12.265Y-3.805
X12.3Y-3.98
X12.36Y-6.205
X12.3622Y-4.7362
X12.365Y-4.59
X12.365Y-4.6339
X12.38Y-5.25
X12.405Y-5.43
X12.425Y-4.525
X12.445Y-4.62
X12.4921Y-4.6457
X12.4961Y-3.3622
X12.505Y-5.43
X12.54Y-4.455
X12.59Y-4.14
X12.615Y-3.25
X12.615Y-5.475
X12.615Y-5.5564
X12.615Y-5.64
X12.6181Y-3.9449
X12.625Y-6.2362
X12.626Y-4.8071
X12.655Y-4.105
X12.67Y-4.735
X12.68Y-6.205
X12.7Y-5.54
X12.7047Y-3.937
X12.74Y-5.27
X12.75Y-5.2
X12.755Y-4.705
X12.79Y-5.025
X12.815Y-5.605
X12.83Y-4.615
X12.8307Y-3.4803
X12.84Y-4.555
X12.9Y-4.76
X12.96Y-5.025
X12.9606Y-3.4291
X12.9646Y-5.2283
X13.0039Y-5.2795
X13.015Y-4.11
X13.025Y-6.135
X13.035Y-3.99
X13.035Y-4.07
X13.0433Y-3.3937
X13.045Y-4.455
X13.0984Y-5.2795
X13.11Y-6.2
X13.14Y-4.14
X13.14Y-4.445
X13.14Y-4.645
X13.1496Y-5.2283
X13.1575Y-5.3641
X13.1614Y-5.31
X13.165Y-4.095
X13.1654Y-4.4016
X13.175Y-4.495
X13.19Y-5.63
X13.2Y-5.77
X13.23Y-5.505
X13.2992Y-4.495
X13.3031Y-4.3622
X13.3031Y-4.45
X13.35Y-6.2362
X13.36Y-3.03
X13.3701Y-4.63
X13.375Y-5.505
X13.385Y-4.59
X13.4252Y-3.8898
X13.435Y-6.17
X13.505Y-4.265
X13.5157Y-5.2953
X13.57Y-4.635
X13.585Y-3.485
X13.6Y-4.47
X13.63Y-4.64
X13.665Y-3.155
X13.69Y-4.535
X13.695Y-2.925
X13.74Y-3.055
X13.745Y-5.505
X13.765Y-3.925
X13.765Y-6.03
X13.77Y-4.205
X13.795Y-4.03
X13.825Y-3.37
X13.83Y-4.76
X13.8622Y-3.3425
X13.875Y-3.665
X13.88Y-3.445
X13.9Y-4.69
X13.9134Y-3.3937
X13.945Y-4.76
X13.9646Y-4.689
X13.97Y-3.82
X13.9907Y-4.656
X14.0Y-5.215
X14.0Y-5.285
X14.0315Y-6.1929
X14.05Y-5.685
X14.055Y-4.56
X14.075Y-5.655
X14.09Y-6.2362
X14.1Y-5.56
X14.1Y-5.625
X14.1075Y-4.9725
X14.1339Y-3.1142
X14.14Y-4.6772
X14.14Y-5.52
X14.145Y-5.69
X14.185Y-4.8071
X14.19Y-6.16
X14.2Y-4.495
X14.205Y-3.98
X14.205Y-5.52
X14.235Y-4.71
X14.235Y-5.405
X14.265Y-4.565
X14.265Y-5.475
X14.305Y-4.495
X14.38Y-3.81
X14.385Y-5.58
X14.43Y-5.58
X14.53Y-5.31
X14.53Y-6.06
X14.565Y-5.425
X14.565Y-5.575
X14.665Y-3.72
X14.6693Y-3.7795
X14.7126Y-3.6142
X14.7165Y-3.8268
X14.77Y-5.625
X14.7756Y-3.6772
X14.795Y-5.295
X14.82Y-3.05
X14.835Y-3.94
X14.835Y-4.675
X14.84Y-5.38
X14.855Y-6.235
X14.865Y-4.015
X14.874Y-5.689
X14.88Y-5.505
X14.885Y-5.265
X14.915Y-6.205
X14.92Y-3.815
X14.925Y-4.555
X14.95Y-5.46
X15.03Y-5.46
X15.0433Y-4.7795
X15.189Y-5.4173
X15.248Y-5.815
X15.265Y-3.985
T3
X1.175Y-2.588
X1.175Y-3.1872
X1.275Y-2.588
X1.275Y-3.1872
X1.375Y-2.588
X1.375Y-3.1872
X1.475Y-2.588
X1.475Y-3.1872
X1.575Y-2.588
X1.575Y-3.1872
X1.625Y-3.5963
X1.625Y-3.8963
X1.625Y-4.3453
X1.625Y-4.6453
X1.625Y-5.0943
X1.625Y-5.3943
X1.625Y-5.8423
X1.625Y-6.1423
X1.675Y-2.588
X1.675Y-3.1872
X1.775Y-2.588
X1.775Y-3.1872
X1.875Y-2.588
X1.875Y-3.1872
X1.975Y-2.588
X1.975Y-3.1872
X2.075Y-2.588
X2.075Y-3.1872
X2.175Y-2.588
X2.175Y-3.1872
X2.275Y-2.588
X2.275Y-3.1872
X2.373Y-3.5963
X2.373Y-3.8963
X2.373Y-4.3453
X2.373Y-4.6453
X2.373Y-5.0943
X2.373Y-5.3943
X2.373Y-5.8423
X2.373Y-6.1423
X3.3115Y-2.8482
X3.3115Y-3.1482
X3.404Y-5.8423
X3.404Y-6.1423
X3.4975Y-3.5963
X3.4975Y-3.8963
X3.591Y-4.3453
X3.591Y-4.6453
X3.778Y-5.0943
X3.778Y-5.3943
X4.0595Y-2.8482
X4.0595Y-3.1482
X4.2465Y-5.8423
X4.2465Y-6.1423
X4.4335Y-3.5963
X4.4335Y-3.8963
X4.6206Y-4.3453
X4.6206Y-4.6453
X4.8076Y-2.8482
X4.8076Y-3.1482
X4.9946Y-5.0943
X4.9946Y-5.3943
X4.9946Y-5.8423
X4.9946Y-6.1423
X5.1816Y-3.5963
X5.1816Y-3.8963
X5.3686Y-4.3453
X5.3686Y-4.6453
X5.5556Y-2.8482
X5.5556Y-3.1482
X5.655Y-2.7849
X5.655Y-3.0849
X5.7426Y-5.0943
X5.7426Y-5.3943
X5.9296Y-3.5963
X5.9296Y-3.8963
X6.1166Y-4.3453
X6.1166Y-4.6453
X6.3961Y-5.8423
X6.3961Y-6.1423
X6.4016Y-2.7791
X6.4016Y-3.0791
X6.4906Y-5.0943
X6.4906Y-5.3943
X6.6776Y-3.5963
X6.6776Y-3.8963
X6.7636Y-3.6996
X6.7636Y-3.9996
X6.8646Y-4.3453
X6.8646Y-4.6453
X6.9498Y-4.4465
X6.9498Y-4.7465
X7.0746Y-5.8463
X7.0746Y-6.1463
X7.136Y-2.9506
X7.136Y-3.2506
X7.2387Y-5.0943
X7.2387Y-5.3943
X7.3244Y-5.1657
X7.3244Y-5.4657
X9.0555Y-3.5963
X9.0555Y-3.8963
X9.2425Y-4.3453
X9.2425Y-4.6453
X9.4295Y-2.8482
X9.4295Y-3.1482
X9.4295Y-5.8423
X9.4295Y-6.1423
X9.5118Y-2.8146
X9.5118Y-3.1146
X9.6165Y-5.0943
X9.6165Y-5.3943
X9.8035Y-3.5963
X9.8035Y-3.8963
X9.9905Y-4.3453
X9.9905Y-4.6453
X10.2756Y-2.8657
X10.2756Y-3.1657
X10.3645Y-5.0943
X10.3645Y-5.3943
X10.5515Y-3.5963
X10.5515Y-3.8963
X10.5525Y-5.8423
X10.5525Y-6.1423
X10.7386Y-4.3453
X10.7386Y-4.6453
X11.1126Y-5.0943
X11.1126Y-5.3943
X11.2996Y-3.5963
X11.2996Y-3.8963
X11.4866Y-4.3453
X11.4866Y-4.6453
X11.6736Y-2.8482
X11.6736Y-3.1482
X11.6736Y-5.8423
X11.6736Y-6.1423
X11.8606Y-5.0943
X11.8606Y-5.3943
X12.0476Y-3.5963
X12.0476Y-3.8963
X12.2346Y-4.3453
X12.2346Y-4.6453
X12.4216Y-2.8482
X12.4216Y-3.1482
X12.4216Y-5.8423
X12.4216Y-6.1423
X12.6086Y-5.0943
X12.6086Y-5.3943
X12.7956Y-3.5963
X12.7956Y-3.8963
X12.9826Y-4.3453
X12.9826Y-4.6453
X13.0Y-4.8461
X13.0Y-5.4453
X13.1Y-4.8461
X13.1Y-5.4453
X13.1697Y-2.8482
X13.1697Y-3.1482
X13.1697Y-5.8423
X13.1697Y-6.1423
X13.2Y-4.8461
X13.2Y-5.4453
X13.3Y-4.8461
X13.3Y-5.4453
X13.4Y-4.8461
X13.4Y-5.4453
X13.5Y-4.8461
X13.5Y-5.4453
X13.5437Y-3.5963
X13.5437Y-3.8963
X13.6Y-4.8461
X13.6Y-5.4453
X13.6831Y-4.9858
X13.6831Y-5.2858
X13.7Y-4.8461
X13.7Y-5.4453
X13.8Y-4.8461
X13.8Y-5.4453
X13.9Y-4.8461
X13.9Y-5.4453
X13.9177Y-5.8423
X13.9177Y-6.1423
X14.0Y-4.8461
X14.0Y-5.4453
X14.1Y-4.8461
X14.1Y-5.4453
X14.1992Y-4.3453
X14.1992Y-4.6453
X14.2927Y-2.8482
X14.2927Y-3.1482
X14.4797Y-3.5963
X14.4797Y-3.8963
X14.665Y-2.848
X14.665Y-3.148
X14.6657Y-5.0943
X14.6657Y-5.3943
X14.6657Y-5.8423
X14.6657Y-6.1423
X15.4137Y-3.5963
X15.4137Y-3.8963
X15.4137Y-4.3453
X15.4137Y-4.6453
X15.4137Y-5.0943
X15.4137Y-5.3943
X15.4137Y-5.8423
X15.4137Y-6.1423
T4
X0.9996Y-2.6897
X0.9996Y-2.7897
X0.9996Y-2.8897
X0.9996Y-2.9897
X6.2004Y-2.6651
X6.3004Y-2.6651
X6.4004Y-2.6651
X6.5004Y-2.6651
X7.0368Y-2.6181
X7.1368Y-2.6181
X9.5093Y-2.6142
X9.6093Y-2.6142
X10.0921Y-2.6654
X10.1921Y-2.6654
X10.2921Y-2.6654
X10.3921Y-2.6654
X14.5762Y-4.4921
X14.6762Y-4.4921
T2
G00X15.0822Y-2.5644
M15
G01X15.0625Y-2.5644
M16
G05
G00X15.0822Y-3.1589
M15
G01X15.0625Y-3.1589
M16
G05
G00X15.1806Y-3.1589
M15
G01X15.1609Y-3.1589
M16
G05
G00X15.2791Y-2.5644
M15
G01X15.2594Y-2.5644
M16
G05
G00X15.2791Y-3.1589
M15
G01X15.2594Y-3.1589
M16
G05
T5
G00X14.8755Y-2.8478
M15
G01X14.8755Y-2.8793
M16
G05
G00X15.4661Y-2.8478
M15
G01X15.4661Y-2.8793
M16
G05
M30
