M48
; DRILL file {KiCad 8.0.8} date 2025-04-15T16:42:05+0900
; FORMAT={-:-/ absolute / inch / decimal}
; #@! TF.CreationDate,2025-04-15T16:42:05+09:00
; #@! TF.GenerationSoftware,Kicad,Pcbnew,8.0.8
; #@! TF.FileFunction,Plated,1,2,PTH
FMAT,2
INCH
; #@! TA.AperFunction,Plated,PTH,ViaDrill
T1C0.0118
; #@! TA.AperFunction,Plated,PTH,ComponentDrill
T2C0.0197
; #@! TA.AperFunction,Plated,PTH,ComponentDrill
T3C0.0320
; #@! TA.AperFunction,Plated,PTH,ComponentDrill
T4C0.0394
; #@! TA.AperFunction,Plated,PTH,ComponentDrill
T5C0.0591
%
G90
G05
T1
X7.595Y-3.815
X7.8007Y-4.105
X7.829Y-4.517
X7.88Y-3.76
X7.88Y-4.03
X7.89Y-3.6
X7.895Y-4.275
X7.8957Y-3.18
X7.951Y-6.171
X7.9607Y-3.365
X7.97Y-2.7
X7.9707Y-4.105
X8.005Y-3.545
X8.045Y-4.465
X8.08Y-4.755
X8.115Y-4.305
X8.1307Y-3.505
X8.1357Y-5.405
X8.17Y-4.71
X8.2057Y-3.85
X8.2357Y-6.02
X8.2657Y-3.845
X8.2657Y-4.73
X8.2757Y-4.83
X8.2757Y-5.035
X8.2857Y-3.205
X8.3031Y-6.1102
X8.3057Y-3.98
X8.3104Y-3.3854
X8.4707Y-4.73
X8.5307Y-4.65
X8.5354Y-5.4921
X8.5433Y-5.3583
X8.6181Y-4.1496
X8.6181Y-4.2165
X8.6457Y-3.2047
X8.6772Y-5.2165
X8.6811Y-5.2756
X8.7008Y-3.3228
X8.7107Y-4.065
X8.7107Y-5.33
X8.748Y-5.189
X8.7507Y-4.065
X8.7507Y-5.245
X8.7874Y-2.7953
X8.8257Y-5.315
X8.8807Y-5.4
X8.8807Y-5.8
X8.885Y-4.02
X8.885Y-4.065
X8.9407Y-4.815
X8.9696Y-3.35
X8.9696Y-3.475
X8.9757Y-5.49
X9.0107Y-6.1
X9.0378Y-6.228
X9.0507Y-5.58
X9.055Y-4.02
X9.055Y-4.065
X9.0557Y-3.82
X9.094Y-6.193
X9.1007Y-3.975
X9.1007Y-5.535
X9.122Y-2.7362
X9.1417Y-2.9016
X9.1417Y-3.1417
X9.1417Y-3.285
X9.1757Y-4.19
X9.1757Y-5.215
X9.1857Y-4.745
X9.2283Y-3.355
X9.2283Y-3.4676
X9.2857Y-4.16
X9.2874Y-4.7283
X9.35Y-2.84
X9.3583Y-4.7283
X9.4257Y-4.16
X9.44Y-2.735
X9.45Y-2.81
X9.5557Y-5.4
X9.5607Y-3.975
X9.6007Y-5.51
X9.645Y-4.775
X9.6507Y-4.625
X9.675Y-3.105
X9.6957Y-3.7
X9.7205Y-2.6299
X9.7304Y-5.7196
X9.7307Y-3.4173
X9.7307Y-3.845
X9.7957Y-3.805
X9.8257Y-4.485
X9.8268Y-2.7402
X9.83Y-3.105
X9.861Y-5.685
X9.8857Y-4.675
X9.8907Y-5.245
X9.9107Y-5.44
X9.9207Y-4.455
X9.9257Y-5.175
X9.9407Y-5.51
X9.945Y-4.775
X9.9803Y-5.3661
X9.985Y-4.605
X9.9854Y-5.0354
X10.0Y-3.055
X10.0257Y-5.5
X10.035Y-4.74
X10.0657Y-4.5
X10.0748Y-6.1339
X10.075Y-3.975
X10.0917Y-3.065
X10.0917Y-3.175
X10.1007Y-4.71
X10.1068Y-3.867
X10.115Y-4.105
X10.12Y-6.2174
X10.1407Y-3.1299
X10.1407Y-3.245
X10.16Y-4.14
X10.17Y-4.715
X10.17Y-4.775
X10.17Y-6.175
X10.1771Y-5.2087
X10.2007Y-5.495
X10.205Y-3.835
X10.2257Y-6.175
X10.235Y-4.83
X10.2357Y-6.0
X10.2362Y-5.315
X10.2757Y-5.19
X10.315Y-4.715
X10.315Y-4.775
X10.3507Y-4.935
X10.3757Y-3.35
X10.425Y-4.105
X10.5079Y-3.878
X10.5079Y-4.205
X10.5157Y-5.795
X10.5257Y-4.725
X10.5276Y-5.4213
X10.5607Y-3.98
X10.5857Y-5.53
X10.5957Y-3.215
X10.6024Y-3.9685
X10.6507Y-4.705
X10.6557Y-4.205
X10.6693Y-3.9685
X10.69Y-4.02
X10.7207Y-4.775
X10.7257Y-5.61
X10.7307Y-4.065
X10.75Y-4.15
X10.7717Y-5.7087
X10.785Y-6.165
X10.8Y-3.235
X10.8268Y-5.6535
X10.8507Y-4.71
X10.865Y-6.2174
X10.8898Y-5.6102
X10.8907Y-3.25
X10.8937Y-5.5276
X10.9075Y-4.1075
X10.935Y-3.23
X10.9507Y-3.175
X10.9607Y-6.155
X10.9921Y-4.9252
X11.0197Y-5.5315
X11.0257Y-5.5969
X11.0267Y-5.495
X11.063Y-4.9252
X11.095Y-4.02
X11.1307Y-4.06
X11.1415Y-5.5532
X11.1575Y-4.2992
X11.1657Y-3.86
X11.1657Y-3.925
X11.1807Y-5.49
X11.2107Y-3.43
X11.2107Y-3.825
X11.2257Y-5.435
X11.2283Y-6.1575
X11.2598Y-5.8189
X11.2756Y-3.1496
X11.2807Y-3.805
X11.3157Y-3.98
X11.3757Y-6.18
X11.378Y-4.7362
X11.3807Y-4.59
X11.3807Y-4.6339
X11.3957Y-5.25
X11.4207Y-5.43
X11.4407Y-4.525
X11.4607Y-4.62
X11.5079Y-4.6457
X11.5118Y-3.3622
X11.5207Y-5.43
X11.5557Y-4.455
X11.6029Y-3.8661
X11.6057Y-4.14
X11.62Y-6.2174
X11.6307Y-3.25
X11.6307Y-5.475
X11.6307Y-5.5564
X11.6307Y-5.64
X11.6339Y-3.9449
X11.6417Y-4.8071
X11.6707Y-4.105
X11.6857Y-4.735
X11.7157Y-5.54
X11.7205Y-3.937
X11.7475Y-6.1875
X11.7557Y-5.27
X11.7657Y-5.2
X11.7707Y-4.705
X11.8057Y-5.025
X11.8307Y-5.605
X11.8457Y-4.615
X11.8465Y-3.4803
X11.8557Y-4.555
X11.9157Y-4.76
X11.9757Y-5.025
X11.9764Y-3.4291
X11.9803Y-5.2283
X12.0197Y-5.2795
X12.0307Y-4.11
X12.0407Y-6.135
X12.0507Y-3.99
X12.0507Y-4.07
X12.0591Y-3.3937
X12.0607Y-4.455
X12.1142Y-5.2795
X12.1257Y-6.185
X12.1557Y-4.14
X12.1557Y-4.445
X12.1557Y-4.645
X12.1654Y-5.2283
X12.1732Y-5.3641
X12.1772Y-5.31
X12.1807Y-4.095
X12.1811Y-4.4016
X12.1907Y-4.495
X12.2057Y-5.63
X12.2157Y-5.77
X12.2457Y-5.505
X12.315Y-4.495
X12.3189Y-4.3622
X12.3189Y-4.45
X12.355Y-6.2174
X12.3757Y-3.03
X12.3858Y-4.63
X12.3907Y-5.505
X12.4007Y-4.59
X12.4409Y-3.8898
X12.4507Y-6.17
X12.5207Y-4.265
X12.5315Y-5.2953
X12.5836Y-3.3879
X12.5857Y-4.635
X12.6007Y-3.485
X12.6157Y-4.47
X12.6457Y-4.64
X12.6557Y-3.8
X12.6807Y-3.155
X12.7057Y-4.535
X12.7107Y-2.925
X12.7279Y-3.3879
X12.7557Y-3.055
X12.7607Y-5.505
X12.7807Y-3.925
X12.7807Y-6.03
X12.7857Y-4.205
X12.8407Y-3.37
X12.8457Y-4.76
X12.855Y-4.06
X12.878Y-3.3425
X12.8907Y-3.665
X12.8957Y-3.445
X12.9157Y-4.69
X12.9291Y-3.3937
X12.9607Y-4.76
X12.9803Y-4.689
X12.9857Y-3.82
X13.0064Y-4.656
X13.0157Y-5.215
X13.0157Y-5.285
X13.04Y-6.17
X13.0657Y-5.685
X13.0707Y-4.56
X13.0757Y-5.29
X13.0907Y-5.655
X13.1057Y-6.2174
X13.1157Y-5.56
X13.1157Y-5.625
X13.1232Y-4.9725
X13.1429Y-5.3271
X13.1496Y-3.1142
X13.155Y-6.175
X13.1557Y-4.0107
X13.1557Y-4.6772
X13.1557Y-5.52
X13.1607Y-5.69
X13.2008Y-4.8071
X13.2057Y-6.16
X13.2157Y-4.495
X13.2207Y-5.52
X13.2507Y-4.71
X13.2507Y-5.405
X13.2807Y-4.155
X13.2807Y-4.435
X13.2807Y-4.565
X13.2807Y-5.475
X13.283Y-3.993
X13.31Y-4.615
X13.36Y-4.565
X13.3957Y-3.81
X13.3987Y-3.993
X13.4007Y-5.58
X13.42Y-4.495
X13.4457Y-5.58
X13.515Y-6.195
X13.5457Y-5.31
X13.5457Y-6.06
X13.5807Y-5.425
X13.5807Y-5.575
X13.6198Y-3.8448
X13.655Y-3.755
X13.6919Y-3.88
X13.7283Y-3.6142
X13.74Y-4.07
X13.74Y-4.19
X13.7857Y-5.625
X13.7913Y-3.6772
X13.8107Y-4.19
X13.8107Y-5.295
X13.8357Y-3.05
X13.8507Y-3.94
X13.8507Y-4.675
X13.8557Y-5.38
X13.8807Y-4.015
X13.885Y-4.115
X13.8898Y-5.689
X13.8957Y-5.505
X13.9007Y-5.265
X13.9357Y-3.815
X13.9407Y-4.555
X13.9429Y-6.1936
X13.9657Y-5.46
X14.0591Y-4.7795
X14.12Y-5.46
X14.2047Y-5.4173
X14.221Y-3.8661
X14.235Y-4.015
X14.2638Y-5.815
X14.315Y-3.815
T3
X8.0712Y-3.5963
X8.0712Y-3.8963
X8.2582Y-4.3453
X8.2582Y-4.6453
X8.4452Y-2.8482
X8.4452Y-3.1482
X8.4452Y-5.8423
X8.4452Y-6.1423
X8.5276Y-2.8146
X8.5276Y-3.1146
X8.6323Y-5.0943
X8.6323Y-5.3943
X8.8193Y-3.5963
X8.8193Y-3.8963
X9.0063Y-4.3453
X9.0063Y-4.6453
X9.2913Y-2.8657
X9.2913Y-3.1657
X9.3803Y-5.0943
X9.3803Y-5.3943
X9.5673Y-3.5963
X9.5673Y-3.8963
X9.5683Y-5.8423
X9.5683Y-6.1423
X9.7543Y-4.3453
X9.7543Y-4.6453
X10.1283Y-5.0943
X10.1283Y-5.3943
X10.3153Y-3.5963
X10.3153Y-3.8963
X10.5023Y-4.3453
X10.5023Y-4.6453
X10.6893Y-2.8482
X10.6893Y-3.1482
X10.6893Y-5.8423
X10.6893Y-6.1423
X10.8763Y-5.0943
X10.8763Y-5.3943
X11.0634Y-3.5963
X11.0634Y-3.8963
X11.2504Y-4.3453
X11.2504Y-4.6453
X11.4374Y-2.8482
X11.4374Y-3.1482
X11.4374Y-5.8423
X11.4374Y-6.1423
X11.6244Y-5.0943
X11.6244Y-5.3943
X11.8114Y-3.5963
X11.8114Y-3.8963
X11.9984Y-4.3453
X11.9984Y-4.6453
X12.0157Y-4.8461
X12.0157Y-5.4453
X12.1157Y-4.8461
X12.1157Y-5.4453
X12.1854Y-2.8482
X12.1854Y-3.1482
X12.1854Y-5.8423
X12.1854Y-6.1423
X12.2157Y-4.8461
X12.2157Y-5.4453
X12.3157Y-4.8461
X12.3157Y-5.4453
X12.4157Y-4.8461
X12.4157Y-5.4453
X12.5157Y-4.8461
X12.5157Y-5.4453
X12.5594Y-3.5963
X12.5594Y-3.8963
X12.6157Y-4.8461
X12.6157Y-5.4453
X12.6988Y-4.9858
X12.6988Y-5.2858
X12.7157Y-4.8461
X12.7157Y-5.4453
X12.8157Y-4.8461
X12.8157Y-5.4453
X12.9157Y-4.8461
X12.9157Y-5.4453
X12.9334Y-5.8423
X12.9334Y-6.1423
X13.0157Y-4.8461
X13.0157Y-5.4453
X13.1157Y-4.8461
X13.1157Y-5.4453
X13.2149Y-4.3453
X13.2149Y-4.6453
X13.3084Y-2.8482
X13.3084Y-3.1482
X13.4954Y-3.5963
X13.4954Y-3.8963
X13.6807Y-2.848
X13.6807Y-3.148
X13.6815Y-5.0943
X13.6815Y-5.3943
X13.6815Y-5.8423
X13.6815Y-6.1423
X14.4295Y-3.5963
X14.4295Y-3.8963
X14.4295Y-4.3453
X14.4295Y-4.6453
X14.4295Y-5.0943
X14.4295Y-5.3943
X14.4295Y-5.8423
X14.4295Y-6.1423
T4
X8.525Y-2.6142
X8.625Y-2.6142
X9.1079Y-2.6654
X9.2079Y-2.6654
X9.3079Y-2.6654
X9.4079Y-2.6654
X13.5919Y-4.4921
X13.6919Y-4.4921
T2
G00X14.1009Y-2.526
M15
G01X14.0812Y-2.526
M16
G05
G00X14.1009Y-3.1205
M15
G01X14.0812Y-3.1205
M16
G05
G00X14.1993Y-3.1205
M15
G01X14.1796Y-3.1205
M16
G05
G00X14.2978Y-2.526
M15
G01X14.2781Y-2.526
M16
G05
G00X14.2978Y-3.1205
M15
G01X14.2781Y-3.1205
M16
G05
T5
G00X13.8942Y-2.8409
M15
G01X13.8942Y-2.8094
M16
G05
G00X14.4848Y-2.8409
M15
G01X14.4848Y-2.8094
M16
G05
M30
