%TF.GenerationSoftware,KiCad,Pcbnew,8.0.8*%
%TF.CreationDate,2025-04-15T16:26:55+09:00*%
%TF.ProjectId,sswkbd_wiring,7373776b-6264-45f7-9769-72696e672e6b,rev?*%
%TF.SameCoordinates,Original*%
%TF.FileFunction,Soldermask,Top*%
%TF.FilePolarity,Negative*%
%FSLAX46Y46*%
G04 Gerber Fmt 4.6, Leading zero omitted, Abs format (unit mm)*
G04 Created by KiCad (PCBNEW 8.0.8) date 2025-04-15 16:26:55*
%MOMM*%
%LPD*%
G01*
G04 APERTURE LIST*
%ADD10C,0.500000*%
%ADD11R,1.397000X1.397000*%
%ADD12R,0.950000X1.300000*%
%ADD13C,1.397000*%
%ADD14C,1.750000*%
%ADD15C,3.000000*%
%ADD16C,3.987800*%
%ADD17C,3.048000*%
%ADD18R,1.700000X1.700000*%
%ADD19O,1.700000X1.700000*%
%ADD20C,1.524000*%
%ADD21R,2.500000X2.500000*%
%ADD22C,1.500000*%
G04 APERTURE END LIST*
D10*
%TO.C,BT1*%
X69505796Y-158960000D03*
X68714129Y-158960000D03*
X67922463Y-158960000D03*
X67130796Y-158960000D03*
X66339129Y-158960000D03*
X65547463Y-158960000D03*
X64755796Y-158960000D03*
%TD*%
%TO.C,BT1*%
X175641196Y-158960000D03*
X174849529Y-158960000D03*
X174057863Y-158960000D03*
X173266196Y-158960000D03*
X172474529Y-158960000D03*
X171682863Y-158960000D03*
X170891196Y-158960000D03*
%TD*%
%TO.C,BT1*%
X225704596Y-158960000D03*
X224912929Y-158960000D03*
X224121263Y-158960000D03*
X223329596Y-158960000D03*
X222537929Y-158960000D03*
X221746263Y-158960000D03*
X220954596Y-158960000D03*
%TD*%
%TO.C,BT1*%
X363956796Y-158960000D03*
X363165129Y-158960000D03*
X362373463Y-158960000D03*
X361581796Y-158960000D03*
X360790129Y-158960000D03*
X359998463Y-158960000D03*
X359206796Y-158960000D03*
%TD*%
%TO.C,BT1*%
X327634404Y-64100000D03*
X328426071Y-64100000D03*
X329217737Y-64100000D03*
X330009404Y-64100000D03*
X330801071Y-64100000D03*
X331592737Y-64100000D03*
X332384404Y-64100000D03*
%TD*%
%TO.C,BT1*%
X232775004Y-63100000D03*
X233566671Y-63100000D03*
X234358337Y-63100000D03*
X235150004Y-63100000D03*
X235941671Y-63100000D03*
X236733337Y-63100000D03*
X237525004Y-63100000D03*
%TD*%
%TO.C,BT1*%
X158997004Y-63100000D03*
X159788671Y-63100000D03*
X160580337Y-63100000D03*
X161372004Y-63100000D03*
X162163671Y-63100000D03*
X162955337Y-63100000D03*
X163747004Y-63100000D03*
%TD*%
%TO.C,BT1*%
X59247004Y-63100000D03*
X60038671Y-63100000D03*
X60830337Y-63100000D03*
X61622004Y-63100000D03*
X62413671Y-63100000D03*
X63205337Y-63100000D03*
X63997004Y-63100000D03*
%TD*%
D11*
%TO.C,D32*%
X366509249Y-98964950D03*
D12*
X366509249Y-96929950D03*
X366509249Y-93379950D03*
D13*
X366509249Y-91344950D03*
%TD*%
D14*
%TO.C,SW13*%
X296333000Y-73760000D03*
D15*
X297603000Y-71220000D03*
D16*
X301413000Y-73760000D03*
D15*
X303953000Y-68680000D03*
D14*
X306493000Y-73760000D03*
%TD*%
D11*
%TO.C,D67*%
X86461999Y-156014950D03*
D12*
X86461999Y-153979950D03*
X86461999Y-150429950D03*
D13*
X86461999Y-148394950D03*
%TD*%
D11*
%TO.C,D50*%
X60336999Y-137014950D03*
D12*
X60336999Y-134979950D03*
X60336999Y-131429950D03*
D13*
X60336999Y-129394950D03*
%TD*%
D11*
%TO.C,D73*%
X243034249Y-156014950D03*
D12*
X243034249Y-153979950D03*
X243034249Y-150429950D03*
D13*
X243034249Y-148394950D03*
%TD*%
D11*
%TO.C,D46*%
X304759249Y-117989950D03*
D12*
X304759249Y-115954950D03*
X304759249Y-112404950D03*
D13*
X304759249Y-110369950D03*
%TD*%
D14*
%TO.C,SW6*%
X176071250Y-73760000D03*
D15*
X174801250Y-76300000D03*
D16*
X170991250Y-73760000D03*
D15*
X168451250Y-78840000D03*
D14*
X165911250Y-73760000D03*
%TD*%
D11*
%TO.C,D38*%
X155361999Y-117989950D03*
D12*
X155361999Y-115954950D03*
X155361999Y-112404950D03*
D13*
X155361999Y-110369950D03*
%TD*%
D11*
%TO.C,D76*%
X309509249Y-156014950D03*
D12*
X309509249Y-153979950D03*
X309509249Y-150429950D03*
D13*
X309509249Y-148394950D03*
%TD*%
D11*
%TO.C,D74*%
X271509249Y-156014950D03*
D12*
X271509249Y-153979950D03*
X271509249Y-150429950D03*
D13*
X271509249Y-148394950D03*
%TD*%
D11*
%TO.C,D52*%
X126861999Y-137014950D03*
D12*
X126861999Y-134979950D03*
X126861999Y-131429950D03*
D13*
X126861999Y-129394950D03*
%TD*%
D11*
%TO.C,D39*%
X174361999Y-117989950D03*
D12*
X174361999Y-115954950D03*
X174361999Y-112404950D03*
D13*
X174361999Y-110369950D03*
%TD*%
D11*
%TO.C,D15*%
X347491000Y-79958000D03*
D12*
X347491000Y-77923000D03*
X347491000Y-74373000D03*
D13*
X347491000Y-72338000D03*
%TD*%
D11*
%TO.C,D44*%
X266759249Y-117989950D03*
D12*
X266759249Y-115954950D03*
X266759249Y-112404950D03*
D13*
X266759249Y-110369950D03*
%TD*%
D14*
%TO.C,SW50*%
X47160750Y-130760000D03*
D15*
X48430750Y-128220000D03*
D16*
X52240750Y-130760000D03*
D15*
X54780750Y-125680000D03*
D14*
X57320750Y-130760000D03*
%TD*%
%TO.C,SW28*%
X267833000Y-92760000D03*
D15*
X269103000Y-90220000D03*
D16*
X272913000Y-92760000D03*
D15*
X275453000Y-87680000D03*
D14*
X277993000Y-92760000D03*
%TD*%
%TO.C,SW75*%
X277333000Y-149760000D03*
D15*
X278603000Y-147220000D03*
D16*
X282413000Y-149760000D03*
D15*
X284953000Y-144680000D03*
D14*
X287493000Y-149760000D03*
%TD*%
D11*
%TO.C,D4*%
X141111999Y-79964950D03*
D12*
X141111999Y-77929950D03*
X141111999Y-74379950D03*
D13*
X141111999Y-72344950D03*
%TD*%
D14*
%TO.C,SW2*%
X89910750Y-73760000D03*
D15*
X91180750Y-71220000D03*
D16*
X94990750Y-73760000D03*
D15*
X97530750Y-68680000D03*
D14*
X100070750Y-73760000D03*
%TD*%
%TO.C,SW22*%
X156410750Y-92760000D03*
D15*
X157680750Y-90220000D03*
D16*
X161490750Y-92760000D03*
D15*
X164030750Y-87680000D03*
D14*
X166570750Y-92760000D03*
%TD*%
D11*
%TO.C,D43*%
X247759249Y-117989950D03*
D12*
X247759249Y-115954950D03*
X247759249Y-112404950D03*
D13*
X247759249Y-110369950D03*
%TD*%
D14*
%TO.C,SW53*%
X132660750Y-130760000D03*
D15*
X133930750Y-128220000D03*
D16*
X137740750Y-130760000D03*
D15*
X140280750Y-125680000D03*
D14*
X142820750Y-130760000D03*
%TD*%
%TO.C,SW66*%
X47160750Y-149760000D03*
D15*
X48430750Y-147220000D03*
D16*
X52240750Y-149760000D03*
D15*
X54780750Y-144680000D03*
D14*
X57320750Y-149760000D03*
%TD*%
D11*
%TO.C,D41*%
X209759249Y-117989950D03*
D12*
X209759249Y-115954950D03*
X209759249Y-112404950D03*
D13*
X209759249Y-110369950D03*
%TD*%
D11*
%TO.C,D1*%
X84111999Y-79964950D03*
D12*
X84111999Y-77929950D03*
X84111999Y-74379950D03*
D13*
X84111999Y-72344950D03*
%TD*%
D14*
%TO.C,SW18*%
X75660750Y-92760000D03*
D15*
X76930750Y-90220000D03*
D16*
X80740750Y-92760000D03*
D15*
X83280750Y-87680000D03*
D14*
X85820750Y-92760000D03*
%TD*%
%TO.C,SW8*%
X201333000Y-73760000D03*
D15*
X202603000Y-71220000D03*
D16*
X206413000Y-73760000D03*
D15*
X208953000Y-68680000D03*
D14*
X211493000Y-73760000D03*
%TD*%
%TO.C,SW26*%
X229833000Y-92760000D03*
D15*
X231103000Y-90220000D03*
D16*
X234913000Y-92760000D03*
D15*
X237453000Y-87680000D03*
D14*
X239993000Y-92760000D03*
%TD*%
D11*
%TO.C,D11*%
X271509249Y-79964950D03*
D12*
X271509249Y-77929950D03*
X271509249Y-74379950D03*
D13*
X271509249Y-72344950D03*
%TD*%
D14*
%TO.C,SW29*%
X286833000Y-92760000D03*
D15*
X288103000Y-90220000D03*
D16*
X291913000Y-92760000D03*
D15*
X294453000Y-87680000D03*
D14*
X296993000Y-92760000D03*
%TD*%
D11*
%TO.C,D51*%
X95961999Y-137014950D03*
D12*
X95961999Y-134979950D03*
X95961999Y-131429950D03*
D13*
X95961999Y-129394950D03*
%TD*%
D14*
%TO.C,SW41*%
X196583000Y-111760000D03*
D15*
X197853000Y-109220000D03*
D16*
X201663000Y-111760000D03*
D15*
X204203000Y-106680000D03*
D14*
X206743000Y-111760000D03*
%TD*%
%TO.C,SW67*%
X73285750Y-149760000D03*
D15*
X74555750Y-147220000D03*
D16*
X78365750Y-149760000D03*
D15*
X80905750Y-144680000D03*
D14*
X83445750Y-149760000D03*
%TD*%
%TO.C,SW77*%
X315333000Y-149760000D03*
D15*
X316603000Y-147220000D03*
D16*
X320413000Y-149760000D03*
D15*
X322953000Y-144680000D03*
D14*
X325493000Y-149760000D03*
%TD*%
D16*
%TO.C,SW73*%
X223000000Y-141505000D03*
D17*
X223000000Y-156745000D03*
D14*
X229858000Y-149760000D03*
D15*
X231128000Y-147220000D03*
D16*
X234938000Y-149760000D03*
D15*
X237478000Y-144680000D03*
D14*
X240018000Y-149760000D03*
D16*
X246876000Y-141505000D03*
D17*
X246876000Y-156745000D03*
%TD*%
D14*
%TO.C,SW43*%
X234583000Y-111760000D03*
D15*
X235853000Y-109220000D03*
D16*
X239663000Y-111760000D03*
D15*
X242203000Y-106680000D03*
D14*
X244743000Y-111760000D03*
%TD*%
D11*
%TO.C,D59*%
X257259249Y-137014950D03*
D12*
X257259249Y-134979950D03*
X257259249Y-131429950D03*
D13*
X257259249Y-129394950D03*
%TD*%
D11*
%TO.C,D9*%
X216600000Y-79110000D03*
D12*
X216600000Y-77075000D03*
X216600000Y-73525000D03*
D13*
X216600000Y-71490000D03*
%TD*%
D11*
%TO.C,D3*%
X122111999Y-79964950D03*
D12*
X122111999Y-77929950D03*
X122111999Y-74379950D03*
D13*
X122111999Y-72344950D03*
%TD*%
D16*
%TO.C,SW70*%
X142402750Y-141505000D03*
D17*
X142402750Y-156745000D03*
D14*
X149260750Y-149760000D03*
D15*
X150530750Y-147220000D03*
D16*
X154340750Y-149760000D03*
D15*
X156880750Y-144680000D03*
D14*
X159420750Y-149760000D03*
D16*
X166278750Y-141505000D03*
D17*
X166278750Y-156745000D03*
%TD*%
D14*
%TO.C,SW68*%
X94660750Y-149760000D03*
D15*
X95930750Y-147220000D03*
D16*
X99740750Y-149760000D03*
D15*
X102280750Y-144680000D03*
D14*
X104820750Y-149760000D03*
%TD*%
D11*
%TO.C,D42*%
X228759249Y-117989950D03*
D12*
X228759249Y-115954950D03*
X228759249Y-112404950D03*
D13*
X228759249Y-110369950D03*
%TD*%
D14*
%TO.C,SW23*%
X175410750Y-92760000D03*
D15*
X176680750Y-90220000D03*
D16*
X180490750Y-92760000D03*
D15*
X183030750Y-87680000D03*
D14*
X185570750Y-92760000D03*
%TD*%
%TO.C,SW76*%
X296333000Y-149760000D03*
D15*
X297603000Y-147220000D03*
D16*
X301413000Y-149760000D03*
D15*
X303953000Y-144680000D03*
D14*
X306493000Y-149760000D03*
%TD*%
D11*
%TO.C,D64*%
X366509249Y-137014950D03*
D12*
X366509249Y-134979950D03*
X366509249Y-131429950D03*
D13*
X366509249Y-129394950D03*
%TD*%
D11*
%TO.C,D23*%
X171795000Y-101590000D03*
D12*
X171795000Y-99555000D03*
X171795000Y-96005000D03*
D13*
X171795000Y-93970000D03*
%TD*%
D14*
%TO.C,SW24*%
X191833000Y-92760000D03*
D15*
X193103000Y-90220000D03*
D16*
X196913000Y-92760000D03*
D15*
X199453000Y-87680000D03*
D14*
X201993000Y-92760000D03*
%TD*%
D11*
%TO.C,D33*%
X41336999Y-117989950D03*
D12*
X41336999Y-115954950D03*
X41336999Y-112404950D03*
D13*
X41336999Y-110369950D03*
%TD*%
D18*
%TO.C,J4*%
X347775000Y-114100000D03*
D19*
X345235000Y-114100000D03*
%TD*%
D14*
%TO.C,SW10*%
X249493000Y-73760000D03*
D15*
X248223000Y-76300000D03*
D16*
X244413000Y-73760000D03*
D15*
X241873000Y-78840000D03*
D14*
X239333000Y-73760000D03*
%TD*%
%TO.C,SW79*%
X353333000Y-149760000D03*
D15*
X354603000Y-147220000D03*
D16*
X358413000Y-149760000D03*
D15*
X360953000Y-144680000D03*
D14*
X363493000Y-149760000D03*
%TD*%
%TO.C,SW78*%
X334333000Y-149760000D03*
D15*
X335603000Y-147220000D03*
D16*
X339413000Y-149760000D03*
D15*
X341953000Y-144680000D03*
D14*
X344493000Y-149760000D03*
%TD*%
D11*
%TO.C,D8*%
X214509249Y-79964950D03*
D12*
X214509249Y-77929950D03*
X214509249Y-74379950D03*
D13*
X214509249Y-72344950D03*
%TD*%
D11*
%TO.C,D45*%
X285759249Y-117989950D03*
D12*
X285759249Y-115954950D03*
X285759249Y-112404950D03*
D13*
X285759249Y-110369950D03*
%TD*%
D11*
%TO.C,D65*%
X41336999Y-156014950D03*
D12*
X41336999Y-153979950D03*
X41336999Y-150429950D03*
D13*
X41336999Y-148394950D03*
%TD*%
D11*
%TO.C,D70*%
X162461999Y-156014950D03*
D12*
X162461999Y-153979950D03*
X162461999Y-150429950D03*
D13*
X162461999Y-148394950D03*
%TD*%
D11*
%TO.C,D24*%
X205009249Y-98964950D03*
D12*
X205009249Y-96929950D03*
X205009249Y-93379950D03*
D13*
X205009249Y-91344950D03*
%TD*%
D14*
%TO.C,SW65*%
X28160750Y-149760000D03*
D15*
X29430750Y-147220000D03*
D16*
X33240750Y-149760000D03*
D15*
X35780750Y-144680000D03*
D14*
X38320750Y-149760000D03*
%TD*%
%TO.C,SW58*%
X225083000Y-130760000D03*
D15*
X226353000Y-128220000D03*
D16*
X230163000Y-130760000D03*
D15*
X232703000Y-125680000D03*
D14*
X235243000Y-130760000D03*
%TD*%
D11*
%TO.C,D26*%
X243009249Y-98964950D03*
D12*
X243009249Y-96929950D03*
X243009249Y-93379950D03*
D13*
X243009249Y-91344950D03*
%TD*%
D18*
%TO.C,RST*%
X181275000Y-66500000D03*
D19*
X178735000Y-66500000D03*
%TD*%
D11*
%TO.C,D6*%
X162600000Y-78210000D03*
D12*
X162600000Y-76175000D03*
X162600000Y-72625000D03*
D13*
X162600000Y-70590000D03*
%TD*%
D11*
%TO.C,D14*%
X338034249Y-79964950D03*
D12*
X338034249Y-77929950D03*
X338034249Y-74379950D03*
D13*
X338034249Y-72344950D03*
%TD*%
D14*
%TO.C,SW57*%
X206083000Y-130760000D03*
D15*
X207353000Y-128220000D03*
D16*
X211163000Y-130760000D03*
D15*
X213703000Y-125680000D03*
D14*
X216243000Y-130760000D03*
%TD*%
D11*
%TO.C,D12*%
X290509249Y-79964950D03*
D12*
X290509249Y-77929950D03*
X290509249Y-74379950D03*
D13*
X290509249Y-72344950D03*
%TD*%
D14*
%TO.C,SW59*%
X244083000Y-130760000D03*
D15*
X245353000Y-128220000D03*
D16*
X249163000Y-130760000D03*
D15*
X251703000Y-125680000D03*
D14*
X254243000Y-130760000D03*
%TD*%
%TO.C,SW64*%
X353333000Y-130760000D03*
D15*
X354603000Y-128220000D03*
D16*
X358413000Y-130760000D03*
D15*
X360953000Y-125680000D03*
D14*
X363493000Y-130760000D03*
%TD*%
D17*
%TO.C,SW14*%
X317975000Y-66775000D03*
D16*
X317975000Y-82015000D03*
D14*
X324833000Y-73760000D03*
D15*
X326103000Y-71220000D03*
D16*
X329913000Y-73760000D03*
D15*
X332453000Y-68680000D03*
D14*
X334993000Y-73760000D03*
D17*
X341851000Y-66775000D03*
D16*
X341851000Y-82015000D03*
%TD*%
D18*
%TO.C,USB_PRO_MICRO1*%
X72567800Y-104267000D03*
D19*
X72567800Y-106807000D03*
X72567800Y-109347000D03*
X72567800Y-111887000D03*
%TD*%
D14*
%TO.C,SW63*%
X334333000Y-130760000D03*
D15*
X335603000Y-128220000D03*
D16*
X339413000Y-130760000D03*
D15*
X341953000Y-125680000D03*
D14*
X344493000Y-130760000D03*
%TD*%
D11*
%TO.C,D36*%
X117361999Y-117989950D03*
D12*
X117361999Y-115954950D03*
X117361999Y-112404950D03*
D13*
X117361999Y-110369950D03*
%TD*%
D11*
%TO.C,D29*%
X300009249Y-98964950D03*
D12*
X300009249Y-96929950D03*
X300009249Y-93379950D03*
D13*
X300009249Y-91344950D03*
%TD*%
D14*
%TO.C,SW38*%
X142160750Y-111760000D03*
D15*
X143430750Y-109220000D03*
D16*
X147240750Y-111760000D03*
D15*
X149780750Y-106680000D03*
D14*
X152320750Y-111760000D03*
%TD*%
%TO.C,SW69*%
X113660750Y-149760000D03*
D15*
X114930750Y-147220000D03*
D16*
X118740750Y-149760000D03*
D15*
X121280750Y-144680000D03*
D14*
X123820750Y-149760000D03*
%TD*%
D11*
%TO.C,D69*%
X126861999Y-156014950D03*
D12*
X126861999Y-153979950D03*
X126861999Y-150429950D03*
D13*
X126861999Y-148394950D03*
%TD*%
D14*
%TO.C,SW60*%
X263083000Y-130760000D03*
D15*
X264353000Y-128220000D03*
D16*
X268163000Y-130760000D03*
D15*
X270703000Y-125680000D03*
D14*
X273243000Y-130760000D03*
%TD*%
%TO.C,SW9*%
X230493000Y-73760000D03*
D15*
X229223000Y-76300000D03*
D16*
X225413000Y-73760000D03*
D15*
X222873000Y-78840000D03*
D14*
X220333000Y-73760000D03*
%TD*%
D17*
%TO.C,SW51*%
X75927750Y-123775000D03*
D16*
X75927750Y-139015000D03*
D14*
X82785750Y-130760000D03*
D15*
X84055750Y-128220000D03*
D16*
X87865750Y-130760000D03*
D15*
X90405750Y-125680000D03*
D14*
X92945750Y-130760000D03*
D17*
X99803750Y-123775000D03*
D16*
X99803750Y-139015000D03*
%TD*%
D11*
%TO.C,D20*%
X131611999Y-98964950D03*
D12*
X131611999Y-96929950D03*
X131611999Y-93379950D03*
D13*
X131611999Y-91344950D03*
%TD*%
D14*
%TO.C,SW12*%
X277333000Y-73760000D03*
D15*
X278603000Y-71220000D03*
D16*
X282413000Y-73760000D03*
D15*
X284953000Y-68680000D03*
D14*
X287493000Y-73760000D03*
%TD*%
%TO.C,SW49*%
X28160750Y-130760000D03*
D15*
X29430750Y-128220000D03*
D16*
X33240750Y-130760000D03*
D15*
X35780750Y-125680000D03*
D14*
X38320750Y-130760000D03*
%TD*%
D11*
%TO.C,D47*%
X335659249Y-117989950D03*
D12*
X335659249Y-115954950D03*
X335659249Y-112404950D03*
D13*
X335659249Y-110369950D03*
%TD*%
D14*
%TO.C,SW27*%
X248833000Y-92760000D03*
D15*
X250103000Y-90220000D03*
D16*
X253913000Y-92760000D03*
D15*
X256453000Y-87680000D03*
D14*
X258993000Y-92760000D03*
%TD*%
%TO.C,SW56*%
X189660750Y-130760000D03*
D15*
X190930750Y-128220000D03*
D16*
X194740750Y-130760000D03*
D15*
X197280750Y-125680000D03*
D14*
X199820750Y-130760000D03*
%TD*%
D11*
%TO.C,D62*%
X322550000Y-134260000D03*
D12*
X322550000Y-132225000D03*
X322550000Y-128675000D03*
D13*
X322550000Y-126640000D03*
%TD*%
D14*
%TO.C,SW7*%
X184910750Y-73760000D03*
D15*
X186180750Y-71220000D03*
D16*
X189990750Y-73760000D03*
D15*
X192530750Y-68680000D03*
D14*
X195070750Y-73760000D03*
%TD*%
D11*
%TO.C,D48*%
X366509249Y-117989950D03*
D12*
X366509249Y-115954950D03*
X366509249Y-112404950D03*
D13*
X366509249Y-110369950D03*
%TD*%
D14*
%TO.C,SW39*%
X161160750Y-111760000D03*
D15*
X162430750Y-109220000D03*
D16*
X166240750Y-111760000D03*
D15*
X168780750Y-106680000D03*
D14*
X171320750Y-111760000D03*
%TD*%
%TO.C,SW4*%
X127910750Y-73760000D03*
D15*
X129180750Y-71220000D03*
D16*
X132990750Y-73760000D03*
D15*
X135530750Y-68680000D03*
D14*
X138070750Y-73760000D03*
%TD*%
D11*
%TO.C,D22*%
X169611999Y-98964950D03*
D12*
X169611999Y-96929950D03*
X169611999Y-93379950D03*
D13*
X169611999Y-91344950D03*
%TD*%
D11*
%TO.C,D16*%
X41336999Y-98964950D03*
D12*
X41336999Y-96929950D03*
X41336999Y-93379950D03*
D13*
X41336999Y-91344950D03*
%TD*%
D17*
%TO.C,SW47*%
X315600000Y-104775000D03*
D16*
X315600000Y-120015000D03*
D14*
X322458000Y-111760000D03*
D15*
X323728000Y-109220000D03*
D16*
X327538000Y-111760000D03*
D15*
X330078000Y-106680000D03*
D14*
X332618000Y-111760000D03*
D17*
X339476000Y-104775000D03*
D16*
X339476000Y-120015000D03*
%TD*%
D11*
%TO.C,D49*%
X41336999Y-137014950D03*
D12*
X41336999Y-134979950D03*
X41336999Y-131429950D03*
D13*
X41336999Y-129394950D03*
%TD*%
D11*
%TO.C,D25*%
X224009249Y-98964950D03*
D12*
X224009249Y-96929950D03*
X224009249Y-93379950D03*
D13*
X224009249Y-91344950D03*
%TD*%
D11*
%TO.C,D53*%
X145861999Y-137014950D03*
D12*
X145861999Y-134979950D03*
X145861999Y-131429950D03*
D13*
X145861999Y-129394950D03*
%TD*%
D11*
%TO.C,D28*%
X281009249Y-98964950D03*
D12*
X281009249Y-96929950D03*
X281009249Y-93379950D03*
D13*
X281009249Y-91344950D03*
%TD*%
D11*
%TO.C,D7*%
X181255000Y-82565000D03*
D12*
X181255000Y-80530000D03*
X181255000Y-76980000D03*
D13*
X181255000Y-74945000D03*
%TD*%
D11*
%TO.C,D61*%
X295259249Y-137014950D03*
D12*
X295259249Y-134979950D03*
X295259249Y-131429950D03*
D13*
X295259249Y-129394950D03*
%TD*%
D11*
%TO.C,D37*%
X136361999Y-117989950D03*
D12*
X136361999Y-115954950D03*
X136361999Y-112404950D03*
D13*
X136361999Y-110369950D03*
%TD*%
D14*
%TO.C,SW19*%
X99410750Y-92760000D03*
D15*
X100680750Y-90220000D03*
D16*
X104490750Y-92760000D03*
D15*
X107030750Y-87680000D03*
D14*
X109570750Y-92760000D03*
%TD*%
D18*
%TO.C,USB_SPLIT_R*%
X231340000Y-67700000D03*
D19*
X233880000Y-67700000D03*
X236420000Y-67700000D03*
X238960000Y-67700000D03*
%TD*%
D11*
%TO.C,D77*%
X328509249Y-156014950D03*
D12*
X328509249Y-153979950D03*
X328509249Y-150429950D03*
D13*
X328509249Y-148394950D03*
%TD*%
D20*
%TO.C,U2*%
X305200000Y-123090000D03*
X307740000Y-123090000D03*
X310280000Y-123090000D03*
X312820000Y-123090000D03*
X315360000Y-123090000D03*
X317900000Y-123090000D03*
X320440000Y-123090000D03*
X322980000Y-123090000D03*
X325520000Y-123090000D03*
X328060000Y-123090000D03*
X330600000Y-123090000D03*
X333140000Y-123090000D03*
X333140000Y-138310000D03*
X330600000Y-138310000D03*
X328060000Y-138310000D03*
X325520000Y-138310000D03*
X322980000Y-138310000D03*
X320440000Y-138310000D03*
X317900000Y-138310000D03*
X315360000Y-138310000D03*
X312820000Y-138310000D03*
X310280000Y-138310000D03*
X307740000Y-138310000D03*
X305200000Y-138310000D03*
%TD*%
D11*
%TO.C,D10*%
X236000000Y-80410000D03*
D12*
X236000000Y-78375000D03*
X236000000Y-74825000D03*
D13*
X236000000Y-72790000D03*
%TD*%
D11*
%TO.C,D57*%
X219259249Y-137014950D03*
D12*
X219259249Y-134979950D03*
X219259249Y-131429950D03*
D13*
X219259249Y-129394950D03*
%TD*%
D14*
%TO.C,SW36*%
X104160750Y-111760000D03*
D15*
X105430750Y-109220000D03*
D16*
X109240750Y-111760000D03*
D15*
X111780750Y-106680000D03*
D14*
X114320750Y-111760000D03*
%TD*%
D18*
%TO.C,USB_main1*%
X58017750Y-67535000D03*
D19*
X60557750Y-67535000D03*
X63097750Y-67535000D03*
X65637750Y-67535000D03*
%TD*%
D14*
%TO.C,SW55*%
X170660750Y-130760000D03*
D15*
X171930750Y-128220000D03*
D16*
X175740750Y-130760000D03*
D15*
X178280750Y-125680000D03*
D14*
X180820750Y-130760000D03*
%TD*%
D11*
%TO.C,D75*%
X290509249Y-156014950D03*
D12*
X290509249Y-153979950D03*
X290509249Y-150429950D03*
D13*
X290509249Y-148394950D03*
%TD*%
D11*
%TO.C,D56*%
X186040000Y-138830000D03*
D12*
X186040000Y-136795000D03*
X186040000Y-133245000D03*
D13*
X186040000Y-131210000D03*
%TD*%
D14*
%TO.C,SW31*%
X329583000Y-92760000D03*
D15*
X330853000Y-90220000D03*
D16*
X334663000Y-92760000D03*
D15*
X337203000Y-87680000D03*
D14*
X339743000Y-92760000D03*
%TD*%
D18*
%TO.C,USB_SPLIT_L*%
X157706250Y-67635000D03*
D19*
X160246250Y-67635000D03*
X162786250Y-67635000D03*
X165326250Y-67635000D03*
%TD*%
D18*
%TO.C,OLED*%
X25450750Y-75962370D03*
D19*
X25450750Y-73422370D03*
X25450750Y-70882370D03*
X25450750Y-68342370D03*
%TD*%
D11*
%TO.C,D60*%
X276259249Y-137014950D03*
D12*
X276259249Y-134979950D03*
X276259249Y-131429950D03*
D13*
X276259249Y-129394950D03*
%TD*%
D11*
%TO.C,D5*%
X143637000Y-78356000D03*
D12*
X143637000Y-76321000D03*
X143637000Y-72771000D03*
D13*
X143637000Y-70736000D03*
%TD*%
D14*
%TO.C,SW61*%
X282083000Y-130760000D03*
D15*
X283353000Y-128220000D03*
D16*
X287163000Y-130760000D03*
D15*
X289703000Y-125680000D03*
D14*
X292243000Y-130760000D03*
%TD*%
D11*
%TO.C,D35*%
X91211999Y-117989950D03*
D12*
X91211999Y-115954950D03*
X91211999Y-112404950D03*
D13*
X91211999Y-110369950D03*
%TD*%
D14*
%TO.C,SW48*%
X353333000Y-111760000D03*
D15*
X354603000Y-109220000D03*
D16*
X358413000Y-111760000D03*
D15*
X360953000Y-106680000D03*
D14*
X363493000Y-111760000D03*
%TD*%
D11*
%TO.C,D21*%
X150611999Y-98964950D03*
D12*
X150611999Y-96929950D03*
X150611999Y-93379950D03*
D13*
X150611999Y-91344950D03*
%TD*%
D14*
%TO.C,SW5*%
X157071250Y-73760000D03*
D15*
X155801250Y-76300000D03*
D16*
X151991250Y-73760000D03*
D15*
X149451250Y-78840000D03*
D14*
X146911250Y-73760000D03*
%TD*%
D11*
%TO.C,D13*%
X309509249Y-79964950D03*
D12*
X309509249Y-77929950D03*
X309509249Y-74379950D03*
D13*
X309509249Y-72344950D03*
%TD*%
D14*
%TO.C,SW52*%
X113660750Y-130760000D03*
D15*
X114930750Y-128220000D03*
D16*
X118740750Y-130760000D03*
D15*
X121280750Y-125680000D03*
D14*
X123820750Y-130760000D03*
%TD*%
D11*
%TO.C,D18*%
X88836999Y-98964950D03*
D12*
X88836999Y-96929950D03*
X88836999Y-93379950D03*
D13*
X88836999Y-91344950D03*
%TD*%
D14*
%TO.C,SW54*%
X151660750Y-130760000D03*
D15*
X152930750Y-128220000D03*
D16*
X156740750Y-130760000D03*
D15*
X159280750Y-125680000D03*
D14*
X161820750Y-130760000D03*
%TD*%
%TO.C,SW33*%
X28160750Y-111760000D03*
D15*
X29430750Y-109220000D03*
D16*
X33240750Y-111760000D03*
D15*
X35780750Y-106680000D03*
D14*
X38320750Y-111760000D03*
%TD*%
D11*
%TO.C,D27*%
X262009249Y-98964950D03*
D12*
X262009249Y-96929950D03*
X262009249Y-93379950D03*
D13*
X262009249Y-91344950D03*
%TD*%
D14*
%TO.C,SW37*%
X123160750Y-111760000D03*
D15*
X124430750Y-109220000D03*
D16*
X128240750Y-111760000D03*
D15*
X130780750Y-106680000D03*
D14*
X133320750Y-111760000D03*
%TD*%
%TO.C,SW1*%
X70910750Y-73760000D03*
D15*
X72180750Y-71220000D03*
D16*
X75990750Y-73760000D03*
D15*
X78530750Y-68680000D03*
D14*
X81070750Y-73760000D03*
%TD*%
D11*
%TO.C,D55*%
X183861999Y-137014950D03*
D12*
X183861999Y-134979950D03*
X183861999Y-131429950D03*
D13*
X183861999Y-129394950D03*
%TD*%
D14*
%TO.C,SW30*%
X305833000Y-92760000D03*
D15*
X307103000Y-90220000D03*
D16*
X310913000Y-92760000D03*
D15*
X313453000Y-87680000D03*
D14*
X315993000Y-92760000D03*
%TD*%
D11*
%TO.C,D54*%
X164861999Y-137014950D03*
D12*
X164861999Y-134979950D03*
X164861999Y-131429950D03*
D13*
X164861999Y-129394950D03*
%TD*%
D14*
%TO.C,SW32*%
X353333000Y-92760000D03*
D15*
X354603000Y-90220000D03*
D16*
X358413000Y-92760000D03*
D15*
X360953000Y-87680000D03*
D14*
X363493000Y-92760000D03*
%TD*%
%TO.C,SW71*%
X184910750Y-149760000D03*
D15*
X186180750Y-147220000D03*
D16*
X189990750Y-149760000D03*
D15*
X192530750Y-144680000D03*
D14*
X195070750Y-149760000D03*
%TD*%
%TO.C,SW11*%
X258333000Y-73760000D03*
D15*
X259603000Y-71220000D03*
D16*
X263413000Y-73760000D03*
D15*
X265953000Y-68680000D03*
D14*
X268493000Y-73760000D03*
%TD*%
%TO.C,SW21*%
X137410750Y-92760000D03*
D15*
X138680750Y-90220000D03*
D16*
X142490750Y-92760000D03*
D15*
X145030750Y-87680000D03*
D14*
X147570750Y-92760000D03*
%TD*%
D11*
%TO.C,D2*%
X103111999Y-79964950D03*
D12*
X103111999Y-77929950D03*
X103111999Y-74379950D03*
D13*
X103111999Y-72344950D03*
%TD*%
D14*
%TO.C,SW25*%
X210833000Y-92760000D03*
D15*
X212103000Y-90220000D03*
D16*
X215913000Y-92760000D03*
D15*
X218453000Y-87680000D03*
D14*
X220993000Y-92760000D03*
%TD*%
D11*
%TO.C,D79*%
X366509249Y-156014950D03*
D12*
X366509249Y-153979950D03*
X366509249Y-150429950D03*
D13*
X366509249Y-148394950D03*
%TD*%
D14*
%TO.C,SW40*%
X180160750Y-111760000D03*
D15*
X181430750Y-109220000D03*
D16*
X185240750Y-111760000D03*
D15*
X187780750Y-106680000D03*
D14*
X190320750Y-111760000D03*
%TD*%
%TO.C,SW72*%
X201333000Y-149760000D03*
D15*
X202603000Y-147220000D03*
D16*
X206413000Y-149760000D03*
D15*
X208953000Y-144680000D03*
D14*
X211493000Y-149760000D03*
%TD*%
D18*
%TO.C,RST*%
X219075000Y-66400000D03*
D19*
X216535000Y-66400000D03*
%TD*%
D11*
%TO.C,D78*%
X347509249Y-156014950D03*
D12*
X347509249Y-153979950D03*
X347509249Y-150429950D03*
D13*
X347509249Y-148394950D03*
%TD*%
D14*
%TO.C,SW20*%
X118410750Y-92760000D03*
D15*
X119680750Y-90220000D03*
D16*
X123490750Y-92760000D03*
D15*
X126030750Y-87680000D03*
D14*
X128570750Y-92760000D03*
%TD*%
%TO.C,SW35*%
X78035750Y-111760000D03*
D15*
X79305750Y-109220000D03*
D16*
X83115750Y-111760000D03*
D15*
X85655750Y-106680000D03*
D14*
X88195750Y-111760000D03*
%TD*%
D20*
%TO.C,U1*%
X57847000Y-84908600D03*
X55307000Y-84908600D03*
X52767000Y-84908600D03*
X50227000Y-84908600D03*
X47687000Y-84908600D03*
X45147000Y-84908600D03*
X42607000Y-84908600D03*
X40067000Y-84908600D03*
X37527000Y-84908600D03*
X34987000Y-84908600D03*
X32447000Y-84908600D03*
X29907000Y-84908600D03*
X29907000Y-69688600D03*
X32447000Y-69688600D03*
X34987000Y-69688600D03*
X37527000Y-69688600D03*
X40067000Y-69688600D03*
X42607000Y-69688600D03*
X45147000Y-69688600D03*
X47687000Y-69688600D03*
X50227000Y-69688600D03*
X52767000Y-69688600D03*
X55307000Y-69688600D03*
X57847000Y-69688600D03*
%TD*%
D14*
%TO.C,SW34*%
X47160750Y-111760000D03*
D15*
X48430750Y-109220000D03*
D16*
X52240750Y-111760000D03*
D15*
X54780750Y-106680000D03*
D14*
X57320750Y-111760000D03*
%TD*%
D11*
%TO.C,D34*%
X60336999Y-117989950D03*
D12*
X60336999Y-115954950D03*
X60336999Y-112404950D03*
D13*
X60336999Y-110369950D03*
%TD*%
D11*
%TO.C,D71*%
X179695000Y-156115000D03*
D12*
X179695000Y-154080000D03*
X179695000Y-150530000D03*
D13*
X179695000Y-148495000D03*
%TD*%
D14*
%TO.C,SW44*%
X253583000Y-111760000D03*
D15*
X254853000Y-109220000D03*
D16*
X258663000Y-111760000D03*
D15*
X261203000Y-106680000D03*
D14*
X263743000Y-111760000D03*
%TD*%
D11*
%TO.C,D58*%
X238259249Y-137014950D03*
D12*
X238259249Y-134979950D03*
X238259249Y-131429950D03*
D13*
X238259249Y-129394950D03*
%TD*%
D14*
%TO.C,SW74*%
X258333000Y-149760000D03*
D15*
X259603000Y-147220000D03*
D16*
X263413000Y-149760000D03*
D15*
X265953000Y-144680000D03*
D14*
X268493000Y-149760000D03*
%TD*%
%TO.C,SW42*%
X215583000Y-111760000D03*
D15*
X216853000Y-109220000D03*
D16*
X220663000Y-111760000D03*
D15*
X223203000Y-106680000D03*
D14*
X225743000Y-111760000D03*
%TD*%
D11*
%TO.C,D31*%
X342784249Y-98964950D03*
D12*
X342784249Y-96929950D03*
X342784249Y-93379950D03*
D13*
X342784249Y-91344950D03*
%TD*%
D14*
%TO.C,SW3*%
X108910750Y-73760000D03*
D15*
X110180750Y-71220000D03*
D16*
X113990750Y-73760000D03*
D15*
X116530750Y-68680000D03*
D14*
X119070750Y-73760000D03*
%TD*%
D11*
%TO.C,D68*%
X107861999Y-156014950D03*
D12*
X107861999Y-153979950D03*
X107861999Y-150429950D03*
D13*
X107861999Y-148394950D03*
%TD*%
D11*
%TO.C,D19*%
X112611999Y-98964950D03*
D12*
X112611999Y-96929950D03*
X112611999Y-93379950D03*
D13*
X112611999Y-91344950D03*
%TD*%
D11*
%TO.C,D17*%
X60336999Y-98964950D03*
D12*
X60336999Y-96929950D03*
X60336999Y-93379950D03*
D13*
X60336999Y-91344950D03*
%TD*%
D11*
%TO.C,D72*%
X214509249Y-156014950D03*
D12*
X214509249Y-153979950D03*
X214509249Y-150429950D03*
D13*
X214509249Y-148394950D03*
%TD*%
D14*
%TO.C,SW45*%
X272583000Y-111760000D03*
D15*
X273853000Y-109220000D03*
D16*
X277663000Y-111760000D03*
D15*
X280203000Y-106680000D03*
D14*
X282743000Y-111760000D03*
%TD*%
D11*
%TO.C,D30*%
X319009249Y-98964950D03*
D12*
X319009249Y-96929950D03*
X319009249Y-93379950D03*
D13*
X319009249Y-91344950D03*
%TD*%
D11*
%TO.C,D63*%
X347509249Y-137014950D03*
D12*
X347509249Y-134979950D03*
X347509249Y-131429950D03*
D13*
X347509249Y-129394950D03*
%TD*%
D14*
%TO.C,SW46*%
X291583000Y-111760000D03*
D15*
X292853000Y-109220000D03*
D16*
X296663000Y-111760000D03*
D15*
X299203000Y-106680000D03*
D14*
X301743000Y-111760000D03*
%TD*%
D11*
%TO.C,D40*%
X176525000Y-120560000D03*
D12*
X176525000Y-118525000D03*
X176525000Y-114975000D03*
D13*
X176525000Y-112940000D03*
%TD*%
D21*
%TO.C,ENC*%
X367913000Y-71760000D03*
X352913000Y-71760000D03*
D22*
X357913000Y-79260000D03*
X362913000Y-79260000D03*
X360413000Y-79260000D03*
X362913000Y-64160000D03*
X357913000Y-64160000D03*
%TD*%
D11*
%TO.C,D66*%
X60336999Y-156014950D03*
D12*
X60336999Y-153979950D03*
X60336999Y-150429950D03*
D13*
X60336999Y-148394950D03*
%TD*%
D14*
%TO.C,SW62*%
X318368000Y-130760000D03*
D15*
X315828000Y-125680000D03*
D16*
X313288000Y-130760000D03*
D15*
X309478000Y-128220000D03*
D14*
X308208000Y-130760000D03*
%TD*%
%TO.C,SW16*%
X38320750Y-92760000D03*
X28160750Y-92760000D03*
D16*
X33240750Y-92760000D03*
%TD*%
D14*
%TO.C,SW17*%
X57320750Y-92760000D03*
X47160750Y-92760000D03*
D16*
X52240750Y-92760000D03*
%TD*%
M02*
