%TF.GenerationSoftware,KiCad,Pcbnew,8.0.8*%
%TF.CreationDate,2025-04-15T16:41:42+09:00*%
%TF.ProjectId,sswkbd_right,7373776b-6264-45f7-9269-6768742e6b69,rev?*%
%TF.SameCoordinates,Original*%
%TF.FileFunction,Paste,Bot*%
%TF.FilePolarity,Positive*%
%FSLAX46Y46*%
G04 Gerber Fmt 4.6, Leading zero omitted, Abs format (unit mm)*
G04 Created by KiCad (PCBNEW 8.0.8) date 2025-04-15 16:41:42*
%MOMM*%
%LPD*%
G01*
G04 APERTURE LIST*
%ADD10R,0.950000X1.300000*%
%ADD11R,2.550000X2.500000*%
%ADD12R,1.700000X0.825000*%
G04 APERTURE END LIST*
D10*
%TO.C,D32*%
X366509249Y-96929950D03*
X366509249Y-93379950D03*
%TD*%
D11*
%TO.C,SW13*%
X294328000Y-71220000D03*
X307255000Y-68680000D03*
%TD*%
D10*
%TO.C,D73*%
X243034249Y-153979950D03*
X243034249Y-150429950D03*
%TD*%
%TO.C,D46*%
X304759249Y-115954950D03*
X304759249Y-112404950D03*
%TD*%
%TO.C,D76*%
X309509249Y-153979950D03*
X309509249Y-150429950D03*
%TD*%
%TO.C,D74*%
X271509249Y-153979950D03*
X271509249Y-150429950D03*
%TD*%
%TO.C,D15*%
X347491000Y-77923000D03*
X347491000Y-74373000D03*
%TD*%
%TO.C,D44*%
X266759249Y-115954950D03*
X266759249Y-112404950D03*
%TD*%
D11*
%TO.C,SW28*%
X265828000Y-90220000D03*
X278755000Y-87680000D03*
%TD*%
%TO.C,SW75*%
X275328000Y-147220000D03*
X288255000Y-144680000D03*
%TD*%
D10*
%TO.C,D43*%
X247759249Y-115954950D03*
X247759249Y-112404950D03*
%TD*%
%TO.C,D41*%
X209759249Y-115954950D03*
X209759249Y-112404950D03*
%TD*%
D11*
%TO.C,SW8*%
X199328000Y-71220000D03*
X212255000Y-68680000D03*
%TD*%
%TO.C,SW26*%
X227828000Y-90220000D03*
X240755000Y-87680000D03*
%TD*%
D10*
%TO.C,D11*%
X271509249Y-77929950D03*
X271509249Y-74379950D03*
%TD*%
D11*
%TO.C,SW29*%
X284828000Y-90220000D03*
X297755000Y-87680000D03*
%TD*%
%TO.C,SW41*%
X194578000Y-109220000D03*
X207505000Y-106680000D03*
%TD*%
%TO.C,SW77*%
X313328000Y-147220000D03*
X326255000Y-144680000D03*
%TD*%
%TO.C,SW73*%
X227853000Y-147220000D03*
X240780000Y-144680000D03*
%TD*%
%TO.C,SW43*%
X232578000Y-109220000D03*
X245505000Y-106680000D03*
%TD*%
D10*
%TO.C,D59*%
X257259249Y-134979950D03*
X257259249Y-131429950D03*
%TD*%
%TO.C,D9*%
X216600000Y-77075000D03*
X216600000Y-73525000D03*
%TD*%
%TO.C,D42*%
X228759249Y-115954950D03*
X228759249Y-112404950D03*
%TD*%
D11*
%TO.C,SW76*%
X294328000Y-147220000D03*
X307255000Y-144680000D03*
%TD*%
D10*
%TO.C,D64*%
X366509249Y-134979950D03*
X366509249Y-131429950D03*
%TD*%
D11*
%TO.C,SW24*%
X189828000Y-90220000D03*
X202755000Y-87680000D03*
%TD*%
%TO.C,SW10*%
X251498000Y-76300000D03*
X238571000Y-78840000D03*
%TD*%
%TO.C,SW79*%
X351328000Y-147220000D03*
X364255000Y-144680000D03*
%TD*%
%TO.C,SW78*%
X332328000Y-147220000D03*
X345255000Y-144680000D03*
%TD*%
D10*
%TO.C,D8*%
X214509249Y-77929950D03*
X214509249Y-74379950D03*
%TD*%
%TO.C,D45*%
X285759249Y-115954950D03*
X285759249Y-112404950D03*
%TD*%
%TO.C,D24*%
X205009249Y-96929950D03*
X205009249Y-93379950D03*
%TD*%
D11*
%TO.C,SW58*%
X223078000Y-128220000D03*
X236005000Y-125680000D03*
%TD*%
D10*
%TO.C,D26*%
X243009249Y-96929950D03*
X243009249Y-93379950D03*
%TD*%
%TO.C,D14*%
X338034249Y-77929950D03*
X338034249Y-74379950D03*
%TD*%
%TO.C,D12*%
X290509249Y-77929950D03*
X290509249Y-74379950D03*
%TD*%
D11*
%TO.C,SW59*%
X242078000Y-128220000D03*
X255005000Y-125680000D03*
%TD*%
%TO.C,SW64*%
X351328000Y-128220000D03*
X364255000Y-125680000D03*
%TD*%
%TO.C,SW14*%
X322828000Y-71220000D03*
X335755000Y-68680000D03*
%TD*%
%TO.C,SW63*%
X332328000Y-128220000D03*
X345255000Y-125680000D03*
%TD*%
D10*
%TO.C,D29*%
X300009249Y-96929950D03*
X300009249Y-93379950D03*
%TD*%
D11*
%TO.C,SW60*%
X261078000Y-128220000D03*
X274005000Y-125680000D03*
%TD*%
%TO.C,SW9*%
X232498000Y-76300000D03*
X219571000Y-78840000D03*
%TD*%
%TO.C,SW12*%
X275328000Y-71220000D03*
X288255000Y-68680000D03*
%TD*%
D10*
%TO.C,D47*%
X335659249Y-115954950D03*
X335659249Y-112404950D03*
%TD*%
D11*
%TO.C,SW27*%
X246828000Y-90220000D03*
X259755000Y-87680000D03*
%TD*%
D10*
%TO.C,D62*%
X322550000Y-132225000D03*
X322550000Y-128675000D03*
%TD*%
%TO.C,D48*%
X366509249Y-115954950D03*
X366509249Y-112404950D03*
%TD*%
D11*
%TO.C,SW47*%
X320453000Y-109220000D03*
X333380000Y-106680000D03*
%TD*%
D10*
%TO.C,D25*%
X224009249Y-96929950D03*
X224009249Y-93379950D03*
%TD*%
%TO.C,D28*%
X281009249Y-96929950D03*
X281009249Y-93379950D03*
%TD*%
%TO.C,D61*%
X295259249Y-134979950D03*
X295259249Y-131429950D03*
%TD*%
%TO.C,D77*%
X328509249Y-153979950D03*
X328509249Y-150429950D03*
%TD*%
%TO.C,D10*%
X236000000Y-78375000D03*
X236000000Y-74825000D03*
%TD*%
%TO.C,D57*%
X219259249Y-134979950D03*
X219259249Y-131429950D03*
%TD*%
%TO.C,D75*%
X290509249Y-153979950D03*
X290509249Y-150429950D03*
%TD*%
D11*
%TO.C,SW62*%
X306203000Y-128220000D03*
X319130000Y-125680000D03*
%TD*%
%TO.C,SW31*%
X327578000Y-90220000D03*
X340505000Y-87680000D03*
%TD*%
D10*
%TO.C,D60*%
X276259249Y-134979950D03*
X276259249Y-131429950D03*
%TD*%
D11*
%TO.C,SW61*%
X280078000Y-128220000D03*
X293005000Y-125680000D03*
%TD*%
%TO.C,SW48*%
X351328000Y-109220000D03*
X364255000Y-106680000D03*
%TD*%
D10*
%TO.C,D13*%
X309509249Y-77929950D03*
X309509249Y-74379950D03*
%TD*%
%TO.C,D27*%
X262009249Y-96929950D03*
X262009249Y-93379950D03*
%TD*%
D11*
%TO.C,SW30*%
X303828000Y-90220000D03*
X316755000Y-87680000D03*
%TD*%
%TO.C,SW32*%
X351328000Y-90220000D03*
X364255000Y-87680000D03*
%TD*%
%TO.C,SW11*%
X256328000Y-71220000D03*
X269255000Y-68680000D03*
%TD*%
%TO.C,SW25*%
X208828000Y-90220000D03*
X221755000Y-87680000D03*
%TD*%
D10*
%TO.C,D79*%
X366509249Y-153979950D03*
X366509249Y-150429950D03*
%TD*%
D11*
%TO.C,SW72*%
X199328000Y-147220000D03*
X212255000Y-144680000D03*
%TD*%
D10*
%TO.C,D78*%
X347509249Y-153979950D03*
X347509249Y-150429950D03*
%TD*%
D11*
%TO.C,SW44*%
X251578000Y-109220000D03*
X264505000Y-106680000D03*
%TD*%
D10*
%TO.C,D58*%
X238259249Y-134979950D03*
X238259249Y-131429950D03*
%TD*%
D11*
%TO.C,SW74*%
X256328000Y-147220000D03*
X269255000Y-144680000D03*
%TD*%
%TO.C,SW42*%
X213578000Y-109220000D03*
X226505000Y-106680000D03*
%TD*%
D10*
%TO.C,D31*%
X342784249Y-96929950D03*
X342784249Y-93379950D03*
%TD*%
%TO.C,D72*%
X214509249Y-153979950D03*
X214509249Y-150429950D03*
%TD*%
D11*
%TO.C,SW45*%
X270578000Y-109220000D03*
X283505000Y-106680000D03*
%TD*%
D10*
%TO.C,D30*%
X319009249Y-96929950D03*
X319009249Y-93379950D03*
%TD*%
%TO.C,D63*%
X347509249Y-134979950D03*
X347509249Y-131429950D03*
%TD*%
D11*
%TO.C,SW46*%
X289578000Y-109220000D03*
X302505000Y-106680000D03*
%TD*%
D12*
%TO.C,LED77*%
X208363000Y-134822999D03*
X208363000Y-136223000D03*
X213963000Y-136223001D03*
X213963000Y-134823000D03*
%TD*%
%TO.C,LED70*%
X227363000Y-134822999D03*
X227363000Y-136223000D03*
X232963000Y-136223001D03*
X232963000Y-134823000D03*
%TD*%
%TO.C,LED71*%
X232138000Y-153822999D03*
X232138000Y-155223000D03*
X237738000Y-155223001D03*
X237738000Y-153823000D03*
%TD*%
%TO.C,LED58*%
X260613000Y-77822999D03*
X260613000Y-79223000D03*
X266213000Y-79223001D03*
X266213000Y-77823000D03*
%TD*%
%TO.C,LED52*%
X298613000Y-153822999D03*
X298613000Y-155223000D03*
X304213000Y-155223001D03*
X304213000Y-153823000D03*
%TD*%
%TO.C,LED60*%
X274863000Y-115822999D03*
X274863000Y-117223000D03*
X280463000Y-117223001D03*
X280463000Y-115823000D03*
%TD*%
%TO.C,LED76*%
X198863000Y-115822999D03*
X198863000Y-117223000D03*
X204463000Y-117223001D03*
X204463000Y-115823000D03*
%TD*%
%TO.C,LED46*%
X331863000Y-96822999D03*
X331863000Y-98223000D03*
X337463000Y-98223001D03*
X337463000Y-96823000D03*
%TD*%
%TO.C,LED68*%
X232113000Y-96822999D03*
X232113000Y-98223000D03*
X237713000Y-98223001D03*
X237713000Y-96823000D03*
%TD*%
%TO.C,LED45*%
X324738000Y-115822999D03*
X324738000Y-117223000D03*
X330338000Y-117223001D03*
X330338000Y-115823000D03*
%TD*%
%TO.C,LED50*%
X310488000Y-134822999D03*
X310488000Y-136223000D03*
X316088000Y-136223001D03*
X316088000Y-134823000D03*
%TD*%
%TO.C,LED62*%
X260613000Y-153822999D03*
X260613000Y-155223000D03*
X266213000Y-155223001D03*
X266213000Y-153823000D03*
%TD*%
%TO.C,LED69*%
X236863000Y-115822999D03*
X236863000Y-117223000D03*
X242463000Y-117223001D03*
X242463000Y-115823000D03*
%TD*%
%TO.C,LED64*%
X255863000Y-115822999D03*
X255863000Y-117223000D03*
X261463000Y-117223001D03*
X261463000Y-115823000D03*
%TD*%
%TO.C,LED74*%
X203613000Y-77822999D03*
X203613000Y-79223000D03*
X209213000Y-79223001D03*
X209213000Y-77823000D03*
%TD*%
%TO.C,LED63*%
X246363000Y-134822999D03*
X246363000Y-136223000D03*
X251963000Y-136223001D03*
X251963000Y-134823000D03*
%TD*%
%TO.C,LED61*%
X265363000Y-134822999D03*
X265363000Y-136223000D03*
X270963000Y-136223001D03*
X270963000Y-134823000D03*
%TD*%
%TO.C,LED41*%
X355613000Y-134822999D03*
X355613000Y-136223000D03*
X361213000Y-136223001D03*
X361213000Y-134823000D03*
%TD*%
%TO.C,LED59*%
X270113000Y-96822999D03*
X270113000Y-98223000D03*
X275713000Y-98223001D03*
X275713000Y-96823000D03*
%TD*%
%TO.C,LED72*%
X217863000Y-115822999D03*
X217863000Y-117223000D03*
X223463000Y-117223001D03*
X223463000Y-115823000D03*
%TD*%
%TO.C,LED57*%
X279613000Y-77822999D03*
X279613000Y-79223000D03*
X285213000Y-79223001D03*
X285213000Y-77823000D03*
%TD*%
%TO.C,LED47*%
X327113000Y-77822999D03*
X327113000Y-79223000D03*
X332713000Y-79223001D03*
X332713000Y-77823000D03*
%TD*%
%TO.C,LED48*%
X298613000Y-77822999D03*
X298613000Y-79223000D03*
X304213000Y-79223001D03*
X304213000Y-77823000D03*
%TD*%
%TO.C,LED73*%
X213113000Y-96822999D03*
X213113000Y-98223000D03*
X218713000Y-98223001D03*
X218713000Y-96823000D03*
%TD*%
%TO.C,LED43*%
X336613000Y-153822999D03*
X336613000Y-155223000D03*
X342213000Y-155223001D03*
X342213000Y-153823000D03*
%TD*%
%TO.C,LED49*%
X308113000Y-96822999D03*
X308113000Y-98223000D03*
X313713000Y-98223001D03*
X313713000Y-96823000D03*
%TD*%
%TO.C,LED78*%
X203613000Y-153822999D03*
X203613000Y-155223000D03*
X209213000Y-155223001D03*
X209213000Y-153823000D03*
%TD*%
%TO.C,LED39*%
X355613000Y-96822999D03*
X355613000Y-98223000D03*
X361213000Y-98223001D03*
X361213000Y-96823000D03*
%TD*%
%TO.C,LED44*%
X336613000Y-134822999D03*
X336613000Y-136223000D03*
X342213000Y-136223001D03*
X342213000Y-134823000D03*
%TD*%
%TO.C,LED75*%
X194113000Y-96822999D03*
X194113000Y-98223000D03*
X199713000Y-98223001D03*
X199713000Y-96823000D03*
%TD*%
%TO.C,LED51*%
X317613000Y-153822999D03*
X317613000Y-155223000D03*
X323213000Y-155223001D03*
X323213000Y-153823000D03*
%TD*%
%TO.C,LED42*%
X355613000Y-153822999D03*
X355613000Y-155223000D03*
X361213000Y-155223001D03*
X361213000Y-153823000D03*
%TD*%
%TO.C,LED56*%
X293863000Y-115822999D03*
X293863000Y-117223000D03*
X299463000Y-117223001D03*
X299463000Y-115823000D03*
%TD*%
%TO.C,LED67*%
X228213000Y-69697001D03*
X228213000Y-68297000D03*
X222613000Y-68296999D03*
X222613000Y-69697000D03*
%TD*%
%TO.C,LED53*%
X279613000Y-153822999D03*
X279613000Y-155223000D03*
X285213000Y-155223001D03*
X285213000Y-153823000D03*
%TD*%
%TO.C,LED65*%
X247212000Y-69697001D03*
X247212000Y-68297000D03*
X241612000Y-68296999D03*
X241612000Y-69697000D03*
%TD*%
%TO.C,LED66*%
X251113000Y-96822999D03*
X251113000Y-98223000D03*
X256713000Y-98223001D03*
X256713000Y-96823000D03*
%TD*%
%TO.C,LED54*%
X284363000Y-134822999D03*
X284363000Y-136223000D03*
X289963000Y-136223001D03*
X289963000Y-134823000D03*
%TD*%
%TO.C,LED55*%
X289113000Y-96822999D03*
X289113000Y-98223000D03*
X294713000Y-98223001D03*
X294713000Y-96823000D03*
%TD*%
%TO.C,LED40*%
X355613000Y-115822999D03*
X355613000Y-117223000D03*
X361213000Y-117223001D03*
X361213000Y-115823000D03*
%TD*%
D11*
%TO.C,SW57*%
X204078000Y-128220000D03*
X217005000Y-125680000D03*
%TD*%
M02*
