%TF.GenerationSoftware,KiCad,Pcbnew,8.0.8*%
%TF.CreationDate,2025-04-15T16:41:43+09:00*%
%TF.ProjectId,sswkbd_right,7373776b-6264-45f7-9269-6768742e6b69,rev?*%
%TF.SameCoordinates,Original*%
%TF.FileFunction,Soldermask,Top*%
%TF.FilePolarity,Negative*%
%FSLAX46Y46*%
G04 Gerber Fmt 4.6, Leading zero omitted, Abs format (unit mm)*
G04 Created by KiCad (PCBNEW 8.0.8) date 2025-04-15 16:41:43*
%MOMM*%
%LPD*%
G01*
G04 APERTURE LIST*
%ADD10R,1.397000X1.397000*%
%ADD11R,0.950000X1.300000*%
%ADD12C,1.397000*%
%ADD13C,1.750000*%
%ADD14C,3.000000*%
%ADD15C,3.987800*%
%ADD16C,3.048000*%
%ADD17R,1.700000X1.700000*%
%ADD18O,1.700000X1.700000*%
%ADD19C,1.524000*%
%ADD20R,2.500000X2.500000*%
%ADD21C,1.500000*%
G04 APERTURE END LIST*
D10*
%TO.C,D32*%
X366509249Y-98964950D03*
D11*
X366509249Y-96929950D03*
X366509249Y-93379950D03*
D12*
X366509249Y-91344950D03*
%TD*%
D13*
%TO.C,SW13*%
X296333000Y-73760000D03*
D14*
X297603000Y-71220000D03*
D15*
X301413000Y-73760000D03*
D14*
X303953000Y-68680000D03*
D13*
X306493000Y-73760000D03*
%TD*%
D10*
%TO.C,D73*%
X243034249Y-156014950D03*
D11*
X243034249Y-153979950D03*
X243034249Y-150429950D03*
D12*
X243034249Y-148394950D03*
%TD*%
D10*
%TO.C,D46*%
X304759249Y-117989950D03*
D11*
X304759249Y-115954950D03*
X304759249Y-112404950D03*
D12*
X304759249Y-110369950D03*
%TD*%
D10*
%TO.C,D76*%
X309509249Y-156014950D03*
D11*
X309509249Y-153979950D03*
X309509249Y-150429950D03*
D12*
X309509249Y-148394950D03*
%TD*%
D10*
%TO.C,D74*%
X271509249Y-156014950D03*
D11*
X271509249Y-153979950D03*
X271509249Y-150429950D03*
D12*
X271509249Y-148394950D03*
%TD*%
D10*
%TO.C,D15*%
X347491000Y-79958000D03*
D11*
X347491000Y-77923000D03*
X347491000Y-74373000D03*
D12*
X347491000Y-72338000D03*
%TD*%
D10*
%TO.C,D44*%
X266759249Y-117989950D03*
D11*
X266759249Y-115954950D03*
X266759249Y-112404950D03*
D12*
X266759249Y-110369950D03*
%TD*%
D13*
%TO.C,SW28*%
X267833000Y-92760000D03*
D14*
X269103000Y-90220000D03*
D15*
X272913000Y-92760000D03*
D14*
X275453000Y-87680000D03*
D13*
X277993000Y-92760000D03*
%TD*%
%TO.C,SW75*%
X277333000Y-149760000D03*
D14*
X278603000Y-147220000D03*
D15*
X282413000Y-149760000D03*
D14*
X284953000Y-144680000D03*
D13*
X287493000Y-149760000D03*
%TD*%
D10*
%TO.C,D43*%
X247759249Y-117989950D03*
D11*
X247759249Y-115954950D03*
X247759249Y-112404950D03*
D12*
X247759249Y-110369950D03*
%TD*%
D10*
%TO.C,D41*%
X209759249Y-117989950D03*
D11*
X209759249Y-115954950D03*
X209759249Y-112404950D03*
D12*
X209759249Y-110369950D03*
%TD*%
D13*
%TO.C,SW8*%
X201333000Y-73760000D03*
D14*
X202603000Y-71220000D03*
D15*
X206413000Y-73760000D03*
D14*
X208953000Y-68680000D03*
D13*
X211493000Y-73760000D03*
%TD*%
%TO.C,SW26*%
X229833000Y-92760000D03*
D14*
X231103000Y-90220000D03*
D15*
X234913000Y-92760000D03*
D14*
X237453000Y-87680000D03*
D13*
X239993000Y-92760000D03*
%TD*%
D10*
%TO.C,D11*%
X271509249Y-79964950D03*
D11*
X271509249Y-77929950D03*
X271509249Y-74379950D03*
D12*
X271509249Y-72344950D03*
%TD*%
D13*
%TO.C,SW29*%
X286833000Y-92760000D03*
D14*
X288103000Y-90220000D03*
D15*
X291913000Y-92760000D03*
D14*
X294453000Y-87680000D03*
D13*
X296993000Y-92760000D03*
%TD*%
%TO.C,SW41*%
X196583000Y-111760000D03*
D14*
X197853000Y-109220000D03*
D15*
X201663000Y-111760000D03*
D14*
X204203000Y-106680000D03*
D13*
X206743000Y-111760000D03*
%TD*%
%TO.C,SW77*%
X315333000Y-149760000D03*
D14*
X316603000Y-147220000D03*
D15*
X320413000Y-149760000D03*
D14*
X322953000Y-144680000D03*
D13*
X325493000Y-149760000D03*
%TD*%
D15*
%TO.C,SW73*%
X223000000Y-141505000D03*
D16*
X223000000Y-156745000D03*
D13*
X229858000Y-149760000D03*
D14*
X231128000Y-147220000D03*
D15*
X234938000Y-149760000D03*
D14*
X237478000Y-144680000D03*
D13*
X240018000Y-149760000D03*
D15*
X246876000Y-141505000D03*
D16*
X246876000Y-156745000D03*
%TD*%
D13*
%TO.C,SW43*%
X234583000Y-111760000D03*
D14*
X235853000Y-109220000D03*
D15*
X239663000Y-111760000D03*
D14*
X242203000Y-106680000D03*
D13*
X244743000Y-111760000D03*
%TD*%
D10*
%TO.C,D59*%
X257259249Y-137014950D03*
D11*
X257259249Y-134979950D03*
X257259249Y-131429950D03*
D12*
X257259249Y-129394950D03*
%TD*%
D10*
%TO.C,D9*%
X216600000Y-79110000D03*
D11*
X216600000Y-77075000D03*
X216600000Y-73525000D03*
D12*
X216600000Y-71490000D03*
%TD*%
D10*
%TO.C,D42*%
X228759249Y-117989950D03*
D11*
X228759249Y-115954950D03*
X228759249Y-112404950D03*
D12*
X228759249Y-110369950D03*
%TD*%
D13*
%TO.C,SW76*%
X296333000Y-149760000D03*
D14*
X297603000Y-147220000D03*
D15*
X301413000Y-149760000D03*
D14*
X303953000Y-144680000D03*
D13*
X306493000Y-149760000D03*
%TD*%
D10*
%TO.C,D64*%
X366509249Y-137014950D03*
D11*
X366509249Y-134979950D03*
X366509249Y-131429950D03*
D12*
X366509249Y-129394950D03*
%TD*%
D13*
%TO.C,SW24*%
X191833000Y-92760000D03*
D14*
X193103000Y-90220000D03*
D15*
X196913000Y-92760000D03*
D14*
X199453000Y-87680000D03*
D13*
X201993000Y-92760000D03*
%TD*%
D17*
%TO.C,J4*%
X347775000Y-114100000D03*
D18*
X345235000Y-114100000D03*
%TD*%
D13*
%TO.C,SW10*%
X249493000Y-73760000D03*
D14*
X248223000Y-76300000D03*
D15*
X244413000Y-73760000D03*
D14*
X241873000Y-78840000D03*
D13*
X239333000Y-73760000D03*
%TD*%
%TO.C,SW79*%
X353333000Y-149760000D03*
D14*
X354603000Y-147220000D03*
D15*
X358413000Y-149760000D03*
D14*
X360953000Y-144680000D03*
D13*
X363493000Y-149760000D03*
%TD*%
%TO.C,SW78*%
X334333000Y-149760000D03*
D14*
X335603000Y-147220000D03*
D15*
X339413000Y-149760000D03*
D14*
X341953000Y-144680000D03*
D13*
X344493000Y-149760000D03*
%TD*%
D10*
%TO.C,D8*%
X214509249Y-79964950D03*
D11*
X214509249Y-77929950D03*
X214509249Y-74379950D03*
D12*
X214509249Y-72344950D03*
%TD*%
D10*
%TO.C,D45*%
X285759249Y-117989950D03*
D11*
X285759249Y-115954950D03*
X285759249Y-112404950D03*
D12*
X285759249Y-110369950D03*
%TD*%
D10*
%TO.C,D24*%
X205009249Y-98964950D03*
D11*
X205009249Y-96929950D03*
X205009249Y-93379950D03*
D12*
X205009249Y-91344950D03*
%TD*%
D13*
%TO.C,SW58*%
X225083000Y-130760000D03*
D14*
X226353000Y-128220000D03*
D15*
X230163000Y-130760000D03*
D14*
X232703000Y-125680000D03*
D13*
X235243000Y-130760000D03*
%TD*%
D10*
%TO.C,D26*%
X243009249Y-98964950D03*
D11*
X243009249Y-96929950D03*
X243009249Y-93379950D03*
D12*
X243009249Y-91344950D03*
%TD*%
D10*
%TO.C,D14*%
X338034249Y-79964950D03*
D11*
X338034249Y-77929950D03*
X338034249Y-74379950D03*
D12*
X338034249Y-72344950D03*
%TD*%
D10*
%TO.C,D12*%
X290509249Y-79964950D03*
D11*
X290509249Y-77929950D03*
X290509249Y-74379950D03*
D12*
X290509249Y-72344950D03*
%TD*%
D13*
%TO.C,SW59*%
X244083000Y-130760000D03*
D14*
X245353000Y-128220000D03*
D15*
X249163000Y-130760000D03*
D14*
X251703000Y-125680000D03*
D13*
X254243000Y-130760000D03*
%TD*%
%TO.C,SW64*%
X353333000Y-130760000D03*
D14*
X354603000Y-128220000D03*
D15*
X358413000Y-130760000D03*
D14*
X360953000Y-125680000D03*
D13*
X363493000Y-130760000D03*
%TD*%
D16*
%TO.C,SW14*%
X317975000Y-66775000D03*
D15*
X317975000Y-82015000D03*
D13*
X324833000Y-73760000D03*
D14*
X326103000Y-71220000D03*
D15*
X329913000Y-73760000D03*
D14*
X332453000Y-68680000D03*
D13*
X334993000Y-73760000D03*
D16*
X341851000Y-66775000D03*
D15*
X341851000Y-82015000D03*
%TD*%
D13*
%TO.C,SW63*%
X334333000Y-130760000D03*
D14*
X335603000Y-128220000D03*
D15*
X339413000Y-130760000D03*
D14*
X341953000Y-125680000D03*
D13*
X344493000Y-130760000D03*
%TD*%
D10*
%TO.C,D29*%
X300009249Y-98964950D03*
D11*
X300009249Y-96929950D03*
X300009249Y-93379950D03*
D12*
X300009249Y-91344950D03*
%TD*%
D13*
%TO.C,SW60*%
X263083000Y-130760000D03*
D14*
X264353000Y-128220000D03*
D15*
X268163000Y-130760000D03*
D14*
X270703000Y-125680000D03*
D13*
X273243000Y-130760000D03*
%TD*%
%TO.C,SW9*%
X230493000Y-73760000D03*
D14*
X229223000Y-76300000D03*
D15*
X225413000Y-73760000D03*
D14*
X222873000Y-78840000D03*
D13*
X220333000Y-73760000D03*
%TD*%
%TO.C,SW12*%
X277333000Y-73760000D03*
D14*
X278603000Y-71220000D03*
D15*
X282413000Y-73760000D03*
D14*
X284953000Y-68680000D03*
D13*
X287493000Y-73760000D03*
%TD*%
D10*
%TO.C,D47*%
X335659249Y-117989950D03*
D11*
X335659249Y-115954950D03*
X335659249Y-112404950D03*
D12*
X335659249Y-110369950D03*
%TD*%
D13*
%TO.C,SW27*%
X248833000Y-92760000D03*
D14*
X250103000Y-90220000D03*
D15*
X253913000Y-92760000D03*
D14*
X256453000Y-87680000D03*
D13*
X258993000Y-92760000D03*
%TD*%
D10*
%TO.C,D62*%
X322550000Y-134260000D03*
D11*
X322550000Y-132225000D03*
X322550000Y-128675000D03*
D12*
X322550000Y-126640000D03*
%TD*%
D10*
%TO.C,D48*%
X366509249Y-117989950D03*
D11*
X366509249Y-115954950D03*
X366509249Y-112404950D03*
D12*
X366509249Y-110369950D03*
%TD*%
D16*
%TO.C,SW47*%
X315600000Y-104775000D03*
D15*
X315600000Y-120015000D03*
D13*
X322458000Y-111760000D03*
D14*
X323728000Y-109220000D03*
D15*
X327538000Y-111760000D03*
D14*
X330078000Y-106680000D03*
D13*
X332618000Y-111760000D03*
D16*
X339476000Y-104775000D03*
D15*
X339476000Y-120015000D03*
%TD*%
D10*
%TO.C,D25*%
X224009249Y-98964950D03*
D11*
X224009249Y-96929950D03*
X224009249Y-93379950D03*
D12*
X224009249Y-91344950D03*
%TD*%
D10*
%TO.C,D28*%
X281009249Y-98964950D03*
D11*
X281009249Y-96929950D03*
X281009249Y-93379950D03*
D12*
X281009249Y-91344950D03*
%TD*%
D10*
%TO.C,D61*%
X295259249Y-137014950D03*
D11*
X295259249Y-134979950D03*
X295259249Y-131429950D03*
D12*
X295259249Y-129394950D03*
%TD*%
D17*
%TO.C,J3*%
X231340000Y-67700000D03*
D18*
X233880000Y-67700000D03*
X236420000Y-67700000D03*
X238960000Y-67700000D03*
%TD*%
D10*
%TO.C,D77*%
X328509249Y-156014950D03*
D11*
X328509249Y-153979950D03*
X328509249Y-150429950D03*
D12*
X328509249Y-148394950D03*
%TD*%
D19*
%TO.C,U2*%
X305200000Y-123090000D03*
X307740000Y-123090000D03*
X310280000Y-123090000D03*
X312820000Y-123090000D03*
X315360000Y-123090000D03*
X317900000Y-123090000D03*
X320440000Y-123090000D03*
X322980000Y-123090000D03*
X325520000Y-123090000D03*
X328060000Y-123090000D03*
X330600000Y-123090000D03*
X333140000Y-123090000D03*
X333140000Y-138310000D03*
X330600000Y-138310000D03*
X328060000Y-138310000D03*
X325520000Y-138310000D03*
X322980000Y-138310000D03*
X320440000Y-138310000D03*
X317900000Y-138310000D03*
X315360000Y-138310000D03*
X312820000Y-138310000D03*
X310280000Y-138310000D03*
X307740000Y-138310000D03*
X305200000Y-138310000D03*
%TD*%
D10*
%TO.C,D10*%
X236000000Y-80410000D03*
D11*
X236000000Y-78375000D03*
X236000000Y-74825000D03*
D12*
X236000000Y-72790000D03*
%TD*%
D10*
%TO.C,D57*%
X219259249Y-137014950D03*
D11*
X219259249Y-134979950D03*
X219259249Y-131429950D03*
D12*
X219259249Y-129394950D03*
%TD*%
D10*
%TO.C,D75*%
X290509249Y-156014950D03*
D11*
X290509249Y-153979950D03*
X290509249Y-150429950D03*
D12*
X290509249Y-148394950D03*
%TD*%
D13*
%TO.C,SW62*%
X308208000Y-130760000D03*
D14*
X309478000Y-128220000D03*
D15*
X313288000Y-130760000D03*
D14*
X315828000Y-125680000D03*
D13*
X318368000Y-130760000D03*
%TD*%
%TO.C,SW31*%
X329583000Y-92760000D03*
D14*
X330853000Y-90220000D03*
D15*
X334663000Y-92760000D03*
D14*
X337203000Y-87680000D03*
D13*
X339743000Y-92760000D03*
%TD*%
D10*
%TO.C,D60*%
X276259249Y-137014950D03*
D11*
X276259249Y-134979950D03*
X276259249Y-131429950D03*
D12*
X276259249Y-129394950D03*
%TD*%
D13*
%TO.C,SW61*%
X282083000Y-130760000D03*
D14*
X283353000Y-128220000D03*
D15*
X287163000Y-130760000D03*
D14*
X289703000Y-125680000D03*
D13*
X292243000Y-130760000D03*
%TD*%
%TO.C,SW48*%
X353333000Y-111760000D03*
D14*
X354603000Y-109220000D03*
D15*
X358413000Y-111760000D03*
D14*
X360953000Y-106680000D03*
D13*
X363493000Y-111760000D03*
%TD*%
D10*
%TO.C,D13*%
X309509249Y-79964950D03*
D11*
X309509249Y-77929950D03*
X309509249Y-74379950D03*
D12*
X309509249Y-72344950D03*
%TD*%
D10*
%TO.C,D27*%
X262009249Y-98964950D03*
D11*
X262009249Y-96929950D03*
X262009249Y-93379950D03*
D12*
X262009249Y-91344950D03*
%TD*%
D13*
%TO.C,SW30*%
X305833000Y-92760000D03*
D14*
X307103000Y-90220000D03*
D15*
X310913000Y-92760000D03*
D14*
X313453000Y-87680000D03*
D13*
X315993000Y-92760000D03*
%TD*%
%TO.C,SW32*%
X353333000Y-92760000D03*
D14*
X354603000Y-90220000D03*
D15*
X358413000Y-92760000D03*
D14*
X360953000Y-87680000D03*
D13*
X363493000Y-92760000D03*
%TD*%
%TO.C,SW11*%
X258333000Y-73760000D03*
D14*
X259603000Y-71220000D03*
D15*
X263413000Y-73760000D03*
D14*
X265953000Y-68680000D03*
D13*
X268493000Y-73760000D03*
%TD*%
%TO.C,SW25*%
X210833000Y-92760000D03*
D14*
X212103000Y-90220000D03*
D15*
X215913000Y-92760000D03*
D14*
X218453000Y-87680000D03*
D13*
X220993000Y-92760000D03*
%TD*%
D10*
%TO.C,D79*%
X366509249Y-156014950D03*
D11*
X366509249Y-153979950D03*
X366509249Y-150429950D03*
D12*
X366509249Y-148394950D03*
%TD*%
D13*
%TO.C,SW72*%
X201333000Y-149760000D03*
D14*
X202603000Y-147220000D03*
D15*
X206413000Y-149760000D03*
D14*
X208953000Y-144680000D03*
D13*
X211493000Y-149760000D03*
%TD*%
D17*
%TO.C,SW81*%
X219075000Y-66400000D03*
D18*
X216535000Y-66400000D03*
%TD*%
D10*
%TO.C,D78*%
X347509249Y-156014950D03*
D11*
X347509249Y-153979950D03*
X347509249Y-150429950D03*
D12*
X347509249Y-148394950D03*
%TD*%
D13*
%TO.C,SW44*%
X253583000Y-111760000D03*
D14*
X254853000Y-109220000D03*
D15*
X258663000Y-111760000D03*
D14*
X261203000Y-106680000D03*
D13*
X263743000Y-111760000D03*
%TD*%
D10*
%TO.C,D58*%
X238259249Y-137014950D03*
D11*
X238259249Y-134979950D03*
X238259249Y-131429950D03*
D12*
X238259249Y-129394950D03*
%TD*%
D13*
%TO.C,SW74*%
X258333000Y-149760000D03*
D14*
X259603000Y-147220000D03*
D15*
X263413000Y-149760000D03*
D14*
X265953000Y-144680000D03*
D13*
X268493000Y-149760000D03*
%TD*%
%TO.C,SW42*%
X215583000Y-111760000D03*
D14*
X216853000Y-109220000D03*
D15*
X220663000Y-111760000D03*
D14*
X223203000Y-106680000D03*
D13*
X225743000Y-111760000D03*
%TD*%
D10*
%TO.C,D31*%
X342784249Y-98964950D03*
D11*
X342784249Y-96929950D03*
X342784249Y-93379950D03*
D12*
X342784249Y-91344950D03*
%TD*%
D10*
%TO.C,D72*%
X214509249Y-156014950D03*
D11*
X214509249Y-153979950D03*
X214509249Y-150429950D03*
D12*
X214509249Y-148394950D03*
%TD*%
D13*
%TO.C,SW45*%
X272583000Y-111760000D03*
D14*
X273853000Y-109220000D03*
D15*
X277663000Y-111760000D03*
D14*
X280203000Y-106680000D03*
D13*
X282743000Y-111760000D03*
%TD*%
D10*
%TO.C,D30*%
X319009249Y-98964950D03*
D11*
X319009249Y-96929950D03*
X319009249Y-93379950D03*
D12*
X319009249Y-91344950D03*
%TD*%
D10*
%TO.C,D63*%
X347509249Y-137014950D03*
D11*
X347509249Y-134979950D03*
X347509249Y-131429950D03*
D12*
X347509249Y-129394950D03*
%TD*%
D13*
%TO.C,SW46*%
X291583000Y-111760000D03*
D14*
X292853000Y-109220000D03*
D15*
X296663000Y-111760000D03*
D14*
X299203000Y-106680000D03*
D13*
X301743000Y-111760000D03*
%TD*%
D20*
%TO.C,SW15*%
X367913000Y-71760000D03*
X352913000Y-71760000D03*
D21*
X357913000Y-79260000D03*
X362913000Y-79260000D03*
X360413000Y-79260000D03*
X362913000Y-64160000D03*
X357913000Y-64160000D03*
%TD*%
D13*
%TO.C,SW57*%
X206083000Y-130760000D03*
D14*
X207353000Y-128220000D03*
D15*
X211163000Y-130760000D03*
D14*
X213703000Y-125680000D03*
D13*
X216243000Y-130760000D03*
%TD*%
M02*
