M48
; DRILL file {KiCad 8.0.8} date 2025-04-15T16:42:05+0900
; FORMAT={-:-/ absolute / inch / decimal}
; #@! TF.CreationDate,2025-04-15T16:42:05+09:00
; #@! TF.GenerationSoftware,Kicad,Pcbnew,8.0.8
; #@! TF.FileFunction,NonPlated,1,2,NPTH
FMAT,2
INCH
; #@! TA.AperFunction,NonPlated,NPTH,ComponentDrill
T1C0.0689
; #@! TA.AperFunction,NonPlated,NPTH,ComponentDrill
T2C0.1181
; #@! TA.AperFunction,NonPlated,NPTH,ComponentDrill
T3C0.1200
; #@! TA.AperFunction,NonPlated,NPTH,ComponentDrill
T4C0.1570
%
G90
G05
T1
X7.5525Y-3.652
X7.7395Y-4.4
X7.9265Y-2.9039
X7.9265Y-5.8961
X7.9525Y-3.652
X8.1135Y-5.148
X8.1395Y-4.4
X8.3005Y-3.652
X8.3265Y-2.9039
X8.3265Y-5.8961
X8.4875Y-4.4
X8.5135Y-5.148
X8.6745Y-2.9039
X8.7005Y-3.652
X8.8615Y-5.148
X8.8875Y-4.4
X9.0485Y-3.652
X9.0495Y-5.8961
X9.0745Y-2.9039
X9.2356Y-4.4
X9.2615Y-5.148
X9.4226Y-2.9039
X9.4485Y-3.652
X9.4495Y-5.8961
X9.6096Y-5.148
X9.6356Y-4.4
X9.7966Y-3.652
X9.8226Y-2.9039
X9.9836Y-4.4
X10.0096Y-5.148
X10.1706Y-2.9039
X10.1706Y-5.8961
X10.1966Y-3.652
X10.3576Y-5.148
X10.3836Y-4.4
X10.5446Y-3.652
X10.5706Y-2.9039
X10.5706Y-5.8961
X10.7316Y-4.4
X10.7576Y-5.148
X10.9186Y-2.9039
X10.9186Y-5.8961
X10.9446Y-3.652
X11.1056Y-5.148
X11.1316Y-4.4
X11.2926Y-3.652
X11.3186Y-2.9039
X11.3186Y-5.8961
X11.4796Y-4.4
X11.5056Y-5.148
X11.6667Y-2.9039
X11.6667Y-5.8961
X11.6926Y-3.652
X11.8796Y-4.4
X12.0407Y-3.652
X12.0667Y-2.9039
X12.0667Y-5.8961
X12.1342Y-5.148
X12.4147Y-5.8961
X12.4407Y-3.652
X12.5342Y-5.148
X12.6952Y-4.4
X12.7887Y-2.9039
X12.8147Y-5.8961
X12.9757Y-3.652
X13.0952Y-4.4
X13.1627Y-5.148
X13.1627Y-5.8961
X13.1887Y-2.9039
X13.3757Y-3.652
X13.5627Y-5.148
X13.5627Y-5.8961
X13.9107Y-3.652
X13.9107Y-4.4
X13.9107Y-5.148
X13.9107Y-5.8961
X14.3107Y-3.652
X14.3107Y-4.4
X14.3107Y-5.148
X14.3107Y-5.8961
T2
X7.6025Y-3.552
X7.7895Y-4.3
X7.8525Y-3.452
X7.9765Y-2.8039
X7.9765Y-5.7961
X8.0395Y-4.2
X8.1635Y-5.048
X8.2265Y-2.7039
X8.2265Y-5.6961
X8.3505Y-3.552
X8.4135Y-4.948
X8.5375Y-4.3
X8.6005Y-3.452
X8.7745Y-3.1039
X8.7875Y-4.2
X8.9115Y-5.048
X9.0245Y-3.0039
X9.0985Y-3.552
X9.0995Y-5.7961
X9.1615Y-4.948
X9.2856Y-4.3
X9.3485Y-3.452
X9.3495Y-5.6961
X9.5226Y-3.1039
X9.5356Y-4.2
X9.6596Y-5.048
X9.7726Y-3.0039
X9.8466Y-3.552
X9.9096Y-4.948
X10.0336Y-4.3
X10.0966Y-3.452
X10.2206Y-2.8039
X10.2206Y-5.7961
X10.2836Y-4.2
X10.4076Y-5.048
X10.4706Y-2.7039
X10.4706Y-5.6961
X10.5946Y-3.552
X10.6576Y-4.948
X10.7816Y-4.3
X10.8446Y-3.452
X10.9686Y-2.8039
X10.9686Y-5.7961
X11.0316Y-4.2
X11.1556Y-5.048
X11.2186Y-2.7039
X11.2186Y-5.6961
X11.3426Y-3.552
X11.4056Y-4.948
X11.5296Y-4.3
X11.5926Y-3.452
X11.7167Y-2.8039
X11.7167Y-5.7961
X11.7796Y-4.2
X11.9667Y-2.7039
X11.9667Y-5.6961
X12.0907Y-3.552
X12.1842Y-5.048
X12.3407Y-3.452
X12.4342Y-4.948
X12.4647Y-5.7961
X12.7147Y-5.6961
X12.7452Y-4.3
X12.8387Y-2.8039
X12.9952Y-4.2
X13.0257Y-3.552
X13.0887Y-2.7039
X13.2127Y-5.048
X13.2127Y-5.7961
X13.2757Y-3.452
X13.4627Y-4.948
X13.4627Y-5.6961
X13.9607Y-3.552
X13.9607Y-4.3
X13.9607Y-5.048
X13.9607Y-5.7961
X14.2107Y-3.452
X14.2107Y-4.2
X14.2107Y-4.948
X14.2107Y-5.6961
T3
X8.7795Y-6.1711
X9.7195Y-6.1711
X12.4252Y-4.125
X12.5187Y-2.6289
X13.3652Y-4.125
X13.4587Y-2.6289
T4
X7.7525Y-3.652
X7.9395Y-4.4
X8.1265Y-2.9039
X8.1265Y-5.8961
X8.3135Y-5.148
X8.5005Y-3.652
X8.6875Y-4.4
X8.7795Y-5.5711
X8.8745Y-2.9039
X9.0615Y-5.148
X9.2485Y-3.652
X9.2495Y-5.8961
X9.4356Y-4.4
X9.6226Y-2.9039
X9.7195Y-5.5711
X9.8096Y-5.148
X9.9966Y-3.652
X10.1836Y-4.4
X10.3706Y-2.9039
X10.3706Y-5.8961
X10.5576Y-5.148
X10.7446Y-3.652
X10.9316Y-4.4
X11.1186Y-2.9039
X11.1186Y-5.8961
X11.3056Y-5.148
X11.4926Y-3.652
X11.6796Y-4.4
X11.8667Y-2.9039
X11.8667Y-5.8961
X12.2407Y-3.652
X12.3342Y-5.148
X12.4252Y-4.725
X12.5187Y-3.2289
X12.6147Y-5.8961
X12.8952Y-4.4
X12.9887Y-2.9039
X13.1757Y-3.652
X13.3627Y-5.148
X13.3627Y-5.8961
X13.3652Y-4.725
X13.4587Y-3.2289
X14.1107Y-3.652
X14.1107Y-4.4
X14.1107Y-5.148
X14.1107Y-5.8961
M30
