%TF.GenerationSoftware,KiCad,Pcbnew,8.0.8*%
%TF.CreationDate,2025-04-15T16:41:42+09:00*%
%TF.ProjectId,sswkbd_right,7373776b-6264-45f7-9269-6768742e6b69,rev?*%
%TF.SameCoordinates,Original*%
%TF.FileFunction,Paste,Top*%
%TF.FilePolarity,Positive*%
%FSLAX46Y46*%
G04 Gerber Fmt 4.6, Leading zero omitted, Abs format (unit mm)*
G04 Created by KiCad (PCBNEW 8.0.8) date 2025-04-15 16:41:42*
%MOMM*%
%LPD*%
G01*
G04 APERTURE LIST*
%ADD10R,0.950000X1.300000*%
G04 APERTURE END LIST*
D10*
%TO.C,D32*%
X366509249Y-96929950D03*
X366509249Y-93379950D03*
%TD*%
%TO.C,D73*%
X243034249Y-153979950D03*
X243034249Y-150429950D03*
%TD*%
%TO.C,D46*%
X304759249Y-115954950D03*
X304759249Y-112404950D03*
%TD*%
%TO.C,D76*%
X309509249Y-153979950D03*
X309509249Y-150429950D03*
%TD*%
%TO.C,D74*%
X271509249Y-153979950D03*
X271509249Y-150429950D03*
%TD*%
%TO.C,D15*%
X347491000Y-77923000D03*
X347491000Y-74373000D03*
%TD*%
%TO.C,D44*%
X266759249Y-115954950D03*
X266759249Y-112404950D03*
%TD*%
%TO.C,D43*%
X247759249Y-115954950D03*
X247759249Y-112404950D03*
%TD*%
%TO.C,D41*%
X209759249Y-115954950D03*
X209759249Y-112404950D03*
%TD*%
%TO.C,D11*%
X271509249Y-77929950D03*
X271509249Y-74379950D03*
%TD*%
%TO.C,D59*%
X257259249Y-134979950D03*
X257259249Y-131429950D03*
%TD*%
%TO.C,D9*%
X216600000Y-77075000D03*
X216600000Y-73525000D03*
%TD*%
%TO.C,D42*%
X228759249Y-115954950D03*
X228759249Y-112404950D03*
%TD*%
%TO.C,D64*%
X366509249Y-134979950D03*
X366509249Y-131429950D03*
%TD*%
%TO.C,D8*%
X214509249Y-77929950D03*
X214509249Y-74379950D03*
%TD*%
%TO.C,D45*%
X285759249Y-115954950D03*
X285759249Y-112404950D03*
%TD*%
%TO.C,D24*%
X205009249Y-96929950D03*
X205009249Y-93379950D03*
%TD*%
%TO.C,D26*%
X243009249Y-96929950D03*
X243009249Y-93379950D03*
%TD*%
%TO.C,D14*%
X338034249Y-77929950D03*
X338034249Y-74379950D03*
%TD*%
%TO.C,D12*%
X290509249Y-77929950D03*
X290509249Y-74379950D03*
%TD*%
%TO.C,D29*%
X300009249Y-96929950D03*
X300009249Y-93379950D03*
%TD*%
%TO.C,D47*%
X335659249Y-115954950D03*
X335659249Y-112404950D03*
%TD*%
%TO.C,D62*%
X322550000Y-132225000D03*
X322550000Y-128675000D03*
%TD*%
%TO.C,D48*%
X366509249Y-115954950D03*
X366509249Y-112404950D03*
%TD*%
%TO.C,D25*%
X224009249Y-96929950D03*
X224009249Y-93379950D03*
%TD*%
%TO.C,D28*%
X281009249Y-96929950D03*
X281009249Y-93379950D03*
%TD*%
%TO.C,D61*%
X295259249Y-134979950D03*
X295259249Y-131429950D03*
%TD*%
%TO.C,D77*%
X328509249Y-153979950D03*
X328509249Y-150429950D03*
%TD*%
%TO.C,D10*%
X236000000Y-78375000D03*
X236000000Y-74825000D03*
%TD*%
%TO.C,D57*%
X219259249Y-134979950D03*
X219259249Y-131429950D03*
%TD*%
%TO.C,D75*%
X290509249Y-153979950D03*
X290509249Y-150429950D03*
%TD*%
%TO.C,D60*%
X276259249Y-134979950D03*
X276259249Y-131429950D03*
%TD*%
%TO.C,D13*%
X309509249Y-77929950D03*
X309509249Y-74379950D03*
%TD*%
%TO.C,D27*%
X262009249Y-96929950D03*
X262009249Y-93379950D03*
%TD*%
%TO.C,D79*%
X366509249Y-153979950D03*
X366509249Y-150429950D03*
%TD*%
%TO.C,D78*%
X347509249Y-153979950D03*
X347509249Y-150429950D03*
%TD*%
%TO.C,D58*%
X238259249Y-134979950D03*
X238259249Y-131429950D03*
%TD*%
%TO.C,D31*%
X342784249Y-96929950D03*
X342784249Y-93379950D03*
%TD*%
%TO.C,D72*%
X214509249Y-153979950D03*
X214509249Y-150429950D03*
%TD*%
%TO.C,D30*%
X319009249Y-96929950D03*
X319009249Y-93379950D03*
%TD*%
%TO.C,D63*%
X347509249Y-134979950D03*
X347509249Y-131429950D03*
%TD*%
M02*
